<svg xmlns="http://www.w3.org/2000/svg" width="1009" height="320" viewBox="0 0 1009 320">
  <g id="Grupo_53268" data-name="Grupo 53268" transform="translate(-178 -829)">
    <path id="Trazado_98912" data-name="Trazado 98912" d="M10,0H655a10,10,0,0,1,10,10V310a10,10,0,0,1-10,10H10A10,10,0,0,1,0,310V10A10,10,0,0,1,10,0Z" transform="translate(178 829)" fill="#dbf6f9"/>
    <g id="Trazado_98913" data-name="Trazado 98913" transform="translate(907 948)" fill="#e1fcff">
      <path d="M 275 161.5 L 5 161.5 C 2.518678665161133 161.5 0.5 159.4813232421875 0.5 157 L 0.5 5 C 0.5 2.518678665161133 2.518678665161133 0.5 5 0.5 L 275 0.5 C 277.4813232421875 0.5 279.5 2.518678665161133 279.5 5 L 279.5 157 C 279.5 159.4813232421875 277.4813232421875 161.5 275 161.5 Z" stroke="none"/>
      <path d="M 5 1 C 2.794403076171875 1 1 2.794387817382813 1 5 L 1 157 C 1 159.2056121826172 2.794403076171875 161 5 161 L 275 161 C 277.2055969238281 161 279 159.2056121826172 279 157 L 279 5 C 279 2.794387817382813 277.2055969238281 1 275 1 L 5 1 M 5 0 L 275 0 C 277.7613830566406 0 280 2.238571166992188 280 5 L 280 157 C 280 159.7614288330078 277.7613830566406 162 275 162 L 5 162 C 2.23858642578125 162 0 159.7614288330078 0 157 L 0 5 C 0 2.238571166992188 2.23858642578125 0 5 0 Z" stroke="none" fill="#4dd0e1"/>
    </g>
    <path id="Trazado_98914" data-name="Trazado 98914" d="M5,0H275a5,5,0,0,1,5,5V53a5,5,0,0,1-5,5H5a5,5,0,0,1-5-5V5A5,5,0,0,1,5,0Z" transform="translate(907 870)" fill="#4dd0e1"/>
    <path id="Icon_awesome-arrow-alt-circle-down" data-name="Icon awesome-arrow-alt-circle-down" d="M34.875,17.438A17.438,17.438,0,1,1,17.438,0,17.434,17.434,0,0,1,34.875,17.438ZM14.344,9.281v8.156H9.359a.844.844,0,0,0-.6,1.441l8.079,8.037a.836.836,0,0,0,1.188,0l8.079-8.037a.844.844,0,0,0-.6-1.441H20.531V9.281a.846.846,0,0,0-.844-.844h-4.5A.846.846,0,0,0,14.344,9.281Z" transform="translate(859.295 916.438) rotate(-90)" fill="#1565c0"/>
    <path id="Trazado_98915" data-name="Trazado 98915" d="M3.92,0H1.354V-12.8H3.92ZM8.648-9.51l.105,1.257A3.2,3.2,0,0,1,9.9-9.312a3.3,3.3,0,0,1,1.6-.374,2.905,2.905,0,0,1,1.564.4,2.494,2.494,0,0,1,.984,1.222,3.3,3.3,0,0,1,1.143-1.2,3.1,3.1,0,0,1,1.652-.431,2.71,2.71,0,0,1,2.219,1,4.762,4.762,0,0,1,.813,3.045V0H17.306V-5.651a2.665,2.665,0,0,0-.352-1.591,1.248,1.248,0,0,0-1.046-.448,1.792,1.792,0,0,0-.945.242,1.761,1.761,0,0,0-.637.672q0,.167.009.286t.009.242V0H11.786V-5.651a2.673,2.673,0,0,0-.352-1.578A1.242,1.242,0,0,0,10.38-7.69a1.991,1.991,0,0,0-.91.2,1.745,1.745,0,0,0-.646.558V0H6.267V-9.51ZM30.419-4.491A5.462,5.462,0,0,1,29.443-1.1,3.227,3.227,0,0,1,26.719.185a3.045,3.045,0,0,1-1.327-.277A2.726,2.726,0,0,1,24.4-.905V3.656H21.841V-9.51h2.312L24.3-8.385a3.047,3.047,0,0,1,1.015-.962A2.746,2.746,0,0,1,26.7-9.686a3.165,3.165,0,0,1,2.742,1.38,6.159,6.159,0,0,1,.976,3.63Zm-2.566-.185a4.6,4.6,0,0,0-.448-2.18,1.462,1.462,0,0,0-1.371-.835,1.938,1.938,0,0,0-.989.237,1.693,1.693,0,0,0-.646.677V-2.61A1.573,1.573,0,0,0,25.044-2a2.176,2.176,0,0,0,1.006.211,1.476,1.476,0,0,0,1.367-.729,3.851,3.851,0,0,0,.435-1.978ZM34.7,0H32.133V-13.711H34.7Zm6.231.185a4.279,4.279,0,0,1-3.322-1.305,4.784,4.784,0,0,1-1.2-3.362v-.352a5.207,5.207,0,0,1,1.16-3.5,3.944,3.944,0,0,1,3.19-1.354A3.692,3.692,0,0,1,43.7-8.512a4.637,4.637,0,0,1,1.024,3.16v1.327H39.059l-.026.053a2.569,2.569,0,0,0,.593,1.582,1.987,1.987,0,0,0,1.578.606,5.279,5.279,0,0,0,1.463-.176A5.971,5.971,0,0,0,43.91-2.5L44.6-.914a4.764,4.764,0,0,1-1.547.782A6.86,6.86,0,0,1,40.931.185Zm-.167-7.893a1.425,1.425,0,0,0-1.191.532,2.667,2.667,0,0,0-.505,1.411l.018.044h3.129v-.193a2.221,2.221,0,0,0-.343-1.314A1.268,1.268,0,0,0,40.764-7.708Zm7.84-1.8.105,1.257a3.2,3.2,0,0,1,1.147-1.059,3.3,3.3,0,0,1,1.6-.374,2.905,2.905,0,0,1,1.564.4A2.494,2.494,0,0,1,54-8.06a3.3,3.3,0,0,1,1.143-1.2,3.1,3.1,0,0,1,1.652-.431,2.71,2.71,0,0,1,2.219,1,4.762,4.762,0,0,1,.813,3.045V0H57.261V-5.651a2.665,2.665,0,0,0-.352-1.591,1.248,1.248,0,0,0-1.046-.448,1.792,1.792,0,0,0-.945.242,1.761,1.761,0,0,0-.637.672q0,.167.009.286t.009.242V0H51.741V-5.651a2.673,2.673,0,0,0-.352-1.578,1.242,1.242,0,0,0-1.055-.461,1.991,1.991,0,0,0-.91.2,1.745,1.745,0,0,0-.646.558V0H46.222V-9.51ZM65.918.185A4.279,4.279,0,0,1,62.6-1.121a4.784,4.784,0,0,1-1.2-3.362v-.352a5.207,5.207,0,0,1,1.16-3.5,3.944,3.944,0,0,1,3.19-1.354,3.692,3.692,0,0,1,2.94,1.173,4.637,4.637,0,0,1,1.024,3.16v1.327H64.046l-.026.053a2.569,2.569,0,0,0,.593,1.582,1.987,1.987,0,0,0,1.578.606,5.279,5.279,0,0,0,1.463-.176A5.971,5.971,0,0,0,68.9-2.5l.694,1.582a4.764,4.764,0,0,1-1.547.782A6.86,6.86,0,0,1,65.918.185Zm-.167-7.893a1.425,1.425,0,0,0-1.191.532,2.667,2.667,0,0,0-.505,1.411l.018.044H67.2v-.193a2.221,2.221,0,0,0-.343-1.314A1.268,1.268,0,0,0,65.751-7.708Zm7.8-1.8.114,1.362a3.478,3.478,0,0,1,1.169-1.134,3.034,3.034,0,0,1,1.556-.4,2.828,2.828,0,0,1,2.25.927,4.4,4.4,0,0,1,.809,2.931V0H76.878V-5.818a2.277,2.277,0,0,0-.356-1.446,1.312,1.312,0,0,0-1.068-.426,2.241,2.241,0,0,0-1.006.215,1.965,1.965,0,0,0-.716.593V0H71.165V-9.51Zm10.89-2.329V-9.51h1.608v1.8H84.445v4.843a1.105,1.105,0,0,0,.233.791.818.818,0,0,0,.611.237,2.45,2.45,0,0,0,.352-.022,2.961,2.961,0,0,0,.343-.075l.211,1.854a5.2,5.2,0,0,1-.751.2,4.48,4.48,0,0,1-.8.066A2.735,2.735,0,0,1,82.6-.545a3.2,3.2,0,0,1-.716-2.312V-7.708H80.5v-1.8h1.389v-2.329ZM93.243,0A5.4,5.4,0,0,1,93-.686a4.769,4.769,0,0,1-.145-.738A3.518,3.518,0,0,1,91.811-.272a2.621,2.621,0,0,1-1.547.457,3.211,3.211,0,0,1-2.3-.769,2.755,2.755,0,0,1-.809-2.1,2.508,2.508,0,0,1,1.077-2.167,5.377,5.377,0,0,1,3.142-.769h1.441v-.756a1.48,1.48,0,0,0-.36-1.063,1.414,1.414,0,0,0-1.072-.378,1.394,1.394,0,0,0-.962.3,1.059,1.059,0,0,0-.338.831h-2.47l-.018-.053a2.412,2.412,0,0,1,1.05-2.079,4.562,4.562,0,0,1,2.9-.875,4.257,4.257,0,0,1,2.773.861,3,3,0,0,1,1.059,2.47v3.929a7.431,7.431,0,0,0,.1,1.257A6.307,6.307,0,0,0,95.8,0ZM90.9-1.714a2.187,2.187,0,0,0,1.2-.334,1.8,1.8,0,0,0,.721-.773V-4.166H91.371a1.708,1.708,0,0,0-1.235.4,1.329,1.329,0,0,0-.417.993A.992.992,0,0,0,90.031-2,1.234,1.234,0,0,0,90.9-1.714Zm10.38-.07a1.428,1.428,0,0,0,1.063-.4,1.452,1.452,0,0,0,.4-1.068h2.338l.018.053a2.976,2.976,0,0,1-1.072,2.413,4.01,4.01,0,0,1-2.742.971,4.052,4.052,0,0,1-3.261-1.349,5.128,5.128,0,0,1-1.151-3.45v-.264a5.161,5.161,0,0,1,1.147-3.45,4.016,4.016,0,0,1,3.248-1.358,3.922,3.922,0,0,1,2.8,1,3.348,3.348,0,0,1,1.028,2.637l-.018.053h-2.338a1.9,1.9,0,0,0-.391-1.226,1.314,1.314,0,0,0-1.085-.488,1.465,1.465,0,0,0-1.411.8,4.362,4.362,0,0,0-.417,2.035v.264a4.346,4.346,0,0,0,.417,2.048A1.485,1.485,0,0,0,101.276-1.784ZM109.283,0h-2.566V-9.51h2.566Zm0-11.786h-2.566v-1.925h2.566ZM111-4.843a5.1,5.1,0,0,1,1.187-3.485,4.136,4.136,0,0,1,3.287-1.358,4.18,4.18,0,0,1,3.3,1.354,5.076,5.076,0,0,1,1.2,3.489v.185a5.084,5.084,0,0,1-1.191,3.494A4.162,4.162,0,0,1,115.488.185a4.173,4.173,0,0,1-3.3-1.349A5.084,5.084,0,0,1,111-4.658Zm2.558.185a4.137,4.137,0,0,0,.457,2.087,1.578,1.578,0,0,0,1.477.787,1.562,1.562,0,0,0,1.455-.791,4.11,4.11,0,0,0,.461-2.083v-.185a4.068,4.068,0,0,0-.466-2.065,1.576,1.576,0,0,0-1.468-.8,1.557,1.557,0,0,0-1.455.8,4.1,4.1,0,0,0-.461,2.061Zm2.435-8.912h2.856l.018.053-2.435,2.285H114.24ZM123.9-9.51l.114,1.362a3.478,3.478,0,0,1,1.169-1.134,3.034,3.034,0,0,1,1.556-.4,2.828,2.828,0,0,1,2.25.927,4.4,4.4,0,0,1,.809,2.931V0h-2.575V-5.818a2.277,2.277,0,0,0-.356-1.446A1.312,1.312,0,0,0,125.8-7.69a2.241,2.241,0,0,0-1.006.215,1.965,1.965,0,0,0-.716.593V0h-2.566V-9.51Z" transform="translate(972 905)" fill="#00104e"/>
    <path id="Trazado_98916" data-name="Trazado 98916" d="M5.914,10.8H1.3v-1.2H5.914Zm14.719.563.016.047a3.417,3.417,0,0,1-1.125,2.68,4.3,4.3,0,0,1-3.055,1.078A4.012,4.012,0,0,1,13.324,13.8a5.028,5.028,0,0,1-1.215-3.469V8.3a5.043,5.043,0,0,1,1.215-3.473,4.006,4.006,0,0,1,3.145-1.371,4.416,4.416,0,0,1,3.07,1.027,3.4,3.4,0,0,1,1.109,2.723l-.016.047H19.156a2.539,2.539,0,0,0-.7-1.891,2.7,2.7,0,0,0-1.984-.7,2.424,2.424,0,0,0-2.055,1.039,4.227,4.227,0,0,0-.766,2.578v2.039a4.254,4.254,0,0,0,.766,2.594,2.424,2.424,0,0,0,2.055,1.039,2.71,2.71,0,0,0,1.984-.691,2.557,2.557,0,0,0,.7-1.91Zm1.445-.664a4.654,4.654,0,0,1,1.016-3.09,3.406,3.406,0,0,1,2.758-1.215A3.439,3.439,0,0,1,28.629,7.6a4.639,4.639,0,0,1,1.02,3.094v.172a4.631,4.631,0,0,1-1.016,3.094,3.429,3.429,0,0,1-2.766,1.2,3.436,3.436,0,0,1-2.77-1.207,4.623,4.623,0,0,1-1.02-3.09Zm1.539.172a4.009,4.009,0,0,0,.566,2.219,2.046,2.046,0,0,0,3.355,0,3.988,3.988,0,0,0,.57-2.219V10.7a3.976,3.976,0,0,0-.574-2.211A1.882,1.882,0,0,0,25.852,7.6a1.856,1.856,0,0,0-1.668.883,4.018,4.018,0,0,0-.566,2.211Zm7.563.063a5.641,5.641,0,0,1,.871-3.289,2.807,2.807,0,0,1,2.441-1.25,3.027,3.027,0,0,1,1.316.273,2.7,2.7,0,0,1,.98.8V2.813h1.539V15h-1.18l-.234-1.07a2.743,2.743,0,0,1-1.023.922,3.058,3.058,0,0,1-1.414.313,2.9,2.9,0,0,1-2.422-1.121,4.659,4.659,0,0,1-.875-2.949Zm1.539.164a3.588,3.588,0,0,0,.523,2.051,1.828,1.828,0,0,0,1.625.77,2.039,2.039,0,0,0,1.156-.312,2.334,2.334,0,0,0,.766-.875V8.781a2.37,2.37,0,0,0-.77-.832,2.033,2.033,0,0,0-1.137-.309,1.759,1.759,0,0,0-1.637.914,4.718,4.718,0,0,0-.527,2.375ZM42.289,15H40.75V6.547h1.539Zm0-10.617H40.75V2.813h1.539ZM45.086,15V7.688H43.758V6.547h1.328V5.633a2.875,2.875,0,0,1,.832-2.2,3.24,3.24,0,0,1,2.309-.781,4.431,4.431,0,0,1,1.031.121q.508.121,1.2.355l-.266,1.25a7.011,7.011,0,0,0-.883-.281,3.947,3.947,0,0,0-.961-.117,1.8,1.8,0,0,0-1.316.406,1.713,1.713,0,0,0-.4,1.25v.914H48.3V7.688h-1.68V15ZM51.2,15H49.656V6.547H51.2Zm5.719-1.039a1.81,1.81,0,0,0,1.242-.473,1.494,1.494,0,0,0,.531-1.16h1.391l.023.047a2.428,2.428,0,0,1-.937,1.941,3.582,3.582,0,0,1-5-.363,4.674,4.674,0,0,1-.969-3.016v-.328a4.654,4.654,0,0,1,.973-3,3.317,3.317,0,0,1,2.746-1.215,3.189,3.189,0,0,1,2.316.875,2.775,2.775,0,0,1,.871,2.148l-.016.047H58.7a1.865,1.865,0,0,0-.5-1.316,1.658,1.658,0,0,0-1.27-.543,1.777,1.777,0,0,0-1.652.879,4.114,4.114,0,0,0-.52,2.129v.328a4.192,4.192,0,0,0,.512,2.148A1.776,1.776,0,0,0,56.922,13.961ZM67.133,15q-.078-.383-.121-.676a4.96,4.96,0,0,1-.051-.59,3.589,3.589,0,0,1-1.121,1.02,2.867,2.867,0,0,1-1.488.41,2.763,2.763,0,0,1-2.012-.676,2.486,2.486,0,0,1-.691-1.863,2.183,2.183,0,0,1,.98-1.895,4.579,4.579,0,0,1,2.66-.684h1.672V9.211a1.551,1.551,0,0,0-.453-1.176A1.779,1.779,0,0,0,65.227,7.6a1.859,1.859,0,0,0-1.211.375,1.125,1.125,0,0,0-.461.9l-1.461.016-.016-.047a2.023,2.023,0,0,1,.863-1.687,3.578,3.578,0,0,1,2.371-.766,3.49,3.49,0,0,1,2.313.73A2.588,2.588,0,0,1,68.5,9.227V13.3a7.923,7.923,0,0,0,.047.875,4.5,4.5,0,0,0,.172.828Zm-2.555-1.125a2.739,2.739,0,0,0,1.508-.43,2.042,2.042,0,0,0,.875-.984V11.086H65.234a2.24,2.24,0,0,0-1.488.469,1.4,1.4,0,0,0-.559,1.1,1.159,1.159,0,0,0,.352.891A1.472,1.472,0,0,0,64.578,13.875Zm9.516.086a1.81,1.81,0,0,0,1.242-.473,1.494,1.494,0,0,0,.531-1.16h1.391l.023.047a2.428,2.428,0,0,1-.937,1.941,3.582,3.582,0,0,1-5-.363,4.674,4.674,0,0,1-.969-3.016v-.328a4.654,4.654,0,0,1,.973-3,3.317,3.317,0,0,1,2.746-1.215,3.189,3.189,0,0,1,2.316.875,2.775,2.775,0,0,1,.871,2.148l-.016.047h-1.4a1.865,1.865,0,0,0-.5-1.316,1.658,1.658,0,0,0-1.27-.543,1.777,1.777,0,0,0-1.652.879,4.114,4.114,0,0,0-.52,2.129v.328a4.192,4.192,0,0,0,.512,2.148A1.776,1.776,0,0,0,74.094,13.961ZM80.773,15H79.234V6.547h1.539Zm0-10.617H79.234V2.813h1.539ZM82.781,10.7A4.654,4.654,0,0,1,83.8,7.605a3.764,3.764,0,0,1,5.535,0,4.639,4.639,0,0,1,1.02,3.094v.172a4.631,4.631,0,0,1-1.016,3.094,3.781,3.781,0,0,1-5.535,0,4.623,4.623,0,0,1-1.02-3.09Zm1.539.172a4.009,4.009,0,0,0,.566,2.219,2.046,2.046,0,0,0,3.355,0,3.988,3.988,0,0,0,.57-2.219V10.7a3.976,3.976,0,0,0-.574-2.211A1.882,1.882,0,0,0,86.555,7.6a1.856,1.856,0,0,0-1.668.883A4.018,4.018,0,0,0,84.32,10.7Zm2.992-7.906h1.8l.016.047-2.1,2.031H85.867Zm6.3,3.586L93.719,7.8a3.069,3.069,0,0,1,1.059-1.043,2.824,2.824,0,0,1,1.449-.371,2.759,2.759,0,0,1,2.117.8,3.515,3.515,0,0,1,.75,2.473V15H97.555V9.7a2.287,2.287,0,0,0-.441-1.586,1.768,1.768,0,0,0-1.348-.469,2.386,2.386,0,0,0-1.207.285,2.072,2.072,0,0,0-.785.8V15H92.234V6.547Zm11.344,4.383a5.641,5.641,0,0,1,.871-3.289,2.807,2.807,0,0,1,2.441-1.25,3.027,3.027,0,0,1,1.316.273,2.7,2.7,0,0,1,.98.8V2.813H112.1V15h-1.18l-.234-1.07a2.743,2.743,0,0,1-1.023.922,3.058,3.058,0,0,1-1.414.313,2.9,2.9,0,0,1-2.422-1.121,4.659,4.659,0,0,1-.875-2.949Zm1.539.164a3.588,3.588,0,0,0,.523,2.051,1.828,1.828,0,0,0,1.625.77A2.039,2.039,0,0,0,109.8,13.6a2.334,2.334,0,0,0,.766-.875V8.781a2.37,2.37,0,0,0-.77-.832,2.033,2.033,0,0,0-1.137-.309,1.759,1.759,0,0,0-1.637.914,4.718,4.718,0,0,0-.527,2.375Zm11.406,4.07A3.576,3.576,0,0,1,115.059,14a4.48,4.48,0,0,1-1.02-3.062v-.344a4.386,4.386,0,0,1,1.051-3.012,3.3,3.3,0,0,1,2.566-1.191A3.067,3.067,0,0,1,120.2,7.445a4.345,4.345,0,0,1,.848,2.8v.813h-5.406l-.023.039a3.494,3.494,0,0,0,.563,2.066,1.965,1.965,0,0,0,1.719.793,3.872,3.872,0,0,0,1.371-.223,3.061,3.061,0,0,0,1.012-.613l.6,1a3.7,3.7,0,0,1-1.2.738A4.762,4.762,0,0,1,117.9,15.164ZM117.656,7.6a1.673,1.673,0,0,0-1.332.621,2.938,2.938,0,0,0-.645,1.59l.016.039h3.813V9.727a2.462,2.462,0,0,0-.453-1.523A1.638,1.638,0,0,0,117.656,7.6ZM131.945,15q-.078-.383-.121-.676a4.96,4.96,0,0,1-.051-.59,3.588,3.588,0,0,1-1.121,1.02,2.867,2.867,0,0,1-1.488.41,2.763,2.763,0,0,1-2.012-.676,2.486,2.486,0,0,1-.691-1.863,2.183,2.183,0,0,1,.98-1.895,4.579,4.579,0,0,1,2.66-.684h1.672V9.211a1.551,1.551,0,0,0-.453-1.176,1.779,1.779,0,0,0-1.281-.434,1.859,1.859,0,0,0-1.211.375,1.125,1.125,0,0,0-.461.9l-1.461.016-.016-.047a2.023,2.023,0,0,1,.863-1.687,3.578,3.578,0,0,1,2.371-.766,3.49,3.49,0,0,1,2.313.73,2.588,2.588,0,0,1,.875,2.105V13.3a7.923,7.923,0,0,0,.047.875,4.5,4.5,0,0,0,.172.828Zm-2.555-1.125a2.739,2.739,0,0,0,1.508-.43,2.042,2.042,0,0,0,.875-.984V11.086h-1.727a2.24,2.24,0,0,0-1.488.469,1.4,1.4,0,0,0-.559,1.1,1.159,1.159,0,0,0,.352.891A1.472,1.472,0,0,0,129.391,13.875ZM137.211,15h-1.539V2.813h1.539Zm2.094-4.07a5.641,5.641,0,0,1,.871-3.289,2.8,2.8,0,0,1,2.434-1.25,2.966,2.966,0,0,1,1.414.324,2.845,2.845,0,0,1,1.023.934l.188-1.1h1.227v8.5a3.225,3.225,0,0,1-.945,2.5,3.884,3.884,0,0,1-2.727.871,5.717,5.717,0,0,1-1.316-.168,5.147,5.147,0,0,1-1.246-.457l.234-1.2a4.451,4.451,0,0,0,1.074.379,5.517,5.517,0,0,0,1.238.145,2.242,2.242,0,0,0,1.637-.512,2.12,2.12,0,0,0,.512-1.559v-.961a2.725,2.725,0,0,1-.992.8,3.091,3.091,0,0,1-1.336.273,2.89,2.89,0,0,1-2.418-1.121,4.674,4.674,0,0,1-.871-2.949Zm1.539.164a3.592,3.592,0,0,0,.523,2.047,1.817,1.817,0,0,0,1.617.773,2.034,2.034,0,0,0,1.164-.316,2.4,2.4,0,0,0,.773-.895V8.813a2.388,2.388,0,0,0-.773-.855A2.029,2.029,0,0,0,143,7.641a1.752,1.752,0,0,0-1.629.914,4.718,4.718,0,0,0-.527,2.375Zm7.469-.4a4.654,4.654,0,0,1,1.016-3.09,3.764,3.764,0,0,1,5.535,0,4.639,4.639,0,0,1,1.02,3.094v.172a4.631,4.631,0,0,1-1.016,3.094,3.781,3.781,0,0,1-5.535,0,4.623,4.623,0,0,1-1.02-3.09Zm1.539.172a4.009,4.009,0,0,0,.566,2.219,2.046,2.046,0,0,0,3.355,0,3.988,3.988,0,0,0,.57-2.219V10.7a3.976,3.976,0,0,0-.574-2.211,1.882,1.882,0,0,0-1.684-.883,1.856,1.856,0,0,0-1.668.883,4.018,4.018,0,0,0-.566,2.211Zm11.914-2.961-.789-.047a1.762,1.762,0,0,0-1.027.289,1.855,1.855,0,0,0-.645.813V15h-1.539V6.547h1.375l.148,1.234a2.934,2.934,0,0,1,.887-1.023,2.073,2.073,0,0,1,1.215-.367,1.9,1.9,0,0,1,.328.027,2.174,2.174,0,0,1,.258.059ZM165.031,15h-1.539V6.547h1.539Zm0-10.617h-1.539V2.813h1.539Zm4.508.125V6.547h1.6V7.688h-1.6V12.82a1.149,1.149,0,0,0,.246.836.89.89,0,0,0,.652.242,1.429,1.429,0,0,0,.3-.035,2.2,2.2,0,0,0,.273-.074l.211,1.055a1.36,1.36,0,0,1-.508.23,2.562,2.562,0,0,1-.664.09,1.993,1.993,0,0,1-1.492-.566A2.46,2.46,0,0,1,168,12.82V7.688h-1.344V6.547H168V4.508Zm4.625,2.039.109,1.109a2.871,2.871,0,0,1,1.051-.934,3.158,3.158,0,0,1,1.48-.332,2.615,2.615,0,0,1,1.449.391,2.363,2.363,0,0,1,.91,1.172,3.162,3.162,0,0,1,1.059-1.145,2.769,2.769,0,0,1,1.527-.418,2.531,2.531,0,0,1,2.039.887,4.051,4.051,0,0,1,.75,2.668V15H183V9.93a2.81,2.81,0,0,0-.43-1.77,1.567,1.567,0,0,0-1.281-.52,1.631,1.631,0,0,0-1.277.547,2.381,2.381,0,0,0-.574,1.383V15h-1.547V9.93a2.772,2.772,0,0,0-.441-1.738,1.532,1.532,0,0,0-1.27-.551,2.115,2.115,0,0,0-1.156.289,1.867,1.867,0,0,0-.7.813V15h-1.539V6.547Zm12.25,4.148a4.654,4.654,0,0,1,1.016-3.09,3.764,3.764,0,0,1,5.535,0,4.639,4.639,0,0,1,1.02,3.094v.172a4.631,4.631,0,0,1-1.016,3.094,3.781,3.781,0,0,1-5.535,0,4.623,4.623,0,0,1-1.02-3.09Zm1.539.172a4.009,4.009,0,0,0,.566,2.219,2.046,2.046,0,0,0,3.355,0,3.988,3.988,0,0,0,.57-2.219V10.7a3.976,3.976,0,0,0-.574-2.211,1.882,1.882,0,0,0-1.684-.883,1.856,1.856,0,0,0-1.668.883,4.018,4.018,0,0,0-.566,2.211ZM5.914,32.8H1.3v-1.2H5.914Zm8.141-.359V37H12.516V25.625h4.352a4.009,4.009,0,0,1,2.832.938,3.527,3.527,0,0,1,0,4.945,4.031,4.031,0,0,1-2.832.93Zm0-1.2h2.813a2.064,2.064,0,0,0,2.3-2.187,2.26,2.26,0,0,0-.574-1.578,2.21,2.21,0,0,0-1.723-.633H14.055Zm12.422-1.328-.789-.047a1.762,1.762,0,0,0-1.027.289,1.854,1.854,0,0,0-.645.813V37H22.477V28.547h1.375L24,29.781a2.934,2.934,0,0,1,.887-1.023,2.073,2.073,0,0,1,1.215-.367,1.9,1.9,0,0,1,.328.027,2.174,2.174,0,0,1,.258.059Zm6.969,5.844A2.863,2.863,0,0,1,32.422,36.8a2.8,2.8,0,0,1-1.445.367,2.716,2.716,0,0,1-2.156-.883,4.1,4.1,0,0,1-.773-2.75V28.547h1.539v5a3.147,3.147,0,0,0,.4,1.859,1.481,1.481,0,0,0,1.242.508,2.531,2.531,0,0,0,1.355-.332,2.077,2.077,0,0,0,.809-.941V28.547H34.93V37H33.547Zm7.227,1.414A3.576,3.576,0,0,1,37.832,36a4.48,4.48,0,0,1-1.02-3.062v-.344a4.386,4.386,0,0,1,1.051-3.012,3.3,3.3,0,0,1,2.566-1.191,3.067,3.067,0,0,1,2.543,1.055,4.345,4.345,0,0,1,.848,2.8v.813H38.414l-.023.039a3.494,3.494,0,0,0,.563,2.066,1.965,1.965,0,0,0,1.719.793,3.872,3.872,0,0,0,1.371-.223,3.061,3.061,0,0,0,1.012-.613l.6,1a3.7,3.7,0,0,1-1.2.738A4.762,4.762,0,0,1,40.672,37.164ZM40.43,29.6a1.673,1.673,0,0,0-1.332.621,2.938,2.938,0,0,0-.645,1.59l.016.039h3.813v-.125a2.462,2.462,0,0,0-.453-1.523A1.638,1.638,0,0,0,40.43,29.6Zm12.336,3.492a4.645,4.645,0,0,1-.879,2.949,2.9,2.9,0,0,1-2.418,1.121A3.064,3.064,0,0,1,48,36.832a2.719,2.719,0,0,1-1.027-.98L46.727,37h-1.18V24.813h1.539v4.734a2.671,2.671,0,0,1,.988-.859,3.03,3.03,0,0,1,1.379-.3,2.809,2.809,0,0,1,2.438,1.25,5.622,5.622,0,0,1,.875,3.289Zm-1.539-.164a4.666,4.666,0,0,0-.535-2.371,1.762,1.762,0,0,0-1.629-.918,2.014,2.014,0,0,0-1.2.348,2.452,2.452,0,0,0-.777.934v3.664a2.517,2.517,0,0,0,.777.977,2,2,0,0,0,1.215.352,1.829,1.829,0,0,0,1.617-.773,3.552,3.552,0,0,0,.531-2.047ZM59.836,37q-.078-.383-.121-.676a4.96,4.96,0,0,1-.051-.59,3.589,3.589,0,0,1-1.121,1.02,2.867,2.867,0,0,1-1.488.41,2.763,2.763,0,0,1-2.012-.676,2.486,2.486,0,0,1-.691-1.863,2.183,2.183,0,0,1,.98-1.895,4.579,4.579,0,0,1,2.66-.684h1.672v-.836a1.551,1.551,0,0,0-.453-1.176A1.779,1.779,0,0,0,57.93,29.6a1.859,1.859,0,0,0-1.211.375,1.125,1.125,0,0,0-.461.9l-1.461.016-.016-.047a2.023,2.023,0,0,1,.863-1.687,3.578,3.578,0,0,1,2.371-.766,3.49,3.49,0,0,1,2.313.73,2.588,2.588,0,0,1,.875,2.105V35.3a7.923,7.923,0,0,0,.047.875,4.5,4.5,0,0,0,.172.828Zm-2.555-1.125a2.739,2.739,0,0,0,1.508-.43,2.042,2.042,0,0,0,.875-.984V33.086H57.938a2.24,2.24,0,0,0-1.488.469,1.4,1.4,0,0,0-.559,1.1,1.159,1.159,0,0,0,.352.891A1.472,1.472,0,0,0,57.281,35.875ZM70,33.867l.273,1.063h.047L72.4,28.547h1.711L70.555,38.3a4.383,4.383,0,0,1-.918,1.484,2.113,2.113,0,0,1-1.613.633,3.363,3.363,0,0,1-.477-.043q-.289-.043-.445-.082l.156-1.211a2.062,2.062,0,0,1,.277.016q.324.023.41.023a.95.95,0,0,0,.8-.437,4.542,4.542,0,0,0,.523-.969l.367-.883L66.5,28.547h1.719Zm9.086-.937a5.641,5.641,0,0,1,.871-3.289,2.807,2.807,0,0,1,2.441-1.25,3.027,3.027,0,0,1,1.316.273,2.7,2.7,0,0,1,.98.8V24.813h1.539V37h-1.18l-.234-1.07a2.743,2.743,0,0,1-1.023.922,3.058,3.058,0,0,1-1.414.313,2.9,2.9,0,0,1-2.422-1.121,4.659,4.659,0,0,1-.875-2.949Zm1.539.164a3.588,3.588,0,0,0,.523,2.051,1.828,1.828,0,0,0,1.625.77A2.039,2.039,0,0,0,83.93,35.6a2.334,2.334,0,0,0,.766-.875V30.781a2.37,2.37,0,0,0-.77-.832,2.033,2.033,0,0,0-1.137-.309,1.759,1.759,0,0,0-1.637.914,4.718,4.718,0,0,0-.527,2.375Zm11.406,4.07A3.576,3.576,0,0,1,89.191,36a4.48,4.48,0,0,1-1.02-3.062v-.344a4.386,4.386,0,0,1,1.051-3.012,3.3,3.3,0,0,1,2.566-1.191,3.067,3.067,0,0,1,2.543,1.055,4.345,4.345,0,0,1,.848,2.8v.813H89.773l-.023.039a3.494,3.494,0,0,0,.563,2.066,1.965,1.965,0,0,0,1.719.793,3.872,3.872,0,0,0,1.371-.223,3.061,3.061,0,0,0,1.012-.613l.6,1a3.7,3.7,0,0,1-1.2.738A4.762,4.762,0,0,1,92.031,37.164ZM91.789,29.6a1.673,1.673,0,0,0-1.332.621,2.938,2.938,0,0,0-.645,1.59l.016.039h3.813v-.125a2.462,2.462,0,0,0-.453-1.523A1.638,1.638,0,0,0,91.789,29.6Zm12.32,3.492a4.659,4.659,0,0,1-.875,2.949,2.893,2.893,0,0,1-2.414,1.121,3.354,3.354,0,0,1-1.371-.262,2.622,2.622,0,0,1-1-.785V40.25H96.906v-11.7h1.18l.242,1.094a2.792,2.792,0,0,1,1.031-.93,3.078,3.078,0,0,1,1.438-.32,2.809,2.809,0,0,1,2.441,1.246,5.638,5.638,0,0,1,.871,3.293Zm-1.539-.164A4.467,4.467,0,0,0,102,30.566a1.835,1.835,0,0,0-1.668-.926,2.053,2.053,0,0,0-1.133.3,2.25,2.25,0,0,0-.758.824v4.086a2.186,2.186,0,0,0,.758.816,2.126,2.126,0,0,0,1.148.293,1.894,1.894,0,0,0,1.656-.8,3.516,3.516,0,0,0,.563-2.066Zm8.8,2.82a2.863,2.863,0,0,1-1.023,1.047,2.8,2.8,0,0,1-1.445.367,2.716,2.716,0,0,1-2.156-.883,4.1,4.1,0,0,1-.773-2.75V28.547h1.539v5a3.147,3.147,0,0,0,.4,1.859,1.481,1.481,0,0,0,1.242.508,2.531,2.531,0,0,0,1.355-.332,2.077,2.077,0,0,0,.809-.941V28.547h1.539V37h-1.383Zm7.727-5.844-.789-.047a1.762,1.762,0,0,0-1.027.289,1.854,1.854,0,0,0-.645.813V37h-1.539V28.547h1.375l.148,1.234a2.934,2.934,0,0,1,.887-1.023,2.073,2.073,0,0,1,1.215-.367,1.9,1.9,0,0,1,.328.027,2.175,2.175,0,0,1,.258.059Zm6.8,7.094q-.078-.383-.121-.676a4.96,4.96,0,0,1-.051-.59,3.589,3.589,0,0,1-1.121,1.02,2.867,2.867,0,0,1-1.488.41,2.763,2.763,0,0,1-2.012-.676,2.486,2.486,0,0,1-.691-1.863,2.183,2.183,0,0,1,.98-1.895,4.579,4.579,0,0,1,2.66-.684h1.672v-.836a1.551,1.551,0,0,0-.453-1.176,1.779,1.779,0,0,0-1.281-.434,1.859,1.859,0,0,0-1.211.375,1.125,1.125,0,0,0-.461.9l-1.461.016-.016-.047a2.023,2.023,0,0,1,.863-1.687,3.578,3.578,0,0,1,2.371-.766,3.49,3.49,0,0,1,2.313.73,2.588,2.588,0,0,1,.875,2.105V35.3a7.923,7.923,0,0,0,.047.875,4.5,4.5,0,0,0,.172.828Zm-2.555-1.125a2.739,2.739,0,0,0,1.508-.43,2.042,2.042,0,0,0,.875-.984V33.086h-1.727a2.24,2.24,0,0,0-1.488.469,1.4,1.4,0,0,0-.559,1.1,1.159,1.159,0,0,0,.352.891A1.472,1.472,0,0,0,123.336,35.875Zm9.516.086a1.81,1.81,0,0,0,1.242-.473,1.493,1.493,0,0,0,.531-1.16h1.391l.023.047a2.428,2.428,0,0,1-.937,1.941,3.582,3.582,0,0,1-5-.363,4.674,4.674,0,0,1-.969-3.016v-.328a4.654,4.654,0,0,1,.973-3,3.317,3.317,0,0,1,2.746-1.215,3.189,3.189,0,0,1,2.316.875,2.775,2.775,0,0,1,.871,2.148l-.016.047h-1.4a1.865,1.865,0,0,0-.5-1.316,1.658,1.658,0,0,0-1.27-.543,1.777,1.777,0,0,0-1.652.879,4.114,4.114,0,0,0-.52,2.129v.328a4.192,4.192,0,0,0,.512,2.148A1.776,1.776,0,0,0,132.852,35.961ZM139.531,37h-1.539V28.547h1.539Zm0-10.617h-1.539v-1.57h1.539Zm2.008,6.313a4.654,4.654,0,0,1,1.016-3.09,3.764,3.764,0,0,1,5.535,0,4.639,4.639,0,0,1,1.02,3.094v.172a4.631,4.631,0,0,1-1.016,3.094,3.781,3.781,0,0,1-5.535,0,4.623,4.623,0,0,1-1.02-3.09Zm1.539.172a4.009,4.009,0,0,0,.566,2.219,2.046,2.046,0,0,0,3.355,0,3.988,3.988,0,0,0,.57-2.219V32.7A3.976,3.976,0,0,0,147,30.484a1.882,1.882,0,0,0-1.684-.883,1.856,1.856,0,0,0-1.668.883,4.018,4.018,0,0,0-.566,2.211Zm2.992-7.906h1.8l.016.047-2.1,2.031h-1.156Zm6.3,3.586.109,1.258a3.069,3.069,0,0,1,1.059-1.043,2.824,2.824,0,0,1,1.449-.371,2.759,2.759,0,0,1,2.117.8,3.515,3.515,0,0,1,.75,2.473V37h-1.539V31.7a2.287,2.287,0,0,0-.441-1.586,1.768,1.768,0,0,0-1.348-.469,2.386,2.386,0,0,0-1.207.285,2.072,2.072,0,0,0-.785.8V37h-1.539V28.547ZM5.914,54.8H1.3v-1.2H5.914Zm6.6,4.2V47.625h3.578a4.678,4.678,0,0,1,4.938,4.914v1.555A4.667,4.667,0,0,1,16.094,59Zm1.539-10.164V57.8h2.039a3.137,3.137,0,0,0,2.488-1.039,3.9,3.9,0,0,0,.91-2.664v-1.57a3.873,3.873,0,0,0-.91-2.648,3.137,3.137,0,0,0-2.488-1.039ZM22.781,54.7a4.654,4.654,0,0,1,1.016-3.09,3.406,3.406,0,0,1,2.758-1.215A3.439,3.439,0,0,1,29.332,51.6a4.639,4.639,0,0,1,1.02,3.094v.172a4.631,4.631,0,0,1-1.016,3.094,3.429,3.429,0,0,1-2.766,1.2,3.436,3.436,0,0,1-2.77-1.207,4.623,4.623,0,0,1-1.02-3.09Zm1.539.172a4.009,4.009,0,0,0,.566,2.219,2.046,2.046,0,0,0,3.355,0,3.988,3.988,0,0,0,.57-2.219V54.7a3.976,3.976,0,0,0-.574-2.211,1.882,1.882,0,0,0-1.684-.883,1.856,1.856,0,0,0-1.668.883A4.018,4.018,0,0,0,24.32,54.7Zm11.273,3.094a1.81,1.81,0,0,0,1.242-.473,1.494,1.494,0,0,0,.531-1.16h1.391l.023.047a2.428,2.428,0,0,1-.937,1.941,3.582,3.582,0,0,1-5-.363,4.674,4.674,0,0,1-.969-3.016v-.328a4.654,4.654,0,0,1,.973-3,3.317,3.317,0,0,1,2.746-1.215,3.189,3.189,0,0,1,2.316.875,2.775,2.775,0,0,1,.871,2.148l-.016.047h-1.4a1.865,1.865,0,0,0-.5-1.316,1.658,1.658,0,0,0-1.27-.543,1.777,1.777,0,0,0-1.652.879,4.114,4.114,0,0,0-.52,2.129v.328a4.192,4.192,0,0,0,.512,2.148A1.776,1.776,0,0,0,35.594,57.961Zm10.383-.211A2.863,2.863,0,0,1,44.953,58.8a2.8,2.8,0,0,1-1.445.367,2.716,2.716,0,0,1-2.156-.883,4.1,4.1,0,0,1-.773-2.75V50.547h1.539v5a3.147,3.147,0,0,0,.4,1.859,1.481,1.481,0,0,0,1.242.508,2.531,2.531,0,0,0,1.355-.332,2.077,2.077,0,0,0,.809-.941V50.547h1.539V59H46.078Zm5.1-7.2.109,1.109a2.871,2.871,0,0,1,1.051-.934,3.157,3.157,0,0,1,1.48-.332,2.615,2.615,0,0,1,1.449.391,2.363,2.363,0,0,1,.91,1.172,3.162,3.162,0,0,1,1.059-1.145,2.769,2.769,0,0,1,1.527-.418,2.531,2.531,0,0,1,2.039.887,4.051,4.051,0,0,1,.75,2.668V59H59.914V53.93a2.81,2.81,0,0,0-.43-1.77,1.567,1.567,0,0,0-1.281-.52,1.631,1.631,0,0,0-1.277.547,2.381,2.381,0,0,0-.574,1.383V59H54.8V53.93a2.772,2.772,0,0,0-.441-1.738,1.532,1.532,0,0,0-1.27-.551,2.115,2.115,0,0,0-1.156.289,1.867,1.867,0,0,0-.7.813V59H49.7V50.547Zm16.109,8.617A3.576,3.576,0,0,1,64.348,58a4.48,4.48,0,0,1-1.02-3.062v-.344a4.386,4.386,0,0,1,1.051-3.012,3.3,3.3,0,0,1,2.566-1.191,3.067,3.067,0,0,1,2.543,1.055,4.345,4.345,0,0,1,.848,2.8v.813H64.93l-.023.039a3.494,3.494,0,0,0,.563,2.066,1.965,1.965,0,0,0,1.719.793,3.872,3.872,0,0,0,1.371-.223,3.061,3.061,0,0,0,1.012-.613l.6,1a3.7,3.7,0,0,1-1.2.738A4.762,4.762,0,0,1,67.188,59.164ZM66.945,51.6a1.673,1.673,0,0,0-1.332.621,2.938,2.938,0,0,0-.645,1.59l.016.039H68.8v-.125a2.462,2.462,0,0,0-.453-1.523A1.638,1.638,0,0,0,66.945,51.6Zm6.492-1.055.109,1.258a3.069,3.069,0,0,1,1.059-1.043,2.824,2.824,0,0,1,1.449-.371,2.759,2.759,0,0,1,2.117.8,3.515,3.515,0,0,1,.75,2.473V59H77.383V53.7a2.287,2.287,0,0,0-.441-1.586,1.768,1.768,0,0,0-1.348-.469,2.386,2.386,0,0,0-1.207.285,2.072,2.072,0,0,0-.785.8V59H72.063V50.547ZM83.3,48.508v2.039h1.6v1.141H83.3V56.82a1.149,1.149,0,0,0,.246.836.89.89,0,0,0,.652.242,1.43,1.43,0,0,0,.3-.035,2.2,2.2,0,0,0,.273-.074l.211,1.055a1.36,1.36,0,0,1-.508.23,2.562,2.562,0,0,1-.664.09,1.993,1.993,0,0,1-1.492-.566,2.46,2.46,0,0,1-.555-1.777V51.688H80.414V50.547h1.344V48.508ZM91.742,59q-.078-.383-.121-.676a4.96,4.96,0,0,1-.051-.59,3.589,3.589,0,0,1-1.121,1.02,2.867,2.867,0,0,1-1.488.41,2.763,2.763,0,0,1-2.012-.676,2.486,2.486,0,0,1-.691-1.863,2.183,2.183,0,0,1,.98-1.895,4.579,4.579,0,0,1,2.66-.684H91.57v-.836a1.551,1.551,0,0,0-.453-1.176,1.779,1.779,0,0,0-1.281-.434,1.859,1.859,0,0,0-1.211.375,1.125,1.125,0,0,0-.461.9l-1.461.016-.016-.047a2.023,2.023,0,0,1,.863-1.687,3.578,3.578,0,0,1,2.371-.766,3.49,3.49,0,0,1,2.313.73,2.588,2.588,0,0,1,.875,2.105V57.3a7.923,7.923,0,0,0,.047.875,4.5,4.5,0,0,0,.172.828Zm-2.555-1.125a2.739,2.739,0,0,0,1.508-.43,2.042,2.042,0,0,0,.875-.984V55.086H89.844a2.24,2.24,0,0,0-1.488.469,1.4,1.4,0,0,0-.559,1.1,1.159,1.159,0,0,0,.352.891A1.472,1.472,0,0,0,89.188,57.875Zm9.516.086a1.81,1.81,0,0,0,1.242-.473,1.494,1.494,0,0,0,.531-1.16h1.391l.023.047a2.428,2.428,0,0,1-.937,1.941,3.582,3.582,0,0,1-5-.363,4.674,4.674,0,0,1-.969-3.016v-.328a4.654,4.654,0,0,1,.973-3A3.317,3.317,0,0,1,98.7,50.391a3.189,3.189,0,0,1,2.316.875,2.775,2.775,0,0,1,.871,2.148l-.016.047h-1.4a1.865,1.865,0,0,0-.5-1.316A1.658,1.658,0,0,0,98.7,51.6a1.777,1.777,0,0,0-1.652.879,4.114,4.114,0,0,0-.52,2.129v.328a4.192,4.192,0,0,0,.512,2.148A1.776,1.776,0,0,0,98.7,57.961ZM105.383,59h-1.539V50.547h1.539Zm0-10.617h-1.539v-1.57h1.539Zm2.008,6.313a4.654,4.654,0,0,1,1.016-3.09,3.764,3.764,0,0,1,5.535,0,4.639,4.639,0,0,1,1.02,3.094v.172a4.631,4.631,0,0,1-1.016,3.094,3.781,3.781,0,0,1-5.535,0,4.623,4.623,0,0,1-1.02-3.09Zm1.539.172a4.009,4.009,0,0,0,.566,2.219,2.046,2.046,0,0,0,3.355,0,3.988,3.988,0,0,0,.57-2.219V54.7a3.976,3.976,0,0,0-.574-2.211,1.882,1.882,0,0,0-1.684-.883,1.856,1.856,0,0,0-1.668.883,4.018,4.018,0,0,0-.566,2.211Zm2.992-7.906h1.8l.016.047-2.1,2.031h-1.156Zm6.3,3.586.109,1.258a3.069,3.069,0,0,1,1.059-1.043,2.824,2.824,0,0,1,1.449-.371,2.759,2.759,0,0,1,2.117.8,3.515,3.515,0,0,1,.75,2.473V59h-1.539V53.7a2.287,2.287,0,0,0-.441-1.586,1.768,1.768,0,0,0-1.348-.469,2.386,2.386,0,0,0-1.207.285,2.072,2.072,0,0,0-.785.8V59h-1.539V50.547ZM5.914,76.8H1.3v-1.2H5.914Zm12.242,2.07H18.2l3.633-9.242H23.75V81H22.211V72.477l-.047-.008L18.719,81h-1.07L14.1,72.188l-.047.008V81H12.516V69.625h2.023ZM31.4,81q-.078-.383-.121-.676a4.96,4.96,0,0,1-.051-.59,3.589,3.589,0,0,1-1.121,1.02,2.867,2.867,0,0,1-1.488.41,2.763,2.763,0,0,1-2.012-.676,2.486,2.486,0,0,1-.691-1.863,2.183,2.183,0,0,1,.98-1.895,4.579,4.579,0,0,1,2.66-.684h1.672v-.836a1.551,1.551,0,0,0-.453-1.176,1.779,1.779,0,0,0-1.281-.434,1.859,1.859,0,0,0-1.211.375,1.125,1.125,0,0,0-.461.9l-1.461.016-.016-.047a2.023,2.023,0,0,1,.863-1.687,3.578,3.578,0,0,1,2.371-.766,3.49,3.49,0,0,1,2.313.73,2.588,2.588,0,0,1,.875,2.105V79.3a7.923,7.923,0,0,0,.047.875,4.5,4.5,0,0,0,.172.828Zm-2.555-1.125a2.739,2.739,0,0,0,1.508-.43,2.042,2.042,0,0,0,.875-.984V77.086H29.5a2.24,2.24,0,0,0-1.488.469,1.4,1.4,0,0,0-.559,1.1,1.159,1.159,0,0,0,.352.891A1.472,1.472,0,0,0,28.844,79.875Zm7.531-7.328.109,1.258a3.069,3.069,0,0,1,1.059-1.043,2.824,2.824,0,0,1,1.449-.371,2.759,2.759,0,0,1,2.117.8,3.515,3.515,0,0,1,.75,2.473V81H40.32V75.7a2.287,2.287,0,0,0-.441-1.586,1.768,1.768,0,0,0-1.348-.469,2.386,2.386,0,0,0-1.207.285,2.072,2.072,0,0,0-.785.8V81H35V72.547Zm9.859-2.039v2.039h1.6v1.141h-1.6V78.82a1.149,1.149,0,0,0,.246.836.89.89,0,0,0,.652.242,1.429,1.429,0,0,0,.3-.035,2.2,2.2,0,0,0,.273-.074l.211,1.055a1.36,1.36,0,0,1-.508.23,2.562,2.562,0,0,1-.664.09A1.993,1.993,0,0,1,45.25,80.6,2.46,2.46,0,0,1,44.7,78.82V73.688H43.352V72.547H44.7V70.508Zm6.75,10.656A3.576,3.576,0,0,1,50.145,80a4.48,4.48,0,0,1-1.02-3.062v-.344a4.386,4.386,0,0,1,1.051-3.012,3.3,3.3,0,0,1,2.566-1.191,3.067,3.067,0,0,1,2.543,1.055,4.345,4.345,0,0,1,.848,2.8v.813H50.727L50.7,77.1a3.494,3.494,0,0,0,.563,2.066,1.965,1.965,0,0,0,1.719.793,3.872,3.872,0,0,0,1.371-.223,3.061,3.061,0,0,0,1.012-.613l.6,1a3.7,3.7,0,0,1-1.2.738A4.762,4.762,0,0,1,52.984,81.164ZM52.742,73.6a1.673,1.673,0,0,0-1.332.621,2.938,2.938,0,0,0-.645,1.59l.016.039h3.813v-.125a2.462,2.462,0,0,0-.453-1.523A1.638,1.638,0,0,0,52.742,73.6Zm6.492-1.055.109,1.258A3.069,3.069,0,0,1,60.4,72.762a2.824,2.824,0,0,1,1.449-.371,2.759,2.759,0,0,1,2.117.8,3.515,3.515,0,0,1,.75,2.473V81H63.18V75.7a2.287,2.287,0,0,0-.441-1.586,1.768,1.768,0,0,0-1.348-.469,2.386,2.386,0,0,0-1.207.285,2.072,2.072,0,0,0-.785.8V81H57.859V72.547ZM68.617,81H67.078V72.547h1.539Zm0-10.617H67.078v-1.57h1.539Zm3.742,2.164.109,1.109a2.871,2.871,0,0,1,1.051-.934A3.158,3.158,0,0,1,75,72.391a2.615,2.615,0,0,1,1.449.391,2.363,2.363,0,0,1,.91,1.172,3.162,3.162,0,0,1,1.059-1.145,2.769,2.769,0,0,1,1.527-.418,2.531,2.531,0,0,1,2.039.887,4.051,4.051,0,0,1,.75,2.668V81H81.2V75.93a2.81,2.81,0,0,0-.43-1.77,1.567,1.567,0,0,0-1.281-.52,1.631,1.631,0,0,0-1.277.547,2.381,2.381,0,0,0-.574,1.383V81H76.086V75.93a2.772,2.772,0,0,0-.441-1.738,1.532,1.532,0,0,0-1.27-.551,2.115,2.115,0,0,0-1.156.289,1.867,1.867,0,0,0-.7.813V81H70.984V72.547ZM86.633,81H85.094V72.547h1.539Zm0-10.617H85.094v-1.57h1.539ZM92.5,81.164A3.576,3.576,0,0,1,89.66,80a4.48,4.48,0,0,1-1.02-3.062v-.344a4.386,4.386,0,0,1,1.051-3.012,3.3,3.3,0,0,1,2.566-1.191A3.067,3.067,0,0,1,94.8,73.445a4.345,4.345,0,0,1,.848,2.8v.813H90.242l-.023.039a3.494,3.494,0,0,0,.563,2.066,1.965,1.965,0,0,0,1.719.793,3.872,3.872,0,0,0,1.371-.223,3.061,3.061,0,0,0,1.012-.613l.6,1a3.7,3.7,0,0,1-1.2.738A4.762,4.762,0,0,1,92.5,81.164ZM92.258,73.6a1.673,1.673,0,0,0-1.332.621,2.938,2.938,0,0,0-.645,1.59l.016.039h3.813v-.125a2.462,2.462,0,0,0-.453-1.523A1.638,1.638,0,0,0,92.258,73.6Zm6.492-1.055.109,1.258a3.069,3.069,0,0,1,1.059-1.043,2.824,2.824,0,0,1,1.449-.371,2.759,2.759,0,0,1,2.117.8,3.515,3.515,0,0,1,.75,2.473V81H102.7V75.7a2.287,2.287,0,0,0-.441-1.586,1.768,1.768,0,0,0-1.348-.469,2.386,2.386,0,0,0-1.207.285,2.072,2.072,0,0,0-.785.8V81H97.375V72.547Zm9.859-2.039v2.039h1.6v1.141h-1.6V78.82a1.149,1.149,0,0,0,.246.836.89.89,0,0,0,.652.242,1.43,1.43,0,0,0,.3-.035,2.2,2.2,0,0,0,.273-.074l.211,1.055a1.36,1.36,0,0,1-.508.23,2.562,2.562,0,0,1-.664.09,1.993,1.993,0,0,1-1.492-.566,2.46,2.46,0,0,1-.555-1.777V73.688h-1.344V72.547h1.344V70.508ZM111.5,76.7a4.654,4.654,0,0,1,1.016-3.09,3.764,3.764,0,0,1,5.535,0,4.639,4.639,0,0,1,1.02,3.094v.172a4.631,4.631,0,0,1-1.016,3.094,3.781,3.781,0,0,1-5.535,0,4.623,4.623,0,0,1-1.02-3.09Zm1.539.172a4.009,4.009,0,0,0,.566,2.219,2.046,2.046,0,0,0,3.355,0,3.988,3.988,0,0,0,.57-2.219V76.7a3.976,3.976,0,0,0-.574-2.211,1.882,1.882,0,0,0-1.684-.883,1.856,1.856,0,0,0-1.668.883,4.018,4.018,0,0,0-.566,2.211Z" transform="translate(929 960)" fill="#00104e"/>
    <g id="Grupo_30990" data-name="Grupo 30990" transform="translate(8 -1)">
      <rect id="Rectángulo_6640" data-name="Rectángulo 6640" width="260" height="58" rx="5" transform="translate(208 870)" fill="#ffa726"/>
      <g id="Rectángulo_6650" data-name="Rectángulo 6650" transform="translate(208 948)" fill="#ffecd1" stroke="#ffa726" stroke-width="1">
        <rect width="260" height="162" rx="5" stroke="none"/>
        <rect x="0.5" y="0.5" width="259" height="161" rx="4.5" fill="none"/>
      </g>
      <g id="Rectángulo_6651" data-name="Rectángulo 6651" transform="translate(538 948)" fill="#dcf9f6" stroke="#26a69a" stroke-width="1">
        <rect width="260" height="162" rx="5" stroke="none"/>
        <rect x="0.5" y="0.5" width="259" height="161" rx="4.5" fill="none"/>
      </g>
      <rect id="Rectángulo_6641" data-name="Rectángulo 6641" width="260" height="58" rx="5" transform="translate(538 870)" fill="#26a69a"/>
      <path id="Icon_awesome-arrow-alt-circle-down-2" data-name="Icon awesome-arrow-alt-circle-down" d="M34.875,17.438A17.438,17.438,0,1,1,17.438,0,17.434,17.434,0,0,1,34.875,17.438ZM14.344,9.281v8.156H9.359a.844.844,0,0,0-.6,1.441l8.079,8.037a.836.836,0,0,0,1.188,0l8.079-8.037a.844.844,0,0,0-.6-1.441H20.531V9.281a.846.846,0,0,0-.844-.844h-4.5A.846.846,0,0,0,14.344,9.281Z" transform="translate(485.559 916.438) rotate(-90)" fill="#1565c0"/>
      <text id="Análisis" transform="translate(273 905)" fill="#00104e" font-size="18" font-family="Roboto-Bold, Roboto" font-weight="700"><tspan x="0" y="0">Análisis</tspan></text>
      <text id="Diseño" transform="translate(603 905)" fill="#00104e" font-size="18" font-family="Roboto-Bold, Roboto" font-weight="700"><tspan x="0" y="0">Diseño</tspan></text>
      <text id="_-_Planteamiento_del_problema_-_Identificación_de_datos_-_Identificación_de_procesos_y_operaciones_-_Identificación_de_salidas_y_resultados" data-name="- Planteamiento del problema
- Identificación de datos
- Identificación de procesos y operaciones
- Identificación de salidas y resultados" transform="translate(230 965)" fill="#00104e" font-size="16" font-family="Roboto-Regular, Roboto"><tspan x="0" y="15">- Planteamiento del problema</tspan><tspan x="0" y="37">- Identificación de datos</tspan><tspan x="0" y="59">- Identificación de procesos y </tspan><tspan x="0" y="81">operaciones</tspan><tspan x="0" y="103">- Identificación de salidas y </tspan><tspan x="0" y="125">resultados</tspan></text>
      <text id="_-_Desarrollo_de_algoritmos_-_Verificación_de_algoritmos" data-name="- Desarrollo de algoritmos
- Verificación de algoritmos" transform="translate(557 965)" fill="#00104e" font-size="16" font-family="Roboto-Regular, Roboto"><tspan x="0" y="15">- Desarrollo de algoritmos</tspan><tspan x="0" y="37">- Verificación de algoritmos</tspan></text>
      <g id="Grupo_30987" data-name="Grupo 30987" transform="translate(-5 21)">
        <circle id="Elipse_1631" data-name="Elipse 1631" cx="25" cy="25" r="25" transform="translate(218 853)" fill="#fff"/>
        <g id="_029-website-1" data-name="029-website-1" transform="translate(226 861)">
          <g id="Grupo_30968" data-name="Grupo 30968" transform="translate(17.516 15.968)">
            <path id="Trazado_29755" data-name="Trazado 29755" d="M41.258,30H36.1v2.065h4.129v8.258H33v4.645H46.419V30Z" transform="translate(-33 -30)" fill="#f0bc5e"/>
          </g>
          <g id="Grupo_30969" data-name="Grupo 30969" transform="translate(1 1)">
            <rect id="Rectángulo_7363" data-name="Rectángulo 7363" width="1" height="1" transform="translate(2 2)" fill="#111e61"/>
            <rect id="Rectángulo_7364" data-name="Rectángulo 7364" width="1" height="1" transform="translate(4 2)" fill="#111e61"/>
            <rect id="Rectángulo_7365" data-name="Rectángulo 7365" width="1" height="1" transform="translate(6 2)" fill="#111e61"/>
            <path id="Trazado_29756" data-name="Trazado 29756" d="M29.9,13.387V1H1V26.806H15.452V33H33V13.387ZM28.871,2.032v3.1H2.032v-3.1ZM2.032,25.774V6.161H28.871v7.226H18.851l-3.4,3.4v2.794H5.645a2.581,2.581,0,0,0,0,5.161h9.806v1.032ZM9.258,23.71V22.677h9.29V23.71Zm-3.613,0a1.548,1.548,0,1,1,0-3.1h.516v3.1Zm1.548-3.1H8.226v3.1H7.194Zm12.387.229,2.949,1.106a.229.229,0,0,1,0,.428l-2.948,1.106Zm-1.032.8H9.258V20.613h9.29Zm0-6.5v1.335H17.214ZM31.968,31.968H16.484V24.742h2.674l3.733-1.4a1.261,1.261,0,0,0,0-2.362l-3.734-1.4H16.484V17.516h3.1v-3.1H31.968Z" transform="translate(-1 -1)" fill="#111e61"/>
            <rect id="Rectángulo_7366" data-name="Rectángulo 7366" width="10" height="1" transform="translate(20 14)" fill="#111e61"/>
            <rect id="Rectángulo_7367" data-name="Rectángulo 7367" width="10" height="1" transform="translate(20 17)" fill="#111e61"/>
            <rect id="Rectángulo_7368" data-name="Rectángulo 7368" width="6" height="1" transform="translate(24 19)" fill="#111e61"/>
            <rect id="Rectángulo_7369" data-name="Rectángulo 7369" width="6" height="1" transform="translate(24 21)" fill="#111e61"/>
            <rect id="Rectángulo_7370" data-name="Rectángulo 7370" width="6" height="1" transform="translate(24 23)" fill="#111e61"/>
            <rect id="Rectángulo_7371" data-name="Rectángulo 7371" width="13" height="1" transform="translate(17 25)" fill="#111e61"/>
            <rect id="Rectángulo_7372" data-name="Rectángulo 7372" width="13" height="1" transform="translate(17 27)" fill="#111e61"/>
            <rect id="Rectángulo_7373" data-name="Rectángulo 7373" width="1" height="1" transform="translate(29 29)" fill="#111e61"/>
            <rect id="Rectángulo_7374" data-name="Rectángulo 7374" width="11" height="1" transform="translate(17 29)" fill="#111e61"/>
          </g>
          <g id="Grupo_30971" data-name="Grupo 30971" transform="translate(3.065 7.194)">
            <g id="Grupo_30970" data-name="Grupo 30970">
              <path id="Trazado_29757" data-name="Trazado 29757" d="M16.355,18.161H5V13H16.355Z" transform="translate(-5 -13)" fill="#f0bc5e"/>
            </g>
          </g>
          <g id="Grupo_30973" data-name="Grupo 30973" transform="translate(3.065 13.387)">
            <g id="Grupo_30972" data-name="Grupo 30972">
              <path id="Trazado_29758" data-name="Trazado 29758" d="M16.355,30.161H5V25H16.355Z" transform="translate(-5 -25)" fill="#f0bc5e"/>
            </g>
          </g>
        </g>
      </g>
      <g id="Grupo_30988" data-name="Grupo 30988" transform="translate(-10 20)">
        <circle id="Elipse_1631-2" data-name="Elipse 1631" cx="25" cy="25" r="25" transform="translate(553 854)" fill="#fff"/>
        <g id="_026-structure" data-name="026-structure" transform="translate(560.641 862)">
          <g id="Grupo_30940" data-name="Grupo 30940" transform="translate(17.65 22.798)">
            <rect id="Rectángulo_7334" data-name="Rectángulo 7334" width="12.76" height="5.316" fill="#f0bc5e"/>
          </g>
          <g id="Grupo_30941" data-name="Grupo 30941" transform="translate(23.498 12.165)">
            <rect id="Rectángulo_7335" data-name="Rectángulo 7335" width="8.506" height="2.658" fill="#f0bc5e"/>
          </g>
          <g id="Grupo_30942" data-name="Grupo 30942" transform="translate(7.017 1)">
            <path id="Trazado_29739" data-name="Trazado 29739" d="M14.658,51.8V48H13.595v3.8a2.127,2.127,0,1,0,1.063,0Zm-.532,3.114a1.063,1.063,0,1,1,1.063-1.063A1.064,1.064,0,0,1,14.127,54.911Z" transform="translate(-12 -23.012)" fill="#111e61"/>
            <rect id="Rectángulo_7336" data-name="Rectángulo 7336" width="1.063" height="3.19" transform="translate(1.595 17.544)" fill="#111e61"/>
            <path id="Trazado_29740" data-name="Trazado 29740" d="M33.266,9.506V2.595H16.178a2.122,2.122,0,1,0-2.583,2.583V7.911h1.063V5.178a2.124,2.124,0,0,0,1.519-1.519H32.2V9.506H26.355V12.7H21.038V13.76h5.316v3.19h12.76V9.506ZM14.127,4.19A1.063,1.063,0,1,1,15.19,3.127,1.064,1.064,0,0,1,14.127,4.19Zm23.924,11.7H27.418V10.57H38.051Z" transform="translate(-12 -1)" fill="#111e61"/>
            <rect id="Rectángulo_7337" data-name="Rectángulo 7337" width="8.506" height="1.063" transform="translate(16.481 10.633)" fill="#111e61"/>
            <rect id="Rectángulo_7338" data-name="Rectángulo 7338" width="7.443" height="1.063" transform="translate(16.481 12.76)" fill="#111e61"/>
            <path id="Trazado_29741" data-name="Trazado 29741" d="M28,47.57H45.013V38H28Zm1.063-8.506H43.949v7.443H29.063Z" transform="translate(-19.494 -18.329)" fill="#111e61"/>
            <rect id="Rectángulo_7339" data-name="Rectángulo 7339" width="1.063" height="1.063" transform="translate(10.633 21.798)" fill="#111e61"/>
            <rect id="Rectángulo_7340" data-name="Rectángulo 7340" width="10.633" height="1.063" transform="translate(12.76 21.798)" fill="#111e61"/>
            <rect id="Rectángulo_7341" data-name="Rectángulo 7341" width="10.633" height="1.063" transform="translate(12.76 23.924)" fill="#111e61"/>
            <rect id="Rectángulo_7342" data-name="Rectángulo 7342" width="1.063" height="1.063" transform="translate(10.633 23.924)" fill="#111e61"/>
            <rect id="Rectángulo_7343" data-name="Rectángulo 7343" width="1.063" height="1.063" transform="translate(10.633 26.051)" fill="#111e61"/>
            <rect id="Rectángulo_7344" data-name="Rectángulo 7344" width="10.633" height="1.063" transform="translate(12.76 26.051)" fill="#111e61"/>
          </g>
          <g id="Grupo_30944" data-name="Grupo 30944" transform="translate(1.36 7.24)">
            <g id="Grupo_30943" data-name="Grupo 30943" transform="translate(0 0)">
              <path id="Trazado_29742" data-name="Trazado 29742" d="M9.143,24.713,1.36,18.725l7.783-5.987,7.783,5.987Z" transform="translate(-1.36 -12.738)" fill="#f0bc5e"/>
            </g>
          </g>
          <g id="Grupo_30946" data-name="Grupo 30946" transform="translate(4.89 21.203)">
            <g id="Grupo_30945" data-name="Grupo 30945">
              <path id="Trazado_29743" data-name="Trazado 29743" d="M16.506,44.316H8V39h8.506Z" transform="translate(-8 -39)" fill="#f0bc5e"/>
            </g>
          </g>
        </g>
      </g>
    </g>
    <g id="Grupo_30989" data-name="Grupo 30989" transform="translate(0 20)">
      <circle id="Elipse_1631-3" data-name="Elipse 1631" cx="25" cy="25" r="25" transform="translate(912 854)" fill="#fff"/>
      <g id="_018-programming" data-name="018-programming" transform="translate(922 864)">
        <path id="Trazado_29697" data-name="Trazado 29697" d="M28.1,17.452v14H1.9V19.258A1.356,1.356,0,0,1,3.258,17.9H15V17H3.258A2.261,2.261,0,0,0,1,19.258V32.806a2.261,2.261,0,0,0,2.258,2.258H9.129v1.806H7.323v.9H22.677v-.9H20.871V35.065h5.871A2.261,2.261,0,0,0,29,32.806V17.452ZM19.968,36.871H10.032V35.065h9.935Zm6.774-2.71H3.258A1.356,1.356,0,0,1,1.9,32.806v-.452H28.1v.452A1.356,1.356,0,0,1,26.742,34.161Z" transform="translate(0 -8.774)" fill="#111e61"/>
        <g id="Grupo_30875" data-name="Grupo 30875" transform="translate(6.419 11.387)">
          <rect id="Rectángulo_7257" data-name="Rectángulo 7257" width="9" height="9" transform="translate(-0.42 -0.387)" fill="#f0bc5e"/>
        </g>
        <g id="Grupo_30876" data-name="Grupo 30876" transform="translate(14.548 1)">
          <path id="Trazado_29698" data-name="Trazado 29698" d="M44.341,6.627a6.234,6.234,0,0,0-.662-1.592L44.2,3.986,42.466,2.248l-1.049.525a6.251,6.251,0,0,0-1.592-.662L39.455,1H37l-.37,1.111a6.234,6.234,0,0,0-1.592.662l-1.05-.525L32.248,3.985l.525,1.049a6.251,6.251,0,0,0-.662,1.592L31,7V9.454l1.111.37a6.234,6.234,0,0,0,.662,1.592l-.525,1.049L33.986,14.2l1.049-.525a6.251,6.251,0,0,0,1.592.662L37,15.452h2.457l.37-1.111a6.234,6.234,0,0,0,1.592-.662l1.049.525L44.2,12.466l-.525-1.049a6.251,6.251,0,0,0,.662-1.592l1.111-.37V7ZM38.226,9.581a1.355,1.355,0,1,1,1.355-1.355A1.355,1.355,0,0,1,38.226,9.581Z" transform="translate(-31 -1)" fill="#f0bc5e"/>
        </g>
        <g id="Grupo_30877" data-name="Grupo 30877" transform="translate(17.258 3.71)">
          <path id="Trazado_29699" data-name="Trazado 29699" d="M41.516,16.032a4.516,4.516,0,1,1,4.516-4.516A4.521,4.521,0,0,1,41.516,16.032Zm0-8.129a3.613,3.613,0,1,0,3.613,3.613A3.617,3.617,0,0,0,41.516,7.9Z" transform="translate(-37 -7)" fill="#111e61"/>
        </g>
        <g id="Grupo_30878" data-name="Grupo 30878" transform="translate(19.968 6.419)">
          <path id="Trazado_29700" data-name="Trazado 29700" d="M44.806,16.613a1.806,1.806,0,1,1,1.806-1.806A1.808,1.808,0,0,1,44.806,16.613Zm0-2.71a.9.9,0,1,0,.9.9A.9.9,0,0,0,44.806,13.9Z" transform="translate(-43 -13)" fill="#111e61"/>
        </g>
        <g id="Grupo_30879" data-name="Grupo 30879" transform="translate(2.806 10.484)">
          <path id="Trazado_29701" data-name="Trazado 29701" d="M7.71,28.323H7.258A1.356,1.356,0,0,1,5.9,26.968v-.452a.9.9,0,0,0-.9-.9v-.9a.9.9,0,0,0,.9-.9v-.452A1.356,1.356,0,0,1,7.258,22H7.71v.9H7.258a.452.452,0,0,0-.452.452v.452a1.8,1.8,0,0,1-.613,1.355,1.8,1.8,0,0,1,.613,1.355v.452a.452.452,0,0,0,.452.452H7.71Z" transform="translate(-5 -22)" fill="#111e61"/>
        </g>
        <g id="Grupo_30880" data-name="Grupo 30880" transform="translate(15.903 14.548)">
          <path id="Trazado_29702" data-name="Trazado 29702" d="M34.452,37.323H34v-.9h.452a.452.452,0,0,0,.452-.452v-.452a1.8,1.8,0,0,1,.613-1.355,1.8,1.8,0,0,1-.613-1.355v-.452a.452.452,0,0,0-.452-.452H34V31h.452a1.356,1.356,0,0,1,1.355,1.355v.452a.9.9,0,0,0,.9.9v.9a.9.9,0,0,0-.9.9v.452A1.356,1.356,0,0,1,34.452,37.323Z" transform="translate(-34 -31)" fill="#111e61"/>
        </g>
        <g id="Grupo_30881" data-name="Grupo 30881" transform="translate(6.419 10.935)">
          <rect id="Rectángulo_7258" data-name="Rectángulo 7258" width="9" height="1" transform="translate(-0.42 0.064)" fill="#111e61"/>
        </g>
        <g id="Grupo_30882" data-name="Grupo 30882" transform="translate(8.226 12.742)">
          <rect id="Rectángulo_7259" data-name="Rectángulo 7259" width="7" height="1" transform="translate(-0.227 0.258)" fill="#111e61"/>
        </g>
        <g id="Grupo_30883" data-name="Grupo 30883" transform="translate(6.419 12.742)">
          <rect id="Rectángulo_7260" data-name="Rectángulo 7260" width="1" height="1" transform="translate(-0.42 0.258)" fill="#111e61"/>
        </g>
        <g id="Grupo_30884" data-name="Grupo 30884" transform="translate(6.419 14.548)">
          <rect id="Rectángulo_7261" data-name="Rectángulo 7261" width="9" transform="translate(-0.42 0.451)" fill="#111e61"/>
        </g>
        <g id="Grupo_30885" data-name="Grupo 30885" transform="translate(6.419 16.355)">
          <rect id="Rectángulo_7262" data-name="Rectángulo 7262" width="9" height="1" transform="translate(-0.42 -0.354)" fill="#111e61"/>
        </g>
        <g id="Grupo_30886" data-name="Grupo 30886" transform="translate(14.097 18.161)">
          <rect id="Rectángulo_7263" data-name="Rectángulo 7263" width="1" height="1" transform="translate(-0.098 -0.161)" fill="#111e61"/>
        </g>
        <g id="Grupo_30887" data-name="Grupo 30887" transform="translate(6.419 18.161)">
          <rect id="Rectángulo_7264" data-name="Rectángulo 7264" width="7" height="1" transform="translate(-0.42 -0.161)" fill="#111e61"/>
        </g>
        <g id="Grupo_30888" data-name="Grupo 30888" transform="translate(6.419 19.968)">
          <rect id="Rectángulo_7265" data-name="Rectángulo 7265" width="9" height="1" transform="translate(-0.42 0.032)" fill="#111e61"/>
        </g>
      </g>
    </g>
  </g>
</svg>
