<svg id="math" xmlns="http://www.w3.org/2000/svg" width="60.794" height="56.744" viewBox="0 0 60.794 56.744">
  <path id="Trazado_29363" data-name="Trazado 29363" d="M247.063,164.459l-5.09-5.09a.9.9,0,1,0-1.267,1.267l3.561,3.561H231.748v-25.25l.308.369c2.121,2.546,4.526,5.431,9.2,5.431a.9.9,0,0,0,0-1.792c-3.838,0-5.775-2.325-7.826-4.786-2.121-2.546-4.526-5.431-9.2-5.431s-7.08,2.884-9.2,5.429a21.633,21.633,0,0,1-2.859,3.024.9.9,0,0,0,1.13,1.391,23.292,23.292,0,0,0,3.105-3.268c2.051-2.461,3.988-4.784,7.825-4.784a7.787,7.787,0,0,1,5.726,2.44V164.2h-3.709a.9.9,0,0,0,0,1.792h18.019l-3.56,3.56a.9.9,0,0,0,1.267,1.267l5.09-5.09A.9.9,0,0,0,247.063,164.459Z" transform="translate(-186.532 -118.905)" fill="#ffa726"/>
  <path id="Trazado_29364" data-name="Trazado 29364" d="M35.534,62.238H19.88V42.758c.256.019.519.029.79.029a10.3,10.3,0,0,0,1.893-.169.9.9,0,1,0-.33-1.761A8.5,8.5,0,0,1,20.67,41c-3.836,0-5.773-2.324-7.824-4.785-1.6-1.922-3.255-3.9-5.845-4.858V20.005l3.561,3.561A.9.9,0,1,0,11.828,22.3l-5.09-5.09c-.021-.021-.043-.041-.066-.06l-.031-.023L6.6,17.1l-.038-.023-.037-.022-.039-.019-.04-.019L6.409,17l-.044-.015-.039-.01-.046-.011-.044-.007-.043-.006c-.026,0-.052,0-.077,0H6.094c-.026,0-.052,0-.077,0l-.043.006-.044.007-.046.011-.039.01L5.8,17l-.039.014-.04.019-.039.019-.038.022-.038.023-.04.029-.031.023a.889.889,0,0,0-.066.06L.381,22.3a.9.9,0,1,0,1.267,1.267l3.561-3.561V62.238H.9a.9.9,0,1,0,0,1.792H5.209v5.482a.9.9,0,0,0,1.792,0V64.03H35.534a.9.9,0,1,0,0-1.792ZM7,33.3a14.2,14.2,0,0,1,4.469,4.057c1.69,2.028,3.562,4.271,6.619,5.1V62.238H7Z" transform="translate(0 -16.946)" fill="#ffa726"/>
  <path id="Trazado_29365" data-name="Trazado 29365" d="M247.446,270.917a1.265,1.265,0,0,1-.939-.388.9.9,0,0,0-1.328,1.2,3.052,3.052,0,0,0,2.267.976,2.217,2.217,0,0,0,2.252-1.735,2.058,2.058,0,0,0-1.542-2.265c-.486-.18-.944-.373-1.158-.466.008-.028.044-.071.14-.1a1.611,1.611,0,0,1,1.165.294.9.9,0,0,0,1.059-1.446,3.35,3.35,0,0,0-2.741-.565,1.936,1.936,0,0,0-1.4,1.568,1.78,1.78,0,0,0,.795,1.762.892.892,0,0,0,.124.068c.027.012.67.3,1.393.565.314.116.4.245.4.269A.488.488,0,0,1,247.446,270.917Z" transform="translate(-215.684 -236.527)" fill="#ffa726"/>
  <path id="Trazado_29366" data-name="Trazado 29366" d="M128.764,437.594a.9.9,0,0,0-.836.577,2.97,2.97,0,1,0,0,5.338.9.9,0,0,0,1.732-.319v-4.7A.9.9,0,0,0,128.764,437.594Zm-2.137,4.423a1.178,1.178,0,1,1,1.178-1.178A1.179,1.179,0,0,1,126.627,442.017Z" transform="translate(-108.884 -387.341)" fill="#ffa726"/>
  <path id="Trazado_29367" data-name="Trazado 29367" d="M347.308,421.365a3.076,3.076,0,0,0-1.421.342v-1.722a.9.9,0,0,0-1.792,0v6.91a.9.9,0,0,0,1.653.477,3.068,3.068,0,0,0,1.56.419,3.213,3.213,0,1,0,0-6.426Zm0,4.634a1.421,1.421,0,1,1,1.421-1.421A1.422,1.422,0,0,1,347.308,426Z" transform="translate(-302.987 -371.047)" fill="#ffa726"/>
  <path id="Trazado_29368" data-name="Trazado 29368" d="M182.576,46.271v3.64a.9.9,0,1,0,1.792,0V46.279h.137a.9.9,0,1,0,0-1.792h-.137v-.6a1.155,1.155,0,0,1,.289,0,.9.9,0,0,0,.3-1.767,2.365,2.365,0,0,0-1.811.4,1.637,1.637,0,0,0-.566,1.28V44.5a.9.9,0,0,0,0,1.776Z" transform="translate(-160.076 -39.08)" fill="#ffa726"/>
  <path id="Trazado_29369" data-name="Trazado 29369" d="M268.018,58.094a.9.9,0,0,0,1.255-.176l1.121-1.486L271.586,58a.9.9,0,1,0,1.427-1.083l-1.5-1.974,1.24-1.644a.9.9,0,1,0-1.431-1.079l-.935,1.239-.942-1.242a.9.9,0,0,0-1.428,1.083l1.249,1.645-1.426,1.891A.9.9,0,0,0,268.018,58.094Z" transform="translate(-235.685 -47.694)" fill="#ffa726"/>
  <path id="Trazado_29370" data-name="Trazado 29370" d="M230.664,55.694a.9.9,0,0,0,.866-1.127,8.753,8.753,0,0,1-.032-4.975.9.9,0,0,0-1.666-.661,10.313,10.313,0,0,0-.034,6.1A.9.9,0,0,0,230.664,55.694Z" transform="translate(-201.973 -44.613)" fill="#ffa726"/>
  <path id="Trazado_29371" data-name="Trazado 29371" d="M334.01,54.567a.9.9,0,1,0,1.732.462,10.313,10.313,0,0,0-.034-6.1.9.9,0,1,0-1.664.665A8.761,8.761,0,0,1,334.01,54.567Z" transform="translate(-294.081 -44.613)" fill="#ffa726"/>
</svg>
