<svg xmlns="http://www.w3.org/2000/svg" xmlns:xlink="http://www.w3.org/1999/xlink" width="618" height="295" viewBox="0 0 618 295">
  <defs>
    <filter id="Rect치ngulo_4827" x="0" y="0" width="618" height="295" filterUnits="userSpaceOnUse">
      <feOffset dy="3" input="SourceAlpha"/>
      <feGaussianBlur stdDeviation="3" result="blur"/>
      <feFlood flood-opacity="0.122"/>
      <feComposite operator="in" in2="blur"/>
      <feComposite in="SourceGraphic"/>
    </filter>
  </defs>
  <g id="Grupo_31022" data-name="Grupo 31022" transform="translate(-170 -3662)">
    <g transform="matrix(1, 0, 0, 1, 170, 3662)" filter="url(#Rect치ngulo_4827)">
      <rect id="Rect치ngulo_4827-2" data-name="Rect치ngulo 4827" width="600" height="277" rx="5" transform="translate(9 6)" fill="#f5f5f5"/>
    </g>
    <path id="Trazado_29779" data-name="Trazado 29779" d="M6.758,10.422H2.867l-.391.977h.391a1.22,1.22,0,0,1,.824.223.748.748,0,0,1,.246.582.739.739,0,0,1-.246.574A1.22,1.22,0,0,1,2.867,13H.711a1.22,1.22,0,0,1-.824-.223A.748.748,0,0,1-.359,12.2.744.744,0,0,1-.1,11.609,1.231,1.231,0,0,1,.75,11.4L3.266,5.133H2.219a1.22,1.22,0,0,1-.824-.223.748.748,0,0,1-.246-.582.748.748,0,0,1,.246-.582,1.22,1.22,0,0,1,.824-.223l3.461.008L8.867,11.4a1.457,1.457,0,0,1,.742.125.8.8,0,0,1,.359.68.745.745,0,0,1-.242.574,1.2,1.2,0,0,1-.82.223H6.75a1.22,1.22,0,0,1-.824-.223A.748.748,0,0,1,5.68,12.2a.739.739,0,0,1,.246-.574A1.22,1.22,0,0,1,6.75,11.4h.391Zm-.664-1.6L4.8,5.648,3.508,8.82Zm7.641-3.687V11.4h3.453V9.883a1.22,1.22,0,0,1,.223-.824.748.748,0,0,1,.582-.246.739.739,0,0,1,.574.246,1.22,1.22,0,0,1,.223.824V13H11.2a1.22,1.22,0,0,1-.824-.223.748.748,0,0,1-.246-.582.739.739,0,0,1,.246-.574A1.22,1.22,0,0,1,11.2,11.4h.93V5.133H11.2a1.22,1.22,0,0,1-.824-.223.748.748,0,0,1-.246-.582.748.748,0,0,1,.246-.582,1.22,1.22,0,0,1,.824-.223l3.469.008a1.235,1.235,0,0,1,.824.219.736.736,0,0,1,.246.578.748.748,0,0,1-.246.582,1.22,1.22,0,0,1-.824.223Zm14.3,4.938v2.148a9.494,9.494,0,0,1-1.848.8,6.037,6.037,0,0,1-1.645.215,6.824,6.824,0,0,1-2.273-.367,3.673,3.673,0,0,1-1.293-.711,4.042,4.042,0,0,1-.871-1.27,4.329,4.329,0,0,1-.4-1.879V7.852a4.539,4.539,0,0,1,.977-2.859,4.266,4.266,0,0,1,3.57-1.7,5.66,5.66,0,0,1,1.246.133,4.907,4.907,0,0,1,1.121.4.95.95,0,0,1,.625-.289.732.732,0,0,1,.57.242,1.219,1.219,0,0,1,.219.82V5.633a1.22,1.22,0,0,1-.223.824.739.739,0,0,1-.574.246.726.726,0,0,1-.484-.172.959.959,0,0,1-.262-.52,1.317,1.317,0,0,0-.238-.543,1.792,1.792,0,0,0-.746-.4,3.831,3.831,0,0,0-1.2-.176,3.357,3.357,0,0,0-1.656.391,2.7,2.7,0,0,0-.922,1.008,3.032,3.032,0,0,0-.422,1.563V9.008a2.491,2.491,0,0,0,.746,1.957,3.494,3.494,0,0,0,2.371.668,4.775,4.775,0,0,0,2.008-.414V10.07H24.8a1.22,1.22,0,0,1-.824-.223.811.811,0,0,1,0-1.164,1.22,1.22,0,0,1,.824-.223l2.844.008a1.235,1.235,0,0,1,.824.219.736.736,0,0,1,.246.578.767.767,0,0,1-.168.492A.989.989,0,0,1,28.039,10.07ZM38.1,8.266a4.935,4.935,0,0,1-1.355,3.551,4.218,4.218,0,0,1-3.137,1.418,4.176,4.176,0,0,1-2.891-1.18,4.9,4.9,0,0,1-1.594-3.789,4.928,4.928,0,0,1,1.594-3.8,4.176,4.176,0,0,1,2.891-1.18,4.218,4.218,0,0,1,3.137,1.418A4.945,4.945,0,0,1,38.1,8.266Zm-1.6,0a3.428,3.428,0,0,0-.883-2.418,2.573,2.573,0,0,0-4.008,0,3.431,3.431,0,0,0-.883,2.414,3.417,3.417,0,0,0,.883,2.41,2.58,2.58,0,0,0,4.008,0A3.414,3.414,0,0,0,36.5,8.266Zm5.055,1.117V11.4h.578a1.22,1.22,0,0,1,.824.223.748.748,0,0,1,.246.582.739.739,0,0,1-.246.574,1.22,1.22,0,0,1-.824.223H39.7a1.22,1.22,0,0,1-.824-.223.748.748,0,0,1-.246-.582.734.734,0,0,1,.25-.574,1.222,1.222,0,0,1,.82-.223h.25V5.133H39.7a1.22,1.22,0,0,1-.824-.223.748.748,0,0,1-.246-.582.748.748,0,0,1,.246-.582,1.22,1.22,0,0,1,.824-.223l3.625.008a3.8,3.8,0,0,1,2.629.84,2.647,2.647,0,0,1,.934,2.043,2.293,2.293,0,0,1-.437,1.363,3.8,3.8,0,0,1-1.32,1.09,10.172,10.172,0,0,1,1.086,1.141q.359.445.969,1.391a1.7,1.7,0,0,1,.8.125.779.779,0,0,1,.352.68.745.745,0,0,1-.242.574,1.2,1.2,0,0,1-.82.223h-.914q-1.945-3.008-3.227-3.617Zm0-1.6H42.8a3.432,3.432,0,0,0,1.242-.211,2.389,2.389,0,0,0,.988-.594.984.984,0,0,0,.254-.617,1.086,1.086,0,0,0-.484-.84,2.226,2.226,0,0,0-1.414-.387H41.555ZM53.609,5.133V11.4h1.617a1.22,1.22,0,0,1,.824.223.748.748,0,0,1,.246.582.739.739,0,0,1-.246.574,1.22,1.22,0,0,1-.824.223H50.391a1.22,1.22,0,0,1-.824-.223.748.748,0,0,1-.246-.582.739.739,0,0,1,.246-.574,1.22,1.22,0,0,1,.824-.223h1.617V5.133H50.391a1.22,1.22,0,0,1-.824-.223.748.748,0,0,1-.246-.582.748.748,0,0,1,.246-.582,1.22,1.22,0,0,1,.824-.223l4.836.008a1.235,1.235,0,0,1,.824.219.736.736,0,0,1,.246.578.748.748,0,0,1-.246.582,1.22,1.22,0,0,1-.824.223Zm9.578,0V11.4h1.078a1.22,1.22,0,0,1,.824.223.748.748,0,0,1,.246.582.739.739,0,0,1-.246.574,1.22,1.22,0,0,1-.824.223h-3.75a1.22,1.22,0,0,1-.824-.223.748.748,0,0,1-.246-.582.739.739,0,0,1,.246-.574,1.22,1.22,0,0,1,.824-.223h1.07V5.133H59.852V6.648a1.22,1.22,0,0,1-.223.824.748.748,0,0,1-.582.246.739.739,0,0,1-.574-.246,1.22,1.22,0,0,1-.223-.824V3.523l8.3.008V6.648a1.22,1.22,0,0,1-.223.824.748.748,0,0,1-.582.246.739.739,0,0,1-.574-.246,1.22,1.22,0,0,1-.223-.824V5.133Zm6.32,1.492V11.4h.578a1.22,1.22,0,0,1,.824.223.748.748,0,0,1,.246.582.739.739,0,0,1-.246.574,1.22,1.22,0,0,1-.824.223h-2.1a1.22,1.22,0,0,1-.824-.223.807.807,0,0,1,0-1.156,1.08,1.08,0,0,1,.75-.223V5.133a.989.989,0,0,1-.637-.258.749.749,0,0,1-.215-.547.748.748,0,0,1,.246-.582,1.22,1.22,0,0,1,.824-.223l1.758.008,2.18,4.82L74.2,3.523l1.773.008a1.235,1.235,0,0,1,.824.219.736.736,0,0,1,.246.578.742.742,0,0,1-.219.547,1,1,0,0,1-.633.258V11.4a1.068,1.068,0,0,1,.75.227.757.757,0,0,1,.242.578.739.739,0,0,1-.246.574,1.22,1.22,0,0,1-.824.223H74.008a1.205,1.205,0,0,1-.816-.223.748.748,0,0,1-.246-.582.739.739,0,0,1,.246-.574,1.205,1.205,0,0,1,.816-.223h.586V6.625L72.758,10.75H71.367Zm16.6,1.641a4.935,4.935,0,0,1-1.355,3.551,4.218,4.218,0,0,1-3.137,1.418,4.176,4.176,0,0,1-2.891-1.18,4.9,4.9,0,0,1-1.594-3.789,4.928,4.928,0,0,1,1.594-3.8,4.176,4.176,0,0,1,2.891-1.18,4.218,4.218,0,0,1,3.137,1.418A4.945,4.945,0,0,1,86.109,8.266Zm-1.6,0a3.428,3.428,0,0,0-.883-2.418,2.573,2.573,0,0,0-4.008,0,3.431,3.431,0,0,0-.883,2.414,3.417,3.417,0,0,0,.883,2.41,2.58,2.58,0,0,0,4.008,0A3.414,3.414,0,0,0,84.508,8.266Zm19.2-3.508V4.3a.5.5,0,0,1,.09-.336.33.33,0,0,1,.477,0,.5.5,0,0,1,.09.336v1.82a.518.518,0,0,1-.09.344.3.3,0,0,1-.238.1.3.3,0,0,1-.223-.094.485.485,0,0,1-.105-.3A1.576,1.576,0,0,0,102.992,5a3.3,3.3,0,0,0-2.062-.7,3.154,3.154,0,0,0-1.43.336,2.382,2.382,0,0,0-.8.594,5.046,5.046,0,0,0-.82,1.352,3.3,3.3,0,0,0-.219,1.234V8.969a3.521,3.521,0,0,0,1.063,2.551A3.357,3.357,0,0,0,101.2,12.6a3.086,3.086,0,0,0,1.512-.367A4.664,4.664,0,0,0,104,11.125a.38.38,0,0,1,.3-.164.306.306,0,0,1,.227.086.3.3,0,0,1,.086.219q0,.18-.336.547a4.315,4.315,0,0,1-1.441,1.082,3.89,3.89,0,0,1-1.621.363,4.124,4.124,0,0,1-1.445-.273,3.607,3.607,0,0,1-.93-.492,5.81,5.81,0,0,1-.9-.949,4.268,4.268,0,0,1-.73-1.234,3.8,3.8,0,0,1-.2-1.246V7.727a4.318,4.318,0,0,1,.52-1.98,3.779,3.779,0,0,1,1.422-1.555,3.728,3.728,0,0,1,1.957-.543A3.927,3.927,0,0,1,103.7,4.758Zm10.383,4.875a3.473,3.473,0,0,1-1.074,2.563,3.7,3.7,0,0,1-5.191,0,3.6,3.6,0,0,1,0-5.125,3.7,3.7,0,0,1,5.191,0A3.482,3.482,0,0,1,114.086,9.633Zm-.664,0a2.843,2.843,0,0,0-.879-2.1,3.042,3.042,0,0,0-4.258,0,2.938,2.938,0,0,0,0,4.191,3.032,3.032,0,0,0,4.258,0A2.847,2.847,0,0,0,113.422,9.633Zm4.477-3.4v.992a4.737,4.737,0,0,1,1.242-.961A2.858,2.858,0,0,1,120.391,6a2.923,2.923,0,0,1,1.367.32,2.243,2.243,0,0,1,.793.777,2.009,2.009,0,0,1,.355,1.113v4.133h.555a.5.5,0,0,1,.336.09.3.3,0,0,1,.1.238.306.306,0,0,1-.1.234.489.489,0,0,1-.336.094H121.7a.5.5,0,0,1-.344-.094.306.306,0,0,1-.1-.234.3.3,0,0,1,.1-.238.518.518,0,0,1,.344-.09h.547V8.32a1.556,1.556,0,0,0-.508-1.176,1.9,1.9,0,0,0-1.359-.48,2.3,2.3,0,0,0-1.125.262,6.035,6.035,0,0,0-1.359,1.3v4.117h.742a.5.5,0,0,1,.336.09.3.3,0,0,1,.1.238.306.306,0,0,1-.1.234.489.489,0,0,1-.336.094H116.5a.489.489,0,0,1-.336-.094.306.306,0,0,1-.1-.234.3.3,0,0,1,.1-.238.5.5,0,0,1,.336-.09h.742V6.9h-.555a.489.489,0,0,1-.336-.094.315.315,0,0,1-.1-.242.306.306,0,0,1,.1-.234.489.489,0,0,1,.336-.094Zm10.375,0h3.563a.489.489,0,0,1,.336.094.315.315,0,0,1,.1.242.306.306,0,0,1-.1.234.489.489,0,0,1-.336.094h-3.562v4.367a1.194,1.194,0,0,0,.457.953,2.04,2.04,0,0,0,1.34.383,5.786,5.786,0,0,0,1.438-.2,4.867,4.867,0,0,0,1.2-.449.512.512,0,0,1,.258-.1.294.294,0,0,1,.219.1.322.322,0,0,1,.094.23.306.306,0,0,1-.1.219,3.266,3.266,0,0,1-1.215.559,6.2,6.2,0,0,1-1.848.3,2.861,2.861,0,0,1-1.828-.539,1.758,1.758,0,0,1-.68-1.453V6.9H126.4a.489.489,0,0,1-.336-.094.315.315,0,0,1-.1-.242.306.306,0,0,1,.1-.234.489.489,0,0,1,.336-.094h1.211V4.3a.489.489,0,0,1,.094-.336.306.306,0,0,1,.234-.1.315.315,0,0,1,.242.1.489.489,0,0,1,.094.336ZM141.109,13v-.945a4.667,4.667,0,0,1-3.055,1.2,2.658,2.658,0,0,1-1.844-.6,1.9,1.9,0,0,1-.664-1.465,2.1,2.1,0,0,1,.875-1.664,3.972,3.972,0,0,1,2.555-.711,9.021,9.021,0,0,1,.984.059q.531.059,1.148.184V8a1.173,1.173,0,0,0-.5-.937,2.376,2.376,0,0,0-1.5-.4,7.592,7.592,0,0,0-2.148.445,1.5,1.5,0,0,1-.32.078.287.287,0,0,1-.215-.094.325.325,0,0,1-.09-.234.285.285,0,0,1,.078-.211,2.683,2.683,0,0,1,.883-.32A7.8,7.8,0,0,1,139.141,6a2.83,2.83,0,0,1,1.938.613,1.817,1.817,0,0,1,.7,1.387v4.344h.875a.518.518,0,0,1,.344.09.3.3,0,0,1,.1.238.306.306,0,0,1-.1.234.5.5,0,0,1-.344.094Zm0-3.266a6.232,6.232,0,0,0-.977-.2,9.03,9.03,0,0,0-1.086-.062,3.594,3.594,0,0,0-2.234.617,1.352,1.352,0,0,0-.609,1.1,1.277,1.277,0,0,0,.465,1,2,2,0,0,0,1.355.406,3.7,3.7,0,0,0,1.582-.34,5.7,5.7,0,0,0,1.5-1.082ZM152.039,3.2v9.148h.875a.518.518,0,0,1,.344.09.3.3,0,0,1,.1.238.306.306,0,0,1-.1.234.5.5,0,0,1-.344.094h-1.539V11.7a3.456,3.456,0,0,1-2.9,1.563,3.424,3.424,0,0,1-3-1.82,3.689,3.689,0,0,1,0-3.613,3.4,3.4,0,0,1,1.289-1.348A3.352,3.352,0,0,1,148.484,6a3.5,3.5,0,0,1,2.891,1.563v-3.7H150.5a.5.5,0,0,1-.344-.094.315.315,0,0,1-.1-.242.306.306,0,0,1,.1-.234A.5.5,0,0,1,150.5,3.2Zm-.664,6.438a2.9,2.9,0,0,0-.844-2.109,2.784,2.784,0,0,0-4.023,0,2.9,2.9,0,0,0-.844,2.109,2.9,2.9,0,0,0,.844,2.105,2.776,2.776,0,0,0,4.023,0A2.9,2.9,0,0,0,151.375,9.633Zm10.719,0A3.473,3.473,0,0,1,161.02,12.2a3.7,3.7,0,0,1-5.191,0,3.6,3.6,0,0,1,0-5.125,3.7,3.7,0,0,1,5.191,0A3.482,3.482,0,0,1,162.094,9.633Zm-.664,0a2.843,2.843,0,0,0-.879-2.1,3.042,3.042,0,0,0-4.258,0,2.938,2.938,0,0,0,0,4.191,3.032,3.032,0,0,0,4.258,0A2.847,2.847,0,0,0,161.43,9.633Zm5.813-3.4V7.891A11.042,11.042,0,0,1,169.16,6.4a2.57,2.57,0,0,1,1.176-.332,1.733,1.733,0,0,1,1.09.395q.5.395.5.6a.334.334,0,0,1-.344.344.3.3,0,0,1-.133-.027,1.105,1.105,0,0,1-.2-.176,1.984,1.984,0,0,0-.477-.375.887.887,0,0,0-.4-.1,2.2,2.2,0,0,0-1.035.344,15.449,15.449,0,0,0-2.1,1.68v3.594h2.906a.518.518,0,0,1,.344.09.3.3,0,0,1,.1.238.306.306,0,0,1-.1.234.5.5,0,0,1-.344.094H165a.5.5,0,0,1-.336-.09.294.294,0,0,1-.1-.23.29.29,0,0,1,.1-.223.5.5,0,0,1,.34-.09h1.586V6.9h-1.211a.489.489,0,0,1-.336-.094.315.315,0,0,1-.1-.242.311.311,0,0,1,.1-.234.487.487,0,0,1,.34-.094Zm10.242,0h.289a1.01,1.01,0,0,1,.746.313,1.061,1.061,0,0,1-.746,1.813h-.289a1.01,1.01,0,0,1-.746-.312,1.066,1.066,0,0,1,.008-1.508A1.031,1.031,0,0,1,177.484,6.234Zm-1.141,4.406h2.063L176.2,14.266a1.279,1.279,0,0,1-.262.336.384.384,0,0,1-.23.07.439.439,0,0,1-.312-.117.372.372,0,0,1-.125-.281.845.845,0,0,1,.047-.242ZM4.8,34.664l2.32-5.531H6.75a1.22,1.22,0,0,1-.824-.223.811.811,0,0,1,0-1.164,1.22,1.22,0,0,1,.824-.223l2.148.008a1.235,1.235,0,0,1,.824.219.736.736,0,0,1,.246.578.778.778,0,0,1-.375.68,1.435,1.435,0,0,1-.734.125L5.57,37H4.031L.75,29.133a1.457,1.457,0,0,1-.742-.125.766.766,0,0,1-.375-.68.748.748,0,0,1,.246-.582A1.22,1.22,0,0,1,.7,27.523l2.164.008a1.221,1.221,0,0,1,.816.219.736.736,0,0,1,.246.578.754.754,0,0,1-.242.582,1.2,1.2,0,0,1-.82.223H2.492Zm11.563-.242H12.469l-.391.977h.391a1.22,1.22,0,0,1,.824.223.748.748,0,0,1,.246.582.739.739,0,0,1-.246.574,1.22,1.22,0,0,1-.824.223H10.313a1.22,1.22,0,0,1-.824-.223A.8.8,0,0,1,9.5,35.609a1.231,1.231,0,0,1,.852-.211l2.516-6.266H11.82A1.22,1.22,0,0,1,11,28.91a.811.811,0,0,1,0-1.164,1.22,1.22,0,0,1,.824-.223l3.461.008L18.469,35.4a1.457,1.457,0,0,1,.742.125.8.8,0,0,1,.359.68.745.745,0,0,1-.242.574,1.2,1.2,0,0,1-.82.223H16.352a1.22,1.22,0,0,1-.824-.223.748.748,0,0,1-.246-.582.739.739,0,0,1,.246-.574,1.22,1.22,0,0,1,.824-.223h.391Zm-.664-1.6-1.289-3.172-1.3,3.172Zm6.656.563V35.4h.578a1.22,1.22,0,0,1,.824.223A.748.748,0,0,1,24,36.2a.739.739,0,0,1-.246.574A1.22,1.22,0,0,1,22.93,37H20.5a1.22,1.22,0,0,1-.824-.223.748.748,0,0,1-.246-.582.734.734,0,0,1,.25-.574,1.222,1.222,0,0,1,.82-.223h.25V29.133H20.5a1.22,1.22,0,0,1-.824-.223.811.811,0,0,1,0-1.164,1.22,1.22,0,0,1,.824-.223l3.625.008a3.8,3.8,0,0,1,2.629.84,2.647,2.647,0,0,1,.934,2.043,2.294,2.294,0,0,1-.437,1.363,3.8,3.8,0,0,1-1.32,1.09,10.171,10.171,0,0,1,1.086,1.141q.359.445.969,1.391a1.7,1.7,0,0,1,.8.125.779.779,0,0,1,.352.68.745.745,0,0,1-.242.574,1.2,1.2,0,0,1-.82.223h-.914q-1.945-3.008-3.227-3.617Zm0-1.6H23.6a3.432,3.432,0,0,0,1.242-.211,2.389,2.389,0,0,0,.988-.594.984.984,0,0,0,.254-.617,1.086,1.086,0,0,0-.484-.84,2.226,2.226,0,0,0-1.414-.387H22.352ZM41.563,57.047V59.4h4.086v-.867a1.22,1.22,0,0,1,.223-.824.748.748,0,0,1,.582-.246.739.739,0,0,1,.574.246,1.22,1.22,0,0,1,.223.824V61H39.711a1.22,1.22,0,0,1-.824-.223.748.748,0,0,1-.246-.582.734.734,0,0,1,.25-.574,1.222,1.222,0,0,1,.82-.223h.25V53.133h-.25a1.22,1.22,0,0,1-.824-.223.811.811,0,0,1,0-1.164,1.22,1.22,0,0,1,.824-.223l7.188.008v2.438a1.221,1.221,0,0,1-.219.816.736.736,0,0,1-.578.246.754.754,0,0,1-.582-.242,1.2,1.2,0,0,1-.223-.82v-.836H41.563v2.313h1.406a1.737,1.737,0,0,1,.117-.8.769.769,0,0,1,.688-.383.739.739,0,0,1,.574.246,1.22,1.22,0,0,1,.223.824v1.844a1.349,1.349,0,0,1-.125.7.8.8,0,0,1-1.359-.016,1.762,1.762,0,0,1-.117-.812ZM50.8,54.555V59.4h.578a1.22,1.22,0,0,1,.824.223.748.748,0,0,1,.246.582.739.739,0,0,1-.246.574,1.22,1.22,0,0,1-.824.223h-2.1a1.22,1.22,0,0,1-.824-.223.8.8,0,0,1,0-1.152,1.068,1.068,0,0,1,.75-.227V53.133h-.25a1.22,1.22,0,0,1-.824-.223.811.811,0,0,1,0-1.164,1.22,1.22,0,0,1,.824-.223l1.852.008L54.9,57.953v-4.82H54.32a1.22,1.22,0,0,1-.824-.223.811.811,0,0,1,0-1.164,1.22,1.22,0,0,1,.824-.223l2.1.008a1.235,1.235,0,0,1,.824.219.736.736,0,0,1,.246.578.757.757,0,0,1-.242.578,1.055,1.055,0,0,1-.742.227V61H54.922Zm12.383-1.422V59.4h1.078a1.22,1.22,0,0,1,.824.223.748.748,0,0,1,.246.582.739.739,0,0,1-.246.574,1.22,1.22,0,0,1-.824.223h-3.75a1.22,1.22,0,0,1-.824-.223.748.748,0,0,1-.246-.582.739.739,0,0,1,.246-.574,1.22,1.22,0,0,1,.824-.223h1.07V53.133H59.852v1.516a1.22,1.22,0,0,1-.223.824.748.748,0,0,1-.582.246.739.739,0,0,1-.574-.246,1.22,1.22,0,0,1-.223-.824V51.523l8.3.008v3.117a1.22,1.22,0,0,1-.223.824.748.748,0,0,1-.582.246.739.739,0,0,1-.574-.246,1.22,1.22,0,0,1-.223-.824V53.133Zm7.18,3.914V59.4h4.086v-.867a1.22,1.22,0,0,1,.223-.824.748.748,0,0,1,.582-.246.739.739,0,0,1,.574.246,1.22,1.22,0,0,1,.223.824V61H68.516a1.22,1.22,0,0,1-.824-.223.748.748,0,0,1-.246-.582.734.734,0,0,1,.25-.574,1.222,1.222,0,0,1,.82-.223h.25V53.133h-.25a1.22,1.22,0,0,1-.824-.223.811.811,0,0,1,0-1.164,1.22,1.22,0,0,1,.824-.223l7.188.008v2.438a1.221,1.221,0,0,1-.219.816.736.736,0,0,1-.578.246.754.754,0,0,1-.582-.242,1.2,1.2,0,0,1-.223-.82v-.836H70.367v2.313h1.406a1.737,1.737,0,0,1,.117-.8.769.769,0,0,1,.688-.383.739.739,0,0,1,.574.246,1.22,1.22,0,0,1,.223.824v1.844a1.349,1.349,0,0,1-.125.7.8.8,0,0,1-1.359-.016,1.762,1.762,0,0,1-.117-.812Zm9.594.336V59.4h.578a1.22,1.22,0,0,1,.824.223.748.748,0,0,1,.246.582.739.739,0,0,1-.246.574,1.22,1.22,0,0,1-.824.223h-2.43a1.22,1.22,0,0,1-.824-.223.748.748,0,0,1-.246-.582.734.734,0,0,1,.25-.574,1.222,1.222,0,0,1,.82-.223h.25V53.133h-.25a1.22,1.22,0,0,1-.824-.223.811.811,0,0,1,0-1.164,1.22,1.22,0,0,1,.824-.223l3.625.008a3.8,3.8,0,0,1,2.629.84,2.647,2.647,0,0,1,.934,2.043,2.294,2.294,0,0,1-.437,1.363,3.8,3.8,0,0,1-1.32,1.09,10.171,10.171,0,0,1,1.086,1.141q.359.445.969,1.391a1.7,1.7,0,0,1,.8.125.779.779,0,0,1,.352.68.745.745,0,0,1-.242.574,1.2,1.2,0,0,1-.82.223h-.914q-1.945-3.008-3.227-3.617Zm0-1.6h1.25a3.432,3.432,0,0,0,1.242-.211,2.389,2.389,0,0,0,.988-.594.984.984,0,0,0,.254-.617,1.086,1.086,0,0,0-.484-.84,2.226,2.226,0,0,0-1.414-.387H79.961Zm15.75.484a4.935,4.935,0,0,1-1.355,3.551,4.218,4.218,0,0,1-3.137,1.418,4.176,4.176,0,0,1-2.891-1.18,5.31,5.31,0,0,1,0-7.586,4.176,4.176,0,0,1,2.891-1.18,4.218,4.218,0,0,1,3.137,1.418A4.945,4.945,0,0,1,95.711,56.266Zm-1.6,0a3.428,3.428,0,0,0-.883-2.418,2.573,2.573,0,0,0-4.008,0,3.737,3.737,0,0,0,0,4.824,2.58,2.58,0,0,0,4.008,0A3.414,3.414,0,0,0,94.109,56.266ZM113.156,54.9V54.68a.5.5,0,0,1,.094-.344.306.306,0,0,1,.234-.1.315.315,0,0,1,.242.1.5.5,0,0,1,.094.344v1.484a.546.546,0,0,1-.1.344.326.326,0,0,1-.461.012.466.466,0,0,1-.105-.3,1.533,1.533,0,0,0-.73-1.055,3.052,3.052,0,0,0-1.84-.5,2.717,2.717,0,0,0-2.219.914,3.188,3.188,0,0,0-.758,2.094,2.833,2.833,0,0,0,.836,2.1,2.943,2.943,0,0,0,2.164.828,4.644,4.644,0,0,0,1.559-.281,3.912,3.912,0,0,0,1.434-.906.457.457,0,0,1,.289-.156.307.307,0,0,1,.313.313q0,.336-.789.852a5.057,5.057,0,0,1-2.836.836,3.543,3.543,0,0,1-2.605-1.012,3.463,3.463,0,0,1-1.02-2.566A3.573,3.573,0,0,1,110.625,54,3.7,3.7,0,0,1,113.156,54.9Zm10.531,2.734a3.473,3.473,0,0,1-1.074,2.563,3.7,3.7,0,0,1-5.191,0,3.6,3.6,0,0,1,0-5.125,3.7,3.7,0,0,1,5.191,0A3.482,3.482,0,0,1,123.688,57.633Zm-.664,0a2.843,2.843,0,0,0-.879-2.1,3.042,3.042,0,0,0-4.258,0,2.938,2.938,0,0,0,0,4.191,3.032,3.032,0,0,0,4.258,0A2.847,2.847,0,0,0,123.023,57.633Zm4.477-3.4v.992a4.736,4.736,0,0,1,1.242-.961,2.858,2.858,0,0,1,1.25-.266,2.923,2.923,0,0,1,1.367.32,2.243,2.243,0,0,1,.793.777,2.009,2.009,0,0,1,.355,1.113v4.133h.555a.5.5,0,0,1,.336.09.3.3,0,0,1,.1.238.306.306,0,0,1-.1.234.489.489,0,0,1-.336.094H131.3a.5.5,0,0,1-.344-.094.306.306,0,0,1-.1-.234.3.3,0,0,1,.1-.238.518.518,0,0,1,.344-.09h.547V56.32a1.556,1.556,0,0,0-.508-1.176,1.9,1.9,0,0,0-1.359-.48,2.3,2.3,0,0,0-1.125.262,6.036,6.036,0,0,0-1.359,1.3v4.117h.742a.5.5,0,0,1,.336.09.3.3,0,0,1,.1.238.306.306,0,0,1-.1.234.489.489,0,0,1-.336.094H126.1a.489.489,0,0,1-.336-.094.306.306,0,0,1-.1-.234.3.3,0,0,1,.1-.238.5.5,0,0,1,.336-.09h.742V54.9h-.555a.489.489,0,0,1-.336-.094.315.315,0,0,1-.1-.242.306.306,0,0,1,.1-.234.489.489,0,0,1,.336-.094Zm10.375,0h3.563a.489.489,0,0,1,.336.094.315.315,0,0,1,.1.242.306.306,0,0,1-.1.234.489.489,0,0,1-.336.094h-3.562v4.367a1.194,1.194,0,0,0,.457.953,2.04,2.04,0,0,0,1.34.383,5.786,5.786,0,0,0,1.438-.2,4.867,4.867,0,0,0,1.2-.449.512.512,0,0,1,.258-.1.294.294,0,0,1,.219.1.322.322,0,0,1,.094.23.306.306,0,0,1-.1.219,3.266,3.266,0,0,1-1.215.559,6.2,6.2,0,0,1-1.848.3,2.861,2.861,0,0,1-1.828-.539,1.758,1.758,0,0,1-.68-1.453V54.9H136a.489.489,0,0,1-.336-.094.315.315,0,0,1-.1-.242.306.306,0,0,1,.1-.234.489.489,0,0,1,.336-.094h1.211V52.3a.489.489,0,0,1,.094-.336.306.306,0,0,1,.234-.1.315.315,0,0,1,.242.1.489.489,0,0,1,.094.336ZM150.711,61v-.945a4.667,4.667,0,0,1-3.055,1.2,2.658,2.658,0,0,1-1.844-.6,1.9,1.9,0,0,1-.664-1.465,2.1,2.1,0,0,1,.875-1.664,3.972,3.972,0,0,1,2.555-.711,9.021,9.021,0,0,1,.984.059q.531.059,1.148.184V56a1.173,1.173,0,0,0-.5-.937,2.376,2.376,0,0,0-1.5-.4,7.592,7.592,0,0,0-2.148.445,1.5,1.5,0,0,1-.32.078.287.287,0,0,1-.215-.094.325.325,0,0,1-.09-.234.285.285,0,0,1,.078-.211,2.683,2.683,0,0,1,.883-.32A7.8,7.8,0,0,1,148.742,54a2.83,2.83,0,0,1,1.938.613,1.817,1.817,0,0,1,.7,1.387v4.344h.875a.518.518,0,0,1,.344.09.3.3,0,0,1,.1.238.306.306,0,0,1-.1.234.5.5,0,0,1-.344.094Zm0-3.266a6.232,6.232,0,0,0-.977-.2,9.029,9.029,0,0,0-1.086-.062,3.594,3.594,0,0,0-2.234.617,1.352,1.352,0,0,0-.609,1.1,1.277,1.277,0,0,0,.465,1,2,2,0,0,0,1.355.406,3.7,3.7,0,0,0,1.582-.34,5.7,5.7,0,0,0,1.5-1.082Zm10.93-6.539v9.148h.875a.518.518,0,0,1,.344.09.3.3,0,0,1,.1.238.306.306,0,0,1-.1.234.5.5,0,0,1-.344.094h-1.539V59.7a3.456,3.456,0,0,1-2.9,1.563,3.424,3.424,0,0,1-3-1.82,3.689,3.689,0,0,1,0-3.613,3.4,3.4,0,0,1,1.289-1.348A3.352,3.352,0,0,1,158.086,54a3.5,3.5,0,0,1,2.891,1.563v-3.7H160.1a.5.5,0,0,1-.344-.094.315.315,0,0,1-.1-.242.306.306,0,0,1,.1-.234.5.5,0,0,1,.344-.094Zm-.664,6.438a2.9,2.9,0,0,0-.844-2.109,2.784,2.784,0,0,0-4.023,0,3.054,3.054,0,0,0,0,4.215,2.776,2.776,0,0,0,4.023,0A2.9,2.9,0,0,0,160.977,57.633Zm10.719,0a3.473,3.473,0,0,1-1.074,2.563,3.7,3.7,0,0,1-5.191,0,3.6,3.6,0,0,1,0-5.125,3.7,3.7,0,0,1,5.191,0A3.482,3.482,0,0,1,171.7,57.633Zm-.664,0a2.843,2.843,0,0,0-.879-2.1,3.042,3.042,0,0,0-4.258,0,2.938,2.938,0,0,0,0,4.191,3.032,3.032,0,0,0,4.258,0A2.847,2.847,0,0,0,171.031,57.633Zm5.813-3.4v1.656a11.042,11.042,0,0,1,1.918-1.488,2.57,2.57,0,0,1,1.176-.332,1.733,1.733,0,0,1,1.09.395q.5.395.5.6a.334.334,0,0,1-.344.344.3.3,0,0,1-.133-.027,1.105,1.105,0,0,1-.2-.176,1.984,1.984,0,0,0-.477-.375.887.887,0,0,0-.4-.1,2.2,2.2,0,0,0-1.035.344,15.449,15.449,0,0,0-2.1,1.68v3.594h2.906a.518.518,0,0,1,.344.09.3.3,0,0,1,.1.238.306.306,0,0,1-.1.234.5.5,0,0,1-.344.094H174.6a.5.5,0,0,1-.336-.09.294.294,0,0,1-.1-.23.29.29,0,0,1,.1-.223.5.5,0,0,1,.34-.09h1.586V54.9h-1.211a.489.489,0,0,1-.336-.094.315.315,0,0,1-.1-.242.311.311,0,0,1,.1-.234.487.487,0,0,1,.34-.094Zm10.242,0h.289a1.01,1.01,0,0,1,.746.313,1.061,1.061,0,0,1-.746,1.813h-.289a1.01,1.01,0,0,1-.746-.312,1.066,1.066,0,0,1,.008-1.508A1.031,1.031,0,0,1,187.086,54.234Zm-1.141,4.406h2.063L185.8,62.266a1.279,1.279,0,0,1-.262.336.384.384,0,0,1-.23.07.439.439,0,0,1-.312-.117.372.372,0,0,1-.125-.281.845.845,0,0,1,.047-.242ZM5.6,77.133V83.4H7.219a1.22,1.22,0,0,1,.824.223.748.748,0,0,1,.246.582.739.739,0,0,1-.246.574A1.22,1.22,0,0,1,7.219,85H2.383a1.22,1.22,0,0,1-.824-.223.748.748,0,0,1-.246-.582.739.739,0,0,1,.246-.574,1.22,1.22,0,0,1,.824-.223H4V77.133H2.383a1.22,1.22,0,0,1-.824-.223.811.811,0,0,1,0-1.164,1.22,1.22,0,0,1,.824-.223l4.836.008a1.235,1.235,0,0,1,.824.219.736.736,0,0,1,.246.578.748.748,0,0,1-.246.582,1.22,1.22,0,0,1-.824.223Zm6.8,1.422V83.4h.578a1.22,1.22,0,0,1,.824.223.748.748,0,0,1,.246.582.739.739,0,0,1-.246.574,1.22,1.22,0,0,1-.824.223h-2.1a1.22,1.22,0,0,1-.824-.223.8.8,0,0,1,0-1.152,1.068,1.068,0,0,1,.75-.227V77.133h-.25a1.22,1.22,0,0,1-.824-.223.811.811,0,0,1,0-1.164,1.22,1.22,0,0,1,.824-.223l1.852.008,4.094,6.422v-4.82h-.578a1.22,1.22,0,0,1-.824-.223.811.811,0,0,1,0-1.164,1.22,1.22,0,0,1,.824-.223l2.1.008a1.235,1.235,0,0,1,.824.219.736.736,0,0,1,.246.578.757.757,0,0,1-.242.578,1.055,1.055,0,0,1-.742.227V85H16.516ZM24.8,77.133V83.4h1.617a1.22,1.22,0,0,1,.824.223.748.748,0,0,1,.246.582.739.739,0,0,1-.246.574,1.22,1.22,0,0,1-.824.223H21.586a1.22,1.22,0,0,1-.824-.223.748.748,0,0,1-.246-.582.739.739,0,0,1,.246-.574,1.22,1.22,0,0,1,.824-.223H23.2V77.133H21.586a1.22,1.22,0,0,1-.824-.223.811.811,0,0,1,0-1.164,1.22,1.22,0,0,1,.824-.223l4.836.008a1.235,1.235,0,0,1,.824.219.736.736,0,0,1,.246.578.748.748,0,0,1-.246.582,1.22,1.22,0,0,1-.824.223Zm11.313-1.2a1.076,1.076,0,0,1,.324-.3.785.785,0,0,1,.953.141,1.2,1.2,0,0,1,.223.82v1.359a1.22,1.22,0,0,1-.223.824.739.739,0,0,1-.574.246.732.732,0,0,1-.516-.18,1.227,1.227,0,0,1-.289-.672.974.974,0,0,0-.219-.508A2.219,2.219,0,0,0,34.9,77.1a3.321,3.321,0,0,0-1.152-.211,2.821,2.821,0,0,0-1.32.313,2.884,2.884,0,0,0-1.062,1.016,2.98,2.98,0,0,0-.461,1.672V80.93a2.515,2.515,0,0,0,.84,1.93,3.313,3.313,0,0,0,2.332.773,4.14,4.14,0,0,0,1.508-.242,2.3,2.3,0,0,0,.766-.555,1.905,1.905,0,0,1,.391-.324.676.676,0,0,1,.32-.074.772.772,0,0,1,.563.242.78.78,0,0,1,.242.57,1.106,1.106,0,0,1-.328.7,3.256,3.256,0,0,1-1.227.859,5.711,5.711,0,0,1-2.227.422,5.526,5.526,0,0,1-2.562-.586,4.064,4.064,0,0,1-1.57-1.48,4.01,4.01,0,0,1-.648-2.207V79.875a4.847,4.847,0,0,1,.582-2.332A4.115,4.115,0,0,1,31.5,75.875a4.36,4.36,0,0,1,2.188-.586,5.072,5.072,0,0,1,1.3.16A4.074,4.074,0,0,1,36.117,75.938Zm7.891,1.2V83.4h1.617a1.22,1.22,0,0,1,.824.223.748.748,0,0,1,.246.582.739.739,0,0,1-.246.574,1.22,1.22,0,0,1-.824.223H40.789a1.22,1.22,0,0,1-.824-.223.748.748,0,0,1-.246-.582.739.739,0,0,1,.246-.574,1.22,1.22,0,0,1,.824-.223h1.617V77.133H40.789a1.22,1.22,0,0,1-.824-.223.811.811,0,0,1,0-1.164,1.22,1.22,0,0,1,.824-.223l4.836.008a1.235,1.235,0,0,1,.824.219.736.736,0,0,1,.246.578.748.748,0,0,1-.246.582,1.22,1.22,0,0,1-.824.223Zm13.3,3.133a4.935,4.935,0,0,1-1.355,3.551,4.218,4.218,0,0,1-3.137,1.418,4.176,4.176,0,0,1-2.891-1.18,5.31,5.31,0,0,1,0-7.586,4.176,4.176,0,0,1,2.891-1.18,4.218,4.218,0,0,1,3.137,1.418A4.945,4.945,0,0,1,57.3,80.266Zm-1.6,0a3.428,3.428,0,0,0-.883-2.418,2.573,2.573,0,0,0-4.008,0,3.737,3.737,0,0,0,0,4.824,2.58,2.58,0,0,0,4.008,0A3.414,3.414,0,0,0,55.7,80.266ZM45.945,102.9v-.219a.5.5,0,0,1,.094-.344.306.306,0,0,1,.234-.1.315.315,0,0,1,.242.1.5.5,0,0,1,.094.344v1.484a.546.546,0,0,1-.1.344.326.326,0,0,1-.461.012.467.467,0,0,1-.105-.3,1.533,1.533,0,0,0-.73-1.055,3.052,3.052,0,0,0-1.84-.5,2.717,2.717,0,0,0-2.219.914,3.188,3.188,0,0,0-.758,2.094,2.833,2.833,0,0,0,.836,2.1,2.943,2.943,0,0,0,2.164.828,4.643,4.643,0,0,0,1.559-.281,3.912,3.912,0,0,0,1.434-.906.457.457,0,0,1,.289-.156.307.307,0,0,1,.313.313q0,.336-.789.852a5.057,5.057,0,0,1-2.836.836,3.543,3.543,0,0,1-2.605-1.012,3.463,3.463,0,0,1-1.02-2.566A3.573,3.573,0,0,1,43.414,102,3.7,3.7,0,0,1,45.945,102.9Zm10.531,2.734A3.473,3.473,0,0,1,55.4,108.2a3.7,3.7,0,0,1-5.191,0,3.6,3.6,0,0,1,0-5.125,3.7,3.7,0,0,1,5.191,0A3.482,3.482,0,0,1,56.477,105.633Zm-.664,0a2.843,2.843,0,0,0-.879-2.1,3.042,3.042,0,0,0-4.258,0,2.938,2.938,0,0,0,0,4.191,3.032,3.032,0,0,0,4.258,0A2.847,2.847,0,0,0,55.813,105.633Zm4.477-3.4v.992a4.737,4.737,0,0,1,1.242-.961,2.858,2.858,0,0,1,1.25-.266,2.923,2.923,0,0,1,1.367.32,2.243,2.243,0,0,1,.793.777,2.009,2.009,0,0,1,.355,1.113v4.133h.555a.5.5,0,0,1,.336.09.3.3,0,0,1,.1.238.306.306,0,0,1-.1.234.489.489,0,0,1-.336.094H64.094a.5.5,0,0,1-.344-.094.306.306,0,0,1-.1-.234.3.3,0,0,1,.1-.238.518.518,0,0,1,.344-.09h.547V104.32a1.556,1.556,0,0,0-.508-1.176,1.9,1.9,0,0,0-1.359-.48,2.3,2.3,0,0,0-1.125.262,6.035,6.035,0,0,0-1.359,1.3v4.117h.742a.5.5,0,0,1,.336.09.3.3,0,0,1,.1.238.306.306,0,0,1-.1.234.489.489,0,0,1-.336.094H58.891a.489.489,0,0,1-.336-.094.306.306,0,0,1-.1-.234.3.3,0,0,1,.1-.238.5.5,0,0,1,.336-.09h.742V102.9h-.555a.489.489,0,0,1-.336-.094.315.315,0,0,1-.1-.242.306.306,0,0,1,.1-.234.489.489,0,0,1,.336-.094Zm10.375,0h3.563a.489.489,0,0,1,.336.094.315.315,0,0,1,.1.242.306.306,0,0,1-.1.234.489.489,0,0,1-.336.094H70.664v4.367a1.194,1.194,0,0,0,.457.953,2.04,2.04,0,0,0,1.34.383,5.786,5.786,0,0,0,1.438-.2,4.867,4.867,0,0,0,1.2-.449.512.512,0,0,1,.258-.1.294.294,0,0,1,.219.1.322.322,0,0,1,.094.23.306.306,0,0,1-.1.219,3.266,3.266,0,0,1-1.215.559,6.2,6.2,0,0,1-1.848.3,2.861,2.861,0,0,1-1.828-.539,1.758,1.758,0,0,1-.68-1.453V102.9H68.789a.489.489,0,0,1-.336-.094.315.315,0,0,1-.1-.242.306.306,0,0,1,.1-.234.489.489,0,0,1,.336-.094H70V100.3a.489.489,0,0,1,.094-.336.306.306,0,0,1,.234-.1.315.315,0,0,1,.242.1.489.489,0,0,1,.094.336ZM83.5,109v-.945a4.667,4.667,0,0,1-3.055,1.2,2.658,2.658,0,0,1-1.844-.6,1.9,1.9,0,0,1-.664-1.465,2.1,2.1,0,0,1,.875-1.664,3.972,3.972,0,0,1,2.555-.711,9.021,9.021,0,0,1,.984.059q.531.059,1.148.184V104a1.173,1.173,0,0,0-.5-.937,2.376,2.376,0,0,0-1.5-.4,7.592,7.592,0,0,0-2.148.445,1.5,1.5,0,0,1-.32.078.287.287,0,0,1-.215-.094.325.325,0,0,1-.09-.234.285.285,0,0,1,.078-.211,2.683,2.683,0,0,1,.883-.32A7.8,7.8,0,0,1,81.531,102a2.83,2.83,0,0,1,1.938.613,1.817,1.817,0,0,1,.7,1.387v4.344h.875a.518.518,0,0,1,.344.09.3.3,0,0,1,.1.238.306.306,0,0,1-.1.234.5.5,0,0,1-.344.094Zm0-3.266a6.232,6.232,0,0,0-.977-.2,9.03,9.03,0,0,0-1.086-.062,3.594,3.594,0,0,0-2.234.617,1.352,1.352,0,0,0-.609,1.1,1.277,1.277,0,0,0,.465,1,2,2,0,0,0,1.355.406,3.7,3.7,0,0,0,1.582-.34,5.7,5.7,0,0,0,1.5-1.082ZM94.43,99.2v9.148H95.3a.518.518,0,0,1,.344.09.3.3,0,0,1,.1.238.306.306,0,0,1-.1.234A.5.5,0,0,1,95.3,109H93.766v-1.3a3.456,3.456,0,0,1-2.9,1.563,3.424,3.424,0,0,1-3-1.82,3.689,3.689,0,0,1,0-3.613,3.4,3.4,0,0,1,1.289-1.348A3.352,3.352,0,0,1,90.875,102a3.5,3.5,0,0,1,2.891,1.563v-3.7h-.875a.5.5,0,0,1-.344-.094.315.315,0,0,1-.1-.242.306.306,0,0,1,.1-.234.5.5,0,0,1,.344-.094Zm-.664,6.438a2.9,2.9,0,0,0-.844-2.109,2.784,2.784,0,0,0-4.023,0,3.054,3.054,0,0,0,0,4.215,2.776,2.776,0,0,0,4.023,0A2.9,2.9,0,0,0,93.766,105.633Zm10.719,0a3.473,3.473,0,0,1-1.074,2.563,3.7,3.7,0,0,1-5.191,0,3.6,3.6,0,0,1,0-5.125,3.7,3.7,0,0,1,5.191,0A3.482,3.482,0,0,1,104.484,105.633Zm-.664,0a2.843,2.843,0,0,0-.879-2.1,3.042,3.042,0,0,0-4.258,0,2.938,2.938,0,0,0,0,4.191,3.032,3.032,0,0,0,4.258,0A2.847,2.847,0,0,0,103.82,105.633Zm5.813-3.4v1.656a11.041,11.041,0,0,1,1.918-1.488,2.57,2.57,0,0,1,1.176-.332,1.733,1.733,0,0,1,1.09.395q.5.395.5.6a.334.334,0,0,1-.344.344.3.3,0,0,1-.133-.027,1.1,1.1,0,0,1-.2-.176,1.984,1.984,0,0,0-.477-.375.887.887,0,0,0-.4-.1,2.2,2.2,0,0,0-1.035.344,15.447,15.447,0,0,0-2.1,1.68v3.594h2.906a.518.518,0,0,1,.344.09.3.3,0,0,1,.1.238.306.306,0,0,1-.1.234.5.5,0,0,1-.344.094h-5.148a.5.5,0,0,1-.336-.09.294.294,0,0,1-.1-.23.29.29,0,0,1,.1-.223.5.5,0,0,1,.34-.09h1.586V102.9h-1.211a.489.489,0,0,1-.336-.094.335.335,0,0,1,0-.477.487.487,0,0,1,.34-.094ZM142.8,103.57h-7.156a.489.489,0,0,1-.336-.094.315.315,0,0,1-.1-.242.306.306,0,0,1,.1-.234.489.489,0,0,1,.336-.094H142.8a.489.489,0,0,1,.336.094.315.315,0,0,1,.1.242.306.306,0,0,1-.1.234A.489.489,0,0,1,142.8,103.57Zm0,2.352h-7.156a.5.5,0,0,1-.336-.09.33.33,0,0,1,0-.477.5.5,0,0,1,.336-.09H142.8a.5.5,0,0,1,.336.09.33.33,0,0,1,0,.477A.5.5,0,0,1,142.8,105.922Zm18.633-2.633v1.625a5.145,5.145,0,0,1-1.008,3.352,2.463,2.463,0,0,1-1.992.969,2.623,2.623,0,0,1-1.09-.23,2.5,2.5,0,0,1-.871-.645,3.7,3.7,0,0,1-.5-.828,5.631,5.631,0,0,1-.387-1.047,6.114,6.114,0,0,1-.18-1.57v-1.625a5.158,5.158,0,0,1,1.008-3.359,2.463,2.463,0,0,1,1.992-.969,2.615,2.615,0,0,1,1.094.23,2.5,2.5,0,0,1,.867.645,3.6,3.6,0,0,1,.5.836,5.387,5.387,0,0,1,.563,2.617Zm-.656.086a5.539,5.539,0,0,0-.262-1.73,5.024,5.024,0,0,0-.59-1.277,1.761,1.761,0,0,0-.508-.469,1.873,1.873,0,0,0-1-.273,1.912,1.912,0,0,0-1.727,1.125,5.318,5.318,0,0,0-.625,2.625v1.445a5.576,5.576,0,0,0,.262,1.734,4.836,4.836,0,0,0,.6,1.281,1.71,1.71,0,0,0,.5.461,1.847,1.847,0,0,0,1.008.281,1.906,1.906,0,0,0,1.719-1.129,5.34,5.34,0,0,0,.625-2.629Zm7.1-1.141h.289a1.01,1.01,0,0,1,.746.313,1.061,1.061,0,0,1-.746,1.813h-.289a1.01,1.01,0,0,1-.746-.312,1.066,1.066,0,0,1,.008-1.508A1.031,1.031,0,0,1,167.883,102.234Zm-1.141,4.406H168.8l-2.211,3.625a1.279,1.279,0,0,1-.262.336.384.384,0,0,1-.23.07.439.439,0,0,1-.312-.117.372.372,0,0,1-.125-.281.845.845,0,0,1,.047-.242ZM45.945,126.9v-.219a.5.5,0,0,1,.094-.344.306.306,0,0,1,.234-.1.315.315,0,0,1,.242.1.5.5,0,0,1,.094.344v1.484a.546.546,0,0,1-.1.344.326.326,0,0,1-.461.012.467.467,0,0,1-.105-.3,1.533,1.533,0,0,0-.73-1.055,3.052,3.052,0,0,0-1.84-.5,2.717,2.717,0,0,0-2.219.914,3.188,3.188,0,0,0-.758,2.094,2.833,2.833,0,0,0,.836,2.1,2.943,2.943,0,0,0,2.164.828,4.643,4.643,0,0,0,1.559-.281,3.912,3.912,0,0,0,1.434-.906.457.457,0,0,1,.289-.156.307.307,0,0,1,.313.313q0,.336-.789.852a5.057,5.057,0,0,1-2.836.836,3.543,3.543,0,0,1-2.605-1.012,3.463,3.463,0,0,1-1.02-2.566A3.573,3.573,0,0,1,43.414,126,3.7,3.7,0,0,1,45.945,126.9Zm10.531,2.734A3.473,3.473,0,0,1,55.4,132.2a3.7,3.7,0,0,1-5.191,0,3.6,3.6,0,0,1,0-5.125,3.7,3.7,0,0,1,5.191,0A3.482,3.482,0,0,1,56.477,129.633Zm-.664,0a2.843,2.843,0,0,0-.879-2.1,3.042,3.042,0,0,0-4.258,0,2.938,2.938,0,0,0,0,4.191,3.032,3.032,0,0,0,4.258,0A2.847,2.847,0,0,0,55.813,129.633Zm4.477-3.4v.992a4.737,4.737,0,0,1,1.242-.961,2.858,2.858,0,0,1,1.25-.266,2.923,2.923,0,0,1,1.367.32,2.243,2.243,0,0,1,.793.777,2.009,2.009,0,0,1,.355,1.113v4.133h.555a.5.5,0,0,1,.336.09.3.3,0,0,1,.1.238.306.306,0,0,1-.1.234.489.489,0,0,1-.336.094H64.094a.5.5,0,0,1-.344-.094.306.306,0,0,1-.1-.234.3.3,0,0,1,.1-.238.518.518,0,0,1,.344-.09h.547V128.32a1.556,1.556,0,0,0-.508-1.176,1.9,1.9,0,0,0-1.359-.48,2.3,2.3,0,0,0-1.125.262,6.035,6.035,0,0,0-1.359,1.3v4.117h.742a.5.5,0,0,1,.336.09.3.3,0,0,1,.1.238.306.306,0,0,1-.1.234.489.489,0,0,1-.336.094H58.891a.489.489,0,0,1-.336-.094.306.306,0,0,1-.1-.234.3.3,0,0,1,.1-.238.5.5,0,0,1,.336-.09h.742V126.9h-.555a.489.489,0,0,1-.336-.094.315.315,0,0,1-.1-.242.306.306,0,0,1,.1-.234.489.489,0,0,1,.336-.094Zm10.375,0h3.563a.489.489,0,0,1,.336.094.315.315,0,0,1,.1.242.306.306,0,0,1-.1.234.489.489,0,0,1-.336.094H70.664v4.367a1.194,1.194,0,0,0,.457.953,2.04,2.04,0,0,0,1.34.383,5.786,5.786,0,0,0,1.438-.2,4.867,4.867,0,0,0,1.2-.449.512.512,0,0,1,.258-.1.294.294,0,0,1,.219.1.322.322,0,0,1,.094.23.306.306,0,0,1-.1.219,3.266,3.266,0,0,1-1.215.559,6.2,6.2,0,0,1-1.848.3,2.861,2.861,0,0,1-1.828-.539,1.758,1.758,0,0,1-.68-1.453V126.9H68.789a.489.489,0,0,1-.336-.094.315.315,0,0,1-.1-.242.306.306,0,0,1,.1-.234.489.489,0,0,1,.336-.094H70V124.3a.489.489,0,0,1,.094-.336.306.306,0,0,1,.234-.1.315.315,0,0,1,.242.1.489.489,0,0,1,.094.336ZM83.5,133v-.945a4.667,4.667,0,0,1-3.055,1.2,2.658,2.658,0,0,1-1.844-.6,1.9,1.9,0,0,1-.664-1.465,2.1,2.1,0,0,1,.875-1.664,3.972,3.972,0,0,1,2.555-.711,9.021,9.021,0,0,1,.984.059q.531.059,1.148.184V128a1.173,1.173,0,0,0-.5-.937,2.376,2.376,0,0,0-1.5-.4,7.592,7.592,0,0,0-2.148.445,1.5,1.5,0,0,1-.32.078.287.287,0,0,1-.215-.094.325.325,0,0,1-.09-.234.285.285,0,0,1,.078-.211,2.683,2.683,0,0,1,.883-.32A7.8,7.8,0,0,1,81.531,126a2.83,2.83,0,0,1,1.938.613,1.817,1.817,0,0,1,.7,1.387v4.344h.875a.518.518,0,0,1,.344.09.3.3,0,0,1,.1.238.306.306,0,0,1-.1.234.5.5,0,0,1-.344.094Zm0-3.266a6.232,6.232,0,0,0-.977-.2,9.029,9.029,0,0,0-1.086-.062,3.594,3.594,0,0,0-2.234.617,1.352,1.352,0,0,0-.609,1.1,1.277,1.277,0,0,0,.465,1,2,2,0,0,0,1.355.406,3.7,3.7,0,0,0,1.582-.34,5.7,5.7,0,0,0,1.5-1.082ZM94.43,123.2v9.148H95.3a.518.518,0,0,1,.344.09.3.3,0,0,1,.1.238.306.306,0,0,1-.1.234A.5.5,0,0,1,95.3,133H93.766v-1.3a3.456,3.456,0,0,1-2.9,1.563,3.424,3.424,0,0,1-3-1.82,3.689,3.689,0,0,1,0-3.613,3.4,3.4,0,0,1,1.289-1.348A3.352,3.352,0,0,1,90.875,126a3.5,3.5,0,0,1,2.891,1.563v-3.7h-.875a.5.5,0,0,1-.344-.094.315.315,0,0,1-.1-.242.306.306,0,0,1,.1-.234.5.5,0,0,1,.344-.094Zm-.664,6.438a2.9,2.9,0,0,0-.844-2.109,2.784,2.784,0,0,0-4.023,0,3.054,3.054,0,0,0,0,4.215,2.776,2.776,0,0,0,4.023,0A2.9,2.9,0,0,0,93.766,129.633Zm10.719,0a3.473,3.473,0,0,1-1.074,2.563,3.7,3.7,0,0,1-5.191,0,3.6,3.6,0,0,1,0-5.125,3.7,3.7,0,0,1,5.191,0A3.482,3.482,0,0,1,104.484,129.633Zm-.664,0a2.843,2.843,0,0,0-.879-2.1,3.042,3.042,0,0,0-4.258,0,2.938,2.938,0,0,0,0,4.191,3.032,3.032,0,0,0,4.258,0A2.847,2.847,0,0,0,103.82,129.633Zm5.813-3.4v1.656a11.041,11.041,0,0,1,1.918-1.488,2.57,2.57,0,0,1,1.176-.332,1.733,1.733,0,0,1,1.09.395q.5.395.5.6a.334.334,0,0,1-.344.344.3.3,0,0,1-.133-.027,1.1,1.1,0,0,1-.2-.176,1.984,1.984,0,0,0-.477-.375.887.887,0,0,0-.4-.1,2.2,2.2,0,0,0-1.035.344,15.447,15.447,0,0,0-2.1,1.68v3.594h2.906a.518.518,0,0,1,.344.09.3.3,0,0,1,.1.238.306.306,0,0,1-.1.234.5.5,0,0,1-.344.094h-5.148a.5.5,0,0,1-.336-.09.294.294,0,0,1-.1-.23.29.29,0,0,1,.1-.223.5.5,0,0,1,.34-.09h1.586V126.9h-1.211a.489.489,0,0,1-.336-.094.335.335,0,0,1,0-.477.487.487,0,0,1,.34-.094Zm15.953,2.211,7.094-3.953a.621.621,0,0,1,.258-.094.334.334,0,0,1,.328.328q0,.2-.266.344l-6.078,3.375,6.07,3.375q.266.148.266.344a.334.334,0,0,1-.328.328.621.621,0,0,1-.258-.094Zm17.219-.875h-7.156a.489.489,0,0,1-.336-.094.315.315,0,0,1-.1-.242.306.306,0,0,1,.1-.234.489.489,0,0,1,.336-.094H142.8a.489.489,0,0,1,.336.094.315.315,0,0,1,.1.242.306.306,0,0,1-.1.234A.489.489,0,0,1,142.8,127.57Zm0,2.352h-7.156a.5.5,0,0,1-.336-.09.33.33,0,0,1,0-.477.5.5,0,0,1,.336-.09H142.8a.5.5,0,0,1,.336.09.33.33,0,0,1,0,.477A.5.5,0,0,1,142.8,129.922Zm18.359-3.023v-.219a.5.5,0,0,1,.094-.344.306.306,0,0,1,.234-.1.315.315,0,0,1,.242.1.5.5,0,0,1,.094.344v1.484a.546.546,0,0,1-.1.344.326.326,0,0,1-.461.012.467.467,0,0,1-.105-.3,1.533,1.533,0,0,0-.73-1.055,3.052,3.052,0,0,0-1.84-.5,2.717,2.717,0,0,0-2.219.914,3.188,3.188,0,0,0-.758,2.094,2.833,2.833,0,0,0,.836,2.1,2.943,2.943,0,0,0,2.164.828,4.643,4.643,0,0,0,1.559-.281,3.912,3.912,0,0,0,1.434-.906.457.457,0,0,1,.289-.156.307.307,0,0,1,.313.313q0,.336-.789.852a5.057,5.057,0,0,1-2.836.836,3.543,3.543,0,0,1-2.605-1.012,3.463,3.463,0,0,1-1.02-2.566,3.573,3.573,0,0,1,3.672-3.68A3.7,3.7,0,0,1,161.164,126.9Zm10.531,2.734a3.473,3.473,0,0,1-1.074,2.563,3.7,3.7,0,0,1-5.191,0,3.6,3.6,0,0,1,0-5.125,3.7,3.7,0,0,1,5.191,0A3.482,3.482,0,0,1,171.7,129.633Zm-.664,0a2.843,2.843,0,0,0-.879-2.1,3.042,3.042,0,0,0-4.258,0,2.938,2.938,0,0,0,0,4.191,3.032,3.032,0,0,0,4.258,0A2.847,2.847,0,0,0,171.031,129.633Zm4.477-3.4v.992a4.737,4.737,0,0,1,1.242-.961A2.858,2.858,0,0,1,178,126a2.923,2.923,0,0,1,1.367.32,2.243,2.243,0,0,1,.793.777,2.009,2.009,0,0,1,.355,1.113v4.133h.555a.5.5,0,0,1,.336.09.3.3,0,0,1,.1.238.306.306,0,0,1-.1.234.489.489,0,0,1-.336.094h-1.758a.5.5,0,0,1-.344-.094.306.306,0,0,1-.1-.234.3.3,0,0,1,.1-.238.518.518,0,0,1,.344-.09h.547V128.32a1.556,1.556,0,0,0-.508-1.176,1.9,1.9,0,0,0-1.359-.48,2.3,2.3,0,0,0-1.125.262,6.035,6.035,0,0,0-1.359,1.3v4.117h.742a.5.5,0,0,1,.336.09.3.3,0,0,1,.1.238.306.306,0,0,1-.1.234.489.489,0,0,1-.336.094h-2.141a.489.489,0,0,1-.336-.094.306.306,0,0,1-.1-.234.3.3,0,0,1,.1-.238.5.5,0,0,1,.336-.09h.742V126.9H174.3a.489.489,0,0,1-.336-.094.315.315,0,0,1-.1-.242.306.306,0,0,1,.1-.234.489.489,0,0,1,.336-.094Zm10.375,0h3.563a.489.489,0,0,1,.336.094.315.315,0,0,1,.1.242.306.306,0,0,1-.1.234.489.489,0,0,1-.336.094h-3.562v4.367a1.194,1.194,0,0,0,.457.953,2.04,2.04,0,0,0,1.34.383,5.786,5.786,0,0,0,1.438-.2,4.866,4.866,0,0,0,1.2-.449.512.512,0,0,1,.258-.1.294.294,0,0,1,.219.1.322.322,0,0,1,.094.23.306.306,0,0,1-.1.219,3.266,3.266,0,0,1-1.215.559,6.2,6.2,0,0,1-1.848.3,2.861,2.861,0,0,1-1.828-.539,1.758,1.758,0,0,1-.68-1.453V126.9h-1.211a.489.489,0,0,1-.336-.094.315.315,0,0,1-.1-.242.306.306,0,0,1,.1-.234.489.489,0,0,1,.336-.094h1.211V124.3a.489.489,0,0,1,.094-.336.306.306,0,0,1,.234-.1.315.315,0,0,1,.242.1.489.489,0,0,1,.094.336ZM198.719,133v-.945a4.667,4.667,0,0,1-3.055,1.2,2.658,2.658,0,0,1-1.844-.6,1.9,1.9,0,0,1-.664-1.465,2.1,2.1,0,0,1,.875-1.664,3.972,3.972,0,0,1,2.555-.711,9.021,9.021,0,0,1,.984.059q.531.059,1.148.184V128a1.173,1.173,0,0,0-.5-.937,2.376,2.376,0,0,0-1.5-.4,7.592,7.592,0,0,0-2.148.445,1.5,1.5,0,0,1-.32.078.287.287,0,0,1-.215-.094.325.325,0,0,1-.09-.234.285.285,0,0,1,.078-.211,2.683,2.683,0,0,1,.883-.32A7.8,7.8,0,0,1,196.75,126a2.83,2.83,0,0,1,1.938.613,1.817,1.817,0,0,1,.7,1.387v4.344h.875a.518.518,0,0,1,.344.09.3.3,0,0,1,.1.238.306.306,0,0,1-.1.234.5.5,0,0,1-.344.094Zm0-3.266a6.232,6.232,0,0,0-.977-.2,9.029,9.029,0,0,0-1.086-.062,3.594,3.594,0,0,0-2.234.617,1.352,1.352,0,0,0-.609,1.1,1.277,1.277,0,0,0,.465,1,2,2,0,0,0,1.355.406,3.7,3.7,0,0,0,1.582-.34,5.7,5.7,0,0,0,1.5-1.082Zm10.93-6.539v9.148h.875a.518.518,0,0,1,.344.09.3.3,0,0,1,.1.238.306.306,0,0,1-.1.234.5.5,0,0,1-.344.094h-1.539v-1.3a3.456,3.456,0,0,1-2.9,1.563,3.424,3.424,0,0,1-3-1.82,3.689,3.689,0,0,1,0-3.613,3.4,3.4,0,0,1,1.289-1.348,3.352,3.352,0,0,1,1.715-.477,3.5,3.5,0,0,1,2.891,1.563v-3.7h-.875a.5.5,0,0,1-.344-.094.315.315,0,0,1-.1-.242.306.306,0,0,1,.1-.234.5.5,0,0,1,.344-.094Zm-.664,6.438a2.9,2.9,0,0,0-.844-2.109,2.784,2.784,0,0,0-4.023,0,3.054,3.054,0,0,0,0,4.215,2.776,2.776,0,0,0,4.023,0A2.9,2.9,0,0,0,208.984,129.633Zm10.719,0a3.473,3.473,0,0,1-1.074,2.563,3.7,3.7,0,0,1-5.191,0,3.6,3.6,0,0,1,0-5.125,3.7,3.7,0,0,1,5.191,0A3.482,3.482,0,0,1,219.7,129.633Zm-.664,0a2.843,2.843,0,0,0-.879-2.1,3.042,3.042,0,0,0-4.258,0,2.938,2.938,0,0,0,0,4.191,3.032,3.032,0,0,0,4.258,0A2.847,2.847,0,0,0,219.039,129.633Zm5.813-3.4v1.656a11.041,11.041,0,0,1,1.918-1.488,2.57,2.57,0,0,1,1.176-.332,1.733,1.733,0,0,1,1.09.395q.5.395.5.6a.334.334,0,0,1-.344.344.3.3,0,0,1-.133-.027,1.1,1.1,0,0,1-.2-.176,1.984,1.984,0,0,0-.477-.375.887.887,0,0,0-.4-.1,2.2,2.2,0,0,0-1.035.344,15.448,15.448,0,0,0-2.1,1.68v3.594h2.906a.518.518,0,0,1,.344.09.3.3,0,0,1,.1.238.306.306,0,0,1-.1.234.5.5,0,0,1-.344.094h-5.148a.5.5,0,0,1-.336-.09.294.294,0,0,1-.1-.23.29.29,0,0,1,.1-.223.5.5,0,0,1,.34-.09H224.2V126.9h-1.211a.489.489,0,0,1-.336-.094.315.315,0,0,1-.1-.242.311.311,0,0,1,.1-.234.487.487,0,0,1,.34-.094Zm20.32,2.523v3.281a.489.489,0,0,1-.094.336.315.315,0,0,1-.242.1.306.306,0,0,1-.234-.1.489.489,0,0,1-.094-.336v-3.281H241.6a.5.5,0,0,1-.336-.09.33.33,0,0,1,0-.477.5.5,0,0,1,.336-.09h2.906v-3.266a.489.489,0,0,1,.094-.336.315.315,0,0,1,.242-.1.306.306,0,0,1,.234.1.489.489,0,0,1,.094.336V128.1h2.906a.5.5,0,0,1,.336.09.33.33,0,0,1,0,.477.5.5,0,0,1-.336.09Zm19.2-5.7v9.281h2.25a.5.5,0,0,1,.336.09.3.3,0,0,1,.1.238.306.306,0,0,1-.1.234.489.489,0,0,1-.336.094h-5.156a.489.489,0,0,1-.336-.094.306.306,0,0,1-.1-.234.3.3,0,0,1,.1-.238.5.5,0,0,1,.336-.09h2.25v-8.375l-2.141.672a.9.9,0,0,1-.227.047.3.3,0,0,1-.215-.1.315.315,0,0,1-.1-.23.352.352,0,0,1,.078-.219.753.753,0,0,1,.258-.133Zm9.133,3.172h.289a1.01,1.01,0,0,1,.746.313,1.061,1.061,0,0,1-.746,1.813H273.5a1.01,1.01,0,0,1-.746-.312,1.066,1.066,0,0,1,.008-1.508A1.031,1.031,0,0,1,273.5,126.234Zm-1.141,4.406h2.063l-2.211,3.625a1.28,1.28,0,0,1-.262.336.384.384,0,0,1-.23.07.439.439,0,0,1-.312-.117.372.372,0,0,1-.125-.281.845.845,0,0,1,.047-.242ZM45.945,150.9v-.219a.5.5,0,0,1,.094-.344.306.306,0,0,1,.234-.1.315.315,0,0,1,.242.1.5.5,0,0,1,.094.344v1.484a.546.546,0,0,1-.1.344.326.326,0,0,1-.461.012.467.467,0,0,1-.105-.3,1.533,1.533,0,0,0-.73-1.055,3.052,3.052,0,0,0-1.84-.5,2.717,2.717,0,0,0-2.219.914,3.188,3.188,0,0,0-.758,2.094,2.833,2.833,0,0,0,.836,2.1,2.943,2.943,0,0,0,2.164.828,4.643,4.643,0,0,0,1.559-.281,3.912,3.912,0,0,0,1.434-.906.457.457,0,0,1,.289-.156.307.307,0,0,1,.313.313q0,.336-.789.852a5.057,5.057,0,0,1-2.836.836,3.543,3.543,0,0,1-2.605-1.012,3.463,3.463,0,0,1-1.02-2.566A3.573,3.573,0,0,1,43.414,150,3.7,3.7,0,0,1,45.945,150.9Zm10.531,2.734A3.473,3.473,0,0,1,55.4,156.2a3.7,3.7,0,0,1-5.191,0,3.6,3.6,0,0,1,0-5.125,3.7,3.7,0,0,1,5.191,0A3.482,3.482,0,0,1,56.477,153.633Zm-.664,0a2.843,2.843,0,0,0-.879-2.1,3.042,3.042,0,0,0-4.258,0,2.938,2.938,0,0,0,0,4.191,3.032,3.032,0,0,0,4.258,0A2.847,2.847,0,0,0,55.813,153.633Zm4.477-3.4v.992a4.736,4.736,0,0,1,1.242-.961,2.858,2.858,0,0,1,1.25-.266,2.923,2.923,0,0,1,1.367.32,2.243,2.243,0,0,1,.793.777,2.009,2.009,0,0,1,.355,1.113v4.133h.555a.5.5,0,0,1,.336.09.3.3,0,0,1,.1.238.306.306,0,0,1-.1.234.489.489,0,0,1-.336.094H64.094a.5.5,0,0,1-.344-.094.306.306,0,0,1-.1-.234.3.3,0,0,1,.1-.238.518.518,0,0,1,.344-.09h.547V152.32a1.556,1.556,0,0,0-.508-1.176,1.9,1.9,0,0,0-1.359-.48,2.3,2.3,0,0,0-1.125.262,6.036,6.036,0,0,0-1.359,1.3v4.117h.742a.5.5,0,0,1,.336.09.3.3,0,0,1,.1.238.306.306,0,0,1-.1.234.489.489,0,0,1-.336.094H58.891a.489.489,0,0,1-.336-.094.306.306,0,0,1-.1-.234.3.3,0,0,1,.1-.238.5.5,0,0,1,.336-.09h.742V150.9h-.555a.489.489,0,0,1-.336-.094.315.315,0,0,1-.1-.242.306.306,0,0,1,.1-.234.489.489,0,0,1,.336-.094Zm10.375,0h3.563a.489.489,0,0,1,.336.094.315.315,0,0,1,.1.242.306.306,0,0,1-.1.234.489.489,0,0,1-.336.094H70.664v4.367a1.194,1.194,0,0,0,.457.953,2.04,2.04,0,0,0,1.34.383,5.786,5.786,0,0,0,1.438-.2,4.867,4.867,0,0,0,1.2-.449.512.512,0,0,1,.258-.1.294.294,0,0,1,.219.1.322.322,0,0,1,.094.23.306.306,0,0,1-.1.219,3.266,3.266,0,0,1-1.215.559,6.2,6.2,0,0,1-1.848.3,2.861,2.861,0,0,1-1.828-.539,1.758,1.758,0,0,1-.68-1.453V150.9H68.789a.489.489,0,0,1-.336-.094.315.315,0,0,1-.1-.242.306.306,0,0,1,.1-.234.489.489,0,0,1,.336-.094H70V148.3a.489.489,0,0,1,.094-.336.306.306,0,0,1,.234-.1.315.315,0,0,1,.242.1.489.489,0,0,1,.094.336ZM83.5,157v-.945a4.667,4.667,0,0,1-3.055,1.2,2.658,2.658,0,0,1-1.844-.6,1.9,1.9,0,0,1-.664-1.465,2.1,2.1,0,0,1,.875-1.664,3.972,3.972,0,0,1,2.555-.711,9.021,9.021,0,0,1,.984.059q.531.059,1.148.184V152a1.173,1.173,0,0,0-.5-.937,2.376,2.376,0,0,0-1.5-.4,7.592,7.592,0,0,0-2.148.445,1.5,1.5,0,0,1-.32.078.287.287,0,0,1-.215-.094.325.325,0,0,1-.09-.234.285.285,0,0,1,.078-.211,2.683,2.683,0,0,1,.883-.32A7.8,7.8,0,0,1,81.531,150a2.83,2.83,0,0,1,1.938.613,1.817,1.817,0,0,1,.7,1.387v4.344h.875a.518.518,0,0,1,.344.09.3.3,0,0,1,.1.238.306.306,0,0,1-.1.234.5.5,0,0,1-.344.094Zm0-3.266a6.232,6.232,0,0,0-.977-.2,9.029,9.029,0,0,0-1.086-.062,3.594,3.594,0,0,0-2.234.617,1.352,1.352,0,0,0-.609,1.1,1.277,1.277,0,0,0,.465,1,2,2,0,0,0,1.355.406,3.7,3.7,0,0,0,1.582-.34,5.7,5.7,0,0,0,1.5-1.082ZM94.43,147.2v9.148H95.3a.518.518,0,0,1,.344.09.3.3,0,0,1,.1.238.306.306,0,0,1-.1.234A.5.5,0,0,1,95.3,157H93.766v-1.3a3.456,3.456,0,0,1-2.9,1.563,3.424,3.424,0,0,1-3-1.82,3.689,3.689,0,0,1,0-3.613,3.4,3.4,0,0,1,1.289-1.348A3.352,3.352,0,0,1,90.875,150a3.5,3.5,0,0,1,2.891,1.563v-3.7h-.875a.5.5,0,0,1-.344-.094.315.315,0,0,1-.1-.242.306.306,0,0,1,.1-.234.5.5,0,0,1,.344-.094Zm-.664,6.438a2.9,2.9,0,0,0-.844-2.109,2.784,2.784,0,0,0-4.023,0,3.054,3.054,0,0,0,0,4.215,2.776,2.776,0,0,0,4.023,0A2.9,2.9,0,0,0,93.766,153.633Zm10.719,0a3.473,3.473,0,0,1-1.074,2.563,3.7,3.7,0,0,1-5.191,0,3.6,3.6,0,0,1,0-5.125,3.7,3.7,0,0,1,5.191,0A3.482,3.482,0,0,1,104.484,153.633Zm-.664,0a2.843,2.843,0,0,0-.879-2.1,3.042,3.042,0,0,0-4.258,0,2.938,2.938,0,0,0,0,4.191,3.032,3.032,0,0,0,4.258,0A2.847,2.847,0,0,0,103.82,153.633Zm5.813-3.4v1.656a11.042,11.042,0,0,1,1.918-1.488,2.57,2.57,0,0,1,1.176-.332,1.733,1.733,0,0,1,1.09.395q.5.395.5.6a.334.334,0,0,1-.344.344.294.294,0,0,1-.133-.027,1.106,1.106,0,0,1-.2-.176,1.983,1.983,0,0,0-.477-.375.887.887,0,0,0-.4-.1,2.2,2.2,0,0,0-1.035.344,15.448,15.448,0,0,0-2.1,1.68v3.594h2.906a.518.518,0,0,1,.344.09.3.3,0,0,1,.1.238.306.306,0,0,1-.1.234.5.5,0,0,1-.344.094h-5.148a.5.5,0,0,1-.336-.09.294.294,0,0,1-.1-.23.29.29,0,0,1,.1-.223.5.5,0,0,1,.34-.09h1.586V150.9h-1.211a.489.489,0,0,1-.336-.094.335.335,0,0,1,0-.477.487.487,0,0,1,.34-.094Zm15.953,2.211,7.094-3.953a.621.621,0,0,1,.258-.094.334.334,0,0,1,.328.328q0,.2-.266.344l-6.078,3.375,6.07,3.375q.266.148.266.344a.334.334,0,0,1-.328.328.621.621,0,0,1-.258-.094Zm17.219-.875h-7.156a.489.489,0,0,1-.336-.094.315.315,0,0,1-.1-.242.306.306,0,0,1,.1-.234.489.489,0,0,1,.336-.094H142.8a.489.489,0,0,1,.336.094.315.315,0,0,1,.1.242.306.306,0,0,1-.1.234A.489.489,0,0,1,142.8,151.57Zm0,2.352h-7.156a.5.5,0,0,1-.336-.09.33.33,0,0,1,0-.477.5.5,0,0,1,.336-.09H142.8a.5.5,0,0,1,.336.09.33.33,0,0,1,0,.477A.5.5,0,0,1,142.8,153.922Zm18.359-3.023v-.219a.5.5,0,0,1,.094-.344.306.306,0,0,1,.234-.1.315.315,0,0,1,.242.1.5.5,0,0,1,.094.344v1.484a.546.546,0,0,1-.1.344.326.326,0,0,1-.461.012.467.467,0,0,1-.105-.3,1.533,1.533,0,0,0-.73-1.055,3.052,3.052,0,0,0-1.84-.5,2.717,2.717,0,0,0-2.219.914,3.188,3.188,0,0,0-.758,2.094,2.833,2.833,0,0,0,.836,2.1,2.943,2.943,0,0,0,2.164.828,4.643,4.643,0,0,0,1.559-.281,3.912,3.912,0,0,0,1.434-.906.457.457,0,0,1,.289-.156.307.307,0,0,1,.313.313q0,.336-.789.852a5.057,5.057,0,0,1-2.836.836,3.543,3.543,0,0,1-2.605-1.012,3.463,3.463,0,0,1-1.02-2.566,3.573,3.573,0,0,1,3.672-3.68A3.7,3.7,0,0,1,161.164,150.9Zm10.531,2.734a3.473,3.473,0,0,1-1.074,2.563,3.7,3.7,0,0,1-5.191,0,3.6,3.6,0,0,1,0-5.125,3.7,3.7,0,0,1,5.191,0A3.482,3.482,0,0,1,171.7,153.633Zm-.664,0a2.843,2.843,0,0,0-.879-2.1,3.042,3.042,0,0,0-4.258,0,2.938,2.938,0,0,0,0,4.191,3.032,3.032,0,0,0,4.258,0A2.847,2.847,0,0,0,171.031,153.633Zm4.477-3.4v.992a4.736,4.736,0,0,1,1.242-.961A2.858,2.858,0,0,1,178,150a2.923,2.923,0,0,1,1.367.32,2.243,2.243,0,0,1,.793.777,2.009,2.009,0,0,1,.355,1.113v4.133h.555a.5.5,0,0,1,.336.09.3.3,0,0,1,.1.238.306.306,0,0,1-.1.234.489.489,0,0,1-.336.094h-1.758a.5.5,0,0,1-.344-.094.306.306,0,0,1-.1-.234.3.3,0,0,1,.1-.238.518.518,0,0,1,.344-.09h.547V152.32a1.556,1.556,0,0,0-.508-1.176,1.9,1.9,0,0,0-1.359-.48,2.3,2.3,0,0,0-1.125.262,6.036,6.036,0,0,0-1.359,1.3v4.117h.742a.5.5,0,0,1,.336.09.3.3,0,0,1,.1.238.306.306,0,0,1-.1.234.489.489,0,0,1-.336.094h-2.141a.489.489,0,0,1-.336-.094.306.306,0,0,1-.1-.234.3.3,0,0,1,.1-.238.5.5,0,0,1,.336-.09h.742V150.9H174.3a.489.489,0,0,1-.336-.094.315.315,0,0,1-.1-.242.306.306,0,0,1,.1-.234.489.489,0,0,1,.336-.094Zm10.375,0h3.563a.489.489,0,0,1,.336.094.315.315,0,0,1,.1.242.306.306,0,0,1-.1.234.489.489,0,0,1-.336.094h-3.562v4.367a1.194,1.194,0,0,0,.457.953,2.04,2.04,0,0,0,1.34.383,5.786,5.786,0,0,0,1.438-.2,4.866,4.866,0,0,0,1.2-.449.512.512,0,0,1,.258-.1.294.294,0,0,1,.219.1.322.322,0,0,1,.094.23.306.306,0,0,1-.1.219,3.266,3.266,0,0,1-1.215.559,6.2,6.2,0,0,1-1.848.3,2.861,2.861,0,0,1-1.828-.539,1.758,1.758,0,0,1-.68-1.453V150.9h-1.211a.489.489,0,0,1-.336-.094.315.315,0,0,1-.1-.242.306.306,0,0,1,.1-.234.489.489,0,0,1,.336-.094h1.211V148.3a.489.489,0,0,1,.094-.336.306.306,0,0,1,.234-.1.315.315,0,0,1,.242.1.489.489,0,0,1,.094.336ZM198.719,157v-.945a4.667,4.667,0,0,1-3.055,1.2,2.658,2.658,0,0,1-1.844-.6,1.9,1.9,0,0,1-.664-1.465,2.1,2.1,0,0,1,.875-1.664,3.972,3.972,0,0,1,2.555-.711,9.021,9.021,0,0,1,.984.059q.531.059,1.148.184V152a1.173,1.173,0,0,0-.5-.937,2.376,2.376,0,0,0-1.5-.4,7.592,7.592,0,0,0-2.148.445,1.5,1.5,0,0,1-.32.078.287.287,0,0,1-.215-.094.325.325,0,0,1-.09-.234.285.285,0,0,1,.078-.211,2.683,2.683,0,0,1,.883-.32A7.8,7.8,0,0,1,196.75,150a2.83,2.83,0,0,1,1.938.613,1.817,1.817,0,0,1,.7,1.387v4.344h.875a.518.518,0,0,1,.344.09.3.3,0,0,1,.1.238.306.306,0,0,1-.1.234.5.5,0,0,1-.344.094Zm0-3.266a6.232,6.232,0,0,0-.977-.2,9.029,9.029,0,0,0-1.086-.062,3.594,3.594,0,0,0-2.234.617,1.352,1.352,0,0,0-.609,1.1,1.277,1.277,0,0,0,.465,1,2,2,0,0,0,1.355.406,3.7,3.7,0,0,0,1.582-.34,5.7,5.7,0,0,0,1.5-1.082Zm10.93-6.539v9.148h.875a.518.518,0,0,1,.344.09.3.3,0,0,1,.1.238.306.306,0,0,1-.1.234.5.5,0,0,1-.344.094h-1.539v-1.3a3.456,3.456,0,0,1-2.9,1.563,3.424,3.424,0,0,1-3-1.82,3.689,3.689,0,0,1,0-3.613,3.4,3.4,0,0,1,1.289-1.348,3.352,3.352,0,0,1,1.715-.477,3.5,3.5,0,0,1,2.891,1.563v-3.7h-.875a.5.5,0,0,1-.344-.094.315.315,0,0,1-.1-.242.306.306,0,0,1,.1-.234.5.5,0,0,1,.344-.094Zm-.664,6.438a2.9,2.9,0,0,0-.844-2.109,2.784,2.784,0,0,0-4.023,0,3.054,3.054,0,0,0,0,4.215,2.776,2.776,0,0,0,4.023,0A2.9,2.9,0,0,0,208.984,153.633Zm10.719,0a3.473,3.473,0,0,1-1.074,2.563,3.7,3.7,0,0,1-5.191,0,3.6,3.6,0,0,1,0-5.125,3.7,3.7,0,0,1,5.191,0A3.482,3.482,0,0,1,219.7,153.633Zm-.664,0a2.843,2.843,0,0,0-.879-2.1,3.042,3.042,0,0,0-4.258,0,2.938,2.938,0,0,0,0,4.191,3.032,3.032,0,0,0,4.258,0A2.847,2.847,0,0,0,219.039,153.633Zm5.813-3.4v1.656a11.042,11.042,0,0,1,1.918-1.488,2.57,2.57,0,0,1,1.176-.332,1.733,1.733,0,0,1,1.09.395q.5.395.5.6a.334.334,0,0,1-.344.344.294.294,0,0,1-.133-.027,1.106,1.106,0,0,1-.2-.176,1.983,1.983,0,0,0-.477-.375.887.887,0,0,0-.4-.1,2.2,2.2,0,0,0-1.035.344,15.449,15.449,0,0,0-2.1,1.68v3.594h2.906a.518.518,0,0,1,.344.09.3.3,0,0,1,.1.238.306.306,0,0,1-.1.234.5.5,0,0,1-.344.094h-5.148a.5.5,0,0,1-.336-.09.294.294,0,0,1-.1-.23.29.29,0,0,1,.1-.223.5.5,0,0,1,.34-.09H224.2V150.9h-1.211a.489.489,0,0,1-.336-.094.315.315,0,0,1-.1-.242.311.311,0,0,1,.1-.234.487.487,0,0,1,.34-.094Zm20.32,2.523v3.281a.489.489,0,0,1-.094.336.315.315,0,0,1-.242.1.306.306,0,0,1-.234-.1.489.489,0,0,1-.094-.336v-3.281H241.6a.5.5,0,0,1-.336-.09.33.33,0,0,1,0-.477.5.5,0,0,1,.336-.09h2.906v-3.266a.489.489,0,0,1,.094-.336.315.315,0,0,1,.242-.1.306.306,0,0,1,.234.1.489.489,0,0,1,.094.336V152.1h2.906a.5.5,0,0,1,.336.09.33.33,0,0,1,0,.477.5.5,0,0,1-.336.09Zm19.2-5.7v9.281h2.25a.5.5,0,0,1,.336.09.3.3,0,0,1,.1.238.306.306,0,0,1-.1.234.489.489,0,0,1-.336.094h-5.156a.489.489,0,0,1-.336-.094.306.306,0,0,1-.1-.234.3.3,0,0,1,.1-.238.5.5,0,0,1,.336-.09h2.25v-8.375l-2.141.672a.9.9,0,0,1-.227.047.3.3,0,0,1-.215-.1.315.315,0,0,1-.1-.23.352.352,0,0,1,.078-.219.753.753,0,0,1,.258-.133Zm9.133,3.172h.289a1.01,1.01,0,0,1,.746.313,1.061,1.061,0,0,1-.746,1.813H273.5a1.01,1.01,0,0,1-.746-.312,1.066,1.066,0,0,1,.008-1.508A1.031,1.031,0,0,1,273.5,150.234Zm-1.141,4.406h2.063l-2.211,3.625a1.28,1.28,0,0,1-.262.336.384.384,0,0,1-.23.07.439.439,0,0,1-.312-.117.372.372,0,0,1-.125-.281.845.845,0,0,1,.047-.242ZM45.945,174.9v-.219a.5.5,0,0,1,.094-.344.306.306,0,0,1,.234-.1.315.315,0,0,1,.242.1.5.5,0,0,1,.094.344v1.484a.546.546,0,0,1-.1.344.326.326,0,0,1-.461.012.467.467,0,0,1-.105-.3,1.533,1.533,0,0,0-.73-1.055,3.052,3.052,0,0,0-1.84-.5,2.717,2.717,0,0,0-2.219.914,3.188,3.188,0,0,0-.758,2.094,2.833,2.833,0,0,0,.836,2.1,2.943,2.943,0,0,0,2.164.828,4.643,4.643,0,0,0,1.559-.281,3.912,3.912,0,0,0,1.434-.906.457.457,0,0,1,.289-.156.307.307,0,0,1,.313.313q0,.336-.789.852a5.057,5.057,0,0,1-2.836.836,3.543,3.543,0,0,1-2.605-1.012,3.463,3.463,0,0,1-1.02-2.566A3.573,3.573,0,0,1,43.414,174,3.7,3.7,0,0,1,45.945,174.9Zm10.531,2.734A3.473,3.473,0,0,1,55.4,180.2a3.7,3.7,0,0,1-5.191,0,3.6,3.6,0,0,1,0-5.125,3.7,3.7,0,0,1,5.191,0A3.482,3.482,0,0,1,56.477,177.633Zm-.664,0a2.843,2.843,0,0,0-.879-2.1,3.042,3.042,0,0,0-4.258,0,2.938,2.938,0,0,0,0,4.191,3.032,3.032,0,0,0,4.258,0A2.847,2.847,0,0,0,55.813,177.633Zm4.477-3.4v.992a4.736,4.736,0,0,1,1.242-.961,2.858,2.858,0,0,1,1.25-.266,2.923,2.923,0,0,1,1.367.32,2.243,2.243,0,0,1,.793.777,2.009,2.009,0,0,1,.355,1.113v4.133h.555a.5.5,0,0,1,.336.09.3.3,0,0,1,.1.238.306.306,0,0,1-.1.234.489.489,0,0,1-.336.094H64.094a.5.5,0,0,1-.344-.094.306.306,0,0,1-.1-.234.3.3,0,0,1,.1-.238.518.518,0,0,1,.344-.09h.547V176.32a1.556,1.556,0,0,0-.508-1.176,1.9,1.9,0,0,0-1.359-.48,2.3,2.3,0,0,0-1.125.262,6.036,6.036,0,0,0-1.359,1.3v4.117h.742a.5.5,0,0,1,.336.09.3.3,0,0,1,.1.238.306.306,0,0,1-.1.234.489.489,0,0,1-.336.094H58.891a.489.489,0,0,1-.336-.094.306.306,0,0,1-.1-.234.3.3,0,0,1,.1-.238.5.5,0,0,1,.336-.09h.742V174.9h-.555a.489.489,0,0,1-.336-.094.315.315,0,0,1-.1-.242.306.306,0,0,1,.1-.234.489.489,0,0,1,.336-.094Zm10.375,0h3.563a.489.489,0,0,1,.336.094.315.315,0,0,1,.1.242.306.306,0,0,1-.1.234.489.489,0,0,1-.336.094H70.664v4.367a1.194,1.194,0,0,0,.457.953,2.04,2.04,0,0,0,1.34.383,5.786,5.786,0,0,0,1.438-.2,4.867,4.867,0,0,0,1.2-.449.512.512,0,0,1,.258-.1.294.294,0,0,1,.219.1.322.322,0,0,1,.094.23.306.306,0,0,1-.1.219,3.266,3.266,0,0,1-1.215.559,6.2,6.2,0,0,1-1.848.3,2.861,2.861,0,0,1-1.828-.539,1.758,1.758,0,0,1-.68-1.453V174.9H68.789a.489.489,0,0,1-.336-.094.315.315,0,0,1-.1-.242.306.306,0,0,1,.1-.234.489.489,0,0,1,.336-.094H70V172.3a.489.489,0,0,1,.094-.336.306.306,0,0,1,.234-.1.315.315,0,0,1,.242.1.489.489,0,0,1,.094.336ZM83.5,181v-.945a4.667,4.667,0,0,1-3.055,1.2,2.658,2.658,0,0,1-1.844-.6,1.9,1.9,0,0,1-.664-1.465,2.1,2.1,0,0,1,.875-1.664,3.972,3.972,0,0,1,2.555-.711,9.021,9.021,0,0,1,.984.059q.531.059,1.148.184V176a1.173,1.173,0,0,0-.5-.937,2.376,2.376,0,0,0-1.5-.4,7.592,7.592,0,0,0-2.148.445,1.5,1.5,0,0,1-.32.078.287.287,0,0,1-.215-.094.325.325,0,0,1-.09-.234.285.285,0,0,1,.078-.211,2.683,2.683,0,0,1,.883-.32A7.8,7.8,0,0,1,81.531,174a2.83,2.83,0,0,1,1.938.613,1.817,1.817,0,0,1,.7,1.387v4.344h.875a.518.518,0,0,1,.344.09.3.3,0,0,1,.1.238.306.306,0,0,1-.1.234.5.5,0,0,1-.344.094Zm0-3.266a6.232,6.232,0,0,0-.977-.2,9.029,9.029,0,0,0-1.086-.062,3.594,3.594,0,0,0-2.234.617,1.352,1.352,0,0,0-.609,1.1,1.277,1.277,0,0,0,.465,1,2,2,0,0,0,1.355.406,3.7,3.7,0,0,0,1.582-.34,5.7,5.7,0,0,0,1.5-1.082ZM94.43,171.2v9.148H95.3a.518.518,0,0,1,.344.09.3.3,0,0,1,.1.238.306.306,0,0,1-.1.234A.5.5,0,0,1,95.3,181H93.766v-1.3a3.456,3.456,0,0,1-2.9,1.563,3.424,3.424,0,0,1-3-1.82,3.689,3.689,0,0,1,0-3.613,3.4,3.4,0,0,1,1.289-1.348A3.352,3.352,0,0,1,90.875,174a3.5,3.5,0,0,1,2.891,1.563v-3.7h-.875a.5.5,0,0,1-.344-.094.315.315,0,0,1-.1-.242.306.306,0,0,1,.1-.234.5.5,0,0,1,.344-.094Zm-.664,6.438a2.9,2.9,0,0,0-.844-2.109,2.784,2.784,0,0,0-4.023,0,3.054,3.054,0,0,0,0,4.215,2.776,2.776,0,0,0,4.023,0A2.9,2.9,0,0,0,93.766,177.633Zm10.719,0a3.473,3.473,0,0,1-1.074,2.563,3.7,3.7,0,0,1-5.191,0,3.6,3.6,0,0,1,0-5.125,3.7,3.7,0,0,1,5.191,0A3.482,3.482,0,0,1,104.484,177.633Zm-.664,0a2.843,2.843,0,0,0-.879-2.1,3.042,3.042,0,0,0-4.258,0,2.938,2.938,0,0,0,0,4.191,3.032,3.032,0,0,0,4.258,0A2.847,2.847,0,0,0,103.82,177.633Zm5.813-3.4v1.656a11.042,11.042,0,0,1,1.918-1.488,2.57,2.57,0,0,1,1.176-.332,1.733,1.733,0,0,1,1.09.395q.5.395.5.6a.334.334,0,0,1-.344.344.294.294,0,0,1-.133-.027,1.106,1.106,0,0,1-.2-.176,1.983,1.983,0,0,0-.477-.375.887.887,0,0,0-.4-.1,2.2,2.2,0,0,0-1.035.344,15.448,15.448,0,0,0-2.1,1.68v3.594h2.906a.518.518,0,0,1,.344.09.3.3,0,0,1,.1.238.306.306,0,0,1-.1.234.5.5,0,0,1-.344.094h-5.148a.5.5,0,0,1-.336-.09.294.294,0,0,1-.1-.23.29.29,0,0,1,.1-.223.5.5,0,0,1,.34-.09h1.586V174.9h-1.211a.489.489,0,0,1-.336-.094.335.335,0,0,1,0-.477.487.487,0,0,1,.34-.094Zm15.953,2.211,7.094-3.953a.621.621,0,0,1,.258-.094.334.334,0,0,1,.328.328q0,.2-.266.344l-6.078,3.375,6.07,3.375q.266.148.266.344a.334.334,0,0,1-.328.328.621.621,0,0,1-.258-.094Zm17.219-.875h-7.156a.489.489,0,0,1-.336-.094.315.315,0,0,1-.1-.242.306.306,0,0,1,.1-.234.489.489,0,0,1,.336-.094H142.8a.489.489,0,0,1,.336.094.315.315,0,0,1,.1.242.306.306,0,0,1-.1.234A.489.489,0,0,1,142.8,175.57Zm0,2.352h-7.156a.5.5,0,0,1-.336-.09.33.33,0,0,1,0-.477.5.5,0,0,1,.336-.09H142.8a.5.5,0,0,1,.336.09.33.33,0,0,1,0,.477A.5.5,0,0,1,142.8,177.922Zm18.359-3.023v-.219a.5.5,0,0,1,.094-.344.306.306,0,0,1,.234-.1.315.315,0,0,1,.242.1.5.5,0,0,1,.094.344v1.484a.546.546,0,0,1-.1.344.326.326,0,0,1-.461.012.467.467,0,0,1-.105-.3,1.533,1.533,0,0,0-.73-1.055,3.052,3.052,0,0,0-1.84-.5,2.717,2.717,0,0,0-2.219.914,3.188,3.188,0,0,0-.758,2.094,2.833,2.833,0,0,0,.836,2.1,2.943,2.943,0,0,0,2.164.828,4.643,4.643,0,0,0,1.559-.281,3.912,3.912,0,0,0,1.434-.906.457.457,0,0,1,.289-.156.307.307,0,0,1,.313.313q0,.336-.789.852a5.057,5.057,0,0,1-2.836.836,3.543,3.543,0,0,1-2.605-1.012,3.463,3.463,0,0,1-1.02-2.566,3.573,3.573,0,0,1,3.672-3.68A3.7,3.7,0,0,1,161.164,174.9Zm10.531,2.734a3.473,3.473,0,0,1-1.074,2.563,3.7,3.7,0,0,1-5.191,0,3.6,3.6,0,0,1,0-5.125,3.7,3.7,0,0,1,5.191,0A3.482,3.482,0,0,1,171.7,177.633Zm-.664,0a2.843,2.843,0,0,0-.879-2.1,3.042,3.042,0,0,0-4.258,0,2.938,2.938,0,0,0,0,4.191,3.032,3.032,0,0,0,4.258,0A2.847,2.847,0,0,0,171.031,177.633Zm4.477-3.4v.992a4.736,4.736,0,0,1,1.242-.961A2.858,2.858,0,0,1,178,174a2.923,2.923,0,0,1,1.367.32,2.243,2.243,0,0,1,.793.777,2.009,2.009,0,0,1,.355,1.113v4.133h.555a.5.5,0,0,1,.336.09.3.3,0,0,1,.1.238.306.306,0,0,1-.1.234.489.489,0,0,1-.336.094h-1.758a.5.5,0,0,1-.344-.094.306.306,0,0,1-.1-.234.3.3,0,0,1,.1-.238.518.518,0,0,1,.344-.09h.547V176.32a1.556,1.556,0,0,0-.508-1.176,1.9,1.9,0,0,0-1.359-.48,2.3,2.3,0,0,0-1.125.262,6.036,6.036,0,0,0-1.359,1.3v4.117h.742a.5.5,0,0,1,.336.09.3.3,0,0,1,.1.238.306.306,0,0,1-.1.234.489.489,0,0,1-.336.094h-2.141a.489.489,0,0,1-.336-.094.306.306,0,0,1-.1-.234.3.3,0,0,1,.1-.238.5.5,0,0,1,.336-.09h.742V174.9H174.3a.489.489,0,0,1-.336-.094.315.315,0,0,1-.1-.242.306.306,0,0,1,.1-.234.489.489,0,0,1,.336-.094Zm10.375,0h3.563a.489.489,0,0,1,.336.094.315.315,0,0,1,.1.242.306.306,0,0,1-.1.234.489.489,0,0,1-.336.094h-3.562v4.367a1.194,1.194,0,0,0,.457.953,2.04,2.04,0,0,0,1.34.383,5.786,5.786,0,0,0,1.438-.2,4.866,4.866,0,0,0,1.2-.449.512.512,0,0,1,.258-.1.294.294,0,0,1,.219.1.322.322,0,0,1,.094.23.306.306,0,0,1-.1.219,3.266,3.266,0,0,1-1.215.559,6.2,6.2,0,0,1-1.848.3,2.861,2.861,0,0,1-1.828-.539,1.758,1.758,0,0,1-.68-1.453V174.9h-1.211a.489.489,0,0,1-.336-.094.315.315,0,0,1-.1-.242.306.306,0,0,1,.1-.234.489.489,0,0,1,.336-.094h1.211V172.3a.489.489,0,0,1,.094-.336.306.306,0,0,1,.234-.1.315.315,0,0,1,.242.1.489.489,0,0,1,.094.336ZM198.719,181v-.945a4.667,4.667,0,0,1-3.055,1.2,2.658,2.658,0,0,1-1.844-.6,1.9,1.9,0,0,1-.664-1.465,2.1,2.1,0,0,1,.875-1.664,3.972,3.972,0,0,1,2.555-.711,9.021,9.021,0,0,1,.984.059q.531.059,1.148.184V176a1.173,1.173,0,0,0-.5-.937,2.376,2.376,0,0,0-1.5-.4,7.592,7.592,0,0,0-2.148.445,1.5,1.5,0,0,1-.32.078.287.287,0,0,1-.215-.094.325.325,0,0,1-.09-.234.285.285,0,0,1,.078-.211,2.683,2.683,0,0,1,.883-.32A7.8,7.8,0,0,1,196.75,174a2.83,2.83,0,0,1,1.938.613,1.817,1.817,0,0,1,.7,1.387v4.344h.875a.518.518,0,0,1,.344.09.3.3,0,0,1,.1.238.306.306,0,0,1-.1.234.5.5,0,0,1-.344.094Zm0-3.266a6.232,6.232,0,0,0-.977-.2,9.029,9.029,0,0,0-1.086-.062,3.594,3.594,0,0,0-2.234.617,1.352,1.352,0,0,0-.609,1.1,1.277,1.277,0,0,0,.465,1,2,2,0,0,0,1.355.406,3.7,3.7,0,0,0,1.582-.34,5.7,5.7,0,0,0,1.5-1.082Zm10.93-6.539v9.148h.875a.518.518,0,0,1,.344.09.3.3,0,0,1,.1.238.306.306,0,0,1-.1.234.5.5,0,0,1-.344.094h-1.539v-1.3a3.456,3.456,0,0,1-2.9,1.563,3.424,3.424,0,0,1-3-1.82,3.689,3.689,0,0,1,0-3.613,3.4,3.4,0,0,1,1.289-1.348,3.352,3.352,0,0,1,1.715-.477,3.5,3.5,0,0,1,2.891,1.563v-3.7h-.875a.5.5,0,0,1-.344-.094.315.315,0,0,1-.1-.242.306.306,0,0,1,.1-.234.5.5,0,0,1,.344-.094Zm-.664,6.438a2.9,2.9,0,0,0-.844-2.109,2.784,2.784,0,0,0-4.023,0,3.054,3.054,0,0,0,0,4.215,2.776,2.776,0,0,0,4.023,0A2.9,2.9,0,0,0,208.984,177.633Zm10.719,0a3.473,3.473,0,0,1-1.074,2.563,3.7,3.7,0,0,1-5.191,0,3.6,3.6,0,0,1,0-5.125,3.7,3.7,0,0,1,5.191,0A3.482,3.482,0,0,1,219.7,177.633Zm-.664,0a2.843,2.843,0,0,0-.879-2.1,3.042,3.042,0,0,0-4.258,0,2.938,2.938,0,0,0,0,4.191,3.032,3.032,0,0,0,4.258,0A2.847,2.847,0,0,0,219.039,177.633Zm5.813-3.4v1.656a11.042,11.042,0,0,1,1.918-1.488,2.57,2.57,0,0,1,1.176-.332,1.733,1.733,0,0,1,1.09.395q.5.395.5.6a.334.334,0,0,1-.344.344.294.294,0,0,1-.133-.027,1.106,1.106,0,0,1-.2-.176,1.983,1.983,0,0,0-.477-.375.887.887,0,0,0-.4-.1,2.2,2.2,0,0,0-1.035.344,15.449,15.449,0,0,0-2.1,1.68v3.594h2.906a.518.518,0,0,1,.344.09.3.3,0,0,1,.1.238.306.306,0,0,1-.1.234.5.5,0,0,1-.344.094h-5.148a.5.5,0,0,1-.336-.09.294.294,0,0,1-.1-.23.29.29,0,0,1,.1-.223.5.5,0,0,1,.34-.09H224.2V174.9h-1.211a.489.489,0,0,1-.336-.094.315.315,0,0,1-.1-.242.311.311,0,0,1,.1-.234.487.487,0,0,1,.34-.094Zm20.32,2.523v3.281a.489.489,0,0,1-.094.336.315.315,0,0,1-.242.1.306.306,0,0,1-.234-.1.489.489,0,0,1-.094-.336v-3.281H241.6a.5.5,0,0,1-.336-.09.33.33,0,0,1,0-.477.5.5,0,0,1,.336-.09h2.906v-3.266a.489.489,0,0,1,.094-.336.315.315,0,0,1,.242-.1.306.306,0,0,1,.234.1.489.489,0,0,1,.094.336V176.1h2.906a.5.5,0,0,1,.336.09.33.33,0,0,1,0,.477.5.5,0,0,1-.336.09Zm19.2-5.7v9.281h2.25a.5.5,0,0,1,.336.09.3.3,0,0,1,.1.238.306.306,0,0,1-.1.234.489.489,0,0,1-.336.094h-5.156a.489.489,0,0,1-.336-.094.306.306,0,0,1-.1-.234.3.3,0,0,1,.1-.238.5.5,0,0,1,.336-.09h2.25v-8.375l-2.141.672a.9.9,0,0,1-.227.047.3.3,0,0,1-.215-.1.315.315,0,0,1-.1-.23.352.352,0,0,1,.078-.219.753.753,0,0,1,.258-.133Zm9.133,3.172h.289a1.01,1.01,0,0,1,.746.313,1.061,1.061,0,0,1-.746,1.813H273.5a1.01,1.01,0,0,1-.746-.312,1.066,1.066,0,0,1,.008-1.508A1.031,1.031,0,0,1,273.5,174.234Zm-1.141,4.406h2.063l-2.211,3.625a1.28,1.28,0,0,1-.262.336.384.384,0,0,1-.23.07.439.439,0,0,1-.312-.117.372.372,0,0,1-.125-.281.845.845,0,0,1,.047-.242Zm-240.4,22.406V203.4h4.086v-.867a1.22,1.22,0,0,1,.223-.824.748.748,0,0,1,.582-.246.739.739,0,0,1,.574.246,1.22,1.22,0,0,1,.223.824V205H30.109a1.22,1.22,0,0,1-.824-.223.748.748,0,0,1-.246-.582.734.734,0,0,1,.25-.574,1.222,1.222,0,0,1,.82-.223h.25v-6.266h-.25a1.22,1.22,0,0,1-.824-.223.811.811,0,0,1,0-1.164,1.22,1.22,0,0,1,.824-.223l7.188.008v2.438a1.221,1.221,0,0,1-.219.816.736.736,0,0,1-.578.246.754.754,0,0,1-.582-.242,1.2,1.2,0,0,1-.223-.82v-.836H31.961v2.313h1.406a1.737,1.737,0,0,1,.117-.8.769.769,0,0,1,.688-.383.739.739,0,0,1,.574.246,1.22,1.22,0,0,1,.223.824v1.844a1.349,1.349,0,0,1-.125.7.8.8,0,0,1-1.359-.016,1.762,1.762,0,0,1-.117-.812Zm8.906,3.547a1.418,1.418,0,0,1-.34.32.653.653,0,0,1-.316.07.757.757,0,0,1-.59-.246,1.205,1.205,0,0,1-.223-.816v-1.078a1.22,1.22,0,0,1,.223-.824.757.757,0,0,1,.59-.246.748.748,0,0,1,.473.148.941.941,0,0,1,.293.5,1.331,1.331,0,0,0,.211.473,2.475,2.475,0,0,0,.8.492,3.155,3.155,0,0,0,1.266.25,2.914,2.914,0,0,0,1.758-.5.894.894,0,0,0,.438-.75.875.875,0,0,0-.211-.559,1.527,1.527,0,0,0-.687-.434,10.748,10.748,0,0,0-1.4-.32,7.559,7.559,0,0,1-1.984-.586,2.651,2.651,0,0,1-1.062-.969,2.5,2.5,0,0,1-.391-1.352,2.631,2.631,0,0,1,.961-2.012,3.6,3.6,0,0,1,2.5-.863,4.551,4.551,0,0,1,1.145.137,3.2,3.2,0,0,1,.957.418.909.909,0,0,1,.625-.3.739.739,0,0,1,.574.246,1.205,1.205,0,0,1,.223.816v1.2a1.22,1.22,0,0,1-.223.824.739.739,0,0,1-.574.246.787.787,0,0,1-.516-.18.9.9,0,0,1-.258-.531,1.472,1.472,0,0,0-.219-.57,1.714,1.714,0,0,0-.68-.5,2.537,2.537,0,0,0-1.047-.2,2.138,2.138,0,0,0-1.371.4,1.109,1.109,0,0,0-.5.84.949.949,0,0,0,.207.574,1.343,1.343,0,0,0,.605.434,11.644,11.644,0,0,0,1.5.352,9.516,9.516,0,0,1,1.891.531,2.615,2.615,0,0,1,1.1.906,2.474,2.474,0,0,1,.438,1.469,2.366,2.366,0,0,1-.836,1.9,4.23,4.23,0,0,1-2.828.938,5.219,5.219,0,0,1-1.293-.16A5.348,5.348,0,0,1,40.867,204.594Zm14.453-8.656a1.075,1.075,0,0,1,.324-.3.785.785,0,0,1,.953.141,1.2,1.2,0,0,1,.223.82v1.359a1.22,1.22,0,0,1-.223.824.739.739,0,0,1-.574.246.732.732,0,0,1-.516-.18,1.227,1.227,0,0,1-.289-.672.974.974,0,0,0-.219-.508,2.219,2.219,0,0,0-.895-.562,3.321,3.321,0,0,0-1.152-.211,2.821,2.821,0,0,0-1.32.313,2.884,2.884,0,0,0-1.062,1.016,2.98,2.98,0,0,0-.461,1.672v1.039a2.515,2.515,0,0,0,.84,1.93,3.313,3.313,0,0,0,2.332.773,4.14,4.14,0,0,0,1.508-.242,2.3,2.3,0,0,0,.766-.555,1.905,1.905,0,0,1,.391-.324.676.676,0,0,1,.32-.074.772.772,0,0,1,.563.242.78.78,0,0,1,.242.57,1.106,1.106,0,0,1-.328.7,3.256,3.256,0,0,1-1.227.859,5.711,5.711,0,0,1-2.227.422,5.526,5.526,0,0,1-2.562-.586,4.064,4.064,0,0,1-1.57-1.48,4.01,4.01,0,0,1-.648-2.207v-1.086a4.847,4.847,0,0,1,.582-2.332,4.115,4.115,0,0,1,1.613-1.668,4.36,4.36,0,0,1,2.188-.586,5.072,5.072,0,0,1,1.3.16A4.074,4.074,0,0,1,55.32,195.938Zm5.438,5.445V203.4h.578a1.22,1.22,0,0,1,.824.223.748.748,0,0,1,.246.582.739.739,0,0,1-.246.574,1.22,1.22,0,0,1-.824.223h-2.43a1.22,1.22,0,0,1-.824-.223.748.748,0,0,1-.246-.582.734.734,0,0,1,.25-.574,1.222,1.222,0,0,1,.82-.223h.25v-6.266h-.25a1.22,1.22,0,0,1-.824-.223.811.811,0,0,1,0-1.164,1.22,1.22,0,0,1,.824-.223l3.625.008a3.8,3.8,0,0,1,2.629.84,2.647,2.647,0,0,1,.934,2.043,2.294,2.294,0,0,1-.437,1.363,3.8,3.8,0,0,1-1.32,1.09,10.171,10.171,0,0,1,1.086,1.141q.359.445.969,1.391a1.7,1.7,0,0,1,.8.125.779.779,0,0,1,.352.68.745.745,0,0,1-.242.574,1.2,1.2,0,0,1-.82.223H65.57q-1.945-3.008-3.227-3.617Zm0-1.6h1.25a3.432,3.432,0,0,0,1.242-.211,2.389,2.389,0,0,0,.988-.594.984.984,0,0,0,.254-.617,1.086,1.086,0,0,0-.484-.84,2.226,2.226,0,0,0-1.414-.387H60.758Zm12.055-2.648V203.4H74.43a1.22,1.22,0,0,1,.824.223.748.748,0,0,1,.246.582.739.739,0,0,1-.246.574,1.22,1.22,0,0,1-.824.223H69.594a1.22,1.22,0,0,1-.824-.223.748.748,0,0,1-.246-.582.739.739,0,0,1,.246-.574,1.22,1.22,0,0,1,.824-.223h1.617v-6.266H69.594a1.22,1.22,0,0,1-.824-.223.811.811,0,0,1,0-1.164,1.22,1.22,0,0,1,.824-.223l4.836.008a1.235,1.235,0,0,1,.824.219.736.736,0,0,1,.246.578.748.748,0,0,1-.246.582,1.22,1.22,0,0,1-.824.223Zm5.531,6.266v-6.266h-.25a1.22,1.22,0,0,1-.824-.223.811.811,0,0,1,0-1.164,1.22,1.22,0,0,1,.824-.223h4.016a3.292,3.292,0,0,1,2.313.8,2.5,2.5,0,0,1,.875,1.9,2.414,2.414,0,0,1-.2.984,2.632,2.632,0,0,1-.617.852,3.3,3.3,0,0,1,1.137,1.059,2.531,2.531,0,0,1,.379,1.371,2.41,2.41,0,0,1-.273,1.133,1.874,1.874,0,0,1-.5.633,3.238,3.238,0,0,1-.977.535A4.332,4.332,0,0,1,82.8,205h-4.7a1.22,1.22,0,0,1-.824-.223.748.748,0,0,1-.246-.582.734.734,0,0,1,.25-.574,1.222,1.222,0,0,1,.82-.223Zm1.6-3.937H81.7a2.515,2.515,0,0,0,1.57-.477.966.966,0,0,0,.422-.8.926.926,0,0,0-.4-.738,2.035,2.035,0,0,0-1.266-.316H79.945Zm0,3.938h2.766a2.43,2.43,0,0,0,1.375-.289.723.723,0,0,0,.3-.625,1.272,1.272,0,0,0-.6-.953,2.759,2.759,0,0,0-1.727-.469H79.945Zm12.07-6.266V203.4h1.617a1.22,1.22,0,0,1,.824.223.748.748,0,0,1,.246.582.739.739,0,0,1-.246.574,1.22,1.22,0,0,1-.824.223H88.8a1.22,1.22,0,0,1-.824-.223.748.748,0,0,1-.246-.582.739.739,0,0,1,.246-.574,1.22,1.22,0,0,1,.824-.223h1.617v-6.266H88.8a1.22,1.22,0,0,1-.824-.223.811.811,0,0,1,0-1.164,1.22,1.22,0,0,1,.824-.223l4.836.008a1.235,1.235,0,0,1,.824.219.736.736,0,0,1,.246.578.748.748,0,0,1-.246.582,1.22,1.22,0,0,1-.824.223Zm7.148,4.25V203.4h.578a1.22,1.22,0,0,1,.824.223.748.748,0,0,1,.246.582.739.739,0,0,1-.246.574,1.22,1.22,0,0,1-.824.223h-2.43a1.22,1.22,0,0,1-.824-.223.748.748,0,0,1-.246-.582.734.734,0,0,1,.25-.574,1.222,1.222,0,0,1,.82-.223h.25v-6.266h-.25a1.22,1.22,0,0,1-.824-.223.811.811,0,0,1,0-1.164,1.22,1.22,0,0,1,.824-.223l3.625.008a3.8,3.8,0,0,1,2.629.84,2.647,2.647,0,0,1,.934,2.043,2.294,2.294,0,0,1-.437,1.363,3.8,3.8,0,0,1-1.32,1.09,10.171,10.171,0,0,1,1.086,1.141q.359.445.969,1.391a1.7,1.7,0,0,1,.8.125.779.779,0,0,1,.352.68.745.745,0,0,1-.242.574,1.2,1.2,0,0,1-.82.223h-.914q-1.945-3.008-3.227-3.617Zm0-1.6h1.25a3.432,3.432,0,0,0,1.242-.211,2.389,2.389,0,0,0,.988-.594.984.984,0,0,0,.254-.617,1.086,1.086,0,0,0-.484-.84,2.226,2.226,0,0,0-1.414-.387H99.164Zm11.18,1.328a8.428,8.428,0,0,1,.234-1.906,10.748,10.748,0,0,1,.9-2.328,6.767,6.767,0,0,1,.969-1.594.3.3,0,0,1,.2-.086.331.331,0,0,1,.238.094.3.3,0,0,1,.1.227.347.347,0,0,1-.055.172,14.4,14.4,0,0,0-1.227,2.859,9.152,9.152,0,0,0,0,5.133,14.222,14.222,0,0,0,1.227,2.852.347.347,0,0,1,.055.172.315.315,0,0,1-.1.23.324.324,0,0,1-.238.1.3.3,0,0,1-.2-.086,6.976,6.976,0,0,1-.945-1.555,11.193,11.193,0,0,1-.906-2.281A8.156,8.156,0,0,1,110.344,201.109Zm22.016-2.211v-.219a.5.5,0,0,1,.094-.344.306.306,0,0,1,.234-.1.315.315,0,0,1,.242.1.5.5,0,0,1,.094.344v1.484a.546.546,0,0,1-.1.344.326.326,0,0,1-.461.012.467.467,0,0,1-.105-.3,1.533,1.533,0,0,0-.73-1.055,3.052,3.052,0,0,0-1.84-.5,2.717,2.717,0,0,0-2.219.914,3.188,3.188,0,0,0-.758,2.094,2.833,2.833,0,0,0,.836,2.1,2.943,2.943,0,0,0,2.164.828,4.643,4.643,0,0,0,1.559-.281,3.912,3.912,0,0,0,1.434-.906.457.457,0,0,1,.289-.156.307.307,0,0,1,.313.313q0,.336-.789.852a5.057,5.057,0,0,1-2.836.836,3.543,3.543,0,0,1-2.605-1.012,3.463,3.463,0,0,1-1.02-2.566,3.573,3.573,0,0,1,3.672-3.68A3.7,3.7,0,0,1,132.359,198.9Zm10.531,2.734a3.473,3.473,0,0,1-1.074,2.563,3.7,3.7,0,0,1-5.191,0,3.6,3.6,0,0,1,0-5.125,3.7,3.7,0,0,1,5.191,0A3.482,3.482,0,0,1,142.891,201.633Zm-.664,0a2.843,2.843,0,0,0-.879-2.1,3.042,3.042,0,0,0-4.258,0,2.938,2.938,0,0,0,0,4.191,3.032,3.032,0,0,0,4.258,0A2.847,2.847,0,0,0,142.227,201.633Zm4.477-3.4v.992a4.736,4.736,0,0,1,1.242-.961A2.858,2.858,0,0,1,149.2,198a2.923,2.923,0,0,1,1.367.32,2.243,2.243,0,0,1,.793.777,2.009,2.009,0,0,1,.355,1.113v4.133h.555a.5.5,0,0,1,.336.09.3.3,0,0,1,.1.238.306.306,0,0,1-.1.234.489.489,0,0,1-.336.094h-1.758a.5.5,0,0,1-.344-.094.306.306,0,0,1-.1-.234.3.3,0,0,1,.1-.238.518.518,0,0,1,.344-.09h.547V200.32a1.556,1.556,0,0,0-.508-1.176,1.9,1.9,0,0,0-1.359-.48,2.3,2.3,0,0,0-1.125.262,6.036,6.036,0,0,0-1.359,1.3v4.117h.742a.5.5,0,0,1,.336.09.3.3,0,0,1,.1.238.306.306,0,0,1-.1.234.489.489,0,0,1-.336.094H145.3a.489.489,0,0,1-.336-.094.306.306,0,0,1-.1-.234.3.3,0,0,1,.1-.238.5.5,0,0,1,.336-.09h.742V198.9h-.555a.489.489,0,0,1-.336-.094.315.315,0,0,1-.1-.242.306.306,0,0,1,.1-.234.489.489,0,0,1,.336-.094Zm10.375,0h3.563a.489.489,0,0,1,.336.094.315.315,0,0,1,.1.242.306.306,0,0,1-.1.234.489.489,0,0,1-.336.094h-3.562v4.367a1.194,1.194,0,0,0,.457.953,2.04,2.04,0,0,0,1.34.383,5.786,5.786,0,0,0,1.438-.2,4.866,4.866,0,0,0,1.2-.449.512.512,0,0,1,.258-.1.294.294,0,0,1,.219.1.322.322,0,0,1,.094.23.306.306,0,0,1-.1.219,3.266,3.266,0,0,1-1.215.559,6.2,6.2,0,0,1-1.848.3,2.861,2.861,0,0,1-1.828-.539,1.758,1.758,0,0,1-.68-1.453V198.9H155.2a.489.489,0,0,1-.336-.094.315.315,0,0,1-.1-.242.306.306,0,0,1,.1-.234.489.489,0,0,1,.336-.094h1.211V196.3a.489.489,0,0,1,.094-.336.306.306,0,0,1,.234-.1.315.315,0,0,1,.242.1.489.489,0,0,1,.094.336ZM169.914,205v-.945a4.667,4.667,0,0,1-3.055,1.2,2.658,2.658,0,0,1-1.844-.6,1.9,1.9,0,0,1-.664-1.465,2.1,2.1,0,0,1,.875-1.664,3.972,3.972,0,0,1,2.555-.711,9.021,9.021,0,0,1,.984.059q.531.059,1.148.184V200a1.173,1.173,0,0,0-.5-.937,2.376,2.376,0,0,0-1.5-.4,7.592,7.592,0,0,0-2.148.445,1.5,1.5,0,0,1-.32.078.287.287,0,0,1-.215-.094.325.325,0,0,1-.09-.234.285.285,0,0,1,.078-.211,2.683,2.683,0,0,1,.883-.32,7.8,7.8,0,0,1,1.844-.328,2.83,2.83,0,0,1,1.938.613,1.817,1.817,0,0,1,.7,1.387v4.344h.875a.518.518,0,0,1,.344.09.3.3,0,0,1,.1.238.306.306,0,0,1-.1.234.5.5,0,0,1-.344.094Zm0-3.266a6.232,6.232,0,0,0-.977-.2,9.029,9.029,0,0,0-1.086-.062,3.594,3.594,0,0,0-2.234.617,1.352,1.352,0,0,0-.609,1.1,1.277,1.277,0,0,0,.465,1,2,2,0,0,0,1.355.406,3.7,3.7,0,0,0,1.582-.34,5.7,5.7,0,0,0,1.5-1.082Zm10.93-6.539v9.148h.875a.518.518,0,0,1,.344.09.3.3,0,0,1,.1.238.306.306,0,0,1-.1.234.5.5,0,0,1-.344.094H180.18v-1.3a3.456,3.456,0,0,1-2.9,1.563,3.424,3.424,0,0,1-3-1.82,3.689,3.689,0,0,1,0-3.613,3.4,3.4,0,0,1,1.289-1.348,3.352,3.352,0,0,1,1.715-.477,3.5,3.5,0,0,1,2.891,1.563v-3.7H179.3a.5.5,0,0,1-.344-.094.315.315,0,0,1-.1-.242.306.306,0,0,1,.1-.234.5.5,0,0,1,.344-.094Zm-.664,6.438a2.9,2.9,0,0,0-.844-2.109,2.784,2.784,0,0,0-4.023,0,3.054,3.054,0,0,0,0,4.215,2.776,2.776,0,0,0,4.023,0A2.9,2.9,0,0,0,180.18,201.633Zm10.719,0a3.473,3.473,0,0,1-1.074,2.563,3.7,3.7,0,0,1-5.191,0,3.6,3.6,0,0,1,0-5.125,3.7,3.7,0,0,1,5.191,0A3.482,3.482,0,0,1,190.9,201.633Zm-.664,0a2.843,2.843,0,0,0-.879-2.1,3.042,3.042,0,0,0-4.258,0,2.938,2.938,0,0,0,0,4.191,3.032,3.032,0,0,0,4.258,0A2.847,2.847,0,0,0,190.234,201.633Zm5.813-3.4v1.656a11.042,11.042,0,0,1,1.918-1.488,2.57,2.57,0,0,1,1.176-.332,1.733,1.733,0,0,1,1.09.395q.5.395.5.6a.334.334,0,0,1-.344.344.294.294,0,0,1-.133-.027,1.106,1.106,0,0,1-.2-.176,1.983,1.983,0,0,0-.477-.375.887.887,0,0,0-.4-.1,2.2,2.2,0,0,0-1.035.344,15.449,15.449,0,0,0-2.1,1.68v3.594h2.906a.518.518,0,0,1,.344.09.3.3,0,0,1,.1.238.306.306,0,0,1-.1.234.5.5,0,0,1-.344.094H193.8a.5.5,0,0,1-.336-.09.294.294,0,0,1-.1-.23.29.29,0,0,1,.1-.223.5.5,0,0,1,.34-.09h1.586V198.9H194.18a.489.489,0,0,1-.336-.094.315.315,0,0,1-.1-.242.311.311,0,0,1,.1-.234.487.487,0,0,1,.34-.094Zm20.18,2.883a8.378,8.378,0,0,1-.234,1.9,10.851,10.851,0,0,1-.9,2.328,6.53,6.53,0,0,1-.969,1.59.284.284,0,0,1-.2.094.324.324,0,0,1-.238-.1.315.315,0,0,1-.1-.23.347.347,0,0,1,.055-.172,14.222,14.222,0,0,0,1.227-2.852,9.152,9.152,0,0,0,0-5.133,14.4,14.4,0,0,0-1.227-2.859.347.347,0,0,1-.055-.172.3.3,0,0,1,.1-.227.331.331,0,0,1,.238-.094.3.3,0,0,1,.2.086,6.976,6.976,0,0,1,.945,1.555,11.194,11.194,0,0,1,.906,2.281A8.156,8.156,0,0,1,216.227,201.117Zm9.266-2.883h.289a1.01,1.01,0,0,1,.746.313,1.061,1.061,0,0,1-.746,1.813h-.289a1.01,1.01,0,0,1-.746-.312,1.066,1.066,0,0,1,.008-1.508A1.031,1.031,0,0,1,225.492,198.234Zm-1.141,4.406h2.063l-2.211,3.625a1.28,1.28,0,0,1-.262.336.384.384,0,0,1-.23.07.439.439,0,0,1-.312-.117.372.372,0,0,1-.125-.281.845.845,0,0,1,.047-.242ZM3.7,225.055V227.4H5.344a1.22,1.22,0,0,1,.824.223.748.748,0,0,1,.246.582.739.739,0,0,1-.246.574,1.22,1.22,0,0,1-.824.223H1.852a1.22,1.22,0,0,1-.824-.223.748.748,0,0,1-.246-.582.734.734,0,0,1,.25-.574,1.222,1.222,0,0,1,.82-.223H2.1v-6.266h-.25a1.22,1.22,0,0,1-.824-.223.811.811,0,0,1,0-1.164,1.22,1.22,0,0,1,.824-.223l7.539.008v2.445a1.205,1.205,0,0,1-.223.816.807.807,0,0,1-1.156,0,1.2,1.2,0,0,1-.223-.82v-.844H3.7v2.32H5.109a1.737,1.737,0,0,1,.117-.8.769.769,0,0,1,.688-.383.739.739,0,0,1,.574.246,1.22,1.22,0,0,1,.223.824v1.844a1.22,1.22,0,0,1-.223.824.748.748,0,0,1-.582.246.762.762,0,0,1-.68-.383,1.762,1.762,0,0,1-.117-.812Zm11.5-3.922V227.4H16.82a1.22,1.22,0,0,1,.824.223.748.748,0,0,1,.246.582.739.739,0,0,1-.246.574,1.22,1.22,0,0,1-.824.223H11.984a1.22,1.22,0,0,1-.824-.223.748.748,0,0,1-.246-.582.739.739,0,0,1,.246-.574,1.22,1.22,0,0,1,.824-.223H13.6v-6.266H11.984a1.22,1.22,0,0,1-.824-.223.811.811,0,0,1,0-1.164,1.22,1.22,0,0,1,.824-.223l4.836.008a1.235,1.235,0,0,1,.824.219.736.736,0,0,1,.246.578.748.748,0,0,1-.246.582,1.22,1.22,0,0,1-.824.223Zm6.8,1.422V227.4h.578a1.22,1.22,0,0,1,.824.223.748.748,0,0,1,.246.582.739.739,0,0,1-.246.574,1.22,1.22,0,0,1-.824.223h-2.1a1.22,1.22,0,0,1-.824-.223.8.8,0,0,1,0-1.152,1.068,1.068,0,0,1,.75-.227v-6.266h-.25a1.22,1.22,0,0,1-.824-.223.811.811,0,0,1,0-1.164,1.22,1.22,0,0,1,.824-.223l1.852.008,4.094,6.422v-4.82h-.578a1.22,1.22,0,0,1-.824-.223.811.811,0,0,1,0-1.164,1.22,1.22,0,0,1,.824-.223l2.1.008a1.235,1.235,0,0,1,.824.219.736.736,0,0,1,.246.578.757.757,0,0,1-.242.578,1.055,1.055,0,0,1-.742.227V229H26.117Z" transform="translate(205 3694)" fill="#00104e"/>
  </g>
</svg>
