<svg xmlns="http://www.w3.org/2000/svg" width="61.167" height="61.169" viewBox="0 0 61.167 61.169">
  <g id="pc" transform="translate(0)">
    <path id="Trazado_29359" data-name="Trazado 29359" d="M330.707,80.8V78.326a1.5,1.5,0,0,0-1.493-1.493H311.672a1.5,1.5,0,0,0-1.493,1.493V80.8a1.5,1.5,0,0,0,1.493,1.493h17.542A1.5,1.5,0,0,0,330.707,80.8Zm-1.792-.3H311.971V78.625h16.944Z" transform="translate(-273.125 -67.654)" fill="#ffa726"/>
    <path id="Trazado_29360" data-name="Trazado 29360" d="M67.8,193.774a1.734,1.734,0,0,0,1.732-1.732v-24.81A1.734,1.734,0,0,0,67.8,165.5H29.744a1.734,1.734,0,0,0-1.732,1.732v24.81a1.734,1.734,0,0,0,1.732,1.732Zm-38-26.482h37.94v24.69H29.8Z" transform="translate(-24.667 -145.728)" fill="#ffa726"/>
    <path id="Trazado_29361" data-name="Trazado 29361" d="M418.151,264.876h4.54a1.5,1.5,0,0,0,1.493-1.493v-2.389a1.5,1.5,0,0,0-1.493-1.493h-4.54a1.5,1.5,0,0,0-1.493,1.493v2.389A1.5,1.5,0,0,0,418.151,264.876Zm.3-3.584h3.942v1.792H418.45Z" transform="translate(-366.883 -228.499)" fill="#ffa726"/>
    <path id="Trazado_29362" data-name="Trazado 29362" d="M58.968,0H35.692a2.213,2.213,0,0,0-2.21,2.21V16.426H2.581A2.571,2.571,0,0,0,.012,18.995v4.57a.9.9,0,0,0,1.792,0v-4.57a.777.777,0,0,1,.777-.777H45.658a.777.777,0,0,1,.777.777V48.822a.777.777,0,0,1-.777.777H2.581a.777.777,0,0,1-.777-.777V27.747a.9.9,0,0,0-1.792,0V48.822a2.571,2.571,0,0,0,2.569,2.569H19.639V54.1H13.308a1.734,1.734,0,0,0-1.732,1.732v3.6a1.734,1.734,0,0,0,1.732,1.732c23.138,0,21.716.019,21.984-.038.294.055-.4.038,10.4.038a.9.9,0,1,0,0-1.792h-9.03c0-4.428,0-3.382,0-3.564a1.74,1.74,0,0,0-1.386-1.678h0V51.391H45.658a2.571,2.571,0,0,0,2.569-2.569V29.05h11.16V58.956a.419.419,0,0,1-.418.418H49.875a.9.9,0,1,0,0,1.792h9.094a2.213,2.213,0,0,0,2.21-2.21V2.21A2.213,2.213,0,0,0,58.968,0ZM35.692,1.792H58.968a.419.419,0,0,1,.418.418V5.595H35.274V2.21A.419.419,0,0,1,35.692,1.792Zm-.418,5.595H59.386v9.04H35.274ZM48.226,21.8H55.8v1.872H48.226ZM28.6,54.1V51.391h4.883V54.1Zm-7.168-2.707h5.376V54.1H21.431Zm-8.064,4.5h21.5v3.484h-21.5ZM48.226,27.258V25.466H56.1a1.5,1.5,0,0,0,1.493-1.493V21.5A1.5,1.5,0,0,0,56.1,20.01H48.226a5.745,5.745,0,0,0-.12-1.792h11.28v9.039Z" transform="translate(-0.012 0)" fill="#ffa726"/>
  </g>
</svg>
