<svg xmlns="http://www.w3.org/2000/svg" xmlns:xlink="http://www.w3.org/1999/xlink" width="507" height="340" viewBox="0 0 507 340">
  <defs>
    <filter id="Rect치ngulo_4827" x="0" y="0" width="507" height="340" filterUnits="userSpaceOnUse">
      <feOffset dy="3" input="SourceAlpha"/>
      <feGaussianBlur stdDeviation="3" result="blur"/>
      <feFlood flood-opacity="0.122"/>
      <feComposite operator="in" in2="blur"/>
      <feComposite in="SourceGraphic"/>
    </filter>
  </defs>
  <g id="Grupo_31011" data-name="Grupo 31011" transform="translate(-170 -3662)">
    <g transform="matrix(1, 0, 0, 1, 170, 3662)" filter="url(#Rect치ngulo_4827)">
      <rect id="Rect치ngulo_4827-2" data-name="Rect치ngulo 4827" width="489" height="322" rx="5" transform="translate(9 6)" fill="#f5f5f5"/>
    </g>
    <path id="Trazado_29814" data-name="Trazado 29814" d="M6.758,10.422H2.867l-.391.977h.391a1.22,1.22,0,0,1,.824.223.748.748,0,0,1,.246.582.739.739,0,0,1-.246.574A1.22,1.22,0,0,1,2.867,13H.711a1.22,1.22,0,0,1-.824-.223A.748.748,0,0,1-.359,12.2.744.744,0,0,1-.1,11.609,1.231,1.231,0,0,1,.75,11.4L3.266,5.133H2.219a1.22,1.22,0,0,1-.824-.223.748.748,0,0,1-.246-.582.748.748,0,0,1,.246-.582,1.22,1.22,0,0,1,.824-.223l3.461.008L8.867,11.4a1.457,1.457,0,0,1,.742.125.8.8,0,0,1,.359.68.745.745,0,0,1-.242.574,1.2,1.2,0,0,1-.82.223H6.75a1.22,1.22,0,0,1-.824-.223A.748.748,0,0,1,5.68,12.2a.739.739,0,0,1,.246-.574A1.22,1.22,0,0,1,6.75,11.4h.391Zm-.664-1.6L4.8,5.648,3.508,8.82Zm7.641-3.687V11.4h3.453V9.883a1.22,1.22,0,0,1,.223-.824.748.748,0,0,1,.582-.246.739.739,0,0,1,.574.246,1.22,1.22,0,0,1,.223.824V13H11.2a1.22,1.22,0,0,1-.824-.223.748.748,0,0,1-.246-.582.739.739,0,0,1,.246-.574A1.22,1.22,0,0,1,11.2,11.4h.93V5.133H11.2a1.22,1.22,0,0,1-.824-.223.748.748,0,0,1-.246-.582.748.748,0,0,1,.246-.582,1.22,1.22,0,0,1,.824-.223l3.469.008a1.235,1.235,0,0,1,.824.219.736.736,0,0,1,.246.578.748.748,0,0,1-.246.582,1.22,1.22,0,0,1-.824.223Zm14.3,4.938v2.148a9.494,9.494,0,0,1-1.848.8,6.037,6.037,0,0,1-1.645.215,6.824,6.824,0,0,1-2.273-.367,3.673,3.673,0,0,1-1.293-.711,4.042,4.042,0,0,1-.871-1.27,4.329,4.329,0,0,1-.4-1.879V7.852a4.539,4.539,0,0,1,.977-2.859,4.266,4.266,0,0,1,3.57-1.7,5.66,5.66,0,0,1,1.246.133,4.907,4.907,0,0,1,1.121.4.95.95,0,0,1,.625-.289.732.732,0,0,1,.57.242,1.219,1.219,0,0,1,.219.82V5.633a1.22,1.22,0,0,1-.223.824.739.739,0,0,1-.574.246.726.726,0,0,1-.484-.172.959.959,0,0,1-.262-.52,1.317,1.317,0,0,0-.238-.543,1.792,1.792,0,0,0-.746-.4,3.831,3.831,0,0,0-1.2-.176,3.357,3.357,0,0,0-1.656.391,2.7,2.7,0,0,0-.922,1.008,3.032,3.032,0,0,0-.422,1.563V9.008a2.491,2.491,0,0,0,.746,1.957,3.494,3.494,0,0,0,2.371.668,4.775,4.775,0,0,0,2.008-.414V10.07H24.8a1.22,1.22,0,0,1-.824-.223.811.811,0,0,1,0-1.164,1.22,1.22,0,0,1,.824-.223l2.844.008a1.235,1.235,0,0,1,.824.219.736.736,0,0,1,.246.578.767.767,0,0,1-.168.492A.989.989,0,0,1,28.039,10.07ZM38.1,8.266a4.935,4.935,0,0,1-1.355,3.551,4.218,4.218,0,0,1-3.137,1.418,4.176,4.176,0,0,1-2.891-1.18,4.9,4.9,0,0,1-1.594-3.789,4.928,4.928,0,0,1,1.594-3.8,4.176,4.176,0,0,1,2.891-1.18,4.218,4.218,0,0,1,3.137,1.418A4.945,4.945,0,0,1,38.1,8.266Zm-1.6,0a3.428,3.428,0,0,0-.883-2.418,2.573,2.573,0,0,0-4.008,0,3.431,3.431,0,0,0-.883,2.414,3.417,3.417,0,0,0,.883,2.41,2.58,2.58,0,0,0,4.008,0A3.414,3.414,0,0,0,36.5,8.266Zm5.055,1.117V11.4h.578a1.22,1.22,0,0,1,.824.223.748.748,0,0,1,.246.582.739.739,0,0,1-.246.574,1.22,1.22,0,0,1-.824.223H39.7a1.22,1.22,0,0,1-.824-.223.748.748,0,0,1-.246-.582.734.734,0,0,1,.25-.574,1.222,1.222,0,0,1,.82-.223h.25V5.133H39.7a1.22,1.22,0,0,1-.824-.223.748.748,0,0,1-.246-.582.748.748,0,0,1,.246-.582,1.22,1.22,0,0,1,.824-.223l3.625.008a3.8,3.8,0,0,1,2.629.84,2.647,2.647,0,0,1,.934,2.043,2.293,2.293,0,0,1-.437,1.363,3.8,3.8,0,0,1-1.32,1.09,10.172,10.172,0,0,1,1.086,1.141q.359.445.969,1.391a1.7,1.7,0,0,1,.8.125.779.779,0,0,1,.352.68.745.745,0,0,1-.242.574,1.2,1.2,0,0,1-.82.223h-.914q-1.945-3.008-3.227-3.617Zm0-1.6H42.8a3.432,3.432,0,0,0,1.242-.211,2.389,2.389,0,0,0,.988-.594.984.984,0,0,0,.254-.617,1.086,1.086,0,0,0-.484-.84,2.226,2.226,0,0,0-1.414-.387H41.555ZM53.609,5.133V11.4h1.617a1.22,1.22,0,0,1,.824.223.748.748,0,0,1,.246.582.739.739,0,0,1-.246.574,1.22,1.22,0,0,1-.824.223H50.391a1.22,1.22,0,0,1-.824-.223.748.748,0,0,1-.246-.582.739.739,0,0,1,.246-.574,1.22,1.22,0,0,1,.824-.223h1.617V5.133H50.391a1.22,1.22,0,0,1-.824-.223.748.748,0,0,1-.246-.582.748.748,0,0,1,.246-.582,1.22,1.22,0,0,1,.824-.223l4.836.008a1.235,1.235,0,0,1,.824.219.736.736,0,0,1,.246.578.748.748,0,0,1-.246.582,1.22,1.22,0,0,1-.824.223Zm9.578,0V11.4h1.078a1.22,1.22,0,0,1,.824.223.748.748,0,0,1,.246.582.739.739,0,0,1-.246.574,1.22,1.22,0,0,1-.824.223h-3.75a1.22,1.22,0,0,1-.824-.223.748.748,0,0,1-.246-.582.739.739,0,0,1,.246-.574,1.22,1.22,0,0,1,.824-.223h1.07V5.133H59.852V6.648a1.22,1.22,0,0,1-.223.824.748.748,0,0,1-.582.246.739.739,0,0,1-.574-.246,1.22,1.22,0,0,1-.223-.824V3.523l8.3.008V6.648a1.22,1.22,0,0,1-.223.824.748.748,0,0,1-.582.246.739.739,0,0,1-.574-.246,1.22,1.22,0,0,1-.223-.824V5.133Zm6.32,1.492V11.4h.578a1.22,1.22,0,0,1,.824.223.748.748,0,0,1,.246.582.739.739,0,0,1-.246.574,1.22,1.22,0,0,1-.824.223h-2.1a1.22,1.22,0,0,1-.824-.223.807.807,0,0,1,0-1.156,1.08,1.08,0,0,1,.75-.223V5.133a.989.989,0,0,1-.637-.258.749.749,0,0,1-.215-.547.748.748,0,0,1,.246-.582,1.22,1.22,0,0,1,.824-.223l1.758.008,2.18,4.82L74.2,3.523l1.773.008a1.235,1.235,0,0,1,.824.219.736.736,0,0,1,.246.578.742.742,0,0,1-.219.547,1,1,0,0,1-.633.258V11.4a1.068,1.068,0,0,1,.75.227.757.757,0,0,1,.242.578.739.739,0,0,1-.246.574,1.22,1.22,0,0,1-.824.223H74.008a1.205,1.205,0,0,1-.816-.223.748.748,0,0,1-.246-.582.739.739,0,0,1,.246-.574,1.205,1.205,0,0,1,.816-.223h.586V6.625L72.758,10.75H71.367Zm16.6,1.641a4.935,4.935,0,0,1-1.355,3.551,4.218,4.218,0,0,1-3.137,1.418,4.176,4.176,0,0,1-2.891-1.18,4.9,4.9,0,0,1-1.594-3.789,4.928,4.928,0,0,1,1.594-3.8,4.176,4.176,0,0,1,2.891-1.18,4.218,4.218,0,0,1,3.137,1.418A4.945,4.945,0,0,1,86.109,8.266Zm-1.6,0a3.428,3.428,0,0,0-.883-2.418,2.573,2.573,0,0,0-4.008,0,3.431,3.431,0,0,0-.883,2.414,3.417,3.417,0,0,0,.883,2.41,2.58,2.58,0,0,0,4.008,0A3.414,3.414,0,0,0,84.508,8.266Zm19.2-3.508V4.3a.5.5,0,0,1,.09-.336.33.33,0,0,1,.477,0,.5.5,0,0,1,.09.336v1.82a.518.518,0,0,1-.09.344.3.3,0,0,1-.238.1.3.3,0,0,1-.223-.094.485.485,0,0,1-.105-.3A1.576,1.576,0,0,0,102.992,5a3.3,3.3,0,0,0-2.062-.7,3.154,3.154,0,0,0-1.43.336,2.382,2.382,0,0,0-.8.594,5.046,5.046,0,0,0-.82,1.352,3.3,3.3,0,0,0-.219,1.234V8.969a3.521,3.521,0,0,0,1.063,2.551A3.357,3.357,0,0,0,101.2,12.6a3.086,3.086,0,0,0,1.512-.367A4.664,4.664,0,0,0,104,11.125a.38.38,0,0,1,.3-.164.306.306,0,0,1,.227.086.3.3,0,0,1,.086.219q0,.18-.336.547a4.315,4.315,0,0,1-1.441,1.082,3.89,3.89,0,0,1-1.621.363,4.124,4.124,0,0,1-1.445-.273,3.607,3.607,0,0,1-.93-.492,5.81,5.81,0,0,1-.9-.949,4.268,4.268,0,0,1-.73-1.234,3.8,3.8,0,0,1-.2-1.246V7.727a4.318,4.318,0,0,1,.52-1.98,3.779,3.779,0,0,1,1.422-1.555,3.728,3.728,0,0,1,1.957-.543A3.927,3.927,0,0,1,103.7,4.758Zm7.039-1.891v1.7h-.969v-1.7Zm.023,3.367v6.109h2.578a.518.518,0,0,1,.344.09.3.3,0,0,1,.1.238.306.306,0,0,1-.1.234.5.5,0,0,1-.344.094h-5.812a.489.489,0,0,1-.336-.094.306.306,0,0,1-.1-.234.3.3,0,0,1,.1-.238.5.5,0,0,1,.336-.09h2.578V6.9H108.2a.5.5,0,0,1-.34-.094.3.3,0,0,1-.105-.234.315.315,0,0,1,.1-.242.5.5,0,0,1,.344-.094Zm11.992.664V6.68a.5.5,0,0,1,.094-.344.306.306,0,0,1,.234-.1.315.315,0,0,1,.242.1.5.5,0,0,1,.094.344V8.164a.546.546,0,0,1-.1.344.326.326,0,0,1-.461.012.466.466,0,0,1-.105-.3,1.533,1.533,0,0,0-.73-1.055,3.052,3.052,0,0,0-1.84-.5,2.717,2.717,0,0,0-2.219.914,3.188,3.188,0,0,0-.758,2.094,2.833,2.833,0,0,0,.836,2.1,2.943,2.943,0,0,0,2.164.828,4.644,4.644,0,0,0,1.559-.281,3.912,3.912,0,0,0,1.434-.906.457.457,0,0,1,.289-.156.307.307,0,0,1,.313.313q0,.336-.789.852a5.057,5.057,0,0,1-2.836.836,3.543,3.543,0,0,1-2.605-1.012,3.463,3.463,0,0,1-1.02-2.566A3.573,3.573,0,0,1,120.227,6,3.7,3.7,0,0,1,122.758,6.9Zm7.2-3.7v9.148h2.578a.518.518,0,0,1,.344.09.3.3,0,0,1,.1.238.306.306,0,0,1-.1.234.5.5,0,0,1-.344.094h-5.812a.489.489,0,0,1-.336-.094.306.306,0,0,1-.1-.234.3.3,0,0,1,.1-.238.5.5,0,0,1,.336-.09H129.3V3.859h-1.891a.5.5,0,0,1-.34-.094.309.309,0,0,1-.105-.242.306.306,0,0,1,.1-.234.5.5,0,0,1,.344-.094Zm12.938,6.438a3.473,3.473,0,0,1-1.074,2.563,3.7,3.7,0,0,1-5.191,0,3.6,3.6,0,0,1,0-5.125,3.7,3.7,0,0,1,5.191,0A3.482,3.482,0,0,1,142.891,9.633Zm-.664,0a2.843,2.843,0,0,0-.879-2.1,3.042,3.042,0,0,0-4.258,0,2.938,2.938,0,0,0,0,4.191,3.032,3.032,0,0,0,4.258,0A2.847,2.847,0,0,0,142.227,9.633Zm13.727-3.4v1.2a4.247,4.247,0,0,1,1.258-1.07A3.316,3.316,0,0,1,158.8,6a3.639,3.639,0,0,1,1.789.453,3.182,3.182,0,0,1,1.27,1.262,3.449,3.449,0,0,1,.449,1.7,3.283,3.283,0,0,1-1.012,2.418,3.571,3.571,0,0,1-5.34-.426v3.953h1.594a.5.5,0,0,1,.336.09.3.3,0,0,1,.1.238.306.306,0,0,1-.1.234.489.489,0,0,1-.336.094h-3.133a.5.5,0,0,1-.336-.09.33.33,0,0,1,0-.477.5.5,0,0,1,.336-.09h.883V6.9h-.883a.489.489,0,0,1-.336-.094.315.315,0,0,1-.1-.242.306.306,0,0,1,.1-.234.489.489,0,0,1,.336-.094Zm5.688,3.18a2.623,2.623,0,0,0-.824-1.941,2.916,2.916,0,0,0-4.035,0,2.69,2.69,0,0,0,0,3.883,2.911,2.911,0,0,0,4.031,0A2.626,2.626,0,0,0,161.641,9.414ZM169.914,13v-.945a4.667,4.667,0,0,1-3.055,1.2,2.658,2.658,0,0,1-1.844-.6,1.9,1.9,0,0,1-.664-1.465,2.1,2.1,0,0,1,.875-1.664,3.972,3.972,0,0,1,2.555-.711,9.021,9.021,0,0,1,.984.059q.531.059,1.148.184V8a1.173,1.173,0,0,0-.5-.937,2.376,2.376,0,0,0-1.5-.4,7.592,7.592,0,0,0-2.148.445,1.5,1.5,0,0,1-.32.078.287.287,0,0,1-.215-.094.325.325,0,0,1-.09-.234.285.285,0,0,1,.078-.211,2.683,2.683,0,0,1,.883-.32A7.8,7.8,0,0,1,167.945,6a2.83,2.83,0,0,1,1.938.613,1.817,1.817,0,0,1,.7,1.387v4.344h.875a.518.518,0,0,1,.344.09.3.3,0,0,1,.1.238.306.306,0,0,1-.1.234.5.5,0,0,1-.344.094Zm0-3.266a6.232,6.232,0,0,0-.977-.2,9.03,9.03,0,0,0-1.086-.062,3.594,3.594,0,0,0-2.234.617,1.352,1.352,0,0,0-.609,1.1,1.277,1.277,0,0,0,.465,1,2,2,0,0,0,1.355.406,3.7,3.7,0,0,0,1.582-.34,5.7,5.7,0,0,0,1.5-1.082Zm6.93-3.5V7.891A11.042,11.042,0,0,1,178.762,6.4a2.57,2.57,0,0,1,1.176-.332,1.733,1.733,0,0,1,1.09.395q.5.395.5.6a.334.334,0,0,1-.344.344.3.3,0,0,1-.133-.027,1.105,1.105,0,0,1-.2-.176,1.984,1.984,0,0,0-.477-.375.887.887,0,0,0-.4-.1,2.2,2.2,0,0,0-1.035.344,15.449,15.449,0,0,0-2.1,1.68v3.594h2.906a.518.518,0,0,1,.344.09.3.3,0,0,1,.1.238.306.306,0,0,1-.1.234.5.5,0,0,1-.344.094H174.6a.5.5,0,0,1-.336-.09.294.294,0,0,1-.1-.23.29.29,0,0,1,.1-.223.5.5,0,0,1,.34-.09h1.586V6.9h-1.211a.489.489,0,0,1-.336-.094.315.315,0,0,1-.1-.242.311.311,0,0,1,.1-.234.487.487,0,0,1,.34-.094ZM189.117,13v-.945a4.667,4.667,0,0,1-3.055,1.2,2.658,2.658,0,0,1-1.844-.6,1.9,1.9,0,0,1-.664-1.465,2.1,2.1,0,0,1,.875-1.664,3.972,3.972,0,0,1,2.555-.711,9.021,9.021,0,0,1,.984.059q.531.059,1.148.184V8a1.173,1.173,0,0,0-.5-.937,2.376,2.376,0,0,0-1.5-.4,7.592,7.592,0,0,0-2.148.445,1.5,1.5,0,0,1-.32.078.287.287,0,0,1-.215-.094.325.325,0,0,1-.09-.234.285.285,0,0,1,.078-.211,2.683,2.683,0,0,1,.883-.32A7.8,7.8,0,0,1,187.148,6a2.83,2.83,0,0,1,1.938.613,1.817,1.817,0,0,1,.7,1.387v4.344h.875a.518.518,0,0,1,.344.09.3.3,0,0,1,.1.238.306.306,0,0,1-.1.234.5.5,0,0,1-.344.094Zm0-3.266a6.232,6.232,0,0,0-.977-.2,9.03,9.03,0,0,0-1.086-.062,3.594,3.594,0,0,0-2.234.617,1.352,1.352,0,0,0-.609,1.1,1.277,1.277,0,0,0,.465,1,2,2,0,0,0,1.355.406,3.7,3.7,0,0,0,1.582-.34,5.7,5.7,0,0,0,1.5-1.082Zm7.57-3.5h.289a1.01,1.01,0,0,1,.746.313,1.061,1.061,0,0,1-.746,1.813h-.289a1.01,1.01,0,0,1-.746-.312,1.066,1.066,0,0,1,.008-1.508A1.031,1.031,0,0,1,196.688,6.234Zm-1.141,4.406h2.063L195.4,14.266a1.279,1.279,0,0,1-.262.336.384.384,0,0,1-.23.07.439.439,0,0,1-.312-.117.372.372,0,0,1-.125-.281.845.845,0,0,1,.047-.242ZM5.6,29.133V35.4H7.219a1.22,1.22,0,0,1,.824.223.748.748,0,0,1,.246.582.739.739,0,0,1-.246.574A1.22,1.22,0,0,1,7.219,37H2.383a1.22,1.22,0,0,1-.824-.223.748.748,0,0,1-.246-.582.739.739,0,0,1,.246-.574,1.22,1.22,0,0,1,.824-.223H4V29.133H2.383a1.22,1.22,0,0,1-.824-.223.811.811,0,0,1,0-1.164,1.22,1.22,0,0,1,.824-.223l4.836.008a1.235,1.235,0,0,1,.824.219.736.736,0,0,1,.246.578.748.748,0,0,1-.246.582,1.22,1.22,0,0,1-.824.223Zm6.8,1.422V35.4h.578a1.22,1.22,0,0,1,.824.223.748.748,0,0,1,.246.582.739.739,0,0,1-.246.574,1.22,1.22,0,0,1-.824.223h-2.1a1.22,1.22,0,0,1-.824-.223.8.8,0,0,1,0-1.152,1.068,1.068,0,0,1,.75-.227V29.133h-.25a1.22,1.22,0,0,1-.824-.223.811.811,0,0,1,0-1.164,1.22,1.22,0,0,1,.824-.223l1.852.008,4.094,6.422v-4.82h-.578a1.22,1.22,0,0,1-.824-.223.811.811,0,0,1,0-1.164,1.22,1.22,0,0,1,.824-.223l2.1.008a1.235,1.235,0,0,1,.824.219.736.736,0,0,1,.246.578.757.757,0,0,1-.242.578,1.055,1.055,0,0,1-.742.227V37H16.516ZM24.8,29.133V35.4h1.617a1.22,1.22,0,0,1,.824.223.748.748,0,0,1,.246.582.739.739,0,0,1-.246.574,1.22,1.22,0,0,1-.824.223H21.586a1.22,1.22,0,0,1-.824-.223.748.748,0,0,1-.246-.582.739.739,0,0,1,.246-.574,1.22,1.22,0,0,1,.824-.223H23.2V29.133H21.586a1.22,1.22,0,0,1-.824-.223.811.811,0,0,1,0-1.164,1.22,1.22,0,0,1,.824-.223l4.836.008a1.235,1.235,0,0,1,.824.219.736.736,0,0,1,.246.578.748.748,0,0,1-.246.582,1.22,1.22,0,0,1-.824.223Zm11.313-1.2a1.076,1.076,0,0,1,.324-.3.785.785,0,0,1,.953.141,1.2,1.2,0,0,1,.223.82v1.359a1.22,1.22,0,0,1-.223.824.739.739,0,0,1-.574.246.732.732,0,0,1-.516-.18,1.227,1.227,0,0,1-.289-.672.974.974,0,0,0-.219-.508A2.219,2.219,0,0,0,34.9,29.1a3.321,3.321,0,0,0-1.152-.211,2.821,2.821,0,0,0-1.32.313,2.884,2.884,0,0,0-1.062,1.016,2.98,2.98,0,0,0-.461,1.672V32.93a2.515,2.515,0,0,0,.84,1.93,3.313,3.313,0,0,0,2.332.773,4.14,4.14,0,0,0,1.508-.242,2.3,2.3,0,0,0,.766-.555,1.905,1.905,0,0,1,.391-.324.676.676,0,0,1,.32-.074.772.772,0,0,1,.563.242.78.78,0,0,1,.242.57,1.106,1.106,0,0,1-.328.7,3.256,3.256,0,0,1-1.227.859,5.711,5.711,0,0,1-2.227.422,5.526,5.526,0,0,1-2.562-.586,4.064,4.064,0,0,1-1.57-1.48,4.01,4.01,0,0,1-.648-2.207V31.875a4.847,4.847,0,0,1,.582-2.332A4.115,4.115,0,0,1,31.5,27.875a4.36,4.36,0,0,1,2.188-.586,5.072,5.072,0,0,1,1.3.16A4.074,4.074,0,0,1,36.117,27.938Zm7.891,1.2V35.4h1.617a1.22,1.22,0,0,1,.824.223.748.748,0,0,1,.246.582.739.739,0,0,1-.246.574,1.22,1.22,0,0,1-.824.223H40.789a1.22,1.22,0,0,1-.824-.223.748.748,0,0,1-.246-.582.739.739,0,0,1,.246-.574,1.22,1.22,0,0,1,.824-.223h1.617V29.133H40.789a1.22,1.22,0,0,1-.824-.223.811.811,0,0,1,0-1.164,1.22,1.22,0,0,1,.824-.223l4.836.008a1.235,1.235,0,0,1,.824.219.736.736,0,0,1,.246.578.748.748,0,0,1-.246.582,1.22,1.22,0,0,1-.824.223Zm13.3,3.133a4.935,4.935,0,0,1-1.355,3.551,4.218,4.218,0,0,1-3.137,1.418,4.176,4.176,0,0,1-2.891-1.18,4.9,4.9,0,0,1-1.594-3.789,4.928,4.928,0,0,1,1.594-3.8,4.176,4.176,0,0,1,2.891-1.18,4.218,4.218,0,0,1,3.137,1.418A4.945,4.945,0,0,1,57.3,32.266Zm-1.6,0a3.428,3.428,0,0,0-.883-2.418,2.573,2.573,0,0,0-4.008,0,3.737,3.737,0,0,0,0,4.824,2.58,2.58,0,0,0,4.008,0A3.414,3.414,0,0,0,55.7,32.266ZM32.68,57.75V59.4H34.3a1.22,1.22,0,0,1,.824.223.748.748,0,0,1,.246.582.739.739,0,0,1-.246.574A1.22,1.22,0,0,1,34.3,61H30.828A1.22,1.22,0,0,1,30,60.777a.748.748,0,0,1-.246-.582.734.734,0,0,1,.25-.574,1.222,1.222,0,0,1,.82-.223h.25V53.133h-.25A1.22,1.22,0,0,1,30,52.91a.811.811,0,0,1,0-1.164,1.22,1.22,0,0,1,.824-.223l3.688.008a3.621,3.621,0,0,1,2.574.887,2.926,2.926,0,0,1,.629,3.488,3.01,3.01,0,0,1-.809.926,3.772,3.772,0,0,1-2.715.918Zm0-1.6h1.484a2.653,2.653,0,0,0,1.66-.473,1.4,1.4,0,0,0,.613-1.137,1.261,1.261,0,0,0-.5-.984,2.129,2.129,0,0,0-1.418-.422H32.68Zm12.484,2.273H41.273l-.391.977h.391a1.22,1.22,0,0,1,.824.223.748.748,0,0,1,.246.582.739.739,0,0,1-.246.574,1.22,1.22,0,0,1-.824.223H39.117a1.22,1.22,0,0,1-.824-.223.8.8,0,0,1,.012-1.168,1.231,1.231,0,0,1,.852-.211l2.516-6.266H40.625a1.22,1.22,0,0,1-.824-.223.811.811,0,0,1,0-1.164,1.22,1.22,0,0,1,.824-.223l3.461.008L47.273,59.4a1.457,1.457,0,0,1,.742.125.8.8,0,0,1,.359.68.745.745,0,0,1-.242.574,1.2,1.2,0,0,1-.82.223H45.156a1.22,1.22,0,0,1-.824-.223.748.748,0,0,1-.246-.582.739.739,0,0,1,.246-.574,1.22,1.22,0,0,1,.824-.223h.391Zm-.664-1.6-1.289-3.172-1.3,3.172Zm6.656.563V59.4h.578a1.22,1.22,0,0,1,.824.223.748.748,0,0,1,.246.582.739.739,0,0,1-.246.574,1.22,1.22,0,0,1-.824.223H49.3a1.22,1.22,0,0,1-.824-.223.748.748,0,0,1-.246-.582.734.734,0,0,1,.25-.574,1.222,1.222,0,0,1,.82-.223h.25V53.133H49.3a1.22,1.22,0,0,1-.824-.223.811.811,0,0,1,0-1.164,1.22,1.22,0,0,1,.824-.223l3.625.008a3.8,3.8,0,0,1,2.629.84,2.647,2.647,0,0,1,.934,2.043,2.293,2.293,0,0,1-.437,1.363,3.8,3.8,0,0,1-1.32,1.09,10.171,10.171,0,0,1,1.086,1.141q.359.445.969,1.391a1.7,1.7,0,0,1,.8.125.779.779,0,0,1,.352.68.745.745,0,0,1-.242.574,1.2,1.2,0,0,1-.82.223h-.914q-1.945-3.008-3.227-3.617Zm0-1.6h1.25a3.432,3.432,0,0,0,1.242-.211,2.389,2.389,0,0,0,.988-.594.984.984,0,0,0,.254-.617,1.086,1.086,0,0,0-.484-.84,2.226,2.226,0,0,0-1.414-.387H51.156Zm13.211,2.641H60.477l-.391.977h.391a1.22,1.22,0,0,1,.824.223.748.748,0,0,1,.246.582.739.739,0,0,1-.246.574,1.22,1.22,0,0,1-.824.223H58.32a1.22,1.22,0,0,1-.824-.223.8.8,0,0,1,.012-1.168,1.231,1.231,0,0,1,.852-.211l2.516-6.266H59.828A1.22,1.22,0,0,1,59,52.91a.811.811,0,0,1,0-1.164,1.22,1.22,0,0,1,.824-.223l3.461.008L66.477,59.4a1.457,1.457,0,0,1,.742.125.8.8,0,0,1,.359.68.745.745,0,0,1-.242.574,1.2,1.2,0,0,1-.82.223H64.359a1.22,1.22,0,0,1-.824-.223.748.748,0,0,1-.246-.582.739.739,0,0,1,.246-.574,1.22,1.22,0,0,1,.824-.223h.391Zm-.664-1.6-1.289-3.172-1.3,3.172Zm27.836-5.953v1.7H90.57v-1.7Zm.023,3.367v6.109h2.578a.518.518,0,0,1,.344.09.3.3,0,0,1,.1.238.306.306,0,0,1-.1.234.5.5,0,0,1-.344.094H88.328a.489.489,0,0,1-.336-.094.306.306,0,0,1-.1-.234.3.3,0,0,1,.1-.238.5.5,0,0,1,.336-.09h2.578V54.9H88.992a.5.5,0,0,1-.34-.094.3.3,0,0,1-.105-.234.315.315,0,0,1,.1-.242.5.5,0,0,1,.344-.094ZM106.836,59.4V53.133a1.107,1.107,0,0,1-.75-.23.807.807,0,0,1,0-1.156,1.22,1.22,0,0,1,.824-.223l3.352.008a4.194,4.194,0,0,1,1.527.289,3.478,3.478,0,0,1,1.2.734,5.8,5.8,0,0,1,1.273,2.086,4.627,4.627,0,0,1,.188,1.414v.766a4.452,4.452,0,0,1-.344,1.8,3.628,3.628,0,0,1-.9,1.281,4.62,4.62,0,0,1-1.051.73,4.781,4.781,0,0,1-2.023.367h-3.219a1.22,1.22,0,0,1-.824-.223.807.807,0,0,1,0-1.16A1.045,1.045,0,0,1,106.836,59.4Zm1.6,0h1.7a2.993,2.993,0,0,0,1.438-.273,2.483,2.483,0,0,0,.953-.914,2.852,2.852,0,0,0,.32-1.437v-.758a2.9,2.9,0,0,0-.289-1.328,2.871,2.871,0,0,0-1.02-1.223,2.767,2.767,0,0,0-1.418-.332h-1.687Zm9.938-2.352V59.4h4.086v-.867a1.22,1.22,0,0,1,.223-.824.748.748,0,0,1,.582-.246.739.739,0,0,1,.574.246,1.22,1.22,0,0,1,.223.824V61h-7.539a1.22,1.22,0,0,1-.824-.223.748.748,0,0,1-.246-.582.734.734,0,0,1,.25-.574,1.222,1.222,0,0,1,.82-.223h.25V53.133h-.25a1.22,1.22,0,0,1-.824-.223.811.811,0,0,1,0-1.164,1.22,1.22,0,0,1,.824-.223l7.188.008v2.438a1.221,1.221,0,0,1-.219.816.736.736,0,0,1-.578.246.754.754,0,0,1-.582-.242,1.2,1.2,0,0,1-.223-.82v-.836h-3.734v2.313h1.406a1.737,1.737,0,0,1,.117-.8.769.769,0,0,1,.688-.383.739.739,0,0,1,.574.246,1.22,1.22,0,0,1,.223.824v1.844a1.349,1.349,0,0,1-.125.7.8.8,0,0,1-1.359-.016,1.762,1.762,0,0,1-.117-.812Zm8.906,3.547a1.418,1.418,0,0,1-.34.32.653.653,0,0,1-.316.07.757.757,0,0,1-.59-.246,1.205,1.205,0,0,1-.223-.816V58.844a1.22,1.22,0,0,1,.223-.824.757.757,0,0,1,.59-.246.748.748,0,0,1,.473.148.941.941,0,0,1,.293.5,1.331,1.331,0,0,0,.211.473,2.475,2.475,0,0,0,.8.492,3.155,3.155,0,0,0,1.266.25,2.914,2.914,0,0,0,1.758-.5.894.894,0,0,0,.438-.75.875.875,0,0,0-.211-.559,1.527,1.527,0,0,0-.687-.434,10.747,10.747,0,0,0-1.4-.32,7.56,7.56,0,0,1-1.984-.586,2.651,2.651,0,0,1-1.062-.969,2.5,2.5,0,0,1-.391-1.352,2.631,2.631,0,0,1,.961-2.012,3.6,3.6,0,0,1,2.5-.863,4.551,4.551,0,0,1,1.145.137,3.2,3.2,0,0,1,.957.418.909.909,0,0,1,.625-.3.739.739,0,0,1,.574.246,1.205,1.205,0,0,1,.223.816v1.2a1.22,1.22,0,0,1-.223.824.739.739,0,0,1-.574.246.787.787,0,0,1-.516-.18.9.9,0,0,1-.258-.531,1.472,1.472,0,0,0-.219-.57,1.714,1.714,0,0,0-.68-.5,2.537,2.537,0,0,0-1.047-.2,2.138,2.138,0,0,0-1.371.4,1.109,1.109,0,0,0-.5.84.949.949,0,0,0,.207.574,1.343,1.343,0,0,0,.605.434,11.645,11.645,0,0,0,1.5.352,9.516,9.516,0,0,1,1.891.531,2.615,2.615,0,0,1,1.1.906,2.474,2.474,0,0,1,.438,1.469,2.366,2.366,0,0,1-.836,1.9,4.23,4.23,0,0,1-2.828.938,5.219,5.219,0,0,1-1.293-.16A5.349,5.349,0,0,1,127.281,60.594Zm8.359-1.2V53.133a1.107,1.107,0,0,1-.75-.23.807.807,0,0,1,0-1.156,1.22,1.22,0,0,1,.824-.223l3.352.008a4.194,4.194,0,0,1,1.527.289,3.478,3.478,0,0,1,1.2.734,5.8,5.8,0,0,1,1.273,2.086,4.627,4.627,0,0,1,.188,1.414v.766a4.451,4.451,0,0,1-.344,1.8,3.628,3.628,0,0,1-.9,1.281,4.619,4.619,0,0,1-1.051.73,4.781,4.781,0,0,1-2.023.367h-3.219a1.22,1.22,0,0,1-.824-.223.807.807,0,0,1,0-1.16A1.045,1.045,0,0,1,135.641,59.4Zm1.6,0h1.7a2.993,2.993,0,0,0,1.438-.273,2.483,2.483,0,0,0,.953-.914,2.852,2.852,0,0,0,.32-1.437v-.758a2.9,2.9,0,0,0-.289-1.328,2.87,2.87,0,0,0-1.02-1.223,2.767,2.767,0,0,0-1.418-.332h-1.687Zm9.938-2.352V59.4h4.086v-.867a1.22,1.22,0,0,1,.223-.824.748.748,0,0,1,.582-.246.739.739,0,0,1,.574.246,1.22,1.22,0,0,1,.223.824V61h-7.539a1.22,1.22,0,0,1-.824-.223.748.748,0,0,1-.246-.582.734.734,0,0,1,.25-.574,1.222,1.222,0,0,1,.82-.223h.25V53.133h-.25a1.22,1.22,0,0,1-.824-.223.811.811,0,0,1,0-1.164,1.22,1.22,0,0,1,.824-.223l7.188.008v2.438a1.221,1.221,0,0,1-.219.816.736.736,0,0,1-.578.246.754.754,0,0,1-.582-.242,1.2,1.2,0,0,1-.223-.82v-.836H147.18v2.313h1.406a1.737,1.737,0,0,1,.117-.8.769.769,0,0,1,.688-.383.739.739,0,0,1,.574.246,1.22,1.22,0,0,1,.223.824v1.844a1.349,1.349,0,0,1-.125.7.8.8,0,0,1-1.359-.016,1.762,1.762,0,0,1-.117-.812Zm21.172-5.984v9.281h2.25a.5.5,0,0,1,.336.09.3.3,0,0,1,.1.238.306.306,0,0,1-.1.234A.489.489,0,0,1,170.6,61h-5.156a.489.489,0,0,1-.336-.094.306.306,0,0,1-.1-.234.3.3,0,0,1,.1-.238.5.5,0,0,1,.336-.09h2.25V51.969l-2.141.672a.9.9,0,0,1-.227.047.3.3,0,0,1-.215-.1.315.315,0,0,1-.1-.23.352.352,0,0,1,.078-.219.754.754,0,0,1,.258-.133Zm20.633,6.016h-3.422V59.4h.25a1.22,1.22,0,0,1,.824.223.748.748,0,0,1,.246.582.739.739,0,0,1-.246.574,1.22,1.22,0,0,1-.824.223h-1.961a1.22,1.22,0,0,1-.824-.223.748.748,0,0,1-.246-.582.762.762,0,0,1,.383-.68,1.607,1.607,0,0,1,.8-.117V53.133a.989.989,0,0,1-.637-.258.808.808,0,0,1,.031-1.129,1.22,1.22,0,0,1,.824-.223l1.633.008a1.235,1.235,0,0,1,.824.219.736.736,0,0,1,.246.578.748.748,0,0,1-.246.582,1.22,1.22,0,0,1-.824.223h-.25v2.344h3.422V53.133h-.25a1.22,1.22,0,0,1-.824-.223.811.811,0,0,1,0-1.164,1.22,1.22,0,0,1,.824-.223l1.633.008a1.235,1.235,0,0,1,.824.219.736.736,0,0,1,.246.578.749.749,0,0,1-.215.547.989.989,0,0,1-.637.258V59.4a1.711,1.711,0,0,1,.8.117.769.769,0,0,1,.383.688.739.739,0,0,1-.246.574A1.22,1.22,0,0,1,190.7,61h-1.961a1.22,1.22,0,0,1-.824-.223.748.748,0,0,1-.246-.582.734.734,0,0,1,.25-.574,1.222,1.222,0,0,1,.82-.223h.25Zm9.8,1.344H194.9l-.391.977h.391a1.22,1.22,0,0,1,.824.223.748.748,0,0,1,.246.582.739.739,0,0,1-.246.574A1.22,1.22,0,0,1,194.9,61h-2.156a1.22,1.22,0,0,1-.824-.223.8.8,0,0,1,.012-1.168,1.231,1.231,0,0,1,.852-.211l2.516-6.266H194.25a1.22,1.22,0,0,1-.824-.223.811.811,0,0,1,0-1.164,1.22,1.22,0,0,1,.824-.223l3.461.008L200.9,59.4a1.457,1.457,0,0,1,.742.125.8.8,0,0,1,.359.68.745.745,0,0,1-.242.574,1.2,1.2,0,0,1-.82.223h-2.156a1.22,1.22,0,0,1-.824-.223.748.748,0,0,1-.246-.582.739.739,0,0,1,.246-.574,1.22,1.22,0,0,1,.824-.223h.391Zm-.664-1.6-1.289-3.172-1.3,3.172Zm5.969,3.773a1.418,1.418,0,0,1-.34.32.653.653,0,0,1-.316.07.757.757,0,0,1-.59-.246,1.205,1.205,0,0,1-.223-.816V58.844a1.22,1.22,0,0,1,.223-.824.757.757,0,0,1,.59-.246.748.748,0,0,1,.473.148.941.941,0,0,1,.293.5,1.33,1.33,0,0,0,.211.473,2.475,2.475,0,0,0,.8.492,3.155,3.155,0,0,0,1.266.25,2.914,2.914,0,0,0,1.758-.5.894.894,0,0,0,.438-.75.875.875,0,0,0-.211-.559,1.527,1.527,0,0,0-.687-.434,10.747,10.747,0,0,0-1.4-.32,7.56,7.56,0,0,1-1.984-.586,2.651,2.651,0,0,1-1.062-.969,2.5,2.5,0,0,1-.391-1.352,2.631,2.631,0,0,1,.961-2.012,3.6,3.6,0,0,1,2.5-.863,4.551,4.551,0,0,1,1.145.137,3.2,3.2,0,0,1,.957.418.909.909,0,0,1,.625-.3.739.739,0,0,1,.574.246,1.205,1.205,0,0,1,.223.816v1.2a1.22,1.22,0,0,1-.223.824.739.739,0,0,1-.574.246.787.787,0,0,1-.516-.18.9.9,0,0,1-.258-.531,1.472,1.472,0,0,0-.219-.57,1.714,1.714,0,0,0-.68-.5,2.537,2.537,0,0,0-1.047-.2,2.138,2.138,0,0,0-1.371.4,1.109,1.109,0,0,0-.5.84.949.949,0,0,0,.207.574,1.343,1.343,0,0,0,.605.434,11.645,11.645,0,0,0,1.5.352,9.516,9.516,0,0,1,1.891.531,2.615,2.615,0,0,1,1.1.906,2.474,2.474,0,0,1,.438,1.469,2.366,2.366,0,0,1-.836,1.9,4.23,4.23,0,0,1-2.828.938,5.219,5.219,0,0,1-1.293-.16A5.349,5.349,0,0,1,204.094,60.594Zm12.719-7.461V59.4h1.078a1.22,1.22,0,0,1,.824.223.748.748,0,0,1,.246.582.739.739,0,0,1-.246.574,1.22,1.22,0,0,1-.824.223h-3.75a1.22,1.22,0,0,1-.824-.223.748.748,0,0,1-.246-.582.739.739,0,0,1,.246-.574,1.22,1.22,0,0,1,.824-.223h1.07V53.133h-1.734v1.516a1.22,1.22,0,0,1-.223.824.748.748,0,0,1-.582.246.739.739,0,0,1-.574-.246,1.22,1.22,0,0,1-.223-.824V51.523l8.3.008v3.117a1.22,1.22,0,0,1-.223.824.748.748,0,0,1-.582.246.739.739,0,0,1-.574-.246,1.22,1.22,0,0,1-.223-.824V53.133Zm10.781,5.289H223.7l-.391.977h.391a1.22,1.22,0,0,1,.824.223.748.748,0,0,1,.246.582.739.739,0,0,1-.246.574A1.22,1.22,0,0,1,223.7,61h-2.156a1.22,1.22,0,0,1-.824-.223.8.8,0,0,1,.012-1.168,1.231,1.231,0,0,1,.852-.211l2.516-6.266h-1.047a1.22,1.22,0,0,1-.824-.223.811.811,0,0,1,0-1.164,1.22,1.22,0,0,1,.824-.223l3.461.008L229.7,59.4a1.457,1.457,0,0,1,.742.125.8.8,0,0,1,.359.68.745.745,0,0,1-.242.574,1.2,1.2,0,0,1-.82.223h-2.156a1.22,1.22,0,0,1-.824-.223.748.748,0,0,1-.246-.582.739.739,0,0,1,.246-.574,1.22,1.22,0,0,1,.824-.223h.391Zm-.664-1.6-1.289-3.172-1.3,3.172Zm20.117-4.664v-.3h-4.7v.578a.5.5,0,0,1-.09.336.3.3,0,0,1-.238.1.306.306,0,0,1-.234-.1.489.489,0,0,1-.094-.336V51.2h6.023v1.047L245.07,60.68a.542.542,0,0,1-.148.27.311.311,0,0,1-.2.066.318.318,0,0,1-.234-.094.3.3,0,0,1-.094-.219.749.749,0,0,1,.047-.219ZM70.367,81.047V83.4h4.086v-.867a1.22,1.22,0,0,1,.223-.824.748.748,0,0,1,.582-.246.739.739,0,0,1,.574.246,1.22,1.22,0,0,1,.223.824V85H68.516a1.22,1.22,0,0,1-.824-.223.748.748,0,0,1-.246-.582.734.734,0,0,1,.25-.574,1.222,1.222,0,0,1,.82-.223h.25V77.133h-.25a1.22,1.22,0,0,1-.824-.223.811.811,0,0,1,0-1.164,1.22,1.22,0,0,1,.824-.223l7.188.008v2.438a1.221,1.221,0,0,1-.219.816.736.736,0,0,1-.578.246.754.754,0,0,1-.582-.242,1.2,1.2,0,0,1-.223-.82v-.836H70.367v2.313h1.406a1.737,1.737,0,0,1,.117-.8.769.769,0,0,1,.688-.383.739.739,0,0,1,.574.246,1.22,1.22,0,0,1,.223.824v1.844a1.348,1.348,0,0,1-.125.7.8.8,0,0,1-1.359-.016,1.762,1.762,0,0,1-.117-.812Zm8.906,3.547a1.418,1.418,0,0,1-.34.32.653.653,0,0,1-.316.07.757.757,0,0,1-.59-.246,1.205,1.205,0,0,1-.223-.816V82.844a1.22,1.22,0,0,1,.223-.824.757.757,0,0,1,.59-.246.748.748,0,0,1,.473.148.941.941,0,0,1,.293.5,1.331,1.331,0,0,0,.211.473,2.475,2.475,0,0,0,.8.492,3.155,3.155,0,0,0,1.266.25,2.914,2.914,0,0,0,1.758-.5.894.894,0,0,0,.438-.75.875.875,0,0,0-.211-.559,1.527,1.527,0,0,0-.687-.434,10.746,10.746,0,0,0-1.4-.32,7.56,7.56,0,0,1-1.984-.586,2.651,2.651,0,0,1-1.062-.969,2.5,2.5,0,0,1-.391-1.352,2.631,2.631,0,0,1,.961-2.012,3.6,3.6,0,0,1,2.5-.863,4.551,4.551,0,0,1,1.145.137,3.2,3.2,0,0,1,.957.418.909.909,0,0,1,.625-.3.739.739,0,0,1,.574.246,1.205,1.205,0,0,1,.223.816v1.2a1.22,1.22,0,0,1-.223.824.739.739,0,0,1-.574.246.787.787,0,0,1-.516-.18.9.9,0,0,1-.258-.531,1.472,1.472,0,0,0-.219-.57,1.714,1.714,0,0,0-.68-.5,2.537,2.537,0,0,0-1.047-.2,2.138,2.138,0,0,0-1.371.4,1.109,1.109,0,0,0-.5.84.949.949,0,0,0,.207.574,1.343,1.343,0,0,0,.605.434,11.647,11.647,0,0,0,1.5.352,9.516,9.516,0,0,1,1.891.531,2.615,2.615,0,0,1,1.1.906,2.474,2.474,0,0,1,.438,1.469,2.366,2.366,0,0,1-.836,1.9,4.23,4.23,0,0,1-2.828.938,5.219,5.219,0,0,1-1.293-.16A5.349,5.349,0,0,1,79.273,84.594Zm14.453-8.656a1.076,1.076,0,0,1,.324-.3.785.785,0,0,1,.953.141,1.2,1.2,0,0,1,.223.82v1.359a1.22,1.22,0,0,1-.223.824.739.739,0,0,1-.574.246.732.732,0,0,1-.516-.18,1.227,1.227,0,0,1-.289-.672.974.974,0,0,0-.219-.508,2.219,2.219,0,0,0-.895-.562,3.321,3.321,0,0,0-1.152-.211,2.821,2.821,0,0,0-1.32.313,2.885,2.885,0,0,0-1.062,1.016,2.981,2.981,0,0,0-.461,1.672V80.93a2.515,2.515,0,0,0,.84,1.93,3.313,3.313,0,0,0,2.332.773,4.14,4.14,0,0,0,1.508-.242,2.3,2.3,0,0,0,.766-.555,1.905,1.905,0,0,1,.391-.324.676.676,0,0,1,.32-.074.772.772,0,0,1,.563.242.78.78,0,0,1,.242.57,1.106,1.106,0,0,1-.328.7,3.256,3.256,0,0,1-1.227.859,5.711,5.711,0,0,1-2.227.422,5.526,5.526,0,0,1-2.562-.586,4.064,4.064,0,0,1-1.57-1.48,4.01,4.01,0,0,1-.648-2.207V79.875a4.847,4.847,0,0,1,.582-2.332,4.115,4.115,0,0,1,1.613-1.668,4.36,4.36,0,0,1,2.188-.586,5.072,5.072,0,0,1,1.3.16A4.074,4.074,0,0,1,93.727,75.938Zm5.438,5.445V83.4h.578a1.22,1.22,0,0,1,.824.223.748.748,0,0,1,.246.582.739.739,0,0,1-.246.574,1.22,1.22,0,0,1-.824.223h-2.43a1.22,1.22,0,0,1-.824-.223.748.748,0,0,1-.246-.582.734.734,0,0,1,.25-.574,1.222,1.222,0,0,1,.82-.223h.25V77.133h-.25a1.22,1.22,0,0,1-.824-.223.811.811,0,0,1,0-1.164,1.22,1.22,0,0,1,.824-.223l3.625.008a3.8,3.8,0,0,1,2.629.84,2.647,2.647,0,0,1,.934,2.043,2.294,2.294,0,0,1-.437,1.363,3.8,3.8,0,0,1-1.32,1.09,10.172,10.172,0,0,1,1.086,1.141q.359.445.969,1.391a1.7,1.7,0,0,1,.8.125.779.779,0,0,1,.352.68.745.745,0,0,1-.242.574,1.2,1.2,0,0,1-.82.223h-.914q-1.945-3.008-3.227-3.617Zm0-1.6h1.25a3.432,3.432,0,0,0,1.242-.211,2.389,2.389,0,0,0,.988-.594.984.984,0,0,0,.254-.617,1.086,1.086,0,0,0-.484-.84A2.226,2.226,0,0,0,101,77.133H99.164Zm12.055-2.648V83.4h1.617a1.22,1.22,0,0,1,.824.223.748.748,0,0,1,.246.582.739.739,0,0,1-.246.574,1.22,1.22,0,0,1-.824.223H108a1.22,1.22,0,0,1-.824-.223.748.748,0,0,1-.246-.582.739.739,0,0,1,.246-.574A1.22,1.22,0,0,1,108,83.4h1.617V77.133H108a1.22,1.22,0,0,1-.824-.223.811.811,0,0,1,0-1.164,1.22,1.22,0,0,1,.824-.223l4.836.008a1.235,1.235,0,0,1,.824.219.736.736,0,0,1,.246.578.748.748,0,0,1-.246.582,1.22,1.22,0,0,1-.824.223ZM116.75,83.4V77.133h-.25a1.22,1.22,0,0,1-.824-.223.811.811,0,0,1,0-1.164,1.22,1.22,0,0,1,.824-.223h4.016a3.292,3.292,0,0,1,2.313.8,2.5,2.5,0,0,1,.875,1.9,2.414,2.414,0,0,1-.2.984,2.632,2.632,0,0,1-.617.852,3.3,3.3,0,0,1,1.137,1.059,2.531,2.531,0,0,1,.379,1.371,2.41,2.41,0,0,1-.273,1.133,1.874,1.874,0,0,1-.5.633,3.238,3.238,0,0,1-.977.535A4.332,4.332,0,0,1,121.2,85h-4.7a1.22,1.22,0,0,1-.824-.223.748.748,0,0,1-.246-.582.734.734,0,0,1,.25-.574,1.222,1.222,0,0,1,.82-.223Zm1.6-3.937h1.758a2.515,2.515,0,0,0,1.57-.477.966.966,0,0,0,.422-.8.926.926,0,0,0-.4-.738,2.035,2.035,0,0,0-1.266-.316h-2.086Zm0,3.938h2.766a2.43,2.43,0,0,0,1.375-.289.723.723,0,0,0,.3-.625,1.272,1.272,0,0,0-.6-.953,2.759,2.759,0,0,0-1.727-.469h-2.117Zm12.07-6.266V83.4h1.617a1.22,1.22,0,0,1,.824.223.748.748,0,0,1,.246.582.739.739,0,0,1-.246.574,1.22,1.22,0,0,1-.824.223H127.2a1.22,1.22,0,0,1-.824-.223.748.748,0,0,1-.246-.582.739.739,0,0,1,.246-.574,1.22,1.22,0,0,1,.824-.223h1.617V77.133H127.2a1.22,1.22,0,0,1-.824-.223.811.811,0,0,1,0-1.164,1.22,1.22,0,0,1,.824-.223l4.836.008a1.235,1.235,0,0,1,.824.219.736.736,0,0,1,.246.578.748.748,0,0,1-.246.582,1.22,1.22,0,0,1-.824.223Zm7.148,4.25V83.4h.578a1.22,1.22,0,0,1,.824.223.748.748,0,0,1,.246.582.739.739,0,0,1-.246.574,1.22,1.22,0,0,1-.824.223h-2.43a1.22,1.22,0,0,1-.824-.223.748.748,0,0,1-.246-.582.734.734,0,0,1,.25-.574,1.222,1.222,0,0,1,.82-.223h.25V77.133h-.25a1.22,1.22,0,0,1-.824-.223.811.811,0,0,1,0-1.164,1.22,1.22,0,0,1,.824-.223l3.625.008a3.8,3.8,0,0,1,2.629.84,2.647,2.647,0,0,1,.934,2.043,2.293,2.293,0,0,1-.437,1.363,3.8,3.8,0,0,1-1.32,1.09,10.172,10.172,0,0,1,1.086,1.141q.359.445.969,1.391a1.7,1.7,0,0,1,.8.125.779.779,0,0,1,.352.68.745.745,0,0,1-.242.574,1.2,1.2,0,0,1-.82.223h-.914q-1.945-3.008-3.227-3.617Zm0-1.6h1.25a3.432,3.432,0,0,0,1.242-.211,2.389,2.389,0,0,0,.988-.594.984.984,0,0,0,.254-.617,1.086,1.086,0,0,0-.484-.84,2.226,2.226,0,0,0-1.414-.387H137.57Zm11.18,1.328a8.428,8.428,0,0,1,.234-1.906,10.748,10.748,0,0,1,.9-2.328,6.766,6.766,0,0,1,.969-1.594.3.3,0,0,1,.2-.086.331.331,0,0,1,.238.094.3.3,0,0,1,.1.227.347.347,0,0,1-.055.172,14.4,14.4,0,0,0-1.227,2.859,9.152,9.152,0,0,0,0,5.133,14.222,14.222,0,0,0,1.227,2.852.347.347,0,0,1,.055.172.315.315,0,0,1-.1.23.324.324,0,0,1-.238.1.3.3,0,0,1-.2-.086,6.976,6.976,0,0,1-.945-1.555A11.193,11.193,0,0,1,149,83.109,8.156,8.156,0,0,1,148.75,81.109Zm16.555-5.75h2.078l-.547,3.8a.736.736,0,0,1-.172.418.484.484,0,0,1-.641,0,.736.736,0,0,1-.172-.418Zm3.352,0h2.078l-.547,3.8a.736.736,0,0,1-.172.418.431.431,0,0,1-.312.121.452.452,0,0,1-.328-.121.7.7,0,0,1-.164-.418Zm6.836,5.227v3.758h5.047V82.406a.5.5,0,0,1,.09-.336.33.33,0,0,1,.477,0,.5.5,0,0,1,.09.336V85h-7.242a.489.489,0,0,1-.336-.094.306.306,0,0,1-.1-.234.3.3,0,0,1,.1-.238.5.5,0,0,1,.336-.09h.883V76.516h-.883a.5.5,0,0,1-.336-.09.33.33,0,0,1,0-.477.5.5,0,0,1,.336-.09h6.9v2.258a.5.5,0,0,1-.09.336.33.33,0,0,1-.477,0,.5.5,0,0,1-.09-.336v-1.6h-4.7V79.93h2.352v-.742a.489.489,0,0,1,.094-.336.315.315,0,0,1,.242-.1.306.306,0,0,1,.234.1.489.489,0,0,1,.094.336v2.141a.489.489,0,0,1-.094.336.306.306,0,0,1-.234.1.315.315,0,0,1-.242-.1.489.489,0,0,1-.094-.336v-.742ZM189.4,78.664a.475.475,0,0,1,.094-.328.306.306,0,0,1,.234-.1.315.315,0,0,1,.242.1.5.5,0,0,1,.094.344V79.8a.489.489,0,0,1-.094.336.315.315,0,0,1-.242.1.31.31,0,0,1-.223-.086.425.425,0,0,1-.105-.281,1.047,1.047,0,0,0-.484-.773,2.955,2.955,0,0,0-1.7-.437,2.857,2.857,0,0,0-1.711.445.94.94,0,0,0-.461.75.906.906,0,0,0,.547.781,4.052,4.052,0,0,0,1.422.336,9.667,9.667,0,0,1,1.9.336,2.4,2.4,0,0,1,1.129.758,1.687,1.687,0,0,1,.371,1.047,1.892,1.892,0,0,1-.8,1.488,3.676,3.676,0,0,1-2.359.652,3.966,3.966,0,0,1-2.547-.789,1.158,1.158,0,0,1-.031.344.289.289,0,0,1-.113.133.324.324,0,0,1-.184.055.306.306,0,0,1-.234-.1.489.489,0,0,1-.094-.336V83.211a.5.5,0,0,1,.09-.336.3.3,0,0,1,.238-.1.324.324,0,0,1,.238.1.354.354,0,0,1,.1.262.982.982,0,0,0,.18.6,1.974,1.974,0,0,0,.871.621,3.853,3.853,0,0,0,1.465.246,3.132,3.132,0,0,0,1.906-.477,1.31,1.31,0,0,0,.625-1.008,1.1,1.1,0,0,0-.633-.977,4.819,4.819,0,0,0-1.863-.492,7.562,7.562,0,0,1-1.754-.328,1.783,1.783,0,0,1-.828-.609,1.454,1.454,0,0,1-.3-.875,1.507,1.507,0,0,1,.828-1.34,3.776,3.776,0,0,1,1.977-.5A3.492,3.492,0,0,1,189.4,78.664Zm6.086-.43h3.563a.489.489,0,0,1,.336.094.315.315,0,0,1,.1.242.306.306,0,0,1-.1.234.489.489,0,0,1-.336.094h-3.562v4.367a1.194,1.194,0,0,0,.457.953,2.04,2.04,0,0,0,1.34.383,5.786,5.786,0,0,0,1.438-.2,4.867,4.867,0,0,0,1.2-.449.512.512,0,0,1,.258-.1.294.294,0,0,1,.219.1.322.322,0,0,1,.094.23.306.306,0,0,1-.1.219,3.266,3.266,0,0,1-1.215.559,6.2,6.2,0,0,1-1.848.3,2.861,2.861,0,0,1-1.828-.539,1.758,1.758,0,0,1-.68-1.453V78.9h-1.211a.489.489,0,0,1-.336-.094.315.315,0,0,1-.1-.242.306.306,0,0,1,.1-.234.489.489,0,0,1,.336-.094h1.211V76.3a.489.489,0,0,1,.094-.336.306.306,0,0,1,.234-.1.315.315,0,0,1,.242.1.489.489,0,0,1,.094.336Zm14.617,3.4a3.473,3.473,0,0,1-1.074,2.563,3.7,3.7,0,0,1-5.191,0,3.6,3.6,0,0,1,0-5.125,3.7,3.7,0,0,1,5.191,0A3.482,3.482,0,0,1,210.1,81.633Zm-.664,0a2.843,2.843,0,0,0-.879-2.1,3.042,3.042,0,0,0-4.258,0,2.938,2.938,0,0,0,0,4.191,3.032,3.032,0,0,0,4.258,0A2.847,2.847,0,0,0,209.438,81.633Zm19.75.141H222.5a3.178,3.178,0,0,0,1.066,2.051,3.257,3.257,0,0,0,2.215.777,5.338,5.338,0,0,0,1.539-.242,3.957,3.957,0,0,0,1.313-.641.445.445,0,0,1,.258-.117.294.294,0,0,1,.219.1.322.322,0,0,1,.094.23.366.366,0,0,1-.125.258,3.509,3.509,0,0,1-1.332.73,5.83,5.83,0,0,1-1.965.34,3.865,3.865,0,0,1-2.816-1.105,3.607,3.607,0,0,1-1.129-2.676,3.292,3.292,0,0,1,1.059-2.453A3.624,3.624,0,0,1,225.516,78a3.566,3.566,0,0,1,2.648,1.051A3.655,3.655,0,0,1,229.188,81.773Zm-.664-.664a2.859,2.859,0,0,0-1.027-1.766,3.234,3.234,0,0,0-3.957-.008,2.876,2.876,0,0,0-1.031,1.773Zm8.883-2.445a.475.475,0,0,1,.094-.328.306.306,0,0,1,.234-.1.315.315,0,0,1,.242.1.5.5,0,0,1,.094.344V79.8a.489.489,0,0,1-.094.336.315.315,0,0,1-.242.1.31.31,0,0,1-.223-.086.425.425,0,0,1-.105-.281,1.047,1.047,0,0,0-.484-.773,2.955,2.955,0,0,0-1.7-.437,2.857,2.857,0,0,0-1.711.445.94.94,0,0,0-.461.75.906.906,0,0,0,.547.781,4.052,4.052,0,0,0,1.422.336,9.667,9.667,0,0,1,1.9.336,2.4,2.4,0,0,1,1.129.758,1.687,1.687,0,0,1,.371,1.047,1.892,1.892,0,0,1-.8,1.488,3.676,3.676,0,0,1-2.359.652,3.966,3.966,0,0,1-2.547-.789,1.158,1.158,0,0,1-.031.344.289.289,0,0,1-.113.133.324.324,0,0,1-.184.055.306.306,0,0,1-.234-.1.489.489,0,0,1-.094-.336V83.211a.5.5,0,0,1,.09-.336.3.3,0,0,1,.238-.1.324.324,0,0,1,.238.1.354.354,0,0,1,.1.262.982.982,0,0,0,.18.6,1.974,1.974,0,0,0,.871.621,3.853,3.853,0,0,0,1.465.246,3.132,3.132,0,0,0,1.906-.477,1.31,1.31,0,0,0,.625-1.008,1.1,1.1,0,0,0-.633-.977,4.819,4.819,0,0,0-1.863-.492,7.562,7.562,0,0,1-1.754-.328,1.783,1.783,0,0,1-.828-.609,1.454,1.454,0,0,1-.3-.875,1.507,1.507,0,0,1,.828-1.34A3.776,3.776,0,0,1,235.2,78,3.492,3.492,0,0,1,237.406,78.664ZM256.688,85v-.961a4.253,4.253,0,0,1-2.906,1.219,1.927,1.927,0,0,1-1.461-.523,2.261,2.261,0,0,1-.648-1.6V78.9h-.883a.489.489,0,0,1-.336-.094.315.315,0,0,1-.1-.242.306.306,0,0,1,.1-.234.489.489,0,0,1,.336-.094h1.539v4.9a1.443,1.443,0,0,0,.406,1.055,1.365,1.365,0,0,0,1.016.414,3.93,3.93,0,0,0,2.938-1.469V78.9h-1.211a.489.489,0,0,1-.336-.094.315.315,0,0,1-.1-.242.306.306,0,0,1,.1-.234.489.489,0,0,1,.336-.094h1.867v6.109h.555a.5.5,0,0,1,.336.09.3.3,0,0,1,.1.238.306.306,0,0,1-.1.234A.489.489,0,0,1,257.9,85Zm5.234-6.766v.992a4.737,4.737,0,0,1,1.242-.961,2.858,2.858,0,0,1,1.25-.266,2.923,2.923,0,0,1,1.367.32,2.243,2.243,0,0,1,.793.777,2.009,2.009,0,0,1,.355,1.113v4.133h.555a.5.5,0,0,1,.336.09.3.3,0,0,1,.1.238.306.306,0,0,1-.1.234.489.489,0,0,1-.336.094h-1.758a.5.5,0,0,1-.344-.094.306.306,0,0,1-.1-.234.3.3,0,0,1,.1-.238.518.518,0,0,1,.344-.09h.547V80.32a1.556,1.556,0,0,0-.508-1.176,1.9,1.9,0,0,0-1.359-.48,2.3,2.3,0,0,0-1.125.262,6.035,6.035,0,0,0-1.359,1.3v4.117h.742a.5.5,0,0,1,.336.09.3.3,0,0,1,.1.238.306.306,0,0,1-.1.234.489.489,0,0,1-.336.094h-2.141a.489.489,0,0,1-.336-.094.306.306,0,0,1-.1-.234.3.3,0,0,1,.1-.238.5.5,0,0,1,.336-.09h.742V78.9h-.555a.489.489,0,0,1-.336-.094.315.315,0,0,1-.1-.242.306.306,0,0,1,.1-.234.489.489,0,0,1,.336-.094ZM285.133,85v-.945a4.667,4.667,0,0,1-3.055,1.2,2.658,2.658,0,0,1-1.844-.6,1.9,1.9,0,0,1-.664-1.465,2.1,2.1,0,0,1,.875-1.664A3.972,3.972,0,0,1,283,80.82a9.02,9.02,0,0,1,.984.059q.531.059,1.148.184V80a1.173,1.173,0,0,0-.5-.937,2.376,2.376,0,0,0-1.5-.4,7.592,7.592,0,0,0-2.148.445,1.5,1.5,0,0,1-.32.078.287.287,0,0,1-.215-.094.325.325,0,0,1-.09-.234.285.285,0,0,1,.078-.211,2.683,2.683,0,0,1,.883-.32A7.8,7.8,0,0,1,283.164,78a2.83,2.83,0,0,1,1.938.613A1.817,1.817,0,0,1,285.8,80v4.344h.875a.518.518,0,0,1,.344.09.3.3,0,0,1,.1.238.306.306,0,0,1-.1.234.5.5,0,0,1-.344.094Zm0-3.266a6.232,6.232,0,0,0-.977-.2,9.03,9.03,0,0,0-1.086-.062,3.594,3.594,0,0,0-2.234.617,1.352,1.352,0,0,0-.609,1.1,1.277,1.277,0,0,0,.465,1,2,2,0,0,0,1.355.406,3.7,3.7,0,0,0,1.582-.34,5.7,5.7,0,0,0,1.5-1.082ZM293.18,75.2v9.148h2.578a.518.518,0,0,1,.344.09.3.3,0,0,1,.1.238.306.306,0,0,1-.1.234.5.5,0,0,1-.344.094h-5.812a.489.489,0,0,1-.336-.094.306.306,0,0,1-.1-.234.3.3,0,0,1,.1-.238.5.5,0,0,1,.336-.09h2.578V75.859h-1.891a.5.5,0,0,1-.34-.094.309.309,0,0,1-.105-.242.306.306,0,0,1,.1-.234.5.5,0,0,1,.344-.094Zm11.477,4.242v-1.2H306.2a.489.489,0,0,1,.336.094.315.315,0,0,1,.1.242.306.306,0,0,1-.1.234.489.489,0,0,1-.336.094h-.883v6.555a2.407,2.407,0,0,1-.281,1.172,2.6,2.6,0,0,1-.625.711,3.393,3.393,0,0,1-.8.523,2.449,2.449,0,0,1-.961.156h-1.859a.5.5,0,0,1-.336-.09.3.3,0,0,1-.1-.238.315.315,0,0,1,.1-.242.489.489,0,0,1,.336-.094l1.883.008a1.9,1.9,0,0,0,1.043-.3,2.264,2.264,0,0,0,.77-.867,1.794,1.794,0,0,0,.172-.836V83.391a3.228,3.228,0,0,1-2.719,1.445,3.149,3.149,0,0,1-2.332-1,3.467,3.467,0,0,1,0-4.832,3.155,3.155,0,0,1,2.332-1A3.233,3.233,0,0,1,304.656,79.438Zm0,1.977a2.663,2.663,0,0,0-.793-1.953,2.641,2.641,0,0,0-3.785,0,2.812,2.812,0,0,0,0,3.906,2.637,2.637,0,0,0,3.785,0A2.676,2.676,0,0,0,304.656,81.414Zm11.063.219a3.473,3.473,0,0,1-1.074,2.563,3.7,3.7,0,0,1-5.191,0,3.6,3.6,0,0,1,0-5.125,3.7,3.7,0,0,1,5.191,0A3.482,3.482,0,0,1,315.719,81.633Zm-.664,0a2.843,2.843,0,0,0-.879-2.1,3.042,3.042,0,0,0-4.258,0,2.938,2.938,0,0,0,0,4.191,3.032,3.032,0,0,0,4.258,0A2.847,2.847,0,0,0,315.055,81.633Zm5.813-3.4v1.656a11.041,11.041,0,0,1,1.918-1.488,2.57,2.57,0,0,1,1.176-.332,1.733,1.733,0,0,1,1.09.395q.5.395.5.6a.334.334,0,0,1-.344.344.3.3,0,0,1-.133-.027,1.1,1.1,0,0,1-.2-.176,1.984,1.984,0,0,0-.477-.375.887.887,0,0,0-.4-.1,2.2,2.2,0,0,0-1.035.344,15.446,15.446,0,0,0-2.1,1.68v3.594h2.906a.518.518,0,0,1,.344.09.3.3,0,0,1,.1.238.306.306,0,0,1-.1.234.5.5,0,0,1-.344.094h-5.148a.5.5,0,0,1-.336-.09.294.294,0,0,1-.1-.23.29.29,0,0,1,.1-.223.5.5,0,0,1,.34-.09h1.586V78.9H319a.489.489,0,0,1-.336-.094.335.335,0,0,1,0-.477.487.487,0,0,1,.34-.094Zm10.711-3.367v1.7h-.969v-1.7Zm.023,3.367v6.109h2.578a.518.518,0,0,1,.344.09.3.3,0,0,1,.1.238.306.306,0,0,1-.1.234.5.5,0,0,1-.344.094h-5.812a.489.489,0,0,1-.336-.094.306.306,0,0,1-.1-.234.3.3,0,0,1,.1-.238.5.5,0,0,1,.336-.09h2.578V78.9h-1.914a.5.5,0,0,1-.34-.094.3.3,0,0,1-.105-.234.315.315,0,0,1,.1-.242.5.5,0,0,1,.344-.094Zm7.906,0h3.563a.489.489,0,0,1,.336.094.315.315,0,0,1,.1.242.306.306,0,0,1-.1.234.489.489,0,0,1-.336.094h-3.562v4.367a1.194,1.194,0,0,0,.457.953,2.04,2.04,0,0,0,1.34.383,5.786,5.786,0,0,0,1.438-.2,4.867,4.867,0,0,0,1.2-.449.512.512,0,0,1,.258-.1.294.294,0,0,1,.219.1.322.322,0,0,1,.094.23.306.306,0,0,1-.1.219,3.266,3.266,0,0,1-1.215.559,6.2,6.2,0,0,1-1.848.3,2.861,2.861,0,0,1-1.828-.539,1.758,1.758,0,0,1-.68-1.453V78.9h-1.211a.489.489,0,0,1-.336-.094.315.315,0,0,1-.1-.242.306.306,0,0,1,.1-.234.489.489,0,0,1,.336-.094h1.211V76.3a.489.489,0,0,1,.094-.336.306.306,0,0,1,.234-.1.315.315,0,0,1,.242.1.489.489,0,0,1,.094.336Zm7.961,0V78.9a2.354,2.354,0,0,1,1.68-.9,1.508,1.508,0,0,1,.891.27,2.022,2.022,0,0,1,.641.816,3.435,3.435,0,0,1,.887-.816,1.74,1.74,0,0,1,.9-.27,1.461,1.461,0,0,1,1.133.461,1.865,1.865,0,0,1,.555,1.3v4.586h.555a.5.5,0,0,1,.336.09.3.3,0,0,1,.1.238.306.306,0,0,1-.1.234.489.489,0,0,1-.336.094H353.5V79.82a1.17,1.17,0,0,0-.3-.828.934.934,0,0,0-.7-.328,1.365,1.365,0,0,0-.758.27,3.738,3.738,0,0,0-.906,1.059v4.352h.547a.5.5,0,0,1,.336.09.3.3,0,0,1,.1.238.306.306,0,0,1-.1.234.489.489,0,0,1-.336.094h-1.211V79.867a1.235,1.235,0,0,0-.309-.863.919.919,0,0,0-.691-.34,1.253,1.253,0,0,0-.7.227,4,4,0,0,0-1,1.1v4.352h.555a.5.5,0,0,1,.336.09.3.3,0,0,1,.1.238.306.306,0,0,1-.1.234.489.489,0,0,1-.336.094h-1.766a.489.489,0,0,1-.336-.094.306.306,0,0,1-.1-.234.3.3,0,0,1,.1-.238.5.5,0,0,1,.336-.09h.555V78.9h-.555a.489.489,0,0,1-.336-.094.315.315,0,0,1-.1-.242.306.306,0,0,1,.1-.234.489.489,0,0,1,.336-.094Zm16.258,3.4a3.473,3.473,0,0,1-1.074,2.563,3.7,3.7,0,0,1-5.191,0,3.6,3.6,0,0,1,0-5.125,3.7,3.7,0,0,1,5.191,0A3.482,3.482,0,0,1,363.727,81.633Zm-.664,0a2.843,2.843,0,0,0-.879-2.1,3.042,3.042,0,0,0-4.258,0,2.938,2.938,0,0,0,0,4.191,3.032,3.032,0,0,0,4.258,0A2.847,2.847,0,0,0,363.063,81.633Zm3.875-6.273h2.078l-.547,3.8a.736.736,0,0,1-.172.418.484.484,0,0,1-.641,0,.736.736,0,0,1-.172-.418Zm3.352,0h2.078l-.547,3.8a.736.736,0,0,1-.172.418.431.431,0,0,1-.312.121.452.452,0,0,1-.328-.121.7.7,0,0,1-.164-.418Zm18.766,5.758a8.378,8.378,0,0,1-.234,1.9,10.85,10.85,0,0,1-.9,2.328,6.531,6.531,0,0,1-.969,1.59.284.284,0,0,1-.2.094.324.324,0,0,1-.238-.1.315.315,0,0,1-.1-.23.347.347,0,0,1,.055-.172A14.222,14.222,0,0,0,387.7,83.68a9.152,9.152,0,0,0,0-5.133,14.4,14.4,0,0,0-1.227-2.859.347.347,0,0,1-.055-.172.3.3,0,0,1,.1-.227.331.331,0,0,1,.238-.094.3.3,0,0,1,.2.086,6.975,6.975,0,0,1,.945,1.555,11.192,11.192,0,0,1,.906,2.281A8.156,8.156,0,0,1,389.055,81.117Zm9.266-2.883h.289a1.01,1.01,0,0,1,.746.313,1.061,1.061,0,0,1-.746,1.813h-.289a1.01,1.01,0,0,1-.746-.312,1.066,1.066,0,0,1,.008-1.508A1.031,1.031,0,0,1,398.32,78.234Zm-1.141,4.406h2.063l-2.211,3.625a1.28,1.28,0,0,1-.262.336.384.384,0,0,1-.23.07.439.439,0,0,1-.312-.117.372.372,0,0,1-.125-.281.845.845,0,0,1,.047-.242ZM32.508,105.055V107.4h1.641a1.22,1.22,0,0,1,.824.223.748.748,0,0,1,.246.582.739.739,0,0,1-.246.574,1.22,1.22,0,0,1-.824.223H30.656a1.22,1.22,0,0,1-.824-.223.748.748,0,0,1-.246-.582.734.734,0,0,1,.25-.574,1.222,1.222,0,0,1,.82-.223h.25v-6.266h-.25a1.22,1.22,0,0,1-.824-.223.811.811,0,0,1,0-1.164,1.22,1.22,0,0,1,.824-.223l7.539.008v2.445a1.205,1.205,0,0,1-.223.816.807.807,0,0,1-1.156,0,1.2,1.2,0,0,1-.223-.82v-.844H32.508v2.32h1.406a1.737,1.737,0,0,1,.117-.8.769.769,0,0,1,.688-.383.739.739,0,0,1,.574.246,1.22,1.22,0,0,1,.223.824v1.844a1.22,1.22,0,0,1-.223.824.748.748,0,0,1-.582.246.762.762,0,0,1-.68-.383,1.762,1.762,0,0,1-.117-.812Zm11.5-3.922V107.4h1.617a1.22,1.22,0,0,1,.824.223.748.748,0,0,1,.246.582.739.739,0,0,1-.246.574,1.22,1.22,0,0,1-.824.223H40.789a1.22,1.22,0,0,1-.824-.223.748.748,0,0,1-.246-.582.739.739,0,0,1,.246-.574,1.22,1.22,0,0,1,.824-.223h1.617v-6.266H40.789a1.22,1.22,0,0,1-.824-.223.811.811,0,0,1,0-1.164,1.22,1.22,0,0,1,.824-.223l4.836.008a1.235,1.235,0,0,1,.824.219.736.736,0,0,1,.246.578.748.748,0,0,1-.246.582,1.22,1.22,0,0,1-.824.223Zm6.8,1.422V107.4h.578a1.22,1.22,0,0,1,.824.223.748.748,0,0,1,.246.582.739.739,0,0,1-.246.574,1.22,1.22,0,0,1-.824.223h-2.1a1.22,1.22,0,0,1-.824-.223.8.8,0,0,1,0-1.152,1.068,1.068,0,0,1,.75-.227v-6.266h-.25a1.22,1.22,0,0,1-.824-.223.811.811,0,0,1,0-1.164,1.22,1.22,0,0,1,.824-.223l1.852.008,4.094,6.422v-4.82H54.32a1.22,1.22,0,0,1-.824-.223.811.811,0,0,1,0-1.164,1.22,1.22,0,0,1,.824-.223l2.1.008a1.235,1.235,0,0,1,.824.219.736.736,0,0,1,.246.578.757.757,0,0,1-.242.578,1.055,1.055,0,0,1-.742.227V109H54.922Zm10.68,3.2V107.4H63.1a1.22,1.22,0,0,1,.824.223.748.748,0,0,1,.246.582.739.739,0,0,1-.246.574A1.22,1.22,0,0,1,63.1,109H59.633a1.22,1.22,0,0,1-.824-.223.748.748,0,0,1-.246-.582.734.734,0,0,1,.25-.574,1.222,1.222,0,0,1,.82-.223h.25v-6.266h-.25a1.22,1.22,0,0,1-.824-.223.811.811,0,0,1,0-1.164,1.22,1.22,0,0,1,.824-.223l3.688.008a3.621,3.621,0,0,1,2.574.887,2.926,2.926,0,0,1,.629,3.488,3.01,3.01,0,0,1-.809.926A3.772,3.772,0,0,1,63,105.75Zm0-1.6h1.484a2.653,2.653,0,0,0,1.66-.473,1.4,1.4,0,0,0,.613-1.137,1.261,1.261,0,0,0-.5-.984,2.129,2.129,0,0,0-1.418-.422H61.484Zm12.484,2.273H70.078l-.391.977h.391a1.22,1.22,0,0,1,.824.223.748.748,0,0,1,.246.582.739.739,0,0,1-.246.574,1.22,1.22,0,0,1-.824.223H67.922a1.22,1.22,0,0,1-.824-.223.8.8,0,0,1,.012-1.168,1.231,1.231,0,0,1,.852-.211l2.516-6.266H69.43a1.22,1.22,0,0,1-.824-.223.811.811,0,0,1,0-1.164,1.22,1.22,0,0,1,.824-.223l3.461.008,3.188,7.867a1.457,1.457,0,0,1,.742.125.8.8,0,0,1,.359.68.745.745,0,0,1-.242.574,1.2,1.2,0,0,1-.82.223H73.961a1.22,1.22,0,0,1-.824-.223.748.748,0,0,1-.246-.582.739.739,0,0,1,.246-.574,1.22,1.22,0,0,1,.824-.223h.391Zm-.664-1.6-1.289-3.172-1.3,3.172Zm6.656.563V107.4h.578a1.22,1.22,0,0,1,.824.223.748.748,0,0,1,.246.582.739.739,0,0,1-.246.574,1.22,1.22,0,0,1-.824.223h-2.43a1.22,1.22,0,0,1-.824-.223.748.748,0,0,1-.246-.582.734.734,0,0,1,.25-.574,1.222,1.222,0,0,1,.82-.223h.25v-6.266h-.25a1.22,1.22,0,0,1-.824-.223.811.811,0,0,1,0-1.164,1.22,1.22,0,0,1,.824-.223l3.625.008a3.8,3.8,0,0,1,2.629.84,2.647,2.647,0,0,1,.934,2.043,2.294,2.294,0,0,1-.437,1.363,3.8,3.8,0,0,1-1.32,1.09,10.172,10.172,0,0,1,1.086,1.141q.359.445.969,1.391a1.7,1.7,0,0,1,.8.125.779.779,0,0,1,.352.68.745.745,0,0,1-.242.574,1.2,1.2,0,0,1-.82.223h-.914q-1.945-3.008-3.227-3.617Zm0-1.6h1.25a3.432,3.432,0,0,0,1.242-.211,2.389,2.389,0,0,0,.988-.594.984.984,0,0,0,.254-.617,1.086,1.086,0,0,0-.484-.84,2.226,2.226,0,0,0-1.414-.387H79.961Zm13.211,2.641H89.281l-.391.977h.391a1.22,1.22,0,0,1,.824.223.748.748,0,0,1,.246.582.739.739,0,0,1-.246.574,1.22,1.22,0,0,1-.824.223H87.125a1.22,1.22,0,0,1-.824-.223.8.8,0,0,1,.012-1.168,1.231,1.231,0,0,1,.852-.211l2.516-6.266H88.633a1.22,1.22,0,0,1-.824-.223.811.811,0,0,1,0-1.164,1.22,1.22,0,0,1,.824-.223l3.461.008,3.188,7.867a1.457,1.457,0,0,1,.742.125.8.8,0,0,1,.359.68.745.745,0,0,1-.242.574,1.2,1.2,0,0,1-.82.223H93.164a1.22,1.22,0,0,1-.824-.223.748.748,0,0,1-.246-.582.739.739,0,0,1,.246-.574,1.22,1.22,0,0,1,.824-.223h.391Zm-.664-1.6-1.289-3.172-1.3,3.172ZM3.7,129.055V131.4H5.344a1.22,1.22,0,0,1,.824.223.748.748,0,0,1,.246.582.739.739,0,0,1-.246.574,1.22,1.22,0,0,1-.824.223H1.852a1.22,1.22,0,0,1-.824-.223.748.748,0,0,1-.246-.582.734.734,0,0,1,.25-.574,1.222,1.222,0,0,1,.82-.223H2.1v-6.266h-.25a1.22,1.22,0,0,1-.824-.223.811.811,0,0,1,0-1.164,1.22,1.22,0,0,1,.824-.223l7.539.008v2.445a1.205,1.205,0,0,1-.223.816.807.807,0,0,1-1.156,0,1.2,1.2,0,0,1-.223-.82v-.844H3.7v2.32H5.109a1.737,1.737,0,0,1,.117-.8.769.769,0,0,1,.688-.383.739.739,0,0,1,.574.246,1.22,1.22,0,0,1,.223.824v1.844a1.22,1.22,0,0,1-.223.824.748.748,0,0,1-.582.246.762.762,0,0,1-.68-.383,1.762,1.762,0,0,1-.117-.812Zm11.5-3.922V131.4H16.82a1.22,1.22,0,0,1,.824.223.748.748,0,0,1,.246.582.739.739,0,0,1-.246.574,1.22,1.22,0,0,1-.824.223H11.984a1.22,1.22,0,0,1-.824-.223.748.748,0,0,1-.246-.582.739.739,0,0,1,.246-.574,1.22,1.22,0,0,1,.824-.223H13.6v-6.266H11.984a1.22,1.22,0,0,1-.824-.223.811.811,0,0,1,0-1.164,1.22,1.22,0,0,1,.824-.223l4.836.008a1.235,1.235,0,0,1,.824.219.736.736,0,0,1,.246.578.748.748,0,0,1-.246.582,1.22,1.22,0,0,1-.824.223Zm6.8,1.422V131.4h.578a1.22,1.22,0,0,1,.824.223.748.748,0,0,1,.246.582.739.739,0,0,1-.246.574,1.22,1.22,0,0,1-.824.223h-2.1a1.22,1.22,0,0,1-.824-.223.8.8,0,0,1,0-1.152,1.068,1.068,0,0,1,.75-.227v-6.266h-.25a1.22,1.22,0,0,1-.824-.223.811.811,0,0,1,0-1.164,1.22,1.22,0,0,1,.824-.223l1.852.008,4.094,6.422v-4.82h-.578a1.22,1.22,0,0,1-.824-.223.811.811,0,0,1,0-1.164,1.22,1.22,0,0,1,.824-.223l2.1.008a1.235,1.235,0,0,1,.824.219.736.736,0,0,1,.246.578.757.757,0,0,1-.242.578,1.055,1.055,0,0,1-.742.227V133H26.117Z" transform="translate(205 3694)" fill="#00104e"/>
  </g>
</svg>
