<svg xmlns="http://www.w3.org/2000/svg" width="396" height="516" viewBox="0 0 396 516">
  <g id="Grupo_31012" data-name="Grupo 31012" transform="translate(10007 7774)">
    <path id="Trazado_29815" data-name="Trazado 29815" d="M10,0H386a10,10,0,0,1,10,10V506a10,10,0,0,1-10,10H10A10,10,0,0,1,0,506V10A10,10,0,0,1,10,0Z" transform="translate(-10007 -7774)" fill="#ecfafc"/>
    <path id="Trazado_29816" data-name="Trazado 29816" d="M15,0H52a15,15,0,0,1,0,30H15A15,15,0,0,1,15,0Z" transform="translate(-9812.582 -7738)" fill="#4dd0e1"/>
    <path id="Trazado_29827" data-name="Trazado 29827" d="M15,0H52a15,15,0,0,1,0,30H15A15,15,0,0,1,15,0Z" transform="translate(-9812.082 -7323.238)" fill="#4dd0e1"/>
    <path id="Trazado_29817" data-name="Trazado 29817" d="M3.031,0H1.484V-11.375H3.031ZM7.016-8.453,7.125-7.2A3.069,3.069,0,0,1,8.184-8.238a2.824,2.824,0,0,1,1.449-.371,2.759,2.759,0,0,1,2.117.8,3.515,3.515,0,0,1,.75,2.473V0H10.961V-5.3a2.287,2.287,0,0,0-.441-1.586,1.768,1.768,0,0,0-1.348-.469,2.386,2.386,0,0,0-1.207.285,2.072,2.072,0,0,0-.785.8V0H5.641V-8.453ZM16.4,0H14.859V-8.453H16.4Zm0-10.617H14.859v-1.57H16.4Zm5.727,9.578a1.81,1.81,0,0,0,1.242-.473,1.494,1.494,0,0,0,.531-1.16h1.391l.023.047a2.428,2.428,0,0,1-.937,1.941,3.313,3.313,0,0,1-2.25.848,3.319,3.319,0,0,1-2.75-1.211,4.674,4.674,0,0,1-.969-3.016v-.328a4.654,4.654,0,0,1,.973-3,3.317,3.317,0,0,1,2.746-1.215,3.189,3.189,0,0,1,2.316.875,2.775,2.775,0,0,1,.871,2.148l-.016.047H23.9a1.865,1.865,0,0,0-.5-1.316,1.658,1.658,0,0,0-1.27-.543,1.777,1.777,0,0,0-1.652.879,4.114,4.114,0,0,0-.52,2.129v.328a4.192,4.192,0,0,0,.512,2.148A1.776,1.776,0,0,0,22.125-1.039ZM28.8,0H27.266V-8.453H28.8Zm0-10.617H27.266v-1.57H28.8ZM30.813-4.3a4.654,4.654,0,0,1,1.016-3.09,3.406,3.406,0,0,1,2.758-1.215A3.439,3.439,0,0,1,37.363-7.4,4.639,4.639,0,0,1,38.383-4.3v.172a4.631,4.631,0,0,1-1.016,3.094A3.429,3.429,0,0,1,34.6.164a3.436,3.436,0,0,1-2.77-1.207,4.623,4.623,0,0,1-1.02-3.09Zm1.539.172a4.009,4.009,0,0,0,.566,2.219,1.875,1.875,0,0,0,1.684.875,1.87,1.87,0,0,0,1.672-.875,3.988,3.988,0,0,0,.57-2.219V-4.3a3.976,3.976,0,0,0-.574-2.211A1.882,1.882,0,0,0,34.586-7.4a1.856,1.856,0,0,0-1.668.883A4.018,4.018,0,0,0,32.352-4.3Z" transform="translate(-9797.582 -7717)" fill="#00104e"/>
    <path id="Trazado_29828" data-name="Trazado 29828" d="M7.664-5.031h-4.8V0H1.328V-11.375H8.461v1.211H2.867v3.922h4.8ZM11.609,0H10.07V-8.453h1.539Zm0-10.617H10.07v-1.57h1.539Zm3.742,2.164L15.461-7.2A3.069,3.069,0,0,1,16.52-8.238a2.824,2.824,0,0,1,1.449-.371,2.759,2.759,0,0,1,2.117.8,3.515,3.515,0,0,1,.75,2.473V0H19.3V-5.3a2.287,2.287,0,0,0-.441-1.586,1.768,1.768,0,0,0-1.348-.469,2.386,2.386,0,0,0-1.207.285,2.072,2.072,0,0,0-.785.8V0H13.977V-8.453ZM28.266,0q-.078-.383-.121-.676a4.96,4.96,0,0,1-.051-.59,3.589,3.589,0,0,1-1.121,1.02,2.867,2.867,0,0,1-1.488.41,2.763,2.763,0,0,1-2.012-.676,2.486,2.486,0,0,1-.691-1.863,2.183,2.183,0,0,1,.98-1.895,4.579,4.579,0,0,1,2.66-.684h1.672v-.836a1.551,1.551,0,0,0-.453-1.176A1.779,1.779,0,0,0,26.359-7.4a1.859,1.859,0,0,0-1.211.375,1.125,1.125,0,0,0-.461.9l-1.461.016-.016-.047a2.023,2.023,0,0,1,.863-1.687,3.578,3.578,0,0,1,2.371-.766,3.49,3.49,0,0,1,2.313.73,2.588,2.588,0,0,1,.875,2.105V-1.7a7.923,7.923,0,0,0,.047.875A4.5,4.5,0,0,0,29.852,0ZM25.711-1.125a2.739,2.739,0,0,0,1.508-.43,2.042,2.042,0,0,0,.875-.984V-3.914H26.367a2.24,2.24,0,0,0-1.488.469,1.4,1.4,0,0,0-.559,1.1,1.159,1.159,0,0,0,.352.891A1.472,1.472,0,0,0,25.711-1.125ZM33.531,0H31.992V-12.187h1.539Z" transform="translate(-9795.082 -7303.238)" fill="#00104e"/>
    <path id="Icon_awesome-long-arrow-alt-down" data-name="Icon awesome-long-arrow-alt-down" d="M11.812,14.324V-6.906a.844.844,0,0,0-.844-.844H7.031a.844.844,0,0,0-.844.844v21.23H2.949A1.688,1.688,0,0,0,1.756,17.2l6.051,6.051a1.687,1.687,0,0,0,2.386,0L16.244,17.2a1.688,1.688,0,0,0-1.193-2.881Z" transform="translate(-9787.84 -7700.246)" fill="#26a69a"/>
    <path id="Icon_awesome-long-arrow-alt-down-2" data-name="Icon awesome-long-arrow-alt-down" d="M11.812,14.324V-6.906a.844.844,0,0,0-.844-.844H7.031a.844.844,0,0,0-.844.844v21.23H2.949A1.688,1.688,0,0,0,1.756,17.2l6.051,6.051a1.687,1.687,0,0,0,2.386,0L16.244,17.2a1.688,1.688,0,0,0-1.193-2.881Z" transform="translate(-9787.84 -7610.884)" fill="#26a69a"/>
    <path id="Icon_awesome-long-arrow-alt-down-3" data-name="Icon awesome-long-arrow-alt-down" d="M11.812,14.324v-68.23a.844.844,0,0,0-.844-.844H7.031a.844.844,0,0,0-.844.844v68.23H2.949A1.688,1.688,0,0,0,1.756,17.2l6.051,6.051a1.687,1.687,0,0,0,2.386,0L16.244,17.2a1.688,1.688,0,0,0-1.193-2.881Z" transform="translate(-9912.623 -7476.454)" fill="#26a69a"/>
    <path id="Icon_awesome-long-arrow-alt-down-4" data-name="Icon awesome-long-arrow-alt-down" d="M11.812,14.324V-6.906a.844.844,0,0,0-.844-.844H7.031a.844.844,0,0,0-.844.844v21.23H2.949A1.688,1.688,0,0,0,1.756,17.2l6.051,6.051a1.687,1.687,0,0,0,2.386,0L16.244,17.2a1.688,1.688,0,0,0-1.193-2.881Z" transform="translate(-9787.34 -7347.645)" fill="#26a69a"/>
    <path id="Trazado_29418" data-name="Trazado 29418" d="M0-20,57.863,3.447V115.99L0,92.544Z" transform="translate(-9731.592 -7676.694) rotate(90)" fill="#4dd0e1"/>
    <path id="Trazado_29818" data-name="Trazado 29818" d="M7.539-5.273H2.867V-1.2H8.336V0H1.328V-11.375H8.25v1.211H2.867v3.68H7.539Zm1.906,1.2a5.641,5.641,0,0,1,.871-3.289,2.807,2.807,0,0,1,2.441-1.25,3.027,3.027,0,0,1,1.316.273,2.7,2.7,0,0,1,.98.8v-4.648h1.539V0h-1.18L15.18-1.07a2.743,2.743,0,0,1-1.023.922,3.058,3.058,0,0,1-1.414.313A2.9,2.9,0,0,1,10.32-.957a4.659,4.659,0,0,1-.875-2.949Zm1.539.164a3.588,3.588,0,0,0,.523,2.051,1.828,1.828,0,0,0,1.625.77A2.039,2.039,0,0,0,14.289-1.4a2.334,2.334,0,0,0,.766-.875V-6.219a2.37,2.37,0,0,0-.77-.832,2.033,2.033,0,0,0-1.137-.309,1.759,1.759,0,0,0-1.637.914,4.718,4.718,0,0,0-.527,2.375ZM24.086,0q-.078-.383-.121-.676a4.96,4.96,0,0,1-.051-.59,3.589,3.589,0,0,1-1.121,1.02A2.867,2.867,0,0,1,21.3.164a2.763,2.763,0,0,1-2.012-.676A2.486,2.486,0,0,1,18.6-2.375a2.183,2.183,0,0,1,.98-1.895,4.579,4.579,0,0,1,2.66-.684h1.672v-.836a1.551,1.551,0,0,0-.453-1.176A1.779,1.779,0,0,0,22.18-7.4a1.859,1.859,0,0,0-1.211.375,1.125,1.125,0,0,0-.461.9l-1.461.016-.016-.047a2.023,2.023,0,0,1,.863-1.687,3.578,3.578,0,0,1,2.371-.766,3.49,3.49,0,0,1,2.313.73,2.588,2.588,0,0,1,.875,2.105V-1.7a7.923,7.923,0,0,0,.047.875A4.5,4.5,0,0,0,25.672,0ZM21.531-1.125a2.739,2.739,0,0,0,1.508-.43,2.042,2.042,0,0,0,.875-.984V-3.914H22.188a2.24,2.24,0,0,0-1.488.469,1.4,1.4,0,0,0-.559,1.1,1.159,1.159,0,0,0,.352.891A1.472,1.472,0,0,0,21.531-1.125Zm5.8-2.945a5.641,5.641,0,0,1,.871-3.289,2.807,2.807,0,0,1,2.441-1.25,3.027,3.027,0,0,1,1.316.273,2.7,2.7,0,0,1,.98.8v-4.648h1.539V0H33.3L33.07-1.07a2.743,2.743,0,0,1-1.023.922,3.058,3.058,0,0,1-1.414.313A2.9,2.9,0,0,1,28.211-.957a4.659,4.659,0,0,1-.875-2.949Zm1.539.164A3.588,3.588,0,0,0,29.4-1.855a1.828,1.828,0,0,0,1.625.77A2.039,2.039,0,0,0,32.18-1.4a2.334,2.334,0,0,0,.766-.875V-6.219a2.37,2.37,0,0,0-.77-.832,2.033,2.033,0,0,0-1.137-.309,1.759,1.759,0,0,0-1.637.914,4.718,4.718,0,0,0-.527,2.375Z" transform="translate(-9797.582 -7641.694)" fill="#00104e"/>
    <path id="Trazado_29419" data-name="Trazado 29419" d="M.384.384,95.025-14.142,80.5,80.5-14.142,95.025Z" transform="translate(-9778.807 -7587) rotate(45)" fill="#4dd0e1"/>
    <path id="Trazado_29421" data-name="Trazado 29421" d="M267.519,405.619H398.273v55.956s-23.391,18.27-65.377,0-65.377-.588-65.377-.588Z" transform="translate(-10236.52 -7858.323)" fill="#4dd0e1"/>
    <path id="Trazado_29820" data-name="Trazado 29820" d="M4.617.164A3.576,3.576,0,0,1,1.777-1,4.48,4.48,0,0,1,.758-4.062v-.344A4.386,4.386,0,0,1,1.809-7.418,3.3,3.3,0,0,1,4.375-8.609,3.067,3.067,0,0,1,6.918-7.555a4.345,4.345,0,0,1,.848,2.8v.813H2.359L2.336-3.9A3.494,3.494,0,0,0,2.9-1.832a1.965,1.965,0,0,0,1.719.793,3.872,3.872,0,0,0,1.371-.223A3.061,3.061,0,0,0,7-1.875l.6,1a3.7,3.7,0,0,1-1.2.738A4.762,4.762,0,0,1,4.617.164ZM4.375-7.4a1.673,1.673,0,0,0-1.332.621A2.938,2.938,0,0,0,2.4-5.187l.016.039H6.227v-.125A2.462,2.462,0,0,0,5.773-6.8,1.638,1.638,0,0,0,4.375-7.4ZM9.141-4.07a5.641,5.641,0,0,1,.871-3.289,2.807,2.807,0,0,1,2.441-1.25,3.027,3.027,0,0,1,1.316.273,2.7,2.7,0,0,1,.98.8v-4.648h1.539V0h-1.18l-.234-1.07a2.743,2.743,0,0,1-1.023.922,3.058,3.058,0,0,1-1.414.313A2.9,2.9,0,0,1,10.016-.957a4.659,4.659,0,0,1-.875-2.949Zm1.539.164A3.588,3.588,0,0,0,11.2-1.855a1.828,1.828,0,0,0,1.625.77A2.039,2.039,0,0,0,13.984-1.4a2.334,2.334,0,0,0,.766-.875V-6.219a2.37,2.37,0,0,0-.77-.832,2.033,2.033,0,0,0-1.137-.309,1.759,1.759,0,0,0-1.637.914A4.718,4.718,0,0,0,10.68-4.07ZM23.781,0Q23.7-.383,23.66-.676a4.96,4.96,0,0,1-.051-.59,3.589,3.589,0,0,1-1.121,1.02A2.867,2.867,0,0,1,21,.164a2.763,2.763,0,0,1-2.012-.676A2.486,2.486,0,0,1,18.3-2.375a2.183,2.183,0,0,1,.98-1.895,4.579,4.579,0,0,1,2.66-.684h1.672v-.836a1.551,1.551,0,0,0-.453-1.176A1.779,1.779,0,0,0,21.875-7.4a1.859,1.859,0,0,0-1.211.375,1.125,1.125,0,0,0-.461.9l-1.461.016-.016-.047a2.023,2.023,0,0,1,.863-1.687,3.578,3.578,0,0,1,2.371-.766,3.49,3.49,0,0,1,2.313.73,2.588,2.588,0,0,1,.875,2.105V-1.7a7.923,7.923,0,0,0,.047.875A4.5,4.5,0,0,0,25.367,0ZM21.227-1.125a2.739,2.739,0,0,0,1.508-.43,2.042,2.042,0,0,0,.875-.984V-3.914H21.883a2.24,2.24,0,0,0-1.488.469,1.4,1.4,0,0,0-.559,1.1,1.159,1.159,0,0,0,.352.891A1.472,1.472,0,0,0,21.227-1.125Zm5.8-2.945A5.641,5.641,0,0,1,27.9-7.359a2.807,2.807,0,0,1,2.441-1.25,3.027,3.027,0,0,1,1.316.273,2.7,2.7,0,0,1,.98.8v-4.648H34.18V0H33l-.234-1.07a2.743,2.743,0,0,1-1.023.922,3.058,3.058,0,0,1-1.414.313A2.9,2.9,0,0,1,27.906-.957a4.659,4.659,0,0,1-.875-2.949Zm1.539.164a3.588,3.588,0,0,0,.523,2.051,1.828,1.828,0,0,0,1.625.77A2.039,2.039,0,0,0,31.875-1.4a2.334,2.334,0,0,0,.766-.875V-6.219a2.37,2.37,0,0,0-.77-.832,2.033,2.033,0,0,0-1.137-.309,1.759,1.759,0,0,0-1.637.914A4.718,4.718,0,0,0,28.57-4.07ZM40.4-6.234V-7.758L47.086-4.8v1.164L40.4-.68V-2.211L45.07-4.07l.664-.133V-4.25l-.664-.156Zm15.016-.2H48.9V-7.711h6.516Zm0,3.25H48.9V-4.461h6.516ZM66.242,0H64.7V-9.953l-2.477.023v-1.187l4.023-.422ZM77.594-8.469a2.563,2.563,0,0,1-.5,1.566,3.028,3.028,0,0,1-1.328,1.012A3.333,3.333,0,0,1,77.32-4.82a2.641,2.641,0,0,1,.586,1.7A3,3,0,0,1,76.887-.7a3.892,3.892,0,0,1-2.6.859A4.194,4.194,0,0,1,71.559-.7,2.952,2.952,0,0,1,70.5-3.125a2.608,2.608,0,0,1,.6-1.7A3.446,3.446,0,0,1,72.711-5.9a3,3,0,0,1-1.383-1,2.536,2.536,0,0,1-.508-1.566,2.787,2.787,0,0,1,.957-2.281,3.8,3.8,0,0,1,2.5-.789,3.558,3.558,0,0,1,2.387.793A2.822,2.822,0,0,1,77.594-8.469ZM76.375-3.156a2.067,2.067,0,0,0-.605-1.531,2.039,2.039,0,0,0-1.5-.6,2.231,2.231,0,0,0-1.6.6,2.021,2.021,0,0,0-.633,1.531,1.99,1.99,0,0,0,.629,1.539,2.3,2.3,0,0,0,1.621.578,2.049,2.049,0,0,0,1.488-.582A2.046,2.046,0,0,0,76.375-3.156Zm-.32-5.289A1.869,1.869,0,0,0,75.543-9.8a1.692,1.692,0,0,0-1.27-.531,1.917,1.917,0,0,0-1.375.512,1.8,1.8,0,0,0-.539,1.371,1.887,1.887,0,0,0,.547,1.406,1.889,1.889,0,0,0,1.383.539,1.655,1.655,0,0,0,1.262-.539A1.976,1.976,0,0,0,76.055-8.445Z" transform="translate(-9818 -7524)" fill="#00104e"/>
    <path id="Trazado_29819" data-name="Trazado 29819" d="M7.391-2.867a1.711,1.711,0,0,0-.555-1.3,4.62,4.62,0,0,0-1.953-.891A6.5,6.5,0,0,1,2.176-6.32a2.655,2.655,0,0,1-.973-2.1A2.8,2.8,0,0,1,2.25-10.648a4.05,4.05,0,0,1,2.719-.891,3.971,3.971,0,0,1,2.863,1.02A3.088,3.088,0,0,1,8.867-8.141l-.023.047H7.375A2.1,2.1,0,0,0,6.7-9.7a2.431,2.431,0,0,0-1.73-.633A2.37,2.37,0,0,0,3.316-9.8a1.754,1.754,0,0,0-.574,1.359,1.518,1.518,0,0,0,.629,1.238,5.8,5.8,0,0,0,2.043.871A5.8,5.8,0,0,1,8.031-5.023a2.857,2.857,0,0,1,.9,2.141A2.657,2.657,0,0,1,7.848-.672,4.491,4.491,0,0,1,5.023.164a4.8,4.8,0,0,1-2.91-.922A2.81,2.81,0,0,1,.891-3.227l.016-.047H2.375a1.912,1.912,0,0,0,.813,1.652,3.076,3.076,0,0,0,1.836.582,2.761,2.761,0,0,0,1.73-.492A1.6,1.6,0,0,0,7.391-2.867ZM12.813,0H11.266V-11.375h1.547Z" transform="translate(-9905.365 -7540.694)" fill="#00104e"/>
    <path id="Trazado_29824" data-name="Trazado 29824" d="M4.945,5.734,4.156,7.688H3.4V3.625H4.945Zm-2.414,0L1.742,7.688H.984L.992,5.813V3.625H2.531ZM15.445,3.625V11.18a3.669,3.669,0,0,1-1.219,2.93,4.627,4.627,0,0,1-3.141,1.055,4.367,4.367,0,0,1-3.031-1.059,3.73,3.73,0,0,1-1.18-2.926V3.625H8.414V11.18a2.744,2.744,0,0,0,.746,2.043,2.621,2.621,0,0,0,1.926.738,2.851,2.851,0,0,0,2.035-.738,2.668,2.668,0,0,0,.785-2.043V3.625Zm7.141,9.1A1.026,1.026,0,0,0,22.2,11.9a3.732,3.732,0,0,0-1.465-.562,6.146,6.146,0,0,1-2.293-.9,1.814,1.814,0,0,1-.8-1.547,2.229,2.229,0,0,1,.879-1.766A3.433,3.433,0,0,1,20.8,6.391a3.4,3.4,0,0,1,2.328.781,2.239,2.239,0,0,1,.852,1.82l-.016.047H22.492a1.331,1.331,0,0,0-.48-.992A1.717,1.717,0,0,0,20.8,7.6a1.751,1.751,0,0,0-1.215.367,1.146,1.146,0,0,0-.4.875.927.927,0,0,0,.348.773,3.848,3.848,0,0,0,1.434.5,6.058,6.058,0,0,1,2.359.93,1.872,1.872,0,0,1,.8,1.57,2.226,2.226,0,0,1-.91,1.836,3.754,3.754,0,0,1-2.379.711,3.715,3.715,0,0,1-2.547-.82,2.341,2.341,0,0,1-.883-1.914l.016-.047h1.469a1.424,1.424,0,0,0,.609,1.2,2.358,2.358,0,0,0,1.336.379,2.1,2.1,0,0,0,1.285-.348A1.063,1.063,0,0,0,22.586,12.727ZM28.18,4.508V6.547h1.6V7.688h-1.6V12.82a1.149,1.149,0,0,0,.246.836.89.89,0,0,0,.652.242,1.429,1.429,0,0,0,.3-.035,2.2,2.2,0,0,0,.273-.074l.211,1.055a1.36,1.36,0,0,1-.508.23,2.562,2.562,0,0,1-.664.09A1.993,1.993,0,0,1,27.2,14.6a2.46,2.46,0,0,1-.555-1.777V7.688H25.3V6.547h1.344V4.508Zm6.75,10.656A3.576,3.576,0,0,1,32.09,14a4.48,4.48,0,0,1-1.02-3.062v-.344a4.386,4.386,0,0,1,1.051-3.012,3.3,3.3,0,0,1,2.566-1.191A3.067,3.067,0,0,1,37.23,7.445a4.345,4.345,0,0,1,.848,2.8v.813H32.672l-.023.039a3.494,3.494,0,0,0,.563,2.066,1.965,1.965,0,0,0,1.719.793,3.872,3.872,0,0,0,1.371-.223,3.061,3.061,0,0,0,1.012-.613l.6,1a3.7,3.7,0,0,1-1.2.738A4.762,4.762,0,0,1,34.93,15.164ZM34.688,7.6a1.673,1.673,0,0,0-1.332.621,2.938,2.938,0,0,0-.645,1.59l.016.039h3.813V9.727A2.462,2.462,0,0,0,36.086,8.2,1.638,1.638,0,0,0,34.688,7.6Zm4.766,3.328a5.641,5.641,0,0,1,.871-3.289,2.807,2.807,0,0,1,2.441-1.25,3.027,3.027,0,0,1,1.316.273,2.7,2.7,0,0,1,.98.8V2.813H46.6V15h-1.18l-.234-1.07a2.743,2.743,0,0,1-1.023.922,3.058,3.058,0,0,1-1.414.313,2.9,2.9,0,0,1-2.422-1.121,4.659,4.659,0,0,1-.875-2.949Zm1.539.164a3.588,3.588,0,0,0,.523,2.051,1.828,1.828,0,0,0,1.625.77A2.039,2.039,0,0,0,44.3,13.6a2.334,2.334,0,0,0,.766-.875V8.781a2.37,2.37,0,0,0-.77-.832,2.033,2.033,0,0,0-1.137-.309,1.759,1.759,0,0,0-1.637.914,4.718,4.718,0,0,0-.527,2.375Zm15.383,4.07A3.576,3.576,0,0,1,53.535,14a4.48,4.48,0,0,1-1.02-3.062v-.344a4.386,4.386,0,0,1,1.051-3.012,3.3,3.3,0,0,1,2.566-1.191,3.067,3.067,0,0,1,2.543,1.055,4.345,4.345,0,0,1,.848,2.8v.813H54.117l-.023.039a3.494,3.494,0,0,0,.563,2.066,1.965,1.965,0,0,0,1.719.793,3.872,3.872,0,0,0,1.371-.223,3.061,3.061,0,0,0,1.012-.613l.6,1a3.7,3.7,0,0,1-1.2.738A4.762,4.762,0,0,1,56.375,15.164ZM56.133,7.6a1.673,1.673,0,0,0-1.332.621,2.938,2.938,0,0,0-.645,1.59l.016.039h3.813V9.727A2.462,2.462,0,0,0,57.531,8.2,1.638,1.638,0,0,0,56.133,7.6Zm10.031,5.125a1.026,1.026,0,0,0-.387-.828,3.732,3.732,0,0,0-1.465-.562,6.146,6.146,0,0,1-2.293-.9,1.814,1.814,0,0,1-.8-1.547A2.229,2.229,0,0,1,62.1,7.125a3.879,3.879,0,0,1,4.605.047,2.239,2.239,0,0,1,.852,1.82l-.016.047H66.07a1.331,1.331,0,0,0-.48-.992A1.717,1.717,0,0,0,64.375,7.6a1.751,1.751,0,0,0-1.215.367,1.146,1.146,0,0,0-.4.875.927.927,0,0,0,.348.773,3.848,3.848,0,0,0,1.434.5,6.058,6.058,0,0,1,2.359.93,1.872,1.872,0,0,1,.8,1.57,2.226,2.226,0,0,1-.91,1.836,3.754,3.754,0,0,1-2.379.711,3.715,3.715,0,0,1-2.547-.82,2.341,2.341,0,0,1-.883-1.914L61,12.383h1.469a1.424,1.424,0,0,0,.609,1.2,2.358,2.358,0,0,0,1.336.379,2.1,2.1,0,0,0,1.285-.348A1.063,1.063,0,0,0,66.164,12.727Zm8.8-6.18.109,1.109a2.871,2.871,0,0,1,1.051-.934,3.158,3.158,0,0,1,1.48-.332,2.615,2.615,0,0,1,1.449.391,2.363,2.363,0,0,1,.91,1.172,3.162,3.162,0,0,1,1.059-1.145,2.769,2.769,0,0,1,1.527-.418,2.531,2.531,0,0,1,2.039.887,4.051,4.051,0,0,1,.75,2.668V15H83.8V9.93a2.81,2.81,0,0,0-.43-1.77,1.567,1.567,0,0,0-1.281-.52,1.631,1.631,0,0,0-1.277.547,2.381,2.381,0,0,0-.574,1.383V15H78.7V9.93a2.772,2.772,0,0,0-.441-1.738,1.532,1.532,0,0,0-1.27-.551,2.115,2.115,0,0,0-1.156.289,1.867,1.867,0,0,0-.7.813V15H73.594V6.547ZM92.773,15q-.078-.383-.121-.676a4.96,4.96,0,0,1-.051-.59,3.589,3.589,0,0,1-1.121,1.02,2.867,2.867,0,0,1-1.488.41,2.763,2.763,0,0,1-2.012-.676,2.486,2.486,0,0,1-.691-1.863,2.183,2.183,0,0,1,.98-1.895,4.579,4.579,0,0,1,2.66-.684H92.6V9.211a1.551,1.551,0,0,0-.453-1.176A1.779,1.779,0,0,0,90.867,7.6a1.859,1.859,0,0,0-1.211.375,1.125,1.125,0,0,0-.461.9l-1.461.016-.016-.047a2.023,2.023,0,0,1,.863-1.687,3.578,3.578,0,0,1,2.371-.766,3.49,3.49,0,0,1,2.313.73,2.588,2.588,0,0,1,.875,2.105V13.3a7.923,7.923,0,0,0,.047.875,4.5,4.5,0,0,0,.172.828Zm-2.555-1.125a2.739,2.739,0,0,0,1.508-.43,2.042,2.042,0,0,0,.875-.984V11.086H90.875a2.24,2.24,0,0,0-1.488.469,1.4,1.4,0,0,0-.559,1.1,1.159,1.159,0,0,0,.352.891A1.472,1.472,0,0,0,90.219,13.875Zm8.625-2.008.273,1.063h.047l2.078-6.383h1.711L99.4,16.3a4.383,4.383,0,0,1-.918,1.484,2.113,2.113,0,0,1-1.613.633,3.363,3.363,0,0,1-.477-.043q-.289-.043-.445-.082l.156-1.211a2.062,2.062,0,0,1,.277.016q.324.023.41.023a.95.95,0,0,0,.8-.437,4.542,4.542,0,0,0,.523-.969l.367-.883L95.344,6.547h1.719Zm4.984-1.172a4.654,4.654,0,0,1,1.016-3.09,3.764,3.764,0,0,1,5.535,0A4.639,4.639,0,0,1,111.4,10.7v.172a4.631,4.631,0,0,1-1.016,3.094,3.781,3.781,0,0,1-5.535,0,4.623,4.623,0,0,1-1.02-3.09Zm1.539.172a4.009,4.009,0,0,0,.566,2.219,2.046,2.046,0,0,0,3.355,0,3.988,3.988,0,0,0,.57-2.219V10.7a3.976,3.976,0,0,0-.574-2.211A1.882,1.882,0,0,0,107.6,7.6a1.856,1.856,0,0,0-1.668.883,4.018,4.018,0,0,0-.566,2.211Zm11.914-2.961-.789-.047a1.762,1.762,0,0,0-1.027.289,1.854,1.854,0,0,0-.645.813V15h-1.539V6.547h1.375l.148,1.234a2.934,2.934,0,0,1,.887-1.023,2.073,2.073,0,0,1,1.215-.367,1.9,1.9,0,0,1,.328.027,2.175,2.175,0,0,1,.258.059ZM.766,27.93a5.641,5.641,0,0,1,.871-3.289,2.807,2.807,0,0,1,2.441-1.25,3.027,3.027,0,0,1,1.316.273,2.7,2.7,0,0,1,.98.8V19.813H7.914V32H6.734L6.5,30.93a2.743,2.743,0,0,1-1.023.922,3.058,3.058,0,0,1-1.414.313,2.9,2.9,0,0,1-2.422-1.121,4.659,4.659,0,0,1-.875-2.949Zm1.539.164a3.588,3.588,0,0,0,.523,2.051,1.828,1.828,0,0,0,1.625.77A2.039,2.039,0,0,0,5.609,30.6a2.334,2.334,0,0,0,.766-.875V25.781a2.37,2.37,0,0,0-.77-.832,2.033,2.033,0,0,0-1.137-.309,1.759,1.759,0,0,0-1.637.914A4.718,4.718,0,0,0,2.3,27.93Zm11.406,4.07A3.576,3.576,0,0,1,10.871,31a4.48,4.48,0,0,1-1.02-3.062v-.344A4.386,4.386,0,0,1,10.9,24.582a3.3,3.3,0,0,1,2.566-1.191,3.067,3.067,0,0,1,2.543,1.055,4.345,4.345,0,0,1,.848,2.8v.813H11.453l-.023.039a3.494,3.494,0,0,0,.563,2.066,1.965,1.965,0,0,0,1.719.793,3.872,3.872,0,0,0,1.371-.223,3.061,3.061,0,0,0,1.012-.613l.6,1a3.7,3.7,0,0,1-1.2.738A4.762,4.762,0,0,1,13.711,32.164ZM13.469,24.6a1.673,1.673,0,0,0-1.332.621,2.938,2.938,0,0,0-.645,1.59l.016.039H15.32v-.125a2.462,2.462,0,0,0-.453-1.523A1.638,1.638,0,0,0,13.469,24.6Zm12.594,7.563A3.576,3.576,0,0,1,23.223,31a4.48,4.48,0,0,1-1.02-3.062v-.344a4.386,4.386,0,0,1,1.051-3.012,3.3,3.3,0,0,1,2.566-1.191,3.067,3.067,0,0,1,2.543,1.055,4.345,4.345,0,0,1,.848,2.8v.813H23.8l-.023.039a3.494,3.494,0,0,0,.563,2.066,1.965,1.965,0,0,0,1.719.793,3.872,3.872,0,0,0,1.371-.223,3.061,3.061,0,0,0,1.012-.613l.6,1a3.7,3.7,0,0,1-1.2.738A4.762,4.762,0,0,1,26.063,32.164ZM25.82,24.6a1.673,1.673,0,0,0-1.332.621,2.938,2.938,0,0,0-.645,1.59l.016.039h3.813v-.125a2.462,2.462,0,0,0-.453-1.523A1.638,1.638,0,0,0,25.82,24.6Zm4.766,3.328a5.641,5.641,0,0,1,.871-3.289,2.807,2.807,0,0,1,2.441-1.25,3.027,3.027,0,0,1,1.316.273,2.7,2.7,0,0,1,.98.8V19.813h1.539V32h-1.18l-.234-1.07a2.743,2.743,0,0,1-1.023.922,3.058,3.058,0,0,1-1.414.313,2.9,2.9,0,0,1-2.422-1.121,4.659,4.659,0,0,1-.875-2.949Zm1.539.164a3.588,3.588,0,0,0,.523,2.051,1.828,1.828,0,0,0,1.625.77A2.039,2.039,0,0,0,35.43,30.6a2.334,2.334,0,0,0,.766-.875V25.781a2.37,2.37,0,0,0-.77-.832,2.033,2.033,0,0,0-1.137-.309,1.759,1.759,0,0,0-1.637.914,4.718,4.718,0,0,0-.527,2.375ZM45.227,32q-.078-.383-.121-.676a4.96,4.96,0,0,1-.051-.59,3.589,3.589,0,0,1-1.121,1.02,2.867,2.867,0,0,1-1.488.41,2.763,2.763,0,0,1-2.012-.676,2.486,2.486,0,0,1-.691-1.863,2.183,2.183,0,0,1,.98-1.895,4.579,4.579,0,0,1,2.66-.684h1.672v-.836a1.551,1.551,0,0,0-.453-1.176A1.779,1.779,0,0,0,43.32,24.6a1.859,1.859,0,0,0-1.211.375,1.125,1.125,0,0,0-.461.9l-1.461.016-.016-.047a2.023,2.023,0,0,1,.863-1.687,3.578,3.578,0,0,1,2.371-.766,3.49,3.49,0,0,1,2.313.73,2.588,2.588,0,0,1,.875,2.105V30.3a7.923,7.923,0,0,0,.047.875,4.5,4.5,0,0,0,.172.828Zm-2.555-1.125a2.739,2.739,0,0,0,1.508-.43,2.042,2.042,0,0,0,.875-.984V28.086H43.328a2.24,2.24,0,0,0-1.488.469,1.4,1.4,0,0,0-.559,1.1,1.159,1.159,0,0,0,.352.891A1.472,1.472,0,0,0,42.672,30.875Zm5.8-2.945a5.641,5.641,0,0,1,.871-3.289,2.807,2.807,0,0,1,2.441-1.25,3.027,3.027,0,0,1,1.316.273,2.7,2.7,0,0,1,.98.8V19.813h1.539V32h-1.18l-.234-1.07a2.743,2.743,0,0,1-1.023.922,3.058,3.058,0,0,1-1.414.313,2.9,2.9,0,0,1-2.422-1.121,4.659,4.659,0,0,1-.875-2.949Zm1.539.164a3.588,3.588,0,0,0,.523,2.051,1.828,1.828,0,0,0,1.625.77A2.039,2.039,0,0,0,53.32,30.6a2.334,2.334,0,0,0,.766-.875V25.781a2.37,2.37,0,0,0-.77-.832,2.033,2.033,0,0,0-1.137-.309,1.759,1.759,0,0,0-1.637.914,4.718,4.718,0,0,0-.527,2.375ZM61.75,22.734l-.789,1.953H60.2V20.625H61.75Zm-2.414,0-.789,1.953h-.758l.008-1.875V20.625h1.539Z" transform="translate(-9961.041 -7447.161)" fill="#00104e"/>
    <path id="Trazado_29821" data-name="Trazado 29821" d="M2,0H50a2,2,0,0,1,2,2V4a2,2,0,0,1-2,2H2A2,2,0,0,1,0,4V2A2,2,0,0,1,2,0Z" transform="translate(-9701.582 -7532.694)" fill="#26a69a"/>
    <path id="Trazado_29822" data-name="Trazado 29822" d="M2,0H50a2,2,0,0,1,2,2V4a2,2,0,0,1-2,2H2A2,2,0,0,1,0,4V2A2,2,0,0,1,2,0Z" transform="translate(-9905.365 -7532.694)" fill="#26a69a"/>
    <path id="Trazado_29826" data-name="Trazado 29826" d="M2,0H251a2,2,0,0,1,2,2V4a2,2,0,0,1-2,2H2A2,2,0,0,1,0,4V2A2,2,0,0,1,2,0Z" transform="translate(-9905.365 -7361.395)" fill="#26a69a"/>
    <path id="Trazado_29825" data-name="Trazado 29825" d="M2,0H45.134a2,2,0,0,1,2,2V4a2,2,0,0,1-2,2H2A2,2,0,0,1,0,4V2A2,2,0,0,1,2,0Z" transform="translate(-9900.623 -7402.528) rotate(90)" fill="#26a69a"/>
    <path id="Trazado_29823" data-name="Trazado 29823" d="M2,0H172.5a2,2,0,0,1,2,2V4a2,2,0,0,1-2,2H2A2,2,0,0,1,0,4V2A2,2,0,0,1,2,0Z" transform="translate(-9649.84 -7529.897) rotate(90)" fill="#26a69a"/>
  </g>
</svg>
