<svg xmlns="http://www.w3.org/2000/svg" width="436" height="287" viewBox="0 0 436 287">
  <g id="Grupo_31026" data-name="Grupo 31026" transform="translate(-179 -3087)">
    <path id="Trazado_29926" data-name="Trazado 29926" d="M10,0H426a10,10,0,0,1,10,10V287H0V10A10,10,0,0,1,10,0Z" transform="translate(179 3087)" fill="#ecfafc"/>
    <g id="Trazado_29927" data-name="Trazado 29927" transform="translate(259 3133)" fill="#fff6e8">
      <path d="M 69.5 39.5 L 0.5 39.5 L 0.5 0.5 L 69.5 0.5 L 69.5 39.5 Z" stroke="none"/>
      <path d="M 1 1 L 1 39 L 69 39 L 69 1 L 1 1 M 0 0 L 70 0 L 70 40 L 0 40 L 0 0 Z" stroke="none" fill="#929292"/>
    </g>
    <g id="Trazado_29943" data-name="Trazado 29943" transform="translate(259 3211)" fill="#fff6e8">
      <path d="M 69.5 39.5 L 0.5 39.5 L 0.5 0.5 L 69.5 0.5 L 69.5 39.5 Z" stroke="none"/>
      <path d="M 1 1 L 1 39 L 69 39 L 69 1 L 1 1 M 0 0 L 70 0 L 70 40 L 0 40 L 0 0 Z" stroke="none" fill="#929292"/>
    </g>
    <g id="Trazado_29930" data-name="Trazado 29930" transform="translate(259 3172)" fill="#fff6e8">
      <path d="M 69.5 39.5 L 0.5 39.5 L 0.5 0.5 L 69.5 0.5 L 69.5 39.5 Z" stroke="none"/>
      <path d="M 1 1 L 1 39 L 69 39 L 69 1 L 1 1 M 0 0 L 70 0 L 70 40 L 0 40 L 0 0 Z" stroke="none" fill="#929292"/>
    </g>
    <g id="Trazado_29951" data-name="Trazado 29951" transform="translate(259 3250)" fill="#fff6e8">
      <path d="M 69.5 39.5 L 0.5 39.5 L 0.5 0.5 L 69.5 0.5 L 69.5 39.5 Z" stroke="none"/>
      <path d="M 1 1 L 1 39 L 69 39 L 69 1 L 1 1 M 0 0 L 70 0 L 70 40 L 0 40 L 0 0 Z" stroke="none" fill="#929292"/>
    </g>
    <g id="Trazado_29959" data-name="Trazado 29959" transform="translate(259 3289)" fill="#fff6e8">
      <path d="M 69.5 39.5 L 0.5 39.5 L 0.5 0.5 L 69.5 0.5 L 69.5 39.5 Z" stroke="none"/>
      <path d="M 1 1 L 1 39 L 69 39 L 69 1 L 1 1 M 0 0 L 70 0 L 70 40 L 0 40 L 0 0 Z" stroke="none" fill="#929292"/>
    </g>
    <g id="Trazado_29928" data-name="Trazado 29928" transform="translate(328 3133)" fill="#fff6e8">
      <path d="M 69.5 39.5 L 0.5 39.5 L 0.5 0.5 L 69.5 0.5 L 69.5 39.5 Z" stroke="none"/>
      <path d="M 1 1 L 1 39 L 69 39 L 69 1 L 1 1 M 0 0 L 70 0 L 70 40 L 0 40 L 0 0 Z" stroke="none" fill="#929292"/>
    </g>
    <g id="Trazado_29944" data-name="Trazado 29944" transform="translate(328 3211)" fill="#fff6e8">
      <path d="M 69.5 39.5 L 0.5 39.5 L 0.5 0.5 L 69.5 0.5 L 69.5 39.5 Z" stroke="none"/>
      <path d="M 1 1 L 1 39 L 69 39 L 69 1 L 1 1 M 0 0 L 70 0 L 70 40 L 0 40 L 0 0 Z" stroke="none" fill="#929292"/>
    </g>
    <g id="Trazado_29931" data-name="Trazado 29931" transform="translate(328 3172)" fill="#fff6e8">
      <path d="M 69.5 39.5 L 0.5 39.5 L 0.5 0.5 L 69.5 0.5 L 69.5 39.5 Z" stroke="none"/>
      <path d="M 1 1 L 1 39 L 69 39 L 69 1 L 1 1 M 0 0 L 70 0 L 70 40 L 0 40 L 0 0 Z" stroke="none" fill="#929292"/>
    </g>
    <g id="Trazado_29952" data-name="Trazado 29952" transform="translate(328 3250)" fill="#fff6e8">
      <path d="M 69.5 39.5 L 0.5 39.5 L 0.5 0.5 L 69.5 0.5 L 69.5 39.5 Z" stroke="none"/>
      <path d="M 1 1 L 1 39 L 69 39 L 69 1 L 1 1 M 0 0 L 70 0 L 70 40 L 0 40 L 0 0 Z" stroke="none" fill="#929292"/>
    </g>
    <g id="Trazado_29960" data-name="Trazado 29960" transform="translate(328 3289)" fill="#fff6e8">
      <path d="M 69.5 39.5 L 0.5 39.5 L 0.5 0.5 L 69.5 0.5 L 69.5 39.5 Z" stroke="none"/>
      <path d="M 1 1 L 1 39 L 69 39 L 69 1 L 1 1 M 0 0 L 70 0 L 70 40 L 0 40 L 0 0 Z" stroke="none" fill="#929292"/>
    </g>
    <g id="Trazado_29932" data-name="Trazado 29932" transform="translate(397 3133)" fill="#fff6e8">
      <path d="M 69.5 39.5 L 0.5 39.5 L 0.5 0.5 L 69.5 0.5 L 69.5 39.5 Z" stroke="none"/>
      <path d="M 1 1 L 1 39 L 69 39 L 69 1 L 1 1 M 0 0 L 70 0 L 70 40 L 0 40 L 0 0 Z" stroke="none" fill="#929292"/>
    </g>
    <g id="Trazado_29945" data-name="Trazado 29945" transform="translate(397 3211)" fill="#fff6e8">
      <path d="M 69.5 39.5 L 0.5 39.5 L 0.5 0.5 L 69.5 0.5 L 69.5 39.5 Z" stroke="none"/>
      <path d="M 1 1 L 1 39 L 69 39 L 69 1 L 1 1 M 0 0 L 70 0 L 70 40 L 0 40 L 0 0 Z" stroke="none" fill="#929292"/>
    </g>
    <g id="Trazado_29933" data-name="Trazado 29933" transform="translate(397 3172)" fill="#fff6e8">
      <path d="M 69.5 39.5 L 0.5 39.5 L 0.5 0.5 L 69.5 0.5 L 69.5 39.5 Z" stroke="none"/>
      <path d="M 1 1 L 1 39 L 69 39 L 69 1 L 1 1 M 0 0 L 70 0 L 70 40 L 0 40 L 0 0 Z" stroke="none" fill="#929292"/>
    </g>
    <g id="Trazado_29953" data-name="Trazado 29953" transform="translate(397 3250)" fill="#fff6e8">
      <path d="M 69.5 39.5 L 0.5 39.5 L 0.5 0.5 L 69.5 0.5 L 69.5 39.5 Z" stroke="none"/>
      <path d="M 1 1 L 1 39 L 69 39 L 69 1 L 1 1 M 0 0 L 70 0 L 70 40 L 0 40 L 0 0 Z" stroke="none" fill="#929292"/>
    </g>
    <g id="Trazado_29961" data-name="Trazado 29961" transform="translate(397 3289)" fill="#fff6e8">
      <path d="M 69.5 39.5 L 0.5 39.5 L 0.5 0.5 L 69.5 0.5 L 69.5 39.5 Z" stroke="none"/>
      <path d="M 1 1 L 1 39 L 69 39 L 69 1 L 1 1 M 0 0 L 70 0 L 70 40 L 0 40 L 0 0 Z" stroke="none" fill="#929292"/>
    </g>
    <g id="Trazado_29934" data-name="Trazado 29934" transform="translate(466 3133)" fill="#fff6e8">
      <path d="M 69.5 39.5 L 0.5 39.5 L 0.5 0.5 L 69.5 0.5 L 69.5 39.5 Z" stroke="none"/>
      <path d="M 1 1 L 1 39 L 69 39 L 69 1 L 1 1 M 0 0 L 70 0 L 70 40 L 0 40 L 0 0 Z" stroke="none" fill="#929292"/>
    </g>
    <g id="Trazado_29946" data-name="Trazado 29946" transform="translate(466 3211)" fill="#fff6e8">
      <path d="M 69.5 39.5 L 0.5 39.5 L 0.5 0.5 L 69.5 0.5 L 69.5 39.5 Z" stroke="none"/>
      <path d="M 1 1 L 1 39 L 69 39 L 69 1 L 1 1 M 0 0 L 70 0 L 70 40 L 0 40 L 0 0 Z" stroke="none" fill="#929292"/>
    </g>
    <g id="Trazado_29935" data-name="Trazado 29935" transform="translate(466 3172)" fill="#fff6e8">
      <path d="M 69.5 39.5 L 0.5 39.5 L 0.5 0.5 L 69.5 0.5 L 69.5 39.5 Z" stroke="none"/>
      <path d="M 1 1 L 1 39 L 69 39 L 69 1 L 1 1 M 0 0 L 70 0 L 70 40 L 0 40 L 0 0 Z" stroke="none" fill="#929292"/>
    </g>
    <g id="Trazado_29954" data-name="Trazado 29954" transform="translate(466 3250)" fill="#fff6e8">
      <path d="M 69.5 39.5 L 0.5 39.5 L 0.5 0.5 L 69.5 0.5 L 69.5 39.5 Z" stroke="none"/>
      <path d="M 1 1 L 1 39 L 69 39 L 69 1 L 1 1 M 0 0 L 70 0 L 70 40 L 0 40 L 0 0 Z" stroke="none" fill="#929292"/>
    </g>
    <g id="Trazado_29962" data-name="Trazado 29962" transform="translate(466 3289)" fill="#fff6e8">
      <path d="M 69.5 39.5 L 0.5 39.5 L 0.5 0.5 L 69.5 0.5 L 69.5 39.5 Z" stroke="none"/>
      <path d="M 1 1 L 1 39 L 69 39 L 69 1 L 1 1 M 0 0 L 70 0 L 70 40 L 0 40 L 0 0 Z" stroke="none" fill="#929292"/>
    </g>
    <path id="Trazado_29929" data-name="Trazado 29929" d="M8.633-4.267A4.77,4.77,0,0,1,7.591-1.021a3.528,3.528,0,0,1-2.8,1.2,3.544,3.544,0,0,1-2.8-1.2A4.745,4.745,0,0,1,.938-4.267V-7.819A4.776,4.776,0,0,1,1.98-11.057a3.507,3.507,0,0,1,2.793-1.2,3.542,3.542,0,0,1,2.81,1.2,4.752,4.752,0,0,1,1.05,3.237ZM7-8.16a3.3,3.3,0,0,0-.581-2.059,1.953,1.953,0,0,0-1.644-.755,1.921,1.921,0,0,0-1.627.755A3.331,3.331,0,0,0,2.573-8.16v4.225a3.317,3.317,0,0,0,.585,2.067A1.938,1.938,0,0,0,4.79-1.1a1.926,1.926,0,0,0,1.635-.76A3.365,3.365,0,0,0,7-3.935ZM12.186-.4,10.94,2.142H9.969L10.55-.481V-1.834h1.635Zm9.372-3.868a4.77,4.77,0,0,1-1.042,3.246,3.528,3.528,0,0,1-2.8,1.2,3.544,3.544,0,0,1-2.8-1.2,4.745,4.745,0,0,1-1.05-3.246V-7.819A4.776,4.776,0,0,1,14.9-11.057a3.507,3.507,0,0,1,2.793-1.2,3.542,3.542,0,0,1,2.81,1.2,4.752,4.752,0,0,1,1.05,3.237ZM19.922-8.16a3.3,3.3,0,0,0-.581-2.059,1.953,1.953,0,0,0-1.644-.755,1.921,1.921,0,0,0-1.627.755A3.331,3.331,0,0,0,15.5-8.16v4.225a3.317,3.317,0,0,0,.585,2.067,1.938,1.938,0,0,0,1.631.764,1.926,1.926,0,0,0,1.635-.76,3.365,3.365,0,0,0,.573-2.071Z" transform="translate(283 3159)" fill="#00104e"/>
    <path id="Trazado_29947" data-name="Trazado 29947" d="M8.749,0h-7.5V-1.121L5.039-5.645A11.4,11.4,0,0,0,6.412-7.6a3.262,3.262,0,0,0,.361-1.465,1.956,1.956,0,0,0-.49-1.374,1.742,1.742,0,0,0-1.353-.535,2.027,2.027,0,0,0-1.631.656,2.429,2.429,0,0,0-.56,1.635H1.162l-.017-.05a3.26,3.26,0,0,1,.988-2.5,3.789,3.789,0,0,1,2.8-1.025,3.517,3.517,0,0,1,2.548.9,3.074,3.074,0,0,1,.93,2.316A3.694,3.694,0,0,1,7.882-7.18,20.838,20.838,0,0,1,6.275-4.889L3.229-1.32l.017.042h5.5Zm3.437-.4L10.94,2.142H9.969L10.55-.481V-1.834h1.635Zm9.372-3.868a4.77,4.77,0,0,1-1.042,3.246,3.528,3.528,0,0,1-2.8,1.2,3.544,3.544,0,0,1-2.8-1.2,4.745,4.745,0,0,1-1.05-3.246V-7.819A4.776,4.776,0,0,1,14.9-11.057a3.507,3.507,0,0,1,2.793-1.2,3.542,3.542,0,0,1,2.81,1.2,4.752,4.752,0,0,1,1.05,3.237ZM19.922-8.16a3.3,3.3,0,0,0-.581-2.059,1.953,1.953,0,0,0-1.644-.755,1.921,1.921,0,0,0-1.627.755A3.331,3.331,0,0,0,15.5-8.16v4.225a3.317,3.317,0,0,0,.585,2.067,1.938,1.938,0,0,0,1.631.764,1.926,1.926,0,0,0,1.635-.76,3.365,3.365,0,0,0,.573-2.071Z" transform="translate(283 3237)" fill="#00104e"/>
    <path id="Trazado_29936" data-name="Trazado 29936" d="M5.894,0H4.25V-10.575l-2.631.025v-1.262l4.275-.448Zm6.292-.4L10.94,2.142H9.969L10.55-.481V-1.834h1.635Zm9.372-3.868a4.77,4.77,0,0,1-1.042,3.246,3.528,3.528,0,0,1-2.8,1.2,3.544,3.544,0,0,1-2.8-1.2,4.745,4.745,0,0,1-1.05-3.246V-7.819A4.776,4.776,0,0,1,14.9-11.057a3.507,3.507,0,0,1,2.793-1.2,3.542,3.542,0,0,1,2.81,1.2,4.752,4.752,0,0,1,1.05,3.237ZM19.922-8.16a3.3,3.3,0,0,0-.581-2.059,1.953,1.953,0,0,0-1.644-.755,1.921,1.921,0,0,0-1.627.755A3.331,3.331,0,0,0,15.5-8.16v4.225a3.317,3.317,0,0,0,.585,2.067,1.938,1.938,0,0,0,1.631.764,1.926,1.926,0,0,0,1.635-.76,3.365,3.365,0,0,0,.573-2.071Z" transform="translate(283 3198)" fill="#00104e"/>
    <path id="Trazado_29955" data-name="Trazado 29955" d="M4.806-6.873a1.916,1.916,0,0,0,1.548-.544A2.316,2.316,0,0,0,6.807-8.94a2.146,2.146,0,0,0-.494-1.473,1.85,1.85,0,0,0-1.465-.56,2.186,2.186,0,0,0-1.565.585,1.933,1.933,0,0,0-.618,1.465H1.1l-.025-.05A2.888,2.888,0,0,1,2.108-11.3a3.941,3.941,0,0,1,2.739-.963,3.828,3.828,0,0,1,2.64.851,3.178,3.178,0,0,1,.955,2.5A2.815,2.815,0,0,1,8-7.363,2.994,2.994,0,0,1,6.757-6.275a2.856,2.856,0,0,1,1.39,1.108,3.255,3.255,0,0,1,.477,1.8,3.317,3.317,0,0,1-1.05,2.6A3.928,3.928,0,0,1,4.848.174,4.318,4.318,0,0,1,2.129-.735,2.784,2.784,0,0,1,1-3.138l.017-.05H2.573a1.961,1.961,0,0,0,.635,1.482,2.286,2.286,0,0,0,1.639.6,2.033,2.033,0,0,0,1.569-.618,2.282,2.282,0,0,0,.573-1.615,2.416,2.416,0,0,0-.527-1.7A2.169,2.169,0,0,0,4.806-5.6H3.461v-1.27ZM12.186-.4,10.94,2.142H9.969L10.55-.481V-1.834h1.635Zm9.372-3.868a4.77,4.77,0,0,1-1.042,3.246,3.528,3.528,0,0,1-2.8,1.2,3.544,3.544,0,0,1-2.8-1.2,4.745,4.745,0,0,1-1.05-3.246V-7.819A4.776,4.776,0,0,1,14.9-11.057a3.507,3.507,0,0,1,2.793-1.2,3.542,3.542,0,0,1,2.81,1.2,4.752,4.752,0,0,1,1.05,3.237ZM19.922-8.16a3.3,3.3,0,0,0-.581-2.059,1.953,1.953,0,0,0-1.644-.755,1.921,1.921,0,0,0-1.627.755A3.331,3.331,0,0,0,15.5-8.16v4.225a3.317,3.317,0,0,0,.585,2.067,1.938,1.938,0,0,0,1.631.764,1.926,1.926,0,0,0,1.635-.76,3.365,3.365,0,0,0,.573-2.071Z" transform="translate(283 3276)" fill="#00104e"/>
    <path id="Trazado_29963" data-name="Trazado 29963" d="M7.413-4.067H9.081v1.278H7.413V0H5.786V-2.789H.6V-3.71l5.088-8.375H7.413Zm-5.063,0H5.786V-9.737l-.05-.008-.158.415ZM12.186-.4,10.94,2.142H9.969L10.55-.481V-1.834h1.635Zm9.372-3.868a4.77,4.77,0,0,1-1.042,3.246,3.528,3.528,0,0,1-2.8,1.2,3.544,3.544,0,0,1-2.8-1.2,4.745,4.745,0,0,1-1.05-3.246V-7.819A4.776,4.776,0,0,1,14.9-11.057a3.507,3.507,0,0,1,2.793-1.2,3.542,3.542,0,0,1,2.81,1.2,4.752,4.752,0,0,1,1.05,3.237ZM19.922-8.16a3.3,3.3,0,0,0-.581-2.059,1.953,1.953,0,0,0-1.644-.755,1.921,1.921,0,0,0-1.627.755A3.331,3.331,0,0,0,15.5-8.16v4.225a3.317,3.317,0,0,0,.585,2.067,1.938,1.938,0,0,0,1.631.764,1.926,1.926,0,0,0,1.635-.76,3.365,3.365,0,0,0,.573-2.071Z" transform="translate(283 3315)" fill="#00104e"/>
    <path id="Trazado_29937" data-name="Trazado 29937" d="M8.633-4.267A4.77,4.77,0,0,1,7.591-1.021a3.528,3.528,0,0,1-2.8,1.2,3.544,3.544,0,0,1-2.8-1.2A4.745,4.745,0,0,1,.938-4.267V-7.819A4.776,4.776,0,0,1,1.98-11.057a3.507,3.507,0,0,1,2.793-1.2,3.542,3.542,0,0,1,2.81,1.2,4.752,4.752,0,0,1,1.05,3.237ZM7-8.16a3.3,3.3,0,0,0-.581-2.059,1.953,1.953,0,0,0-1.644-.755,1.921,1.921,0,0,0-1.627.755A3.331,3.331,0,0,0,2.573-8.16v4.225a3.317,3.317,0,0,0,.585,2.067A1.938,1.938,0,0,0,4.79-1.1a1.926,1.926,0,0,0,1.635-.76A3.365,3.365,0,0,0,7-3.935ZM12.186-.4,10.94,2.142H9.969L10.55-.481V-1.834h1.635Zm6.632.4H17.174V-10.575l-2.631.025v-1.262l4.275-.448Z" transform="translate(352 3159)" fill="#00104e"/>
    <path id="Trazado_29948" data-name="Trazado 29948" d="M8.749,0h-7.5V-1.121L5.039-5.645A11.4,11.4,0,0,0,6.412-7.6a3.262,3.262,0,0,0,.361-1.465,1.956,1.956,0,0,0-.49-1.374,1.742,1.742,0,0,0-1.353-.535,2.027,2.027,0,0,0-1.631.656,2.429,2.429,0,0,0-.56,1.635H1.162l-.017-.05a3.26,3.26,0,0,1,.988-2.5,3.789,3.789,0,0,1,2.8-1.025,3.517,3.517,0,0,1,2.548.9,3.074,3.074,0,0,1,.93,2.316A3.694,3.694,0,0,1,7.882-7.18,20.838,20.838,0,0,1,6.275-4.889L3.229-1.32l.017.042h5.5Zm3.437-.4L10.94,2.142H9.969L10.55-.481V-1.834h1.635Zm6.632.4H17.174V-10.575l-2.631.025v-1.262l4.275-.448Z" transform="translate(352 3237)" fill="#00104e"/>
    <path id="Trazado_29938" data-name="Trazado 29938" d="M5.894,0H4.25V-10.575l-2.631.025v-1.262l4.275-.448Zm6.292-.4L10.94,2.142H9.969L10.55-.481V-1.834h1.635Zm6.632.4H17.174V-10.575l-2.631.025v-1.262l4.275-.448Z" transform="translate(352 3198)" fill="#00104e"/>
    <path id="Trazado_29956" data-name="Trazado 29956" d="M4.806-6.873a1.916,1.916,0,0,0,1.548-.544A2.316,2.316,0,0,0,6.807-8.94a2.146,2.146,0,0,0-.494-1.473,1.85,1.85,0,0,0-1.465-.56,2.186,2.186,0,0,0-1.565.585,1.933,1.933,0,0,0-.618,1.465H1.1l-.025-.05A2.888,2.888,0,0,1,2.108-11.3a3.941,3.941,0,0,1,2.739-.963,3.828,3.828,0,0,1,2.64.851,3.178,3.178,0,0,1,.955,2.5A2.815,2.815,0,0,1,8-7.363,2.994,2.994,0,0,1,6.757-6.275a2.856,2.856,0,0,1,1.39,1.108,3.255,3.255,0,0,1,.477,1.8,3.317,3.317,0,0,1-1.05,2.6A3.928,3.928,0,0,1,4.848.174,4.318,4.318,0,0,1,2.129-.735,2.784,2.784,0,0,1,1-3.138l.017-.05H2.573a1.961,1.961,0,0,0,.635,1.482,2.286,2.286,0,0,0,1.639.6,2.033,2.033,0,0,0,1.569-.618,2.282,2.282,0,0,0,.573-1.615,2.416,2.416,0,0,0-.527-1.7A2.169,2.169,0,0,0,4.806-5.6H3.461v-1.27ZM12.186-.4,10.94,2.142H9.969L10.55-.481V-1.834h1.635Zm6.632.4H17.174V-10.575l-2.631.025v-1.262l4.275-.448Z" transform="translate(352 3276)" fill="#00104e"/>
    <path id="Trazado_29964" data-name="Trazado 29964" d="M7.413-4.067H9.081v1.278H7.413V0H5.786V-2.789H.6V-3.71l5.088-8.375H7.413Zm-5.063,0H5.786V-9.737l-.05-.008-.158.415ZM12.186-.4,10.94,2.142H9.969L10.55-.481V-1.834h1.635Zm6.632.4H17.174V-10.575l-2.631.025v-1.262l4.275-.448Z" transform="translate(352 3315)" fill="#00104e"/>
    <path id="Trazado_29939" data-name="Trazado 29939" d="M8.633-4.267A4.77,4.77,0,0,1,7.591-1.021a3.528,3.528,0,0,1-2.8,1.2,3.544,3.544,0,0,1-2.8-1.2A4.745,4.745,0,0,1,.938-4.267V-7.819A4.776,4.776,0,0,1,1.98-11.057a3.507,3.507,0,0,1,2.793-1.2,3.542,3.542,0,0,1,2.81,1.2,4.752,4.752,0,0,1,1.05,3.237ZM7-8.16a3.3,3.3,0,0,0-.581-2.059,1.953,1.953,0,0,0-1.644-.755,1.921,1.921,0,0,0-1.627.755A3.331,3.331,0,0,0,2.573-8.16v4.225a3.317,3.317,0,0,0,.585,2.067A1.938,1.938,0,0,0,4.79-1.1a1.926,1.926,0,0,0,1.635-.76A3.365,3.365,0,0,0,7-3.935ZM12.186-.4,10.94,2.142H9.969L10.55-.481V-1.834h1.635Zm9.488.4h-7.5V-1.121l3.793-4.524A11.4,11.4,0,0,0,19.337-7.6,3.262,3.262,0,0,0,19.7-9.064a1.956,1.956,0,0,0-.49-1.374,1.742,1.742,0,0,0-1.353-.535,2.027,2.027,0,0,0-1.631.656,2.429,2.429,0,0,0-.56,1.635H14.086l-.017-.05a3.26,3.26,0,0,1,.988-2.5,3.789,3.789,0,0,1,2.8-1.025,3.517,3.517,0,0,1,2.548.9,3.074,3.074,0,0,1,.93,2.316,3.694,3.694,0,0,1-.527,1.868A20.838,20.838,0,0,1,19.2-4.889L16.153-1.32l.017.042h5.5Z" transform="translate(421 3159)" fill="#00104e"/>
    <path id="Trazado_29949" data-name="Trazado 29949" d="M8.749,0h-7.5V-1.121L5.039-5.645A11.4,11.4,0,0,0,6.412-7.6a3.262,3.262,0,0,0,.361-1.465,1.956,1.956,0,0,0-.49-1.374,1.742,1.742,0,0,0-1.353-.535,2.027,2.027,0,0,0-1.631.656,2.429,2.429,0,0,0-.56,1.635H1.162l-.017-.05a3.26,3.26,0,0,1,.988-2.5,3.789,3.789,0,0,1,2.8-1.025,3.517,3.517,0,0,1,2.548.9,3.074,3.074,0,0,1,.93,2.316A3.694,3.694,0,0,1,7.882-7.18,20.838,20.838,0,0,1,6.275-4.889L3.229-1.32l.017.042h5.5Zm3.437-.4L10.94,2.142H9.969L10.55-.481V-1.834h1.635Zm9.488.4h-7.5V-1.121l3.793-4.524A11.4,11.4,0,0,0,19.337-7.6,3.262,3.262,0,0,0,19.7-9.064a1.956,1.956,0,0,0-.49-1.374,1.742,1.742,0,0,0-1.353-.535,2.027,2.027,0,0,0-1.631.656,2.429,2.429,0,0,0-.56,1.635H14.086l-.017-.05a3.26,3.26,0,0,1,.988-2.5,3.789,3.789,0,0,1,2.8-1.025,3.517,3.517,0,0,1,2.548.9,3.074,3.074,0,0,1,.93,2.316,3.694,3.694,0,0,1-.527,1.868A20.838,20.838,0,0,1,19.2-4.889L16.153-1.32l.017.042h5.5Z" transform="translate(421 3237)" fill="#00104e"/>
    <path id="Trazado_29940" data-name="Trazado 29940" d="M5.894,0H4.25V-10.575l-2.631.025v-1.262l4.275-.448Zm6.292-.4L10.94,2.142H9.969L10.55-.481V-1.834h1.635Zm9.488.4h-7.5V-1.121l3.793-4.524A11.4,11.4,0,0,0,19.337-7.6,3.262,3.262,0,0,0,19.7-9.064a1.956,1.956,0,0,0-.49-1.374,1.742,1.742,0,0,0-1.353-.535,2.027,2.027,0,0,0-1.631.656,2.429,2.429,0,0,0-.56,1.635H14.086l-.017-.05a3.26,3.26,0,0,1,.988-2.5,3.789,3.789,0,0,1,2.8-1.025,3.517,3.517,0,0,1,2.548.9,3.074,3.074,0,0,1,.93,2.316,3.694,3.694,0,0,1-.527,1.868A20.838,20.838,0,0,1,19.2-4.889L16.153-1.32l.017.042h5.5Z" transform="translate(421 3198)" fill="#00104e"/>
    <path id="Trazado_29957" data-name="Trazado 29957" d="M4.806-6.873a1.916,1.916,0,0,0,1.548-.544A2.316,2.316,0,0,0,6.807-8.94a2.146,2.146,0,0,0-.494-1.473,1.85,1.85,0,0,0-1.465-.56,2.186,2.186,0,0,0-1.565.585,1.933,1.933,0,0,0-.618,1.465H1.1l-.025-.05A2.888,2.888,0,0,1,2.108-11.3a3.941,3.941,0,0,1,2.739-.963,3.828,3.828,0,0,1,2.64.851,3.178,3.178,0,0,1,.955,2.5A2.815,2.815,0,0,1,8-7.363,2.994,2.994,0,0,1,6.757-6.275a2.856,2.856,0,0,1,1.39,1.108,3.255,3.255,0,0,1,.477,1.8,3.317,3.317,0,0,1-1.05,2.6A3.928,3.928,0,0,1,4.848.174,4.318,4.318,0,0,1,2.129-.735,2.784,2.784,0,0,1,1-3.138l.017-.05H2.573a1.961,1.961,0,0,0,.635,1.482,2.286,2.286,0,0,0,1.639.6,2.033,2.033,0,0,0,1.569-.618,2.282,2.282,0,0,0,.573-1.615,2.416,2.416,0,0,0-.527-1.7A2.169,2.169,0,0,0,4.806-5.6H3.461v-1.27ZM12.186-.4,10.94,2.142H9.969L10.55-.481V-1.834h1.635Zm9.488.4h-7.5V-1.121l3.793-4.524A11.4,11.4,0,0,0,19.337-7.6,3.262,3.262,0,0,0,19.7-9.064a1.956,1.956,0,0,0-.49-1.374,1.742,1.742,0,0,0-1.353-.535,2.027,2.027,0,0,0-1.631.656,2.429,2.429,0,0,0-.56,1.635H14.086l-.017-.05a3.26,3.26,0,0,1,.988-2.5,3.789,3.789,0,0,1,2.8-1.025,3.517,3.517,0,0,1,2.548.9,3.074,3.074,0,0,1,.93,2.316,3.694,3.694,0,0,1-.527,1.868A20.838,20.838,0,0,1,19.2-4.889L16.153-1.32l.017.042h5.5Z" transform="translate(421 3276)" fill="#00104e"/>
    <path id="Trazado_29965" data-name="Trazado 29965" d="M7.413-4.067H9.081v1.278H7.413V0H5.786V-2.789H.6V-3.71l5.088-8.375H7.413Zm-5.063,0H5.786V-9.737l-.05-.008-.158.415ZM12.186-.4,10.94,2.142H9.969L10.55-.481V-1.834h1.635Zm9.488.4h-7.5V-1.121l3.793-4.524A11.4,11.4,0,0,0,19.337-7.6,3.262,3.262,0,0,0,19.7-9.064a1.956,1.956,0,0,0-.49-1.374,1.742,1.742,0,0,0-1.353-.535,2.027,2.027,0,0,0-1.631.656,2.429,2.429,0,0,0-.56,1.635H14.086l-.017-.05a3.26,3.26,0,0,1,.988-2.5,3.789,3.789,0,0,1,2.8-1.025,3.517,3.517,0,0,1,2.548.9,3.074,3.074,0,0,1,.93,2.316,3.694,3.694,0,0,1-.527,1.868A20.838,20.838,0,0,1,19.2-4.889L16.153-1.32l.017.042h5.5Z" transform="translate(421 3315)" fill="#00104e"/>
    <path id="Trazado_29941" data-name="Trazado 29941" d="M8.633-4.267A4.77,4.77,0,0,1,7.591-1.021a3.528,3.528,0,0,1-2.8,1.2,3.544,3.544,0,0,1-2.8-1.2A4.745,4.745,0,0,1,.938-4.267V-7.819A4.776,4.776,0,0,1,1.98-11.057a3.507,3.507,0,0,1,2.793-1.2,3.542,3.542,0,0,1,2.81,1.2,4.752,4.752,0,0,1,1.05,3.237ZM7-8.16a3.3,3.3,0,0,0-.581-2.059,1.953,1.953,0,0,0-1.644-.755,1.921,1.921,0,0,0-1.627.755A3.331,3.331,0,0,0,2.573-8.16v4.225a3.317,3.317,0,0,0,.585,2.067A1.938,1.938,0,0,0,4.79-1.1a1.926,1.926,0,0,0,1.635-.76A3.365,3.365,0,0,0,7-3.935ZM12.186-.4,10.94,2.142H9.969L10.55-.481V-1.834h1.635ZM17.73-6.873a1.916,1.916,0,0,0,1.548-.544,2.316,2.316,0,0,0,.452-1.523,2.146,2.146,0,0,0-.494-1.473,1.85,1.85,0,0,0-1.465-.56,2.186,2.186,0,0,0-1.565.585,1.933,1.933,0,0,0-.618,1.465H14.028L14-8.973A2.888,2.888,0,0,1,15.033-11.3a3.941,3.941,0,0,1,2.739-.963,3.828,3.828,0,0,1,2.64.851,3.178,3.178,0,0,1,.955,2.5,2.815,2.815,0,0,1-.444,1.544,2.994,2.994,0,0,1-1.241,1.087,2.856,2.856,0,0,1,1.39,1.108,3.255,3.255,0,0,1,.477,1.8,3.317,3.317,0,0,1-1.05,2.6,3.928,3.928,0,0,1-2.727.942,4.318,4.318,0,0,1-2.719-.909,2.784,2.784,0,0,1-1.133-2.4l.017-.05H15.5a1.961,1.961,0,0,0,.635,1.482,2.286,2.286,0,0,0,1.639.6,2.033,2.033,0,0,0,1.569-.618,2.282,2.282,0,0,0,.573-1.615,2.416,2.416,0,0,0-.527-1.7A2.169,2.169,0,0,0,17.73-5.6H16.386v-1.27Z" transform="translate(490 3159)" fill="#00104e"/>
    <path id="Trazado_29950" data-name="Trazado 29950" d="M8.749,0h-7.5V-1.121L5.039-5.645A11.4,11.4,0,0,0,6.412-7.6a3.262,3.262,0,0,0,.361-1.465,1.956,1.956,0,0,0-.49-1.374,1.742,1.742,0,0,0-1.353-.535,2.027,2.027,0,0,0-1.631.656,2.429,2.429,0,0,0-.56,1.635H1.162l-.017-.05a3.26,3.26,0,0,1,.988-2.5,3.789,3.789,0,0,1,2.8-1.025,3.517,3.517,0,0,1,2.548.9,3.074,3.074,0,0,1,.93,2.316A3.694,3.694,0,0,1,7.882-7.18,20.838,20.838,0,0,1,6.275-4.889L3.229-1.32l.017.042h5.5Zm3.437-.4L10.94,2.142H9.969L10.55-.481V-1.834h1.635ZM17.73-6.873a1.916,1.916,0,0,0,1.548-.544,2.316,2.316,0,0,0,.452-1.523,2.146,2.146,0,0,0-.494-1.473,1.85,1.85,0,0,0-1.465-.56,2.186,2.186,0,0,0-1.565.585,1.933,1.933,0,0,0-.618,1.465H14.028L14-8.973A2.888,2.888,0,0,1,15.033-11.3a3.941,3.941,0,0,1,2.739-.963,3.828,3.828,0,0,1,2.64.851,3.178,3.178,0,0,1,.955,2.5,2.815,2.815,0,0,1-.444,1.544,2.994,2.994,0,0,1-1.241,1.087,2.856,2.856,0,0,1,1.39,1.108,3.255,3.255,0,0,1,.477,1.8,3.317,3.317,0,0,1-1.05,2.6,3.928,3.928,0,0,1-2.727.942,4.318,4.318,0,0,1-2.719-.909,2.784,2.784,0,0,1-1.133-2.4l.017-.05H15.5a1.961,1.961,0,0,0,.635,1.482,2.286,2.286,0,0,0,1.639.6,2.033,2.033,0,0,0,1.569-.618,2.282,2.282,0,0,0,.573-1.615,2.416,2.416,0,0,0-.527-1.7A2.169,2.169,0,0,0,17.73-5.6H16.386v-1.27Z" transform="translate(490 3237)" fill="#00104e"/>
    <path id="Trazado_29942" data-name="Trazado 29942" d="M5.894,0H4.25V-10.575l-2.631.025v-1.262l4.275-.448Zm6.292-.4L10.94,2.142H9.969L10.55-.481V-1.834h1.635ZM17.73-6.873a1.916,1.916,0,0,0,1.548-.544,2.316,2.316,0,0,0,.452-1.523,2.146,2.146,0,0,0-.494-1.473,1.85,1.85,0,0,0-1.465-.56,2.186,2.186,0,0,0-1.565.585,1.933,1.933,0,0,0-.618,1.465H14.028L14-8.973A2.888,2.888,0,0,1,15.033-11.3a3.941,3.941,0,0,1,2.739-.963,3.828,3.828,0,0,1,2.64.851,3.178,3.178,0,0,1,.955,2.5,2.815,2.815,0,0,1-.444,1.544,2.994,2.994,0,0,1-1.241,1.087,2.856,2.856,0,0,1,1.39,1.108,3.255,3.255,0,0,1,.477,1.8,3.317,3.317,0,0,1-1.05,2.6,3.928,3.928,0,0,1-2.727.942,4.318,4.318,0,0,1-2.719-.909,2.784,2.784,0,0,1-1.133-2.4l.017-.05H15.5a1.961,1.961,0,0,0,.635,1.482,2.286,2.286,0,0,0,1.639.6,2.033,2.033,0,0,0,1.569-.618,2.282,2.282,0,0,0,.573-1.615,2.416,2.416,0,0,0-.527-1.7A2.169,2.169,0,0,0,17.73-5.6H16.386v-1.27Z" transform="translate(490 3198)" fill="#00104e"/>
    <path id="Trazado_29958" data-name="Trazado 29958" d="M4.806-6.873a1.916,1.916,0,0,0,1.548-.544A2.316,2.316,0,0,0,6.807-8.94a2.146,2.146,0,0,0-.494-1.473,1.85,1.85,0,0,0-1.465-.56,2.186,2.186,0,0,0-1.565.585,1.933,1.933,0,0,0-.618,1.465H1.1l-.025-.05A2.888,2.888,0,0,1,2.108-11.3a3.941,3.941,0,0,1,2.739-.963,3.828,3.828,0,0,1,2.64.851,3.178,3.178,0,0,1,.955,2.5A2.815,2.815,0,0,1,8-7.363,2.994,2.994,0,0,1,6.757-6.275a2.856,2.856,0,0,1,1.39,1.108,3.255,3.255,0,0,1,.477,1.8,3.317,3.317,0,0,1-1.05,2.6A3.928,3.928,0,0,1,4.848.174,4.318,4.318,0,0,1,2.129-.735,2.784,2.784,0,0,1,1-3.138l.017-.05H2.573a1.961,1.961,0,0,0,.635,1.482,2.286,2.286,0,0,0,1.639.6,2.033,2.033,0,0,0,1.569-.618,2.282,2.282,0,0,0,.573-1.615,2.416,2.416,0,0,0-.527-1.7A2.169,2.169,0,0,0,4.806-5.6H3.461v-1.27ZM12.186-.4,10.94,2.142H9.969L10.55-.481V-1.834h1.635ZM17.73-6.873a1.916,1.916,0,0,0,1.548-.544,2.316,2.316,0,0,0,.452-1.523,2.146,2.146,0,0,0-.494-1.473,1.85,1.85,0,0,0-1.465-.56,2.186,2.186,0,0,0-1.565.585,1.933,1.933,0,0,0-.618,1.465H14.028L14-8.973A2.888,2.888,0,0,1,15.033-11.3a3.941,3.941,0,0,1,2.739-.963,3.828,3.828,0,0,1,2.64.851,3.178,3.178,0,0,1,.955,2.5,2.815,2.815,0,0,1-.444,1.544,2.994,2.994,0,0,1-1.241,1.087,2.856,2.856,0,0,1,1.39,1.108,3.255,3.255,0,0,1,.477,1.8,3.317,3.317,0,0,1-1.05,2.6,3.928,3.928,0,0,1-2.727.942,4.318,4.318,0,0,1-2.719-.909,2.784,2.784,0,0,1-1.133-2.4l.017-.05H15.5a1.961,1.961,0,0,0,.635,1.482,2.286,2.286,0,0,0,1.639.6,2.033,2.033,0,0,0,1.569-.618,2.282,2.282,0,0,0,.573-1.615,2.416,2.416,0,0,0-.527-1.7A2.169,2.169,0,0,0,17.73-5.6H16.386v-1.27Z" transform="translate(490 3276)" fill="#00104e"/>
    <path id="Trazado_29966" data-name="Trazado 29966" d="M7.413-4.067H9.081v1.278H7.413V0H5.786V-2.789H.6V-3.71l5.088-8.375H7.413Zm-5.063,0H5.786V-9.737l-.05-.008-.158.415ZM12.186-.4,10.94,2.142H9.969L10.55-.481V-1.834h1.635ZM17.73-6.873a1.916,1.916,0,0,0,1.548-.544,2.316,2.316,0,0,0,.452-1.523,2.146,2.146,0,0,0-.494-1.473,1.85,1.85,0,0,0-1.465-.56,2.186,2.186,0,0,0-1.565.585,1.933,1.933,0,0,0-.618,1.465H14.028L14-8.973A2.888,2.888,0,0,1,15.033-11.3a3.941,3.941,0,0,1,2.739-.963,3.828,3.828,0,0,1,2.64.851,3.178,3.178,0,0,1,.955,2.5,2.815,2.815,0,0,1-.444,1.544,2.994,2.994,0,0,1-1.241,1.087,2.856,2.856,0,0,1,1.39,1.108,3.255,3.255,0,0,1,.477,1.8,3.317,3.317,0,0,1-1.05,2.6,3.928,3.928,0,0,1-2.727.942,4.318,4.318,0,0,1-2.719-.909,2.784,2.784,0,0,1-1.133-2.4l.017-.05H15.5a1.961,1.961,0,0,0,.635,1.482,2.286,2.286,0,0,0,1.639.6,2.033,2.033,0,0,0,1.569-.618,2.282,2.282,0,0,0,.573-1.615,2.416,2.416,0,0,0-.527-1.7A2.169,2.169,0,0,0,17.73-5.6H16.386v-1.27Z" transform="translate(490 3315)" fill="#00104e"/>
  </g>
</svg>
