<svg xmlns="http://www.w3.org/2000/svg" width="136" height="136" viewBox="0 0 136 136">
  <g id="Grupo_31022" data-name="Grupo 31022" transform="translate(-879 -1180)">
    <g id="Elipse_1616" data-name="Elipse 1616" transform="translate(879 1180)" fill="#f3f9ff" stroke="#039be5" stroke-width="5">
      <circle cx="68" cy="68" r="68" stroke="none"/>
      <circle cx="68" cy="68" r="65.5" fill="none"/>
    </g>
    <path id="rubik" d="M78.3,23.65a1.114,1.114,0,0,0-.345-.326L67.32,17.185,56.683,11.04,46.045,4.9a1.123,1.123,0,0,0-1.121,0L34.286,11.04,23.648,17.185,13.011,23.324a1.123,1.123,0,0,0-.561.971V61.143a1.123,1.123,0,0,0,.561.971l10.638,6.141L34.286,74.4l10.638,6.142a1.123,1.123,0,0,0,1.121,0L56.683,74.4,67.32,68.255l10.638-6.141a1.123,1.123,0,0,0,.561-.971V24.3A1.109,1.109,0,0,0,78.3,23.65ZM76.276,38.52v9.692l-8.395,4.846V43.366l5.186-2.994ZM14.693,35.93V26.238l8.395,4.847v9.692l-3.209-1.853Zm61.583,0L71.09,38.924l-3.209,1.853V31.084l8.395-4.847ZM28.911,34.446l4.814,2.781v9.69L25.33,42.072V32.379Zm-2.459-4.011,8.395-4.845,8.395,4.845-8.395,4.85-4.966-2.866Zm34.634,1.982-4.964,2.868-8.395-4.85,8.395-4.845,8.395,4.845Zm-15.6,9.007L37.09,36.579l8.395-4.849,8.395,4.849Zm-9.516,6.789V38.522l8.395,4.845v9.692Zm10.638-4.847L55,38.522v9.691l-8.395,4.846ZM65.638,32.379v9.693l-8.395,4.846v-9.69l4.814-2.781ZM45.484,29.14,37.09,24.3l8.395-4.845L53.879,24.3ZM25.33,44.661l8.395,4.847V59.2L25.33,54.354ZM35.968,60.5V50.8l8.395,4.846V65.34Zm10.638-4.847L55,50.8V60.5L46.606,65.34Zm10.638-6.141,8.395-4.847v9.692L57.243,59.2ZM14.693,38.52,17.9,40.372l5.186,2.994v9.692l-8.395-4.846ZM66.76,29.14,58.365,24.3l8.395-4.845L75.154,24.3ZM56.122,23l-8.395-4.845,8.395-4.85,8.395,4.85ZM45.484,7.167l8.395,4.845-8.395,4.85-8.395-4.85ZM34.847,13.305l8.395,4.85L34.847,23l-8.395-4.845ZM24.209,19.451,32.6,24.3,24.209,29.14,15.814,24.3ZM14.693,50.8l8.395,4.846V65.34L14.693,60.5ZM25.33,56.945l8.395,4.846v9.693L25.33,66.638Zm10.638,6.141,8.395,4.847v9.692l-8.395-4.847Zm10.638,4.847L55,63.086v9.692l-8.395,4.847Zm10.638-6.142,8.395-4.846v9.692l-8.395,4.847ZM67.881,65.34V55.649L76.276,50.8V60.5Z" transform="translate(901.55 1205.469)" fill="#039be5"/>
  </g>
</svg>
