<svg xmlns="http://www.w3.org/2000/svg" width="898" height="186" viewBox="0 0 898 186">
  <g id="Grupo_31023" data-name="Grupo 31023" transform="translate(-234 -1581)">
    <path id="Trazado_29440" data-name="Trazado 29440" d="M10,0H888a10,10,0,0,1,10,10V176a10,10,0,0,1-10,10H10A10,10,0,0,1,0,176V10A10,10,0,0,1,10,0Z" transform="translate(234 1581)" fill="#ecfafc"/>
    <g id="Grupo_30538" data-name="Grupo 30538" transform="translate(60 -22)">
      <text id="_1" data-name="1" transform="translate(389 1655)" fill="#039be5" font-size="18" font-family="Roboto-Bold, Roboto" font-weight="700"><tspan x="-5.164" y="0">1</tspan></text>
      <text id="_0" data-name="0" transform="translate(322 1655)" fill="#039be5" font-size="18" font-family="Roboto-Bold, Roboto" font-weight="700"><tspan x="-5.164" y="0">0</tspan></text>
      <text id="_2" data-name="2" transform="translate(456 1655)" fill="#039be5" font-size="18" font-family="Roboto-Bold, Roboto" font-weight="700"><tspan x="-5.164" y="0">2</tspan></text>
      <text id="_3" data-name="3" transform="translate(523 1655)" fill="#039be5" font-size="18" font-family="Roboto-Bold, Roboto" font-weight="700"><tspan x="-5.164" y="0">3</tspan></text>
      <text id="_4" data-name="4" transform="translate(590 1655)" fill="#039be5" font-size="18" font-family="Roboto-Bold, Roboto" font-weight="700"><tspan x="-5.164" y="0">4</tspan></text>
      <text id="_5" data-name="5" transform="translate(657 1655)" fill="#039be5" font-size="18" font-family="Roboto-Bold, Roboto" font-weight="700"><tspan x="-5.164" y="0">5</tspan></text>
      <text id="_6" data-name="6" transform="translate(724 1655)" fill="#039be5" font-size="18" font-family="Roboto-Bold, Roboto" font-weight="700"><tspan x="-5.164" y="0">6</tspan></text>
      <text id="_7" data-name="7" transform="translate(791 1655)" fill="#039be5" font-size="18" font-family="Roboto-Bold, Roboto" font-weight="700"><tspan x="-5.164" y="0">7</tspan></text>
      <text id="_8" data-name="8" transform="translate(858 1655)" fill="#039be5" font-size="18" font-family="Roboto-Bold, Roboto" font-weight="700"><tspan x="-5.164" y="0">8</tspan></text>
      <text id="_9" data-name="9" transform="translate(925 1655)" fill="#039be5" font-size="18" font-family="Roboto-Bold, Roboto" font-weight="700"><tspan x="-5.164" y="0">9</tspan></text>
      <g id="Rectángulo_6753" data-name="Rectángulo 6753" transform="translate(625 1665) rotate(90)" fill="#fff" stroke="#039be5" stroke-width="3">
        <rect width="70" height="70" stroke="none"/>
        <rect x="1.5" y="1.5" width="67" height="67" fill="none"/>
      </g>
      <g id="Rectángulo_6764" data-name="Rectángulo 6764" transform="translate(960 1665) rotate(90)" fill="#fff" stroke="#039be5" stroke-width="3">
        <rect width="70" height="70" stroke="none"/>
        <rect x="1.5" y="1.5" width="67" height="67" fill="none"/>
      </g>
      <g id="Rectángulo_6756" data-name="Rectángulo 6756" transform="translate(491 1665) rotate(90)" fill="#fff" stroke="#039be5" stroke-width="3">
        <rect width="70" height="70" stroke="none"/>
        <rect x="1.5" y="1.5" width="67" height="67" fill="none"/>
      </g>
      <g id="Rectángulo_6766" data-name="Rectángulo 6766" transform="translate(826 1665) rotate(90)" fill="#fff" stroke="#039be5" stroke-width="3">
        <rect width="70" height="70" stroke="none"/>
        <rect x="1.5" y="1.5" width="67" height="67" fill="none"/>
      </g>
      <g id="Rectángulo_6758" data-name="Rectángulo 6758" transform="translate(357 1665) rotate(90)" fill="#fff" stroke="#039be5" stroke-width="3">
        <rect width="70" height="70" stroke="none"/>
        <rect x="1.5" y="1.5" width="67" height="67" fill="none"/>
      </g>
      <g id="Rectángulo_6768" data-name="Rectángulo 6768" transform="translate(692 1665) rotate(90)" fill="#fff" stroke="#039be5" stroke-width="3">
        <rect width="70" height="70" stroke="none"/>
        <rect x="1.5" y="1.5" width="67" height="67" fill="none"/>
      </g>
      <g id="Rectángulo_6754" data-name="Rectángulo 6754" transform="translate(558 1665) rotate(90)" fill="#fff" stroke="#039be5" stroke-width="3">
        <rect width="70" height="70" stroke="none"/>
        <rect x="1.5" y="1.5" width="67" height="67" fill="none"/>
      </g>
      <g id="Rectángulo_6765" data-name="Rectángulo 6765" transform="translate(893 1665) rotate(90)" fill="#fff" stroke="#039be5" stroke-width="3">
        <rect width="70" height="70" stroke="none"/>
        <rect x="1.5" y="1.5" width="67" height="67" fill="none"/>
      </g>
      <g id="Rectángulo_6755" data-name="Rectángulo 6755" transform="translate(424 1665) rotate(90)" fill="#fff" stroke="#039be5" stroke-width="3">
        <rect width="70" height="70" stroke="none"/>
        <rect x="1.5" y="1.5" width="67" height="67" fill="none"/>
      </g>
      <g id="Rectángulo_6767" data-name="Rectángulo 6767" transform="translate(759 1665) rotate(90)" fill="#fff" stroke="#039be5" stroke-width="3">
        <rect width="70" height="70" stroke="none"/>
        <rect x="1.5" y="1.5" width="67" height="67" fill="none"/>
      </g>
    </g>
  </g>
</svg>
