<svg xmlns="http://www.w3.org/2000/svg" width="496.5" height="344" viewBox="0 0 496.5 344">
  <g id="Grupo_30435" data-name="Grupo 30435" transform="translate(-409 -2095)">
    <path id="Trazado_29770" data-name="Trazado 29770" d="M6.064,20.662a4.213,4.213,0,0,1-3.052-1.245,4.113,4.113,0,0,1-1.274-3.062,4.354,4.354,0,0,1,.571-2.129,4.009,4.009,0,0,1,1.592-1.6,4.287,4.287,0,0,1,4.326.039A3.963,3.963,0,0,1,9.81,14.3a4.446,4.446,0,0,1,.532,2.056A4.19,4.19,0,0,1,9.1,19.388,4.079,4.079,0,0,1,6.064,20.662ZM18.193,22V7.781H23.4a5.8,5.8,0,0,1,4.2,1.636,5.583,5.583,0,0,1,1.689,4.194V16.17a5.579,5.579,0,0,1-1.689,4.2A5.809,5.809,0,0,1,23.4,22Zm3.3-11.68v9.141h1.9a2.262,2.262,0,0,0,1.851-.918,3.705,3.705,0,0,0,.728-2.373V13.592a3.673,3.673,0,0,0-.728-2.354A2.262,2.262,0,0,0,23.4,10.32ZM35.752,22.205a4.906,4.906,0,0,1-3.765-1.455,5.174,5.174,0,0,1-1.362-3.682V16.7a5.912,5.912,0,0,1,1.284-3.945,4.562,4.562,0,0,1,3.716-1.514,4.279,4.279,0,0,1,3.315,1.279,4.98,4.98,0,0,1,1.177,3.506v1.729H34.063l-.02.059a2.052,2.052,0,0,0,.615,1.343,2.148,2.148,0,0,0,1.543.513,6.687,6.687,0,0,0,1.577-.156,9.942,9.942,0,0,0,1.44-.5l.791,2.012a6.04,6.04,0,0,1-1.836.84A8.473,8.473,0,0,1,35.752,22.205Zm-.127-8.428a1.362,1.362,0,0,0-1.167.5,2.523,2.523,0,0,0-.435,1.362l.02.049h2.852v-.254a2.2,2.2,0,0,0-.288-1.24A1.1,1.1,0,0,0,35.625,13.777ZM42.266,22V13.719H40.732V11.434h1.533v-.508a4.056,4.056,0,0,1,1.3-3.237,5.459,5.459,0,0,1,3.691-1.128,9.152,9.152,0,0,1,1.631.146q.811.146,1.807.42l-.449,2.6q-.84-.215-1.4-.322a7.574,7.574,0,0,0-1.392-.107,2.064,2.064,0,0,0-1.4.425,1.513,1.513,0,0,0-.488,1.206v.508h2.07v2.285h-2.07V22Zm9.941,0H48.9V11.434h3.311Zm5.059-10.566.127,1.484a3.825,3.825,0,0,1,1.279-1.235,3.31,3.31,0,0,1,1.7-.444A2.979,2.979,0,0,1,62.8,12.293a5.218,5.218,0,0,1,.874,3.35V22h-3.3V15.633a2.421,2.421,0,0,0-.322-1.431,1.1,1.1,0,0,0-.937-.425,2.32,2.32,0,0,0-.947.186,1.891,1.891,0,0,0-.7.527V22H54.17V11.434ZM68.926,22H65.615V11.434h3.311Zm0-13.018H65.615V6.766h3.311Zm7.861,5.264-1.074-.01a1.829,1.829,0,0,0-.928.21,1.3,1.3,0,0,0-.537.591V22h-3.3V11.434h3.105l.117,1.553a3.186,3.186,0,0,1,.879-1.289,1.929,1.929,0,0,1,1.279-.459,2.454,2.454,0,0,1,.4.029,3.029,3.029,0,0,1,.371.088ZM86.436,22H83.125V6.766h3.311Zm8.125-.01a3.987,3.987,0,0,1-.317-.752,5.765,5.765,0,0,1-.2-.879,4.038,4.038,0,0,1-1.06,1.343,2.558,2.558,0,0,1-1.646.5,3.659,3.659,0,0,1-2.583-.854,3.019,3.019,0,0,1-.923-2.329,2.817,2.817,0,0,1,1.182-2.427A6.126,6.126,0,0,1,92.6,15.74h1.357v-.752a1.505,1.505,0,0,0-.322-1.035,1.255,1.255,0,0,0-.986-.361,1.19,1.19,0,0,0-.854.269,1.114,1.114,0,0,0-.278.835l-3.2-.01-.02-.059A2.756,2.756,0,0,1,89.5,12.21a5.4,5.4,0,0,1,3.364-.972,4.921,4.921,0,0,1,3.179.977,3.375,3.375,0,0,1,1.216,2.793v3.984a8.129,8.129,0,0,0,.142,1.563A8.367,8.367,0,0,0,97.822,22Zm-2.324-2.139a2.011,2.011,0,0,0,1.069-.283,1.621,1.621,0,0,0,.649-.674V17.5H92.627a1.492,1.492,0,0,0-1.143.381,1.37,1.37,0,0,0-.352.967.935.935,0,0,0,.308.728A1.141,1.141,0,0,0,92.236,19.852Zm12.334-.82a.862.862,0,0,0-.444-.7,4.792,4.792,0,0,0-1.616-.552,6.38,6.38,0,0,1-2.783-1.118,2.533,2.533,0,0,1-.937-2.085,2.971,2.971,0,0,1,1.172-2.368,4.82,4.82,0,0,1,3.174-.972,5.45,5.45,0,0,1,3.359.942,2.771,2.771,0,0,1,1.191,2.437l-.02.059h-3.2a1.309,1.309,0,0,0-.312-.947,1.383,1.383,0,0,0-1.025-.322,1.341,1.341,0,0,0-.869.283.888.888,0,0,0-.352.723.86.86,0,0,0,.405.713,4.584,4.584,0,0,0,1.636.527,6.571,6.571,0,0,1,2.871,1.138,2.609,2.609,0,0,1,.928,2.144,2.8,2.8,0,0,1-1.265,2.349,5.547,5.547,0,0,1-3.345.923,5.016,5.016,0,0,1-3.413-1.094,3.013,3.013,0,0,1-1.2-2.441l.02-.059h2.988a1.325,1.325,0,0,0,.454,1.084,2,2,0,0,0,1.235.332,1.649,1.649,0,0,0,1.006-.259A.87.87,0,0,0,104.57,19.031Zm19.492-2.09a6.243,6.243,0,0,1-1.074,3.823,3.556,3.556,0,0,1-3.027,1.44,2.882,2.882,0,0,1-2.383-1.143v5h-3.3V11.434h3.115l.1,1.152a3.211,3.211,0,0,1,1.05-1,2.757,2.757,0,0,1,1.4-.352,3.518,3.518,0,0,1,3.042,1.514,6.719,6.719,0,0,1,1.079,3.984Zm-3.291-.205a4.989,4.989,0,0,0-.391-2.148,1.3,1.3,0,0,0-1.25-.811,1.986,1.986,0,0,0-.942.205,1.513,1.513,0,0,0-.61.6v4.414a1.414,1.414,0,0,0,.62.508,2.411,2.411,0,0,0,.952.166,1.3,1.3,0,0,0,1.245-.718,4.388,4.388,0,0,0,.376-2.007Zm10.85,5.254a3.986,3.986,0,0,1-.317-.752,5.766,5.766,0,0,1-.2-.879,4.037,4.037,0,0,1-1.06,1.343,2.558,2.558,0,0,1-1.646.5,3.659,3.659,0,0,1-2.583-.854,3.019,3.019,0,0,1-.923-2.329,2.817,2.817,0,0,1,1.182-2.427,6.126,6.126,0,0,1,3.584-.854h1.357v-.752a1.505,1.505,0,0,0-.322-1.035,1.255,1.255,0,0,0-.986-.361,1.19,1.19,0,0,0-.854.269,1.114,1.114,0,0,0-.278.835l-3.2-.01-.02-.059a2.756,2.756,0,0,1,1.206-2.417,5.4,5.4,0,0,1,3.364-.972,4.921,4.921,0,0,1,3.179.977,3.375,3.375,0,0,1,1.216,2.793v3.984a8.128,8.128,0,0,0,.142,1.563A8.369,8.369,0,0,0,134.883,22ZM129.3,19.852a2.011,2.011,0,0,0,1.069-.283,1.621,1.621,0,0,0,.649-.674V17.5h-1.328a1.492,1.492,0,0,0-1.143.381,1.37,1.37,0,0,0-.352.967.935.935,0,0,0,.308.728A1.141,1.141,0,0,0,129.3,19.852Zm12.666-5.605-1.074-.01a1.829,1.829,0,0,0-.928.21,1.3,1.3,0,0,0-.537.591V22h-3.3V11.434h3.105l.117,1.553a3.186,3.186,0,0,1,.879-1.289,1.929,1.929,0,0,1,1.279-.459,2.454,2.454,0,0,1,.4.029,3.028,3.028,0,0,1,.371.088Zm5.166-5.439v2.627h1.67v2.285h-1.67v4.844a1.185,1.185,0,0,0,.229.815.8.8,0,0,0,.62.249,3.318,3.318,0,0,0,.405-.02,3.509,3.509,0,0,0,.386-.078l.225,2.441a7.968,7.968,0,0,1-.9.181,7.236,7.236,0,0,1-.947.054,3.3,3.3,0,0,1-2.476-.869,3.836,3.836,0,0,1-.845-2.754V13.719h-1.475V11.434h1.475V8.807Zm7.959,13.4a4.906,4.906,0,0,1-3.765-1.455,5.174,5.174,0,0,1-1.362-3.682V16.7a5.912,5.912,0,0,1,1.284-3.945,4.562,4.562,0,0,1,3.716-1.514,4.279,4.279,0,0,1,3.315,1.279,4.98,4.98,0,0,1,1.177,3.506v1.729H153.4l-.02.059a2.052,2.052,0,0,0,.615,1.343,2.148,2.148,0,0,0,1.543.513,6.687,6.687,0,0,0,1.577-.156,9.941,9.941,0,0,0,1.44-.5l.791,2.012a6.04,6.04,0,0,1-1.836.84A8.473,8.473,0,0,1,155.088,22.205Zm-.127-8.428a1.362,1.362,0,0,0-1.167.5,2.523,2.523,0,0,0-.435,1.362l.02.049h2.852v-.254a2.2,2.2,0,0,0-.288-1.24A1.1,1.1,0,0,0,154.961,13.777Zm11.4,5.254a.862.862,0,0,0-.444-.7,4.792,4.792,0,0,0-1.616-.552,6.38,6.38,0,0,1-2.783-1.118,2.533,2.533,0,0,1-.937-2.085,2.971,2.971,0,0,1,1.172-2.368,4.82,4.82,0,0,1,3.174-.972,5.45,5.45,0,0,1,3.359.942,2.771,2.771,0,0,1,1.191,2.437l-.02.059h-3.2a1.309,1.309,0,0,0-.312-.947,1.383,1.383,0,0,0-1.025-.322,1.341,1.341,0,0,0-.869.283.888.888,0,0,0-.352.723.86.86,0,0,0,.405.713,4.584,4.584,0,0,0,1.636.527A6.571,6.571,0,0,1,168.6,16.79a2.609,2.609,0,0,1,.928,2.144,2.8,2.8,0,0,1-1.265,2.349,5.547,5.547,0,0,1-3.345.923,5.016,5.016,0,0,1-3.413-1.094,3.013,3.013,0,0,1-1.2-2.441l.02-.059h2.988a1.325,1.325,0,0,0,.454,1.084,2,2,0,0,0,1.235.332,1.649,1.649,0,0,0,1.006-.259A.87.87,0,0,0,166.357,19.031Zm9.268-2.295a6.719,6.719,0,0,1,1.079-3.984,3.518,3.518,0,0,1,3.042-1.514,2.623,2.623,0,0,1,1.323.337,3.5,3.5,0,0,1,1.06.962V6.766h3.3V22h-2.891l-.225-1.289a3.553,3.553,0,0,1-1.118,1.108,2.79,2.79,0,0,1-1.47.386A3.552,3.552,0,0,1,176.7,20.76a6.248,6.248,0,0,1-1.074-3.818Zm3.3.205a4.388,4.388,0,0,0,.376,2.007,1.314,1.314,0,0,0,1.265.718,2.081,2.081,0,0,0,.913-.19,1.636,1.636,0,0,0,.649-.562V14.646a1.8,1.8,0,0,0-.645-.645,1.77,1.77,0,0,0-.9-.225,1.317,1.317,0,0,0-1.27.811,4.989,4.989,0,0,0-.391,2.148Zm13.066,5.264a4.906,4.906,0,0,1-3.765-1.455,5.174,5.174,0,0,1-1.362-3.682V16.7a5.912,5.912,0,0,1,1.284-3.945,4.562,4.562,0,0,1,3.716-1.514,4.279,4.279,0,0,1,3.315,1.279,4.98,4.98,0,0,1,1.177,3.506v1.729H190.3l-.02.059a2.052,2.052,0,0,0,.615,1.343,2.148,2.148,0,0,0,1.543.513,6.687,6.687,0,0,0,1.577-.156,9.941,9.941,0,0,0,1.44-.5l.791,2.012a6.04,6.04,0,0,1-1.836.84A8.473,8.473,0,0,1,191.992,22.205Zm-.127-8.428a1.362,1.362,0,0,0-1.167.5,2.523,2.523,0,0,0-.435,1.362l.02.049h2.852v-.254a2.2,2.2,0,0,0-.288-1.24A1.1,1.1,0,0,0,191.865,13.777ZM201.211,22H197.9V6.766h3.311Zm13.105-.01a3.986,3.986,0,0,1-.317-.752,5.766,5.766,0,0,1-.2-.879,4.037,4.037,0,0,1-1.06,1.343,2.558,2.558,0,0,1-1.646.5,3.659,3.659,0,0,1-2.583-.854,3.019,3.019,0,0,1-.923-2.329,2.817,2.817,0,0,1,1.182-2.427,6.126,6.126,0,0,1,3.584-.854h1.357v-.752a1.505,1.505,0,0,0-.322-1.035,1.255,1.255,0,0,0-.986-.361,1.19,1.19,0,0,0-.854.269,1.114,1.114,0,0,0-.278.835l-3.2-.01-.02-.059a2.756,2.756,0,0,1,1.206-2.417,5.4,5.4,0,0,1,3.364-.972,4.921,4.921,0,0,1,3.179.977,3.375,3.375,0,0,1,1.216,2.793v3.984a8.128,8.128,0,0,0,.142,1.563A8.369,8.369,0,0,0,217.578,22Zm-2.324-2.139a2.011,2.011,0,0,0,1.069-.283,1.621,1.621,0,0,0,.649-.674V17.5h-1.328a1.492,1.492,0,0,0-1.143.381,1.37,1.37,0,0,0-.352.967.935.935,0,0,0,.308.728A1.141,1.141,0,0,0,211.992,19.852ZM222.275,22h-3.311V6.766h3.311Zm1.572-5.264a6.719,6.719,0,0,1,1.079-3.984,3.518,3.518,0,0,1,3.042-1.514,2.712,2.712,0,0,1,1.465.4,3.492,3.492,0,0,1,1.094,1.118l.215-1.318h2.91V21.883a3.913,3.913,0,0,1-1.431,3.237,6.133,6.133,0,0,1-3.94,1.147,7.086,7.086,0,0,1-1.719-.225,9.6,9.6,0,0,1-1.719-.605L225.41,23a7.846,7.846,0,0,0,1.362.464,6.6,6.6,0,0,0,1.489.151,2.443,2.443,0,0,0,1.567-.42,1.618,1.618,0,0,0,.513-1.328v-.82a2.865,2.865,0,0,1-2.393,1.162,3.552,3.552,0,0,1-3.027-1.445,6.248,6.248,0,0,1-1.074-3.818Zm3.291.205a4.388,4.388,0,0,0,.376,2.007,1.322,1.322,0,0,0,1.274.718,2.326,2.326,0,0,0,.923-.166,1.506,1.506,0,0,0,.63-.5V14.559a1.643,1.643,0,0,0-.625-.581,1.928,1.928,0,0,0-.908-.2,1.326,1.326,0,0,0-1.274.815,4.942,4.942,0,0,0-.4,2.144Zm7.959-.322a5.585,5.585,0,0,1,1.348-3.882,5.477,5.477,0,0,1,7.529,0,5.585,5.585,0,0,1,1.348,3.882v.205a5.581,5.581,0,0,1-1.348,3.887,5.49,5.49,0,0,1-7.529,0,5.581,5.581,0,0,1-1.348-3.887Zm3.3.205a4.369,4.369,0,0,0,.415,2.085,1.477,1.477,0,0,0,1.411.757,1.459,1.459,0,0,0,1.387-.762,4.331,4.331,0,0,0,.42-2.08v-.205a4.347,4.347,0,0,0-.42-2.065,1.471,1.471,0,0,0-1.406-.776,1.45,1.45,0,0,0-1.392.781,4.4,4.4,0,0,0-.415,2.061Zm14.219-2.578-1.074-.01a1.829,1.829,0,0,0-.928.21,1.3,1.3,0,0,0-.537.591V22h-3.3V11.434h3.105L250,12.986a3.186,3.186,0,0,1,.879-1.289,1.929,1.929,0,0,1,1.279-.459,2.454,2.454,0,0,1,.4.029,3.028,3.028,0,0,1,.371.088ZM257.285,22h-3.311V11.434h3.311Zm0-13.018h-3.311V6.766h3.311Zm5.811-.176v2.627h1.67v2.285H263.1v4.844a1.185,1.185,0,0,0,.229.815.8.8,0,0,0,.62.249,3.318,3.318,0,0,0,.405-.02,3.508,3.508,0,0,0,.386-.078l.225,2.441a7.968,7.968,0,0,1-.9.181,7.236,7.236,0,0,1-.947.054,3.3,3.3,0,0,1-2.476-.869,3.836,3.836,0,0,1-.845-2.754V13.719H258.32V11.434h1.475V8.807Zm6.377,2.627.117,1.4a3.5,3.5,0,0,1,1.255-1.177,3.546,3.546,0,0,1,1.733-.415,3.23,3.23,0,0,1,1.7.43,2.64,2.64,0,0,1,1.074,1.309,3.547,3.547,0,0,1,1.255-1.284,3.45,3.45,0,0,1,1.792-.454,2.934,2.934,0,0,1,2.427,1.108,5.433,5.433,0,0,1,.884,3.413V22H278.4V15.76a2.744,2.744,0,0,0-.317-1.558,1.112,1.112,0,0,0-.952-.425,1.977,1.977,0,0,0-.845.171,1.782,1.782,0,0,0-.62.474q0,.166.01.288t.01.239V22h-3.3V15.76a2.777,2.777,0,0,0-.312-1.562,1.126,1.126,0,0,0-.967-.42,1.9,1.9,0,0,0-.815.171,1.782,1.782,0,0,0-.62.474V22h-3.3V11.434Zm13.682,5.186a5.585,5.585,0,0,1,1.348-3.882,5.477,5.477,0,0,1,7.529,0,5.585,5.585,0,0,1,1.348,3.882v.205a5.581,5.581,0,0,1-1.348,3.887,5.49,5.49,0,0,1-7.529,0,5.581,5.581,0,0,1-1.348-3.887Zm3.3.205a4.368,4.368,0,0,0,.415,2.085,1.477,1.477,0,0,0,1.411.757,1.459,1.459,0,0,0,1.387-.762,4.331,4.331,0,0,0,.42-2.08v-.205a4.347,4.347,0,0,0-.42-2.065,1.471,1.471,0,0,0-1.406-.776,1.45,1.45,0,0,0-1.392.781,4.4,4.4,0,0,0-.415,2.061Z" transform="translate(498 2139)" fill="#12263f"/>
    <path id="Trazado_29772" data-name="Trazado 29772" d="M6.064,20.662a4.213,4.213,0,0,1-3.052-1.245,4.113,4.113,0,0,1-1.274-3.062,4.354,4.354,0,0,1,.571-2.129,4.009,4.009,0,0,1,1.592-1.6,4.287,4.287,0,0,1,4.326.039A3.963,3.963,0,0,1,9.81,14.3a4.446,4.446,0,0,1,.532,2.056A4.19,4.19,0,0,1,9.1,19.388,4.079,4.079,0,0,1,6.064,20.662Zm15.43-3.535V22h-3.3V7.781h5.43A5.91,5.91,0,0,1,27.637,9.07a4.271,4.271,0,0,1,1.484,3.389,4.256,4.256,0,0,1-1.484,3.384,5.925,5.925,0,0,1-4.014,1.284Zm0-2.539h2.129A2.167,2.167,0,0,0,25.264,14a2.1,2.1,0,0,0,.566-1.519,2.193,2.193,0,0,0-.562-1.553,2.135,2.135,0,0,0-1.646-.605H21.494Zm15.254,7.4a3.986,3.986,0,0,1-.317-.752,5.765,5.765,0,0,1-.2-.879,4.038,4.038,0,0,1-1.06,1.343,2.558,2.558,0,0,1-1.646.5,3.659,3.659,0,0,1-2.583-.854,3.019,3.019,0,0,1-.923-2.329A2.817,2.817,0,0,1,31.2,16.595a6.126,6.126,0,0,1,3.584-.854h1.357v-.752a1.505,1.505,0,0,0-.322-1.035,1.255,1.255,0,0,0-.986-.361,1.19,1.19,0,0,0-.854.269,1.114,1.114,0,0,0-.278.835l-3.2-.01-.02-.059a2.756,2.756,0,0,1,1.206-2.417,5.4,5.4,0,0,1,3.364-.972,4.921,4.921,0,0,1,3.179.977,3.375,3.375,0,0,1,1.216,2.793v3.984a8.128,8.128,0,0,0,.142,1.563A8.368,8.368,0,0,0,40.01,22Zm-2.324-2.139a2.011,2.011,0,0,0,1.069-.283,1.621,1.621,0,0,0,.649-.674V17.5H34.814a1.492,1.492,0,0,0-1.143.381,1.37,1.37,0,0,0-.352.967.935.935,0,0,0,.308.728A1.141,1.141,0,0,0,34.424,19.852Zm12.334-.82a.862.862,0,0,0-.444-.7,4.792,4.792,0,0,0-1.616-.552,6.38,6.38,0,0,1-2.783-1.118,2.533,2.533,0,0,1-.937-2.085,2.971,2.971,0,0,1,1.172-2.368,4.82,4.82,0,0,1,3.174-.972,5.45,5.45,0,0,1,3.359.942,2.771,2.771,0,0,1,1.191,2.437l-.02.059h-3.2a1.309,1.309,0,0,0-.312-.947,1.383,1.383,0,0,0-1.025-.322,1.341,1.341,0,0,0-.869.283.888.888,0,0,0-.352.723.86.86,0,0,0,.405.713,4.584,4.584,0,0,0,1.636.527A6.571,6.571,0,0,1,49,16.79a2.609,2.609,0,0,1,.928,2.144,2.8,2.8,0,0,1-1.265,2.349,5.547,5.547,0,0,1-3.345.923,5.016,5.016,0,0,1-3.413-1.094,3.013,3.013,0,0,1-1.2-2.441l.02-.059h2.988a1.325,1.325,0,0,0,.454,1.084,2,2,0,0,0,1.235.332,1.649,1.649,0,0,0,1.006-.259A.87.87,0,0,0,46.758,19.031Zm4.287-2.412a5.585,5.585,0,0,1,1.348-3.882,5.477,5.477,0,0,1,7.529,0,5.585,5.585,0,0,1,1.348,3.882v.205a5.581,5.581,0,0,1-1.348,3.887,5.49,5.49,0,0,1-7.529,0,5.581,5.581,0,0,1-1.348-3.887Zm3.3.205a4.368,4.368,0,0,0,.415,2.085,1.477,1.477,0,0,0,1.411.757,1.459,1.459,0,0,0,1.387-.762,4.331,4.331,0,0,0,.42-2.08v-.205a4.347,4.347,0,0,0-.42-2.065,1.471,1.471,0,0,0-1.406-.776,1.45,1.45,0,0,0-1.392.781,4.4,4.4,0,0,0-.415,2.061Zm13.887,2.207a.862.862,0,0,0-.444-.7,4.792,4.792,0,0,0-1.616-.552,6.38,6.38,0,0,1-2.783-1.118,2.533,2.533,0,0,1-.937-2.085,2.971,2.971,0,0,1,1.172-2.368,4.82,4.82,0,0,1,3.174-.972,5.45,5.45,0,0,1,3.359.942,2.771,2.771,0,0,1,1.191,2.437l-.02.059h-3.2a1.309,1.309,0,0,0-.312-.947,1.383,1.383,0,0,0-1.025-.322,1.341,1.341,0,0,0-.869.283.888.888,0,0,0-.352.723.86.86,0,0,0,.405.713,4.584,4.584,0,0,0,1.636.527,6.571,6.571,0,0,1,2.871,1.138,2.609,2.609,0,0,1,.928,2.144,2.8,2.8,0,0,1-1.265,2.349,5.547,5.547,0,0,1-3.345.923,5.016,5.016,0,0,1-3.413-1.094,3.013,3.013,0,0,1-1.2-2.441l.02-.059H65.2a1.325,1.325,0,0,0,.454,1.084,2,2,0,0,0,1.235.332,1.649,1.649,0,0,0,1.006-.259A.87.87,0,0,0,68.232,19.031Zm19.492-2.09a6.243,6.243,0,0,1-1.074,3.823,3.556,3.556,0,0,1-3.027,1.44,2.882,2.882,0,0,1-2.383-1.143v5h-3.3V11.434h3.115l.1,1.152a3.211,3.211,0,0,1,1.05-1,2.757,2.757,0,0,1,1.4-.352,3.518,3.518,0,0,1,3.042,1.514,6.719,6.719,0,0,1,1.079,3.984Zm-3.291-.205a4.989,4.989,0,0,0-.391-2.148,1.3,1.3,0,0,0-1.25-.811,1.986,1.986,0,0,0-.942.205,1.513,1.513,0,0,0-.61.6v4.414a1.414,1.414,0,0,0,.62.508,2.411,2.411,0,0,0,.952.166,1.3,1.3,0,0,0,1.245-.718,4.388,4.388,0,0,0,.376-2.007Zm10.85,5.254a3.987,3.987,0,0,1-.317-.752,5.765,5.765,0,0,1-.2-.879,4.038,4.038,0,0,1-1.06,1.343,2.558,2.558,0,0,1-1.646.5,3.659,3.659,0,0,1-2.583-.854,3.019,3.019,0,0,1-.923-2.329,2.817,2.817,0,0,1,1.182-2.427,6.126,6.126,0,0,1,3.584-.854h1.357v-.752a1.505,1.505,0,0,0-.322-1.035,1.255,1.255,0,0,0-.986-.361,1.19,1.19,0,0,0-.854.269,1.114,1.114,0,0,0-.278.835l-3.2-.01-.02-.059A2.756,2.756,0,0,1,90.22,12.21a5.4,5.4,0,0,1,3.364-.972,4.921,4.921,0,0,1,3.179.977,3.375,3.375,0,0,1,1.216,2.793v3.984a8.129,8.129,0,0,0,.142,1.563A8.367,8.367,0,0,0,98.545,22Zm-2.324-2.139a2.011,2.011,0,0,0,1.069-.283,1.621,1.621,0,0,0,.649-.674V17.5H93.35a1.492,1.492,0,0,0-1.143.381,1.37,1.37,0,0,0-.352.967.935.935,0,0,0,.308.728A1.141,1.141,0,0,0,92.959,19.852Zm12.666-5.605-1.074-.01a1.829,1.829,0,0,0-.928.21,1.3,1.3,0,0,0-.537.591V22h-3.3V11.434h3.105l.117,1.553a3.186,3.186,0,0,1,.879-1.289,1.929,1.929,0,0,1,1.279-.459,2.454,2.454,0,0,1,.4.029,3.029,3.029,0,0,1,.371.088Zm7.314,7.744a3.987,3.987,0,0,1-.317-.752,5.765,5.765,0,0,1-.2-.879,4.038,4.038,0,0,1-1.06,1.343,2.558,2.558,0,0,1-1.646.5,3.659,3.659,0,0,1-2.583-.854,3.019,3.019,0,0,1-.923-2.329,2.817,2.817,0,0,1,1.182-2.427,6.126,6.126,0,0,1,3.584-.854h1.357v-.752a1.505,1.505,0,0,0-.322-1.035,1.255,1.255,0,0,0-.986-.361,1.19,1.19,0,0,0-.854.269,1.114,1.114,0,0,0-.278.835l-3.2-.01-.02-.059a2.756,2.756,0,0,1,1.206-2.417,5.4,5.4,0,0,1,3.364-.972,4.921,4.921,0,0,1,3.179.977,3.375,3.375,0,0,1,1.216,2.793v3.984a8.129,8.129,0,0,0,.142,1.563A8.367,8.367,0,0,0,116.2,22Zm-2.324-2.139a2.011,2.011,0,0,0,1.069-.283,1.621,1.621,0,0,0,.649-.674V17.5h-1.328a1.492,1.492,0,0,0-1.143.381,1.37,1.37,0,0,0-.352.967.935.935,0,0,0,.308.728A1.141,1.141,0,0,0,110.615,19.852Zm16.494,2.354a4.906,4.906,0,0,1-3.765-1.455,5.174,5.174,0,0,1-1.362-3.682V16.7a5.912,5.912,0,0,1,1.284-3.945,4.562,4.562,0,0,1,3.716-1.514,4.279,4.279,0,0,1,3.315,1.279,4.98,4.98,0,0,1,1.177,3.506v1.729H125.42l-.02.059a2.052,2.052,0,0,0,.615,1.343,2.148,2.148,0,0,0,1.543.513,6.687,6.687,0,0,0,1.577-.156,9.941,9.941,0,0,0,1.44-.5l.791,2.012a6.04,6.04,0,0,1-1.836.84A8.473,8.473,0,0,1,127.109,22.205Zm-.127-8.428a1.362,1.362,0,0,0-1.167.5,2.523,2.523,0,0,0-.435,1.362l.02.049h2.852v-.254a2.2,2.2,0,0,0-.288-1.24A1.1,1.1,0,0,0,126.982,13.777ZM136.328,22h-3.311V6.766h3.311Zm6.563-5.264a6.719,6.719,0,0,1,1.079-3.984,3.518,3.518,0,0,1,3.042-1.514,2.623,2.623,0,0,1,1.323.337,3.5,3.5,0,0,1,1.06.962V6.766h3.3V22H149.8l-.225-1.289a3.553,3.553,0,0,1-1.118,1.108,2.79,2.79,0,0,1-1.47.386,3.552,3.552,0,0,1-3.027-1.445,6.248,6.248,0,0,1-1.074-3.818Zm3.3.205a4.388,4.388,0,0,0,.376,2.007,1.314,1.314,0,0,0,1.265.718,2.081,2.081,0,0,0,.913-.19,1.636,1.636,0,0,0,.649-.562V14.646A1.8,1.8,0,0,0,148.75,14a1.77,1.77,0,0,0-.9-.225,1.317,1.317,0,0,0-1.27.811,4.989,4.989,0,0,0-.391,2.148Zm13.066,5.264a4.906,4.906,0,0,1-3.765-1.455,5.174,5.174,0,0,1-1.362-3.682V16.7a5.912,5.912,0,0,1,1.284-3.945,4.562,4.562,0,0,1,3.716-1.514,4.279,4.279,0,0,1,3.315,1.279,4.98,4.98,0,0,1,1.177,3.506v1.729h-6.055l-.02.059a2.052,2.052,0,0,0,.615,1.343,2.148,2.148,0,0,0,1.543.513,6.687,6.687,0,0,0,1.577-.156,9.941,9.941,0,0,0,1.44-.5l.791,2.012a6.04,6.04,0,0,1-1.836.84A8.473,8.473,0,0,1,159.258,22.205Zm-.127-8.428a1.362,1.362,0,0,0-1.167.5,2.523,2.523,0,0,0-.435,1.362l.02.049H160.4v-.254a2.2,2.2,0,0,0-.288-1.24A1.1,1.1,0,0,0,159.131,13.777Zm11.4,5.254a.862.862,0,0,0-.444-.7,4.792,4.792,0,0,0-1.616-.552,6.38,6.38,0,0,1-2.783-1.118,2.533,2.533,0,0,1-.937-2.085,2.971,2.971,0,0,1,1.172-2.368,4.82,4.82,0,0,1,3.174-.972,5.45,5.45,0,0,1,3.359.942,2.771,2.771,0,0,1,1.191,2.437l-.02.059h-3.2a1.309,1.309,0,0,0-.312-.947,1.383,1.383,0,0,0-1.025-.322,1.341,1.341,0,0,0-.869.283.888.888,0,0,0-.352.723.86.86,0,0,0,.405.713,4.584,4.584,0,0,0,1.636.527,6.571,6.571,0,0,1,2.871,1.138,2.609,2.609,0,0,1,.928,2.144,2.8,2.8,0,0,1-1.265,2.349,5.547,5.547,0,0,1-3.345.923,5.016,5.016,0,0,1-3.413-1.094,3.013,3.013,0,0,1-1.2-2.441l.02-.059h2.988a1.325,1.325,0,0,0,.454,1.084,2,2,0,0,0,1.235.332,1.649,1.649,0,0,0,1.006-.259A.87.87,0,0,0,170.527,19.031Zm10.83,2.959a3.986,3.986,0,0,1-.317-.752,5.766,5.766,0,0,1-.2-.879,4.037,4.037,0,0,1-1.06,1.343,2.558,2.558,0,0,1-1.646.5,3.659,3.659,0,0,1-2.583-.854,3.019,3.019,0,0,1-.923-2.329,2.817,2.817,0,0,1,1.182-2.427,6.126,6.126,0,0,1,3.584-.854h1.357v-.752a1.505,1.505,0,0,0-.322-1.035,1.255,1.255,0,0,0-.986-.361,1.19,1.19,0,0,0-.854.269,1.114,1.114,0,0,0-.278.835l-3.2-.01-.02-.059a2.756,2.756,0,0,1,1.206-2.417,5.4,5.4,0,0,1,3.364-.972,4.921,4.921,0,0,1,3.179.977,3.375,3.375,0,0,1,1.216,2.793v3.984a8.128,8.128,0,0,0,.142,1.563A8.369,8.369,0,0,0,184.619,22Zm-2.324-2.139a2.011,2.011,0,0,0,1.069-.283,1.621,1.621,0,0,0,.649-.674V17.5h-1.328a1.492,1.492,0,0,0-1.143.381,1.37,1.37,0,0,0-.352.967.935.935,0,0,0,.308.728A1.141,1.141,0,0,0,179.033,19.852ZM191.7,14.246l-1.074-.01a1.829,1.829,0,0,0-.928.21,1.3,1.3,0,0,0-.537.591V22h-3.3V11.434h3.105l.117,1.553a3.186,3.186,0,0,1,.879-1.289,1.929,1.929,0,0,1,1.279-.459,2.454,2.454,0,0,1,.4.029,3.028,3.028,0,0,1,.371.088Zm7.051,0-1.074-.01a1.829,1.829,0,0,0-.928.21,1.3,1.3,0,0,0-.537.591V22h-3.3V11.434h3.105l.117,1.553a3.186,3.186,0,0,1,.879-1.289,1.929,1.929,0,0,1,1.279-.459,2.454,2.454,0,0,1,.4.029,3.028,3.028,0,0,1,.371.088Zm.576,2.373a5.585,5.585,0,0,1,1.348-3.882,5.477,5.477,0,0,1,7.529,0,5.585,5.585,0,0,1,1.348,3.882v.205a5.581,5.581,0,0,1-1.348,3.887,5.49,5.49,0,0,1-7.529,0,5.581,5.581,0,0,1-1.348-3.887Zm3.3.205a4.369,4.369,0,0,0,.415,2.085,1.477,1.477,0,0,0,1.411.757,1.459,1.459,0,0,0,1.387-.762,4.331,4.331,0,0,0,.42-2.08v-.205a4.347,4.347,0,0,0-.42-2.065,1.471,1.471,0,0,0-1.406-.776,1.45,1.45,0,0,0-1.392.781,4.4,4.4,0,0,0-.415,2.061ZM214.463,22h-3.311V6.766h3.311Zm5.479,0h-3.311V6.766h3.311Zm1.582-5.381a5.585,5.585,0,0,1,1.348-3.882,5.477,5.477,0,0,1,7.529,0,5.585,5.585,0,0,1,1.348,3.882v.205a5.581,5.581,0,0,1-1.348,3.887,5.49,5.49,0,0,1-7.529,0,5.581,5.581,0,0,1-1.348-3.887Zm3.3.205a4.369,4.369,0,0,0,.415,2.085,1.477,1.477,0,0,0,1.411.757,1.459,1.459,0,0,0,1.387-.762,4.331,4.331,0,0,0,.42-2.08v-.205a4.347,4.347,0,0,0-.42-2.065,1.471,1.471,0,0,0-1.406-.776,1.45,1.45,0,0,0-1.392.781,4.4,4.4,0,0,0-.415,2.061Zm12.92-.088a6.719,6.719,0,0,1,1.079-3.984,3.518,3.518,0,0,1,3.042-1.514,2.623,2.623,0,0,1,1.323.337,3.5,3.5,0,0,1,1.06.962V6.766h3.3V22h-2.891l-.225-1.289a3.553,3.553,0,0,1-1.118,1.108,2.79,2.79,0,0,1-1.47.386,3.552,3.552,0,0,1-3.027-1.445,6.248,6.248,0,0,1-1.074-3.818Zm3.3.205a4.388,4.388,0,0,0,.376,2.007,1.314,1.314,0,0,0,1.265.718,2.081,2.081,0,0,0,.913-.19,1.636,1.636,0,0,0,.649-.562V14.646A1.8,1.8,0,0,0,243.6,14a1.77,1.77,0,0,0-.9-.225,1.317,1.317,0,0,0-1.27.811,4.989,4.989,0,0,0-.391,2.148Zm13.066,5.264a4.906,4.906,0,0,1-3.765-1.455,5.174,5.174,0,0,1-1.362-3.682V16.7a5.912,5.912,0,0,1,1.284-3.945,4.562,4.562,0,0,1,3.716-1.514,4.279,4.279,0,0,1,3.315,1.279,4.98,4.98,0,0,1,1.177,3.506v1.729h-6.055l-.02.059a2.052,2.052,0,0,0,.615,1.343,2.148,2.148,0,0,0,1.543.513,6.687,6.687,0,0,0,1.577-.156,9.942,9.942,0,0,0,1.44-.5l.791,2.012a6.04,6.04,0,0,1-1.836.84A8.473,8.473,0,0,1,254.111,22.205Zm-.127-8.428a1.362,1.362,0,0,0-1.167.5,2.523,2.523,0,0,0-.435,1.362l.02.049h2.852v-.254a2.2,2.2,0,0,0-.288-1.24A1.1,1.1,0,0,0,253.984,13.777ZM263.33,22H260.02V6.766h3.311Zm13.105-.01a3.987,3.987,0,0,1-.317-.752,5.764,5.764,0,0,1-.2-.879,4.038,4.038,0,0,1-1.06,1.343,2.558,2.558,0,0,1-1.646.5,3.659,3.659,0,0,1-2.583-.854,3.019,3.019,0,0,1-.923-2.329,2.817,2.817,0,0,1,1.182-2.427,6.126,6.126,0,0,1,3.584-.854h1.357v-.752a1.505,1.505,0,0,0-.322-1.035,1.255,1.255,0,0,0-.986-.361,1.19,1.19,0,0,0-.854.269,1.114,1.114,0,0,0-.278.835l-3.2-.01-.02-.059a2.756,2.756,0,0,1,1.206-2.417,5.4,5.4,0,0,1,3.364-.972,4.921,4.921,0,0,1,3.179.977,3.375,3.375,0,0,1,1.216,2.793v3.984a8.129,8.129,0,0,0,.142,1.563A8.366,8.366,0,0,0,279.7,22Zm-2.324-2.139a2.011,2.011,0,0,0,1.069-.283,1.621,1.621,0,0,0,.649-.674V17.5H274.5a1.492,1.492,0,0,0-1.143.381,1.37,1.37,0,0,0-.352.967.935.935,0,0,0,.308.728A1.141,1.141,0,0,0,274.111,19.852ZM284.395,22h-3.311V6.766h3.311Zm1.572-5.264a6.719,6.719,0,0,1,1.079-3.984,3.518,3.518,0,0,1,3.042-1.514,2.712,2.712,0,0,1,1.465.4,3.492,3.492,0,0,1,1.094,1.118l.215-1.318h2.91V21.883a3.913,3.913,0,0,1-1.431,3.237,6.133,6.133,0,0,1-3.94,1.147,7.086,7.086,0,0,1-1.719-.225,9.6,9.6,0,0,1-1.719-.605L287.529,23a7.845,7.845,0,0,0,1.362.464,6.6,6.6,0,0,0,1.489.151,2.443,2.443,0,0,0,1.567-.42,1.618,1.618,0,0,0,.513-1.328v-.82a2.865,2.865,0,0,1-2.393,1.162,3.552,3.552,0,0,1-3.027-1.445,6.248,6.248,0,0,1-1.074-3.818Zm3.291.205a4.388,4.388,0,0,0,.376,2.007,1.322,1.322,0,0,0,1.274.718,2.326,2.326,0,0,0,.923-.166,1.506,1.506,0,0,0,.63-.5V14.559a1.643,1.643,0,0,0-.625-.581,1.928,1.928,0,0,0-.908-.2,1.326,1.326,0,0,0-1.274.815,4.942,4.942,0,0,0-.4,2.144Zm7.959-.322a5.585,5.585,0,0,1,1.348-3.882,5.477,5.477,0,0,1,7.529,0,5.585,5.585,0,0,1,1.348,3.882v.205a5.581,5.581,0,0,1-1.348,3.887,5.49,5.49,0,0,1-7.529,0,5.581,5.581,0,0,1-1.348-3.887Zm3.3.205a4.368,4.368,0,0,0,.415,2.085,1.477,1.477,0,0,0,1.411.757,1.459,1.459,0,0,0,1.387-.762,4.331,4.331,0,0,0,.42-2.08v-.205a4.347,4.347,0,0,0-.42-2.065,1.471,1.471,0,0,0-1.406-.776,1.45,1.45,0,0,0-1.392.781,4.4,4.4,0,0,0-.415,2.061Zm14.219-2.578-1.074-.01a1.829,1.829,0,0,0-.928.21,1.3,1.3,0,0,0-.537.591V22h-3.3V11.434H312l.117,1.553A3.186,3.186,0,0,1,313,11.7a1.929,1.929,0,0,1,1.279-.459,2.454,2.454,0,0,1,.4.029,3.029,3.029,0,0,1,.371.088ZM319.4,22h-3.311V11.434H319.4Zm0-13.018h-3.311V6.766H319.4Zm5.811-.176v2.627h1.67v2.285h-1.67v4.844a1.185,1.185,0,0,0,.229.815.8.8,0,0,0,.62.249,3.318,3.318,0,0,0,.405-.02,3.508,3.508,0,0,0,.386-.078l.225,2.441a7.968,7.968,0,0,1-.9.181,7.236,7.236,0,0,1-.947.054,3.3,3.3,0,0,1-2.476-.869,3.836,3.836,0,0,1-.845-2.754V13.719h-1.475V11.434h1.475V8.807Zm6.377,2.627.117,1.4a3.5,3.5,0,0,1,1.255-1.177,3.546,3.546,0,0,1,1.733-.415,3.23,3.23,0,0,1,1.7.43,2.64,2.64,0,0,1,1.074,1.309,3.547,3.547,0,0,1,1.255-1.284,3.45,3.45,0,0,1,1.792-.454,2.934,2.934,0,0,1,2.427,1.108,5.433,5.433,0,0,1,.884,3.413V22h-3.311V15.76A2.744,2.744,0,0,0,340.2,14.2a1.112,1.112,0,0,0-.952-.425,1.977,1.977,0,0,0-.845.171,1.782,1.782,0,0,0-.62.474q0,.166.01.288t.01.239V22h-3.3V15.76a2.777,2.777,0,0,0-.312-1.562,1.126,1.126,0,0,0-.967-.42,1.9,1.9,0,0,0-.815.171,1.782,1.782,0,0,0-.62.474V22h-3.3V11.434Zm13.682,5.186a5.585,5.585,0,0,1,1.348-3.882,5.477,5.477,0,0,1,7.529,0,5.585,5.585,0,0,1,1.348,3.882v.205a5.581,5.581,0,0,1-1.348,3.887,5.49,5.49,0,0,1-7.529,0,5.581,5.581,0,0,1-1.348-3.887Zm3.3.205a4.368,4.368,0,0,0,.415,2.085,1.477,1.477,0,0,0,1.411.757,1.459,1.459,0,0,0,1.387-.762,4.331,4.331,0,0,0,.42-2.08v-.205a4.347,4.347,0,0,0-.42-2.065,1.471,1.471,0,0,0-1.406-.776,1.45,1.45,0,0,0-1.392.781,4.4,4.4,0,0,0-.415,2.061Z" transform="translate(498 2253)" fill="#12263f"/>
    <path id="Trazado_29774" data-name="Trazado 29774" d="M6.064,20.662a4.213,4.213,0,0,1-3.052-1.245,4.113,4.113,0,0,1-1.274-3.062,4.354,4.354,0,0,1,.571-2.129,4.009,4.009,0,0,1,1.592-1.6,4.287,4.287,0,0,1,4.326.039A3.963,3.963,0,0,1,9.81,14.3a4.446,4.446,0,0,1,.532,2.056A4.19,4.19,0,0,1,9.1,19.388,4.079,4.079,0,0,1,6.064,20.662Zm15.43-1.2h6.1V22h-9.4V7.781h3.3ZM35.273,21.99a3.986,3.986,0,0,1-.317-.752,5.765,5.765,0,0,1-.2-.879A4.038,4.038,0,0,1,33.7,21.7a2.558,2.558,0,0,1-1.646.5,3.659,3.659,0,0,1-2.583-.854,3.019,3.019,0,0,1-.923-2.329,2.817,2.817,0,0,1,1.182-2.427,6.126,6.126,0,0,1,3.584-.854h1.357v-.752a1.505,1.505,0,0,0-.322-1.035,1.255,1.255,0,0,0-.986-.361,1.19,1.19,0,0,0-.854.269,1.114,1.114,0,0,0-.278.835l-3.2-.01L29,14.627A2.756,2.756,0,0,1,30.21,12.21a5.4,5.4,0,0,1,3.364-.972,4.921,4.921,0,0,1,3.179.977,3.375,3.375,0,0,1,1.216,2.793v3.984a8.128,8.128,0,0,0,.142,1.563A8.368,8.368,0,0,0,38.535,22Zm-2.324-2.139a2.011,2.011,0,0,0,1.069-.283,1.621,1.621,0,0,0,.649-.674V17.5H33.34a1.492,1.492,0,0,0-1.143.381,1.37,1.37,0,0,0-.352.967.935.935,0,0,0,.308.728A1.141,1.141,0,0,0,32.949,19.852ZM50.6,14.246l-1.074-.01a1.829,1.829,0,0,0-.928.21,1.3,1.3,0,0,0-.537.591V22h-3.3V11.434h3.105l.117,1.553a3.186,3.186,0,0,1,.879-1.289,1.929,1.929,0,0,1,1.279-.459,2.454,2.454,0,0,1,.4.029,3.029,3.029,0,0,1,.371.088Zm5.713,7.959a4.906,4.906,0,0,1-3.765-1.455,5.174,5.174,0,0,1-1.362-3.682V16.7a5.912,5.912,0,0,1,1.284-3.945,4.562,4.562,0,0,1,3.716-1.514A4.279,4.279,0,0,1,59.5,12.518a4.98,4.98,0,0,1,1.177,3.506v1.729H54.619l-.02.059a2.052,2.052,0,0,0,.615,1.343,2.148,2.148,0,0,0,1.543.513,6.687,6.687,0,0,0,1.577-.156,9.942,9.942,0,0,0,1.44-.5l.791,2.012a6.04,6.04,0,0,1-1.836.84A8.473,8.473,0,0,1,56.309,22.205Zm-.127-8.428a1.362,1.362,0,0,0-1.167.5,2.523,2.523,0,0,0-.435,1.362l.02.049h2.852v-.254a2.2,2.2,0,0,0-.288-1.24A1.1,1.1,0,0,0,56.182,13.777Zm15.674,3.164a6.243,6.243,0,0,1-1.074,3.823,3.556,3.556,0,0,1-3.027,1.44,2.882,2.882,0,0,1-2.383-1.143v5h-3.3V11.434h3.115l.1,1.152a3.211,3.211,0,0,1,1.05-1,2.757,2.757,0,0,1,1.4-.352,3.518,3.518,0,0,1,3.042,1.514,6.719,6.719,0,0,1,1.079,3.984Zm-3.291-.205a4.989,4.989,0,0,0-.391-2.148,1.3,1.3,0,0,0-1.25-.811,1.986,1.986,0,0,0-.942.205,1.513,1.513,0,0,0-.61.6v4.414a1.414,1.414,0,0,0,.62.508,2.411,2.411,0,0,0,.952.166,1.3,1.3,0,0,0,1.245-.718,4.388,4.388,0,0,0,.376-2.007Zm10.586-2.49-1.074-.01a1.829,1.829,0,0,0-.928.21,1.3,1.3,0,0,0-.537.591V22h-3.3V11.434h3.105l.117,1.553a3.186,3.186,0,0,1,.879-1.289,1.929,1.929,0,0,1,1.279-.459,2.454,2.454,0,0,1,.4.029,3.029,3.029,0,0,1,.371.088Zm5.713,7.959A4.906,4.906,0,0,1,81.1,20.75a5.174,5.174,0,0,1-1.362-3.682V16.7a5.912,5.912,0,0,1,1.284-3.945,4.562,4.562,0,0,1,3.716-1.514,4.279,4.279,0,0,1,3.315,1.279,4.98,4.98,0,0,1,1.177,3.506v1.729H83.174l-.02.059a2.052,2.052,0,0,0,.615,1.343,2.148,2.148,0,0,0,1.543.513,6.687,6.687,0,0,0,1.577-.156,9.942,9.942,0,0,0,1.44-.5l.791,2.012a6.04,6.04,0,0,1-1.836.84A8.473,8.473,0,0,1,84.863,22.205Zm-.127-8.428a1.362,1.362,0,0,0-1.167.5,2.523,2.523,0,0,0-.435,1.362l.02.049h2.852v-.254a2.2,2.2,0,0,0-.288-1.24A1.1,1.1,0,0,0,84.736,13.777Zm11.4,5.254a.862.862,0,0,0-.444-.7,4.792,4.792,0,0,0-1.616-.552,6.38,6.38,0,0,1-2.783-1.118,2.533,2.533,0,0,1-.937-2.085,2.971,2.971,0,0,1,1.172-2.368,4.82,4.82,0,0,1,3.174-.972,5.45,5.45,0,0,1,3.359.942,2.771,2.771,0,0,1,1.191,2.437l-.02.059h-3.2a1.309,1.309,0,0,0-.312-.947,1.383,1.383,0,0,0-1.025-.322,1.341,1.341,0,0,0-.869.283.888.888,0,0,0-.352.723.86.86,0,0,0,.405.713,4.584,4.584,0,0,0,1.636.527,6.571,6.571,0,0,1,2.871,1.138,2.609,2.609,0,0,1,.928,2.144,2.8,2.8,0,0,1-1.265,2.349,5.547,5.547,0,0,1-3.345.923,5.016,5.016,0,0,1-3.413-1.094,3.013,3.013,0,0,1-1.2-2.441l.02-.059H93.1A1.325,1.325,0,0,0,93.55,19.7a2,2,0,0,0,1.235.332,1.649,1.649,0,0,0,1.006-.259A.87.87,0,0,0,96.133,19.031Zm9.414,3.174a4.906,4.906,0,0,1-3.765-1.455,5.174,5.174,0,0,1-1.362-3.682V16.7a5.912,5.912,0,0,1,1.284-3.945,4.562,4.562,0,0,1,3.716-1.514,4.279,4.279,0,0,1,3.315,1.279,4.98,4.98,0,0,1,1.177,3.506v1.729h-6.055l-.02.059a2.052,2.052,0,0,0,.615,1.343,2.148,2.148,0,0,0,1.543.513,6.687,6.687,0,0,0,1.577-.156,9.942,9.942,0,0,0,1.44-.5l.791,2.012a6.04,6.04,0,0,1-1.836.84A8.473,8.473,0,0,1,105.547,22.205Zm-.127-8.428a1.362,1.362,0,0,0-1.167.5,2.523,2.523,0,0,0-.435,1.362l.02.049h2.852v-.254a2.2,2.2,0,0,0-.288-1.24A1.1,1.1,0,0,0,105.42,13.777Zm8.926-2.344.127,1.484a3.825,3.825,0,0,1,1.279-1.235,3.31,3.31,0,0,1,1.7-.444,2.979,2.979,0,0,1,2.427,1.055,5.218,5.218,0,0,1,.874,3.35V22h-3.3V15.633a2.421,2.421,0,0,0-.322-1.431,1.1,1.1,0,0,0-.937-.425,2.32,2.32,0,0,0-.947.186,1.891,1.891,0,0,0-.7.527V22H111.25V11.434Zm11.992-2.627v2.627h1.67v2.285h-1.67v4.844a1.185,1.185,0,0,0,.229.815.8.8,0,0,0,.62.249,3.318,3.318,0,0,0,.405-.02,3.509,3.509,0,0,0,.386-.078l.225,2.441a7.968,7.968,0,0,1-.9.181,7.236,7.236,0,0,1-.947.054,3.3,3.3,0,0,1-2.476-.869,3.836,3.836,0,0,1-.845-2.754V13.719h-1.475V11.434h1.475V8.807Zm9.375,13.184a3.986,3.986,0,0,1-.317-.752,5.766,5.766,0,0,1-.2-.879,4.037,4.037,0,0,1-1.06,1.343,2.558,2.558,0,0,1-1.646.5,3.659,3.659,0,0,1-2.583-.854,3.019,3.019,0,0,1-.923-2.329,2.817,2.817,0,0,1,1.182-2.427,6.126,6.126,0,0,1,3.584-.854h1.357v-.752a1.505,1.505,0,0,0-.322-1.035,1.255,1.255,0,0,0-.986-.361,1.19,1.19,0,0,0-.854.269,1.114,1.114,0,0,0-.278.835l-3.2-.01-.02-.059a2.756,2.756,0,0,1,1.206-2.417,5.4,5.4,0,0,1,3.364-.972,4.921,4.921,0,0,1,3.179.977,3.375,3.375,0,0,1,1.216,2.793v3.984a8.128,8.128,0,0,0,.142,1.563A8.369,8.369,0,0,0,138.975,22Zm-2.324-2.139a2.011,2.011,0,0,0,1.069-.283,1.621,1.621,0,0,0,.649-.674V17.5h-1.328a1.492,1.492,0,0,0-1.143.381,1.37,1.37,0,0,0-.352.967.935.935,0,0,0,.308.728A1.141,1.141,0,0,0,133.389,19.852Zm11.348-.186a1.291,1.291,0,0,0,1.006-.366,1.526,1.526,0,0,0,.332-1.06h3.008l.02.059a3.469,3.469,0,0,1-1.2,2.817,4.616,4.616,0,0,1-3.169,1.089,4.675,4.675,0,0,1-3.716-1.489,5.679,5.679,0,0,1-1.3-3.882v-.225a5.7,5.7,0,0,1,1.3-3.877,4.64,4.64,0,0,1,3.7-1.494,4.545,4.545,0,0,1,3.218,1.118,3.857,3.857,0,0,1,1.167,3.062l-.02.059h-3.008a2.045,2.045,0,0,0-.342-1.226,1.172,1.172,0,0,0-1.016-.474,1.357,1.357,0,0,0-1.333.767,4.74,4.74,0,0,0-.376,2.065v.225a4.723,4.723,0,0,0,.376,2.08A1.378,1.378,0,0,0,144.736,19.666ZM153.906,22H150.6V11.434h3.311Zm0-13.018H150.6V6.766h3.311Zm1.582,7.637a5.585,5.585,0,0,1,1.348-3.882,5.477,5.477,0,0,1,7.529,0,5.585,5.585,0,0,1,1.348,3.882v.205a5.581,5.581,0,0,1-1.348,3.887,5.49,5.49,0,0,1-7.529,0,5.581,5.581,0,0,1-1.348-3.887Zm3.3.205a4.369,4.369,0,0,0,.415,2.085,1.477,1.477,0,0,0,1.411.757A1.459,1.459,0,0,0,162,18.9a4.331,4.331,0,0,0,.42-2.08v-.205a4.347,4.347,0,0,0-.42-2.065,1.471,1.471,0,0,0-1.406-.776,1.45,1.45,0,0,0-1.392.781,4.4,4.4,0,0,0-.415,2.061ZM161,6.912h3.623l.02.059L161.895,9.51h-2.91Zm9.209,4.521.127,1.484a3.825,3.825,0,0,1,1.279-1.235,3.31,3.31,0,0,1,1.7-.444,2.979,2.979,0,0,1,2.427,1.055,5.218,5.218,0,0,1,.874,3.35V22h-3.3V15.633a2.421,2.421,0,0,0-.322-1.431,1.1,1.1,0,0,0-.937-.425,2.32,2.32,0,0,0-.947.186,1.891,1.891,0,0,0-.7.527V22h-3.291V11.434Zm12.744,5.3a6.719,6.719,0,0,1,1.079-3.984,3.518,3.518,0,0,1,3.042-1.514,2.623,2.623,0,0,1,1.323.337,3.5,3.5,0,0,1,1.06.962V6.766h3.3V22h-2.891l-.225-1.289a3.553,3.553,0,0,1-1.118,1.108,2.79,2.79,0,0,1-1.47.386,3.552,3.552,0,0,1-3.027-1.445,6.248,6.248,0,0,1-1.074-3.818Zm3.3.205a4.388,4.388,0,0,0,.376,2.007,1.314,1.314,0,0,0,1.265.718,2.081,2.081,0,0,0,.913-.19,1.636,1.636,0,0,0,.649-.562V14.646a1.8,1.8,0,0,0-.645-.645,1.77,1.77,0,0,0-.9-.225,1.317,1.317,0,0,0-1.27.811,4.989,4.989,0,0,0-.391,2.148Zm13.066,5.264a4.906,4.906,0,0,1-3.765-1.455,5.174,5.174,0,0,1-1.362-3.682V16.7a5.912,5.912,0,0,1,1.284-3.945,4.562,4.562,0,0,1,3.716-1.514,4.279,4.279,0,0,1,3.315,1.279,4.98,4.98,0,0,1,1.177,3.506v1.729h-6.055l-.02.059a2.052,2.052,0,0,0,.615,1.343,2.148,2.148,0,0,0,1.543.513,6.687,6.687,0,0,0,1.577-.156,9.941,9.941,0,0,0,1.44-.5l.791,2.012a6.04,6.04,0,0,1-1.836.84A8.473,8.473,0,0,1,199.316,22.205Zm-.127-8.428a1.362,1.362,0,0,0-1.167.5,2.523,2.523,0,0,0-.435,1.362l.02.049h2.852v-.254a2.2,2.2,0,0,0-.288-1.24A1.1,1.1,0,0,0,199.189,13.777ZM208.535,22h-3.311V6.766h3.311Zm13.105-.01a3.986,3.986,0,0,1-.317-.752,5.766,5.766,0,0,1-.2-.879,4.037,4.037,0,0,1-1.06,1.343,2.558,2.558,0,0,1-1.646.5,3.659,3.659,0,0,1-2.583-.854,3.019,3.019,0,0,1-.923-2.329,2.817,2.817,0,0,1,1.182-2.427,6.126,6.126,0,0,1,3.584-.854h1.357v-.752a1.505,1.505,0,0,0-.322-1.035,1.255,1.255,0,0,0-.986-.361,1.19,1.19,0,0,0-.854.269,1.114,1.114,0,0,0-.278.835l-3.2-.01-.02-.059a2.756,2.756,0,0,1,1.206-2.417,5.4,5.4,0,0,1,3.364-.972,4.921,4.921,0,0,1,3.179.977,3.375,3.375,0,0,1,1.216,2.793v3.984a8.128,8.128,0,0,0,.142,1.563A8.369,8.369,0,0,0,224.9,22Zm-2.324-2.139a2.011,2.011,0,0,0,1.069-.283,1.621,1.621,0,0,0,.649-.674V17.5h-1.328a1.492,1.492,0,0,0-1.143.381,1.37,1.37,0,0,0-.352.967.935.935,0,0,0,.308.728A1.141,1.141,0,0,0,219.316,19.852ZM229.6,22h-3.311V6.766H229.6Zm1.572-5.264a6.719,6.719,0,0,1,1.079-3.984,3.518,3.518,0,0,1,3.042-1.514,2.712,2.712,0,0,1,1.465.4,3.492,3.492,0,0,1,1.094,1.118l.215-1.318h2.91V21.883a3.913,3.913,0,0,1-1.431,3.237,6.133,6.133,0,0,1-3.94,1.147,7.086,7.086,0,0,1-1.719-.225,9.6,9.6,0,0,1-1.719-.605L232.734,23a7.846,7.846,0,0,0,1.362.464,6.6,6.6,0,0,0,1.489.151,2.443,2.443,0,0,0,1.567-.42,1.618,1.618,0,0,0,.513-1.328v-.82a2.865,2.865,0,0,1-2.393,1.162,3.552,3.552,0,0,1-3.027-1.445,6.248,6.248,0,0,1-1.074-3.818Zm3.291.205a4.388,4.388,0,0,0,.376,2.007,1.322,1.322,0,0,0,1.274.718,2.326,2.326,0,0,0,.923-.166,1.506,1.506,0,0,0,.63-.5V14.559a1.643,1.643,0,0,0-.625-.581,1.928,1.928,0,0,0-.908-.2,1.326,1.326,0,0,0-1.274.815,4.942,4.942,0,0,0-.4,2.144Zm7.959-.322a5.585,5.585,0,0,1,1.348-3.882,5.477,5.477,0,0,1,7.529,0,5.585,5.585,0,0,1,1.348,3.882v.205a5.581,5.581,0,0,1-1.348,3.887,5.49,5.49,0,0,1-7.529,0,5.581,5.581,0,0,1-1.348-3.887Zm3.3.205a4.369,4.369,0,0,0,.415,2.085,1.477,1.477,0,0,0,1.411.757,1.459,1.459,0,0,0,1.387-.762,4.331,4.331,0,0,0,.42-2.08v-.205a4.347,4.347,0,0,0-.42-2.065,1.471,1.471,0,0,0-1.406-.776,1.45,1.45,0,0,0-1.392.781,4.4,4.4,0,0,0-.415,2.061Zm14.219-2.578-1.074-.01a1.829,1.829,0,0,0-.928.21,1.3,1.3,0,0,0-.537.591V22h-3.3V11.434h3.105l.117,1.553A3.186,3.186,0,0,1,258.2,11.7a1.929,1.929,0,0,1,1.279-.459,2.454,2.454,0,0,1,.4.029,3.029,3.029,0,0,1,.371.088ZM264.609,22H261.3V11.434h3.311Zm0-13.018H261.3V6.766h3.311Zm5.811-.176v2.627h1.67v2.285h-1.67v4.844a1.185,1.185,0,0,0,.229.815.8.8,0,0,0,.62.249,3.318,3.318,0,0,0,.405-.02,3.508,3.508,0,0,0,.386-.078l.225,2.441a7.968,7.968,0,0,1-.9.181,7.236,7.236,0,0,1-.947.054,3.3,3.3,0,0,1-2.476-.869,3.836,3.836,0,0,1-.845-2.754V13.719h-1.475V11.434h1.475V8.807Zm6.377,2.627.117,1.4a3.5,3.5,0,0,1,1.255-1.177,3.546,3.546,0,0,1,1.733-.415,3.23,3.23,0,0,1,1.7.43,2.64,2.64,0,0,1,1.074,1.309,3.547,3.547,0,0,1,1.255-1.284,3.45,3.45,0,0,1,1.792-.454,2.934,2.934,0,0,1,2.427,1.108,5.433,5.433,0,0,1,.884,3.413V22h-3.311V15.76a2.744,2.744,0,0,0-.317-1.558,1.112,1.112,0,0,0-.952-.425,1.977,1.977,0,0,0-.845.171,1.782,1.782,0,0,0-.62.474q0,.166.01.288t.01.239V22h-3.3V15.76a2.777,2.777,0,0,0-.312-1.562,1.126,1.126,0,0,0-.967-.42,1.9,1.9,0,0,0-.815.171,1.782,1.782,0,0,0-.62.474V22h-3.3V11.434Zm13.682,5.186a5.585,5.585,0,0,1,1.348-3.882,5.477,5.477,0,0,1,7.529,0,5.585,5.585,0,0,1,1.348,3.882v.205a5.581,5.581,0,0,1-1.348,3.887,5.49,5.49,0,0,1-7.529,0,5.581,5.581,0,0,1-1.348-3.887Zm3.3.205a4.368,4.368,0,0,0,.415,2.085,1.477,1.477,0,0,0,1.411.757,1.459,1.459,0,0,0,1.387-.762,4.331,4.331,0,0,0,.42-2.08v-.205a4.347,4.347,0,0,0-.42-2.065,1.471,1.471,0,0,0-1.406-.776,1.45,1.45,0,0,0-1.392.781,4.4,4.4,0,0,0-.415,2.061ZM1.172,43.219a13.254,13.254,0,0,1,1.445-6.44,6.946,6.946,0,0,1,3.4-3.394h.059l.6,1.553a6.555,6.555,0,0,0-2.061,2.969A14.589,14.589,0,0,0,3.8,43.2v.313a14.581,14.581,0,0,0,.811,5.3A6.556,6.556,0,0,0,6.67,51.773l-.6,1.553H6.016a6.948,6.948,0,0,1-3.4-3.389,13.248,13.248,0,0,1-1.445-6.445Zm9.9-4.785.127,1.484a3.825,3.825,0,0,1,1.279-1.235,3.31,3.31,0,0,1,1.7-.444,2.979,2.979,0,0,1,2.427,1.055,5.218,5.218,0,0,1,.874,3.35V49h-3.3V42.633a2.421,2.421,0,0,0-.322-1.431,1.1,1.1,0,0,0-.937-.425,2.32,2.32,0,0,0-.947.186,1.891,1.891,0,0,0-.7.527V49H7.979V38.434Zm7.764,5.186a5.585,5.585,0,0,1,1.348-3.882,4.8,4.8,0,0,1,3.76-1.5,4.808,4.808,0,0,1,3.77,1.5,5.585,5.585,0,0,1,1.348,3.882v.205a5.581,5.581,0,0,1-1.348,3.887,4.792,4.792,0,0,1-3.75,1.494,4.829,4.829,0,0,1-3.779-1.494,5.581,5.581,0,0,1-1.348-3.887Zm3.3.205a4.368,4.368,0,0,0,.415,2.085,1.477,1.477,0,0,0,1.411.757,1.459,1.459,0,0,0,1.387-.762,4.331,4.331,0,0,0,.42-2.08v-.205a4.347,4.347,0,0,0-.42-2.065,1.471,1.471,0,0,0-1.406-.776,1.45,1.45,0,0,0-1.392.781,4.4,4.4,0,0,0-.415,2.061Zm12.168-8.018v2.627h1.67v2.285h-1.67v4.844a1.185,1.185,0,0,0,.229.815.8.8,0,0,0,.62.249,3.318,3.318,0,0,0,.405-.02,3.509,3.509,0,0,0,.386-.078l.225,2.441a7.968,7.968,0,0,1-.9.181,7.236,7.236,0,0,1-.947.054,3.3,3.3,0,0,1-2.476-.869,3.836,3.836,0,0,1-.845-2.754V40.719H29.531V38.434h1.475V35.807ZM43.682,48.99a3.986,3.986,0,0,1-.317-.752,5.765,5.765,0,0,1-.2-.879A4.038,4.038,0,0,1,42.1,48.7a2.558,2.558,0,0,1-1.646.5,3.659,3.659,0,0,1-2.583-.854,3.019,3.019,0,0,1-.923-2.329,2.817,2.817,0,0,1,1.182-2.427,6.126,6.126,0,0,1,3.584-.854h1.357v-.752a1.505,1.505,0,0,0-.322-1.035,1.255,1.255,0,0,0-.986-.361,1.19,1.19,0,0,0-.854.269,1.114,1.114,0,0,0-.278.835l-3.2-.01-.02-.059a2.756,2.756,0,0,1,1.206-2.417,5.4,5.4,0,0,1,3.364-.972,4.921,4.921,0,0,1,3.179.977,3.375,3.375,0,0,1,1.216,2.793v3.984a8.128,8.128,0,0,0,.142,1.563A8.368,8.368,0,0,0,46.943,49Zm-2.324-2.139a2.011,2.011,0,0,0,1.069-.283,1.621,1.621,0,0,0,.649-.674V44.5H41.748a1.492,1.492,0,0,0-1.143.381,1.37,1.37,0,0,0-.352.967.935.935,0,0,0,.308.728A1.141,1.141,0,0,0,41.357,46.852Zm11.348-.186a1.291,1.291,0,0,0,1.006-.366,1.526,1.526,0,0,0,.332-1.06h3.008l.02.059a3.469,3.469,0,0,1-1.2,2.817,4.616,4.616,0,0,1-3.169,1.089,4.675,4.675,0,0,1-3.716-1.489,5.679,5.679,0,0,1-1.3-3.882v-.225a5.7,5.7,0,0,1,1.3-3.877,4.64,4.64,0,0,1,3.7-1.494A4.545,4.545,0,0,1,55.9,39.356a3.857,3.857,0,0,1,1.167,3.062l-.02.059H54.043a2.045,2.045,0,0,0-.342-1.226,1.172,1.172,0,0,0-1.016-.474,1.357,1.357,0,0,0-1.333.767,4.74,4.74,0,0,0-.376,2.065v.225a4.723,4.723,0,0,0,.376,2.08A1.378,1.378,0,0,0,52.705,46.666ZM61.875,49H58.564V38.434h3.311Zm0-13.018H58.564V33.766h3.311Zm1.582,7.637A5.585,5.585,0,0,1,64.8,39.737a5.477,5.477,0,0,1,7.529,0,5.585,5.585,0,0,1,1.348,3.882v.205a5.581,5.581,0,0,1-1.348,3.887,5.49,5.49,0,0,1-7.529,0,5.581,5.581,0,0,1-1.348-3.887Zm3.3.205a4.368,4.368,0,0,0,.415,2.085,1.477,1.477,0,0,0,1.411.757,1.459,1.459,0,0,0,1.387-.762,4.331,4.331,0,0,0,.42-2.08v-.205a4.347,4.347,0,0,0-.42-2.065,1.471,1.471,0,0,0-1.406-.776,1.45,1.45,0,0,0-1.392.781,4.4,4.4,0,0,0-.415,2.061Zm2.207-9.912h3.623l.02.059L69.863,36.51h-2.91Zm9.209,4.521.127,1.484a3.825,3.825,0,0,1,1.279-1.235,3.31,3.31,0,0,1,1.7-.444,2.979,2.979,0,0,1,2.427,1.055,5.218,5.218,0,0,1,.874,3.35V49h-3.3V42.633a2.421,2.421,0,0,0-.322-1.431,1.1,1.1,0,0,0-.937-.425,2.32,2.32,0,0,0-.947.186,1.891,1.891,0,0,0-.7.527V49H75.078V38.434ZM90,49.078l-1.592,3.105H86.133l.684-3.193V46.422H90Zm6.68-5.342a6.719,6.719,0,0,1,1.079-3.984,3.518,3.518,0,0,1,3.042-1.514,2.623,2.623,0,0,1,1.323.337,3.5,3.5,0,0,1,1.06.962V33.766h3.3V49h-2.891l-.225-1.289a3.553,3.553,0,0,1-1.118,1.108,2.79,2.79,0,0,1-1.47.386,3.552,3.552,0,0,1-3.027-1.445,6.248,6.248,0,0,1-1.074-3.818Zm3.3.205a4.388,4.388,0,0,0,.376,2.007,1.314,1.314,0,0,0,1.265.718,2.081,2.081,0,0,0,.913-.19,1.636,1.636,0,0,0,.649-.562V41.646a1.8,1.8,0,0,0-.645-.645,1.77,1.77,0,0,0-.9-.225,1.317,1.317,0,0,0-1.27.811,4.989,4.989,0,0,0-.391,2.148ZM111.816,49h-3.311V38.434h3.311Zm0-13.018h-3.311V33.766h3.311Zm8.125,13.008a3.987,3.987,0,0,1-.317-.752,5.765,5.765,0,0,1-.2-.879,4.038,4.038,0,0,1-1.06,1.343,2.558,2.558,0,0,1-1.646.5,3.659,3.659,0,0,1-2.583-.854,3.019,3.019,0,0,1-.923-2.329,2.817,2.817,0,0,1,1.182-2.427,6.126,6.126,0,0,1,3.584-.854h1.357v-.752a1.505,1.505,0,0,0-.322-1.035,1.255,1.255,0,0,0-.986-.361,1.19,1.19,0,0,0-.854.269,1.114,1.114,0,0,0-.278.835l-3.2-.01-.02-.059a2.756,2.756,0,0,1,1.206-2.417,5.4,5.4,0,0,1,3.364-.972,4.921,4.921,0,0,1,3.179.977,3.375,3.375,0,0,1,1.216,2.793v3.984a8.129,8.129,0,0,0,.142,1.563A8.367,8.367,0,0,0,123.2,49Zm-2.324-2.139a2.011,2.011,0,0,0,1.069-.283,1.621,1.621,0,0,0,.649-.674V44.5h-1.328a1.492,1.492,0,0,0-1.143.381,1.37,1.37,0,0,0-.352.967.935.935,0,0,0,.308.728A1.141,1.141,0,0,0,117.617,46.852Zm6.377-3.115a6.719,6.719,0,0,1,1.079-3.984,3.518,3.518,0,0,1,3.042-1.514,2.712,2.712,0,0,1,1.465.4,3.492,3.492,0,0,1,1.094,1.118l.215-1.318h2.91V48.883a3.913,3.913,0,0,1-1.431,3.237,6.133,6.133,0,0,1-3.94,1.147,7.086,7.086,0,0,1-1.719-.225,9.6,9.6,0,0,1-1.719-.605L125.557,50a7.845,7.845,0,0,0,1.362.464,6.6,6.6,0,0,0,1.489.151,2.443,2.443,0,0,0,1.567-.42,1.618,1.618,0,0,0,.513-1.328v-.82a2.865,2.865,0,0,1-2.393,1.162,3.552,3.552,0,0,1-3.027-1.445,6.248,6.248,0,0,1-1.074-3.818Zm3.291.205a4.388,4.388,0,0,0,.376,2.007,1.322,1.322,0,0,0,1.274.718,2.326,2.326,0,0,0,.923-.166,1.506,1.506,0,0,0,.63-.5V41.559a1.643,1.643,0,0,0-.625-.581,1.928,1.928,0,0,0-.908-.2,1.326,1.326,0,0,0-1.274.815,4.942,4.942,0,0,0-.4,2.144Zm14.238-2.7-1.074-.01a1.829,1.829,0,0,0-.928.21,1.3,1.3,0,0,0-.537.591V49h-3.3V38.434h3.105l.117,1.553a3.186,3.186,0,0,1,.879-1.289,1.929,1.929,0,0,1,1.279-.459,2.454,2.454,0,0,1,.4.029,3.028,3.028,0,0,1,.371.088Zm7.314,7.744a3.986,3.986,0,0,1-.317-.752,5.766,5.766,0,0,1-.2-.879,4.037,4.037,0,0,1-1.06,1.343,2.558,2.558,0,0,1-1.646.5,3.659,3.659,0,0,1-2.583-.854,3.019,3.019,0,0,1-.923-2.329,2.817,2.817,0,0,1,1.182-2.427,6.126,6.126,0,0,1,3.584-.854h1.357v-.752a1.505,1.505,0,0,0-.322-1.035,1.255,1.255,0,0,0-.986-.361,1.19,1.19,0,0,0-.854.269,1.114,1.114,0,0,0-.278.835l-3.2-.01-.02-.059a2.756,2.756,0,0,1,1.206-2.417,5.4,5.4,0,0,1,3.364-.972,4.921,4.921,0,0,1,3.179.977,3.375,3.375,0,0,1,1.216,2.793v3.984a8.128,8.128,0,0,0,.142,1.563A8.369,8.369,0,0,0,152.1,49Zm-2.324-2.139a2.011,2.011,0,0,0,1.069-.283,1.621,1.621,0,0,0,.649-.674V44.5H146.9a1.492,1.492,0,0,0-1.143.381,1.37,1.37,0,0,0-.352.967.935.935,0,0,0,.308.728A1.141,1.141,0,0,0,146.514,46.852Zm9.932-8.418.117,1.4a3.5,3.5,0,0,1,1.255-1.177,3.546,3.546,0,0,1,1.733-.415,3.23,3.23,0,0,1,1.7.43,2.64,2.64,0,0,1,1.074,1.309,3.547,3.547,0,0,1,1.255-1.284,3.45,3.45,0,0,1,1.792-.454,2.934,2.934,0,0,1,2.427,1.108,5.434,5.434,0,0,1,.884,3.413V49h-3.311V42.76a2.744,2.744,0,0,0-.317-1.558,1.113,1.113,0,0,0-.952-.425,1.977,1.977,0,0,0-.845.171,1.782,1.782,0,0,0-.62.474q0,.166.01.288t.01.239V49h-3.3V42.76a2.777,2.777,0,0,0-.312-1.562,1.126,1.126,0,0,0-.967-.42,1.9,1.9,0,0,0-.815.171,1.782,1.782,0,0,0-.62.474V49h-3.3V38.434ZM176.67,48.99a3.986,3.986,0,0,1-.317-.752,5.766,5.766,0,0,1-.2-.879,4.037,4.037,0,0,1-1.06,1.343,2.558,2.558,0,0,1-1.646.5,3.659,3.659,0,0,1-2.583-.854,3.019,3.019,0,0,1-.923-2.329,2.817,2.817,0,0,1,1.182-2.427,6.126,6.126,0,0,1,3.584-.854h1.357v-.752a1.505,1.505,0,0,0-.322-1.035,1.255,1.255,0,0,0-.986-.361,1.19,1.19,0,0,0-.854.269,1.114,1.114,0,0,0-.278.835l-3.2-.01-.02-.059a2.756,2.756,0,0,1,1.206-2.417,5.4,5.4,0,0,1,3.364-.972,4.921,4.921,0,0,1,3.179.977,3.375,3.375,0,0,1,1.216,2.793v3.984a8.128,8.128,0,0,0,.142,1.563A8.369,8.369,0,0,0,179.932,49Zm-2.324-2.139a2.011,2.011,0,0,0,1.069-.283,1.621,1.621,0,0,0,.649-.674V44.5h-1.328a1.492,1.492,0,0,0-1.143.381,1.37,1.37,0,0,0-.352.967.935.935,0,0,0,.308.728A1.141,1.141,0,0,0,174.346,46.852Zm11.367-3.232a5.585,5.585,0,0,1,1.348-3.882,5.477,5.477,0,0,1,7.529,0,5.585,5.585,0,0,1,1.348,3.882v.205a5.581,5.581,0,0,1-1.348,3.887,5.49,5.49,0,0,1-7.529,0,5.581,5.581,0,0,1-1.348-3.887Zm3.3.205a4.369,4.369,0,0,0,.415,2.085,1.477,1.477,0,0,0,1.411.757,1.459,1.459,0,0,0,1.387-.762,4.331,4.331,0,0,0,.42-2.08v-.205a4.347,4.347,0,0,0-.42-2.065,1.471,1.471,0,0,0-1.406-.776,1.45,1.45,0,0,0-1.392.781,4.4,4.4,0,0,0-.415,2.061Zm18.867,2.207a.862.862,0,0,0-.444-.7,4.792,4.792,0,0,0-1.616-.552,6.38,6.38,0,0,1-2.783-1.118,2.533,2.533,0,0,1-.937-2.085,2.971,2.971,0,0,1,1.172-2.368,4.82,4.82,0,0,1,3.174-.972,5.45,5.45,0,0,1,3.359.942A2.771,2.771,0,0,1,211,41.617l-.02.059h-3.2a1.309,1.309,0,0,0-.312-.947,1.383,1.383,0,0,0-1.025-.322,1.341,1.341,0,0,0-.869.283.888.888,0,0,0-.352.723.86.86,0,0,0,.405.713,4.584,4.584,0,0,0,1.636.527,6.571,6.571,0,0,1,2.871,1.138,2.609,2.609,0,0,1,.928,2.144,2.8,2.8,0,0,1-1.265,2.349,5.547,5.547,0,0,1-3.345.923,5.016,5.016,0,0,1-3.413-1.094,3.013,3.013,0,0,1-1.2-2.441l.02-.059h2.988A1.325,1.325,0,0,0,205.3,46.7a2,2,0,0,0,1.235.332,1.649,1.649,0,0,0,1.006-.259A.87.87,0,0,0,207.881,46.031Zm9.414,3.174a4.906,4.906,0,0,1-3.765-1.455,5.174,5.174,0,0,1-1.362-3.682V43.7a5.912,5.912,0,0,1,1.284-3.945,4.562,4.562,0,0,1,3.716-1.514,4.279,4.279,0,0,1,3.315,1.279,4.98,4.98,0,0,1,1.177,3.506v1.729h-6.055l-.02.059a2.052,2.052,0,0,0,.615,1.343,2.148,2.148,0,0,0,1.543.513,6.687,6.687,0,0,0,1.577-.156,9.942,9.942,0,0,0,1.44-.5l.791,2.012a6.04,6.04,0,0,1-1.836.84A8.473,8.473,0,0,1,217.295,49.205Zm-.127-8.428a1.362,1.362,0,0,0-1.167.5,2.523,2.523,0,0,0-.435,1.362l.02.049h2.852v-.254a2.2,2.2,0,0,0-.288-1.24A1.1,1.1,0,0,0,217.168,40.777Zm12.256,6.641a3.473,3.473,0,0,1-1.216,1.323,3.2,3.2,0,0,1-1.724.464,3.129,3.129,0,0,1-2.573-1.152,5.618,5.618,0,0,1-.933-3.564V38.434h3.291v6.074a3.2,3.2,0,0,0,.317,1.7,1.111,1.111,0,0,0,.981.459,2.694,2.694,0,0,0,.928-.146,1.793,1.793,0,0,0,.684-.439V38.434h3.3V49h-2.656Zm4.434-3.682a6.719,6.719,0,0,1,1.079-3.984,3.518,3.518,0,0,1,3.042-1.514,2.623,2.623,0,0,1,1.323.337,3.5,3.5,0,0,1,1.06.962V33.766h3.3V49h-2.891l-.225-1.289a3.553,3.553,0,0,1-1.118,1.108,2.79,2.79,0,0,1-1.47.386,3.552,3.552,0,0,1-3.027-1.445,6.248,6.248,0,0,1-1.074-3.818Zm3.3.205a4.388,4.388,0,0,0,.376,2.007,1.314,1.314,0,0,0,1.265.718,2.081,2.081,0,0,0,.913-.19,1.636,1.636,0,0,0,.649-.562V41.646a1.8,1.8,0,0,0-.645-.645,1.77,1.77,0,0,0-.9-.225,1.317,1.317,0,0,0-1.27.811,4.989,4.989,0,0,0-.391,2.148Zm7.939-.322a5.585,5.585,0,0,1,1.348-3.882,5.477,5.477,0,0,1,7.529,0,5.585,5.585,0,0,1,1.348,3.882v.205a5.581,5.581,0,0,1-1.348,3.887,5.49,5.49,0,0,1-7.529,0,5.581,5.581,0,0,1-1.348-3.887Zm3.3.205a4.369,4.369,0,0,0,.415,2.085,1.477,1.477,0,0,0,1.411.757,1.459,1.459,0,0,0,1.387-.762,4.331,4.331,0,0,0,.42-2.08v-.205a4.347,4.347,0,0,0-.42-2.065,1.471,1.471,0,0,0-1.406-.776,1.45,1.45,0,0,0-1.392.781,4.4,4.4,0,0,0-.415,2.061Zm12.9,2.842A1.291,1.291,0,0,0,262.3,46.3a1.526,1.526,0,0,0,.332-1.06h3.008l.02.059a3.469,3.469,0,0,1-1.2,2.817,4.616,4.616,0,0,1-3.169,1.089,4.675,4.675,0,0,1-3.716-1.489,5.679,5.679,0,0,1-1.3-3.882v-.225a5.7,5.7,0,0,1,1.3-3.877,4.64,4.64,0,0,1,3.7-1.494,4.545,4.545,0,0,1,3.218,1.118,3.857,3.857,0,0,1,1.167,3.062l-.02.059h-3.008a2.045,2.045,0,0,0-.342-1.226,1.172,1.172,0,0,0-1.016-.474,1.357,1.357,0,0,0-1.333.767,4.741,4.741,0,0,0-.376,2.065v.225a4.723,4.723,0,0,0,.376,2.08A1.378,1.378,0,0,0,261.3,46.666Zm5.273-3.047a5.585,5.585,0,0,1,1.348-3.882,5.477,5.477,0,0,1,7.529,0,5.585,5.585,0,0,1,1.348,3.882v.205a5.581,5.581,0,0,1-1.348,3.887,5.49,5.49,0,0,1-7.529,0,5.581,5.581,0,0,1-1.348-3.887Zm3.3.205a4.368,4.368,0,0,0,.415,2.085,1.477,1.477,0,0,0,1.411.757,1.459,1.459,0,0,0,1.387-.762,4.331,4.331,0,0,0,.42-2.08v-.205a4.347,4.347,0,0,0-.42-2.065,1.471,1.471,0,0,0-1.406-.776,1.45,1.45,0,0,0-1.392.781,4.4,4.4,0,0,0-.415,2.061Zm2.207-9.912H275.7l.02.059-2.744,2.539h-2.91Zm5.732,9.824a6.719,6.719,0,0,1,1.079-3.984,3.518,3.518,0,0,1,3.042-1.514,2.623,2.623,0,0,1,1.323.337,3.5,3.5,0,0,1,1.06.962V33.766h3.3V49h-2.891l-.225-1.289a3.553,3.553,0,0,1-1.118,1.108,2.79,2.79,0,0,1-1.47.386,3.552,3.552,0,0,1-3.027-1.445,6.248,6.248,0,0,1-1.074-3.818Zm3.3.205a4.388,4.388,0,0,0,.376,2.007,1.314,1.314,0,0,0,1.265.718,2.081,2.081,0,0,0,.913-.19,1.636,1.636,0,0,0,.649-.562V41.646a1.8,1.8,0,0,0-.645-.645,1.77,1.77,0,0,0-.9-.225,1.317,1.317,0,0,0-1.27.811,4.99,4.99,0,0,0-.391,2.148ZM292.949,49h-3.311V38.434h3.311Zm0-13.018h-3.311V33.766h3.311Zm1.572,7.754a6.719,6.719,0,0,1,1.079-3.984,3.518,3.518,0,0,1,3.042-1.514,2.712,2.712,0,0,1,1.465.4,3.492,3.492,0,0,1,1.094,1.118l.215-1.318h2.91V48.883A3.913,3.913,0,0,1,302.9,52.12a6.133,6.133,0,0,1-3.94,1.147,7.087,7.087,0,0,1-1.719-.225,9.6,9.6,0,0,1-1.719-.605L296.084,50a7.845,7.845,0,0,0,1.362.464,6.6,6.6,0,0,0,1.489.151,2.443,2.443,0,0,0,1.567-.42,1.618,1.618,0,0,0,.513-1.328v-.82a2.865,2.865,0,0,1-2.393,1.162A3.552,3.552,0,0,1,295.6,47.76a6.248,6.248,0,0,1-1.074-3.818Zm3.291.205a4.388,4.388,0,0,0,.376,2.007,1.322,1.322,0,0,0,1.274.718,2.326,2.326,0,0,0,.923-.166,1.506,1.506,0,0,0,.63-.5V41.559a1.643,1.643,0,0,0-.625-.581,1.928,1.928,0,0,0-.908-.2,1.326,1.326,0,0,0-1.274.815,4.942,4.942,0,0,0-.4,2.144Zm7.959-.322a5.585,5.585,0,0,1,1.348-3.882,5.477,5.477,0,0,1,7.529,0A5.585,5.585,0,0,1,316,43.619v.205a5.581,5.581,0,0,1-1.348,3.887,5.49,5.49,0,0,1-7.529,0,5.581,5.581,0,0,1-1.348-3.887Zm3.3.205a4.368,4.368,0,0,0,.415,2.085,1.477,1.477,0,0,0,1.411.757,1.459,1.459,0,0,0,1.387-.762,4.331,4.331,0,0,0,.42-2.08v-.205a4.347,4.347,0,0,0-.42-2.065,1.471,1.471,0,0,0-1.406-.776,1.45,1.45,0,0,0-1.392.781,4.4,4.4,0,0,0-.415,2.061Zm13.594-.332a12.761,12.761,0,0,1-1.533,6.372,7.175,7.175,0,0,1-3.535,3.462h-.059l-.6-1.553a6.772,6.772,0,0,0,2.051-2.974,14.391,14.391,0,0,0,.82-5.288V43.2a14.431,14.431,0,0,0-.82-5.293,6.7,6.7,0,0,0-2.051-2.969l.6-1.553h.059a7.174,7.174,0,0,1,3.535,3.467,12.768,12.768,0,0,1,1.533,6.367Z" transform="translate(498 2353)" fill="#12263f"/>
    <path id="Trazado_29769" data-name="Trazado 29769" d="M0,0H470" transform="translate(435.5 2096)" fill="none" stroke="#afafaf" stroke-width="2"/>
    <path id="Trazado_29771" data-name="Trazado 29771" d="M0,0H470" transform="translate(435.5 2209.5)" fill="none" stroke="#afafaf" stroke-width="2"/>
    <path id="Trazado_29773" data-name="Trazado 29773" d="M0,0H470" transform="translate(435.5 2324)" fill="none" stroke="#afafaf" stroke-width="2"/>
    <path id="Trazado_29775" data-name="Trazado 29775" d="M0,0H470" transform="translate(435.5 2438)" fill="none" stroke="#afafaf" stroke-width="2"/>
    <g id="Grupo_30434" data-name="Grupo 30434" transform="translate(14)">
      <circle id="Elipse_1613" data-name="Elipse 1613" cx="34.5" cy="34.5" r="34.5" transform="translate(395 2119)" fill="#ffe7c4"/>
      <g id="_003-data_gathering" data-name="003-data gathering" transform="translate(406.789 2129.477)">
        <g id="Grupo_29778" data-name="Grupo 29778" transform="translate(0.704 12.84)">
          <g id="Grupo_29756" data-name="Grupo 29756" transform="translate(16.529 26.357)">
            <path id="Trazado_28512" data-name="Trazado 28512" d="M197.634,417.7h10.954v5.178H197.634Z" transform="translate(-197.634 -417.7)" fill="#678d98"/>
          </g>
          <g id="Grupo_29757" data-name="Grupo 29757" transform="translate(16.529 26.357)">
            <path id="Trazado_28513" data-name="Trazado 28513" d="M197.634,417.7h3.907v5.178h-3.907Z" transform="translate(-197.634 -417.7)" fill="#537983"/>
          </g>
          <g id="Grupo_29758" data-name="Grupo 29758" transform="translate(10.666 31.441)">
            <path id="Trazado_28514" data-name="Trazado 28514" d="M135.16,474v-.716a1.408,1.408,0,0,1,1.408-1.408h19.865a1.408,1.408,0,0,1,1.408,1.408V474a.938.938,0,0,1-.938.938H136.1A.938.938,0,0,1,135.16,474Z" transform="translate(-135.16 -471.873)" fill="#7ca1b1"/>
          </g>
          <g id="Grupo_29759" data-name="Grupo 29759" transform="translate(10.666 31.441)">
            <path id="Trazado_28515" data-name="Trazado 28515" d="M139.086,474v-.716a1.408,1.408,0,0,1,1.408-1.408h-3.926a1.408,1.408,0,0,0-1.408,1.408V474a.938.938,0,0,0,.938.938h3.926A.938.938,0,0,1,139.086,474Z" transform="translate(-135.16 -471.873)" fill="#678d98"/>
          </g>
          <g id="Grupo_29760" data-name="Grupo 29760" transform="translate(0.914 22.748)">
            <path id="Trazado_28516" data-name="Trazado 28516" d="M31.237,379.236V382a.938.938,0,0,0,.938.938H72.483a.938.938,0,0,0,.938-.938v-2.765H31.237Z" transform="translate(-31.237 -379.236)" fill="#7ca1b1"/>
          </g>
          <g id="Grupo_29762" data-name="Grupo 29762" transform="translate(0.914 22.748)">
            <g id="Grupo_29761" data-name="Grupo 29761">
              <path id="Trazado_28517" data-name="Trazado 28517" d="M35.156,382v-2.765H31.237V382a.938.938,0,0,0,.938.938h3.919A.938.938,0,0,1,35.156,382Z" transform="translate(-31.237 -379.237)" fill="#678d98"/>
            </g>
          </g>
          <path id="Trazado_28518" data-name="Trazado 28518" d="M65.349,146.333l1.676-1.676a.281.281,0,0,1,.2-.082h6.2v-6.351a1.394,1.394,0,0,0-1.394-1.394h-13.6v2.861a.282.282,0,0,1-.282.282H46.511a.282.282,0,0,1-.282-.282V136.83h-13.6a1.394,1.394,0,0,0-1.394,1.394V145.5l.844-.845a.281.281,0,0,1,.2-.082h6.83a.281.281,0,0,1,.282.282v10.8a.282.282,0,0,1-.282.282H31.237v3.644H73.422v-3.644H65.548a.282.282,0,0,1-.282-.282v-9.12A.282.282,0,0,1,65.349,146.333Z" transform="translate(-30.323 -136.83)" fill="#dff6fd"/>
          <g id="Grupo_29763" data-name="Grupo 29763" transform="translate(0.914)">
            <path id="Trazado_28519" data-name="Trazado 28519" d="M32.082,144.657a.281.281,0,0,1,.2-.082h2.876v-6.351a1.394,1.394,0,0,1,1.394-1.394H32.631a1.394,1.394,0,0,0-1.394,1.394V145.5Z" transform="translate(-31.237 -136.83)" fill="#c8effe"/>
            <path id="Trazado_28520" data-name="Trazado 28520" d="M31.237,340.4h3.919v3.644H31.237Z" transform="translate(-31.237 -321.298)" fill="#c8effe"/>
          </g>
          <g id="Grupo_29772" data-name="Grupo 29772" transform="translate(0 7.745)">
            <g id="Grupo_29767" data-name="Grupo 29767" transform="translate(34.943)">
              <g id="Grupo_29765" data-name="Grupo 29765">
                <g id="Grupo_29764" data-name="Grupo 29764">
                  <path id="Trazado_28521" data-name="Trazado 28521" d="M395.617,219.443l-1.676,1.676a.281.281,0,0,0-.082.2v9.12a.282.282,0,0,0,.282.282h8.506a.281.281,0,0,0,.282-.282v-10.8a.281.281,0,0,0-.282-.282h-6.83A.281.281,0,0,0,395.617,219.443Z" transform="translate(-393.859 -219.361)" fill="#62dbfb"/>
                </g>
              </g>
              <g id="Grupo_29766" data-name="Grupo 29766" transform="translate(0 0)">
                <path id="Trazado_28522" data-name="Trazado 28522" d="M396.875,230.439v-9.12a.281.281,0,0,1,.083-.2l1.676-1.676a.282.282,0,0,1,.2-.082h-3.016a.281.281,0,0,0-.2.082l-1.676,1.676a.281.281,0,0,0-.082.2v9.12a.282.282,0,0,0,.282.282h3.016A.282.282,0,0,1,396.875,230.439Z" transform="translate(-393.859 -219.362)" fill="#01d0fb"/>
              </g>
            </g>
            <g id="Grupo_29771" data-name="Grupo 29771">
              <g id="Grupo_29769" data-name="Grupo 29769">
                <g id="Grupo_29768" data-name="Grupo 29768">
                  <path id="Trazado_28523" data-name="Trazado 28523" d="M23.258,219.443l-1.676,1.676a.281.281,0,0,0-.082.2v9.12a.282.282,0,0,0,.282.282h8.506a.282.282,0,0,0,.282-.282v-10.8a.282.282,0,0,0-.282-.282h-6.83A.281.281,0,0,0,23.258,219.443Z" transform="translate(-21.5 -219.361)" fill="#6cf5c2"/>
                </g>
              </g>
              <g id="Grupo_29770" data-name="Grupo 29770" transform="translate(0 0)">
                <path id="Trazado_28524" data-name="Trazado 28524" d="M24.456,230.439v-9.12a.281.281,0,0,1,.082-.2l1.676-1.676a.282.282,0,0,1,.2-.082H23.457a.281.281,0,0,0-.2.082l-1.676,1.676a.281.281,0,0,0-.082.2v9.12a.282.282,0,0,0,.282.282h2.956A.282.282,0,0,1,24.456,230.439Z" transform="translate(-21.5 -219.362)" fill="#05e39c"/>
              </g>
            </g>
          </g>
          <g id="Grupo_29777" data-name="Grupo 29777" transform="translate(14.123 7.587)">
            <g id="Grupo_29773" data-name="Grupo 29773">
              <path id="Trazado_28525" data-name="Trazado 28525" d="M177.238,217.677h-4.863a.375.375,0,0,0-.375.375v1.976h6.475l-.891-2.121A.375.375,0,0,0,177.238,217.677Z" transform="translate(-172 -217.677)" fill="#fed402"/>
            </g>
            <g id="Grupo_29774" data-name="Grupo 29774">
              <path id="Trazado_28526" data-name="Trazado 28526" d="M175.191,217.677h-2.815a.375.375,0,0,0-.375.375v1.976h2.815v-1.976A.375.375,0,0,1,175.191,217.677Z" transform="translate(-172 -217.677)" fill="#fac600"/>
            </g>
            <g id="Grupo_29775" data-name="Grupo 29775" transform="translate(0 2.351)">
              <path id="Trazado_28527" data-name="Trazado 28527" d="M187.484,252.549h-15.2a.282.282,0,0,1-.282-.282V242.73h15.484a.282.282,0,0,1,.282.282v9.256A.281.281,0,0,1,187.484,252.549Z" transform="translate(-172 -242.73)" fill="#fed402"/>
            </g>
            <g id="Grupo_29776" data-name="Grupo 29776" transform="translate(0 2.351)">
              <path id="Trazado_28528" data-name="Trazado 28528" d="M174.815,252.267V242.73H172v9.537a.282.282,0,0,0,.282.282H175.1A.282.282,0,0,1,174.815,252.267Z" transform="translate(-172 -242.73)" fill="#fac600"/>
            </g>
          </g>
        </g>
        <g id="Grupo_29781" data-name="Grupo 29781" transform="translate(16.61 0.704)">
          <g id="Grupo_29779" data-name="Grupo 29779" transform="translate(0 0)">
            <path id="Trazado_28529" data-name="Trazado 28529" d="M193.394,7.582l-2.311,2.311a.281.281,0,0,0-.082.2V22.5a.282.282,0,0,0,.282.282h11.637a.282.282,0,0,0,.282-.282V7.782a.282.282,0,0,0-.282-.282h-9.325a.282.282,0,0,0-.2.082Z" transform="translate(-191 -7.5)" fill="#fee97d"/>
          </g>
          <g id="Grupo_29780" data-name="Grupo 29780">
            <path id="Trazado_28530" data-name="Trazado 28530" d="M193.815,22.5V10.092a.282.282,0,0,1,.082-.2l2.311-2.311a.282.282,0,0,1,.2-.082h-2.815a.281.281,0,0,0-.2.082l-2.311,2.311a.282.282,0,0,0-.082.2V22.5a.282.282,0,0,0,.282.282H194.1A.282.282,0,0,1,193.815,22.5Z" transform="translate(-191 -7.499)" fill="#fedf30"/>
          </g>
        </g>
        <g id="Grupo_29782" data-name="Grupo 29782" transform="translate(0 0)">
          <path id="Trazado_28531" data-name="Trazado 28531" d="M58.717,25.1a.7.7,0,0,0,.7-.7V20.867a.986.986,0,0,0-.914-.982V14.235a2.1,2.1,0,0,0-2.1-2.1H48.928V7.729a.7.7,0,0,0-1.408,0v4.408H43.514V9.947a.7.7,0,0,0-1.408,0V15.28H31.315V3.471l2.064-2.064h8.728V6.663a.7.7,0,0,0,1.408,0V.985A.986.986,0,0,0,42.529,0H33.2a.979.979,0,0,0-.7.289L30.2,2.6a.979.979,0,0,0-.289.7v8.84H26.124V7.729a.7.7,0,0,0-1.408,0v4.408h-7.7a2.1,2.1,0,0,0-2.1,2.1v6.986l-.625.625a.979.979,0,0,0-.289.7v9.12a.986.986,0,0,0,.914.982v5.709A1.644,1.644,0,0,0,16.557,40H30.53v3.582H26.779a2.114,2.114,0,0,0-2.111,2.111V46.4a1.644,1.644,0,0,0,1.642,1.642h20.8A1.644,1.644,0,0,0,48.755,46.4v-.716a2.114,2.114,0,0,0-2.111-2.111H42.892V40H56.865a1.644,1.644,0,0,0,1.642-1.642V32.644a.986.986,0,0,0,.914-.982V27.683a.7.7,0,0,0-1.408,0V31.24H50.352V22.718l1.428-1.428h6.233V24.4a.7.7,0,0,0,.7.7ZM36.711,30.2a.7.7,0,0,0,.5-.206l1.66-1.66a.7.7,0,0,0-1-1l-.458.458V23.482H43.89v8.411H29.532V23.482h6.475v4.311l-.458-.458a.7.7,0,0,0-1,1l1.66,1.66a.7.7,0,0,0,.5.206Zm-7.179-8.121v-.943h4.316l.4.943Zm-14.123.643,1.428-1.428H23.07V31.24H15.409ZM46.643,44.985a.7.7,0,0,1,.7.7V46.4a.235.235,0,0,1-.235.235h-20.8a.235.235,0,0,1-.235-.235v-.716a.7.7,0,0,1,.7-.7H36.9a.7.7,0,1,0,0-1.408H31.937V40h9.547v3.582h-1.3a.7.7,0,1,0,0,1.408ZM57.1,38.353a.235.235,0,0,1-.235.235H16.557a.235.235,0,0,1-.235-.235V36.292H57.1v2.061Zm0-18.472H51.605a.979.979,0,0,0-.7.289l-1.675,1.676a.979.979,0,0,0-.289.7v9.12a.986.986,0,0,0,.985.985H57.1v2.237H16.322V32.648h7.17a.986.986,0,0,0,.985-.985v-10.8a.986.986,0,0,0-.985-.985h-6.83a.985.985,0,0,0-.34.061V14.235a.691.691,0,0,1,.69-.69h7.7v3.106l-.458-.458a.7.7,0,1,0-1,1l1.66,1.66a.7.7,0,0,0,1,0l1.66-1.66a.7.7,0,1,0-1-1l-.458.458V13.544h3.783V15.7a.986.986,0,0,0,.985.985h5.114v5.387h-.236l-.71-1.69a1.077,1.077,0,0,0-1-.661H29.2A1.08,1.08,0,0,0,28.124,20.8V32.316a.986.986,0,0,0,.985.985h15.2a.986.986,0,0,0,.985-.985V23.06a.986.986,0,0,0-.985-.985h-6.9V16.687h5.114a.986.986,0,0,0,.985-.985V13.544H47.52v3.106l-.458-.458a.7.7,0,0,0-1,1l1.66,1.66a.7.7,0,0,0,1,0l1.66-1.66a.7.7,0,1,0-1-1l-.458.458V13.544h7.481a.691.691,0,0,1,.69.69v5.647Z" transform="translate(-14.001 0)" fill="#111e61"/>
          <path id="Trazado_28532" data-name="Trazado 28532" d="M418.947,239.82h-3.8a.7.7,0,0,0,0,1.408h3.8a.7.7,0,1,0,0-1.408Z" transform="translate(-376.867 -217.315)" fill="#111e61"/>
          <path id="Trazado_28533" data-name="Trazado 28533" d="M418.947,261.431h-3.8a.7.7,0,1,0,0,1.408h3.8a.7.7,0,1,0,0-1.408Z" transform="translate(-376.867 -236.898)" fill="#111e61"/>
          <path id="Trazado_28534" data-name="Trazado 28534" d="M419.651,283.939a.7.7,0,0,0-.7-.7h-3.8a.7.7,0,1,0,0,1.408h3.8A.7.7,0,0,0,419.651,283.939Z" transform="translate(-376.867 -256.656)" fill="#111e61"/>
          <path id="Trazado_28535" data-name="Trazado 28535" d="M415.15,304.943a.7.7,0,0,0,0,1.408h1.7a.7.7,0,1,0,0-1.408Z" transform="translate(-376.867 -276.327)" fill="#111e61"/>
          <path id="Trazado_28536" data-name="Trazado 28536" d="M46.588,239.82h-3.8a.7.7,0,0,0,0,1.408h3.8a.7.7,0,0,0,0-1.408Z" transform="translate(-39.451 -217.315)" fill="#111e61"/>
          <path id="Trazado_28537" data-name="Trazado 28537" d="M46.588,261.431h-3.8a.7.7,0,1,0,0,1.408h3.8a.7.7,0,0,0,0-1.408Z" transform="translate(-39.451 -236.898)" fill="#111e61"/>
          <path id="Trazado_28538" data-name="Trazado 28538" d="M46.588,283.235h-3.8a.7.7,0,1,0,0,1.408h3.8a.7.7,0,0,0,0-1.408Z" transform="translate(-39.451 -256.656)" fill="#111e61"/>
          <path id="Trazado_28539" data-name="Trazado 28539" d="M44.494,304.943h-1.7a.7.7,0,1,0,0,1.408h1.7a.7.7,0,1,0,0-1.408Z" transform="translate(-39.452 -276.327)" fill="#111e61"/>
          <path id="Trazado_28540" data-name="Trazado 28540" d="M218.336,27.531h-.188V24.2a.7.7,0,0,0-1.408,0v3.327h-.375V25.413a.7.7,0,0,0-1.408,0v2.118h-.375V24.687a.7.7,0,0,0-1.408,0v2.843H212.8V26.139a.7.7,0,1,0-1.408,0v1.392H211.2a.7.7,0,0,0,0,1.408h7.132a.7.7,0,1,0,0-1.408Z" transform="translate(-192.06 -21.295)" fill="#111e61"/>
          <path id="Trazado_28541" data-name="Trazado 28541" d="M211.591,91.5H211.2a.7.7,0,0,0,0,1.408h.388a.7.7,0,1,0,0-1.408Z" transform="translate(-192.06 -82.913)" fill="#111e61"/>
          <path id="Trazado_28542" data-name="Trazado 28542" d="M211.591,113H211.2a.7.7,0,0,0,0,1.408h.388a.7.7,0,1,0,0-1.408Z" transform="translate(-192.06 -102.396)" fill="#111e61"/>
          <path id="Trazado_28543" data-name="Trazado 28543" d="M211.591,134.5H211.2a.7.7,0,0,0,0,1.408h.388a.7.7,0,1,0,0-1.408Z" transform="translate(-192.06 -121.878)" fill="#111e61"/>
          <path id="Trazado_28544" data-name="Trazado 28544" d="M238.547,91.5h-5.039a.7.7,0,1,0,0,1.408h5.039a.7.7,0,1,0,0-1.408Z" transform="translate(-212.271 -82.913)" fill="#111e61"/>
          <path id="Trazado_28545" data-name="Trazado 28545" d="M238.547,113h-5.039a.7.7,0,1,0,0,1.408h5.039a.7.7,0,1,0,0-1.408Z" transform="translate(-212.271 -102.396)" fill="#111e61"/>
          <path id="Trazado_28546" data-name="Trazado 28546" d="M238.547,134.5h-5.039a.7.7,0,1,0,0,1.408h5.039a.7.7,0,1,0,0-1.408Z" transform="translate(-212.271 -121.878)" fill="#111e61"/>
        </g>
      </g>
    </g>
    <g id="Grupo_30433" data-name="Grupo 30433" transform="translate(14)">
      <path id="Trazado_29287" data-name="Trazado 29287" d="M34.5,0A34.5,34.5,0,1,1,0,34.5,34.5,34.5,0,0,1,34.5,0Z" transform="translate(395 2233)" fill="#ffe7c4"/>
      <g id="_009-data_research" data-name="009-data research" transform="translate(405.477 2246)">
        <path id="Trazado_28673" data-name="Trazado 28673" d="M7.5,89.027v30.38a1.07,1.07,0,0,0,1.07,1.07H43.39l-2.952-2.952a.938.938,0,0,1,0-1.327l2.324-2.324a.938.938,0,0,1,1.327,0l6.6,6.6H53.07a1.07,1.07,0,0,0,1.07-1.07V89.027Z" transform="translate(-6.796 -83.509)" fill="#fdf6ec"/>
        <path id="Trazado_28674" data-name="Trazado 28674" d="M11.3,119.407V104.944h-.123a.257.257,0,0,1-.257-.257V100.51a.257.257,0,0,1,.257-.257H11.3V97.364h-.123a.257.257,0,0,1-.257-.257V92.929a.257.257,0,0,1,.257-.257H11.3V89.027H7.5v30.38a1.07,1.07,0,0,0,1.07,1.07h3.8A1.07,1.07,0,0,1,11.3,119.407Z" transform="translate(-6.796 -83.509)" fill="#fef1da"/>
        <g id="Grupo_29911" data-name="Grupo 29911" transform="translate(13.551 10.331)">
          <path id="Trazado_28675" data-name="Trazado 28675" d="M330.985,324.775l-3.14-3.14a10.7,10.7,0,0,1-2.14,2.139l3.14,3.14Z" transform="translate(-308.691 -304.62)" fill="#a8d3d8"/>
          <g id="Grupo_29907" data-name="Grupo 29907" transform="translate(19.817 19.758)">
            <path id="Trazado_28676" data-name="Trazado 28676" d="M366.873,359.846l-2.324,2.324a.939.939,0,0,1-1.327,0l-7.38-7.38a.938.938,0,0,1,0-1.327l2.324-2.324a.938.938,0,0,1,1.327,0l7.38,7.38A.938.938,0,0,1,366.873,359.846Z" transform="translate(-355.566 -350.864)" fill="#678d98"/>
          </g>
          <g id="Grupo_29908" data-name="Grupo 29908" transform="translate(19.817 19.758)">
            <path id="Trazado_28677" data-name="Trazado 28677" d="M358.94,354.792a.938.938,0,0,1,0-1.327l1.438-1.438-.886-.886a.938.938,0,0,0-1.327,0l-2.324,2.324a.938.938,0,0,0,0,1.327l7.38,7.38a.938.938,0,0,0,1.327,0l.886-.886Z" transform="translate(-355.566 -350.865)" fill="#537983"/>
          </g>
          <path id="Trazado_28678" data-name="Trazado 28678" d="M165.08,153.716v-6.265a10.639,10.639,0,1,0,.161,6.518A.281.281,0,0,1,165.08,153.716Z" transform="translate(-144.396 -140.322)" fill="#678d98"/>
          <g id="Grupo_29909" data-name="Grupo 29909" transform="translate(0 0)">
            <path id="Trazado_28679" data-name="Trazado 28679" d="M146.636,150.961a10.64,10.64,0,0,1,9.519-10.58,10.772,10.772,0,0,0-1.12-.059,10.639,10.639,0,1,0,1.12,21.219A10.64,10.64,0,0,1,146.636,150.961Z" transform="translate(-144.396 -140.322)" fill="#537983"/>
          </g>
          <path id="Trazado_28680" data-name="Trazado 28680" d="M191.03,185.492a.281.281,0,0,1-.282-.282v-6.7a.282.282,0,0,1,.282-.282h1.536a7.375,7.375,0,1,0,.682,7.267Z" transform="translate(-175.889 -171.816)" fill="#c8effe"/>
          <g id="Grupo_29910" data-name="Grupo 29910" transform="translate(3.262 3.262)">
            <path id="Trazado_28681" data-name="Trazado 28681" d="M182.12,182.455a7.39,7.39,0,0,1,5.893-7.227,7.377,7.377,0,1,0,0,14.454A7.39,7.39,0,0,1,182.12,182.455Z" transform="translate(-179.152 -175.078)" fill="#99e6fc"/>
          </g>
        </g>
        <g id="Grupo_29928" data-name="Grupo 29928" transform="translate(22.585 10.331)">
          <g id="Grupo_29914" data-name="Grupo 29914" transform="translate(0 9.724)">
            <g id="Grupo_29913" data-name="Grupo 29913">
              <g id="Grupo_29912" data-name="Grupo 29912">
                <path id="Trazado_28682" data-name="Trazado 28682" d="M243.593,247.9h-2.646a.282.282,0,0,1-.282-.282v-3.388a.282.282,0,0,1,.282-.282h2.646a.282.282,0,0,1,.282.282v3.388A.281.281,0,0,1,243.593,247.9Z" transform="translate(-240.665 -243.947)" fill="#fd5426"/>
              </g>
            </g>
          </g>
          <g id="Grupo_29915" data-name="Grupo 29915" transform="translate(0 9.724)">
            <path id="Trazado_28683" data-name="Trazado 28683" d="M242.2,247.616v-3.388a.282.282,0,0,1,.282-.282h-1.533a.282.282,0,0,0-.282.282v3.388a.282.282,0,0,0,.282.282h1.533A.282.282,0,0,1,242.2,247.616Z" transform="translate(-240.665 -243.947)" fill="#ef4424"/>
          </g>
          <g id="Grupo_29918" data-name="Grupo 29918" transform="translate(5.825 6.408)">
            <g id="Grupo_29917" data-name="Grupo 29917">
              <g id="Grupo_29916" data-name="Grupo 29916">
                <path id="Trazado_28684" data-name="Trazado 28684" d="M305.664,215.877h-2.646a.282.282,0,0,1-.282-.282v-6.7a.282.282,0,0,1,.282-.282h2.646a.282.282,0,0,1,.282.282v6.7A.282.282,0,0,1,305.664,215.877Z" transform="translate(-302.736 -208.61)" fill="#fed402"/>
              </g>
            </g>
          </g>
          <g id="Grupo_29919" data-name="Grupo 29919" transform="translate(5.825 6.408)">
            <path id="Trazado_28685" data-name="Trazado 28685" d="M304.262,215.6v-6.7a.281.281,0,0,1,.281-.282h-1.526a.282.282,0,0,0-.282.282v6.7a.282.282,0,0,0,.282.282h1.526A.281.281,0,0,1,304.262,215.6Z" transform="translate(-302.736 -208.61)" fill="#fac600"/>
          </g>
          <g id="Grupo_29922" data-name="Grupo 29922" transform="translate(11.65)">
            <g id="Grupo_29921" data-name="Grupo 29921">
              <g id="Grupo_29920" data-name="Grupo 29920">
                <path id="Trazado_28686" data-name="Trazado 28686" d="M367.736,154H365.09a.281.281,0,0,1-.282-.282V140.6a.282.282,0,0,1,.282-.282h2.646a.282.282,0,0,1,.282.282v13.112A.281.281,0,0,1,367.736,154Z" transform="translate(-364.808 -140.323)" fill="#05e39c"/>
              </g>
            </g>
          </g>
          <g id="Grupo_29923" data-name="Grupo 29923" transform="translate(11.65)">
            <path id="Trazado_28687" data-name="Trazado 28687" d="M366.4,153.716V140.6a.281.281,0,0,1,.281-.282H365.09a.282.282,0,0,0-.282.282v13.112a.281.281,0,0,0,.282.282h1.595A.281.281,0,0,1,366.4,153.716Z" transform="translate(-364.808 -140.323)" fill="#0ed290"/>
          </g>
          <g id="Grupo_29926" data-name="Grupo 29926" transform="translate(17.475 3.209)">
            <g id="Grupo_29925" data-name="Grupo 29925">
              <g id="Grupo_29924" data-name="Grupo 29924">
                <path id="Trazado_28688" data-name="Trazado 28688" d="M429.807,184.986h-2.646a.282.282,0,0,1-.282-.282v-9.9a.282.282,0,0,1,.282-.282h2.646a.282.282,0,0,1,.282.282v9.9A.282.282,0,0,1,429.807,184.986Z" transform="translate(-426.879 -174.52)" fill="#01d0fb"/>
              </g>
            </g>
          </g>
          <g id="Grupo_29927" data-name="Grupo 29927" transform="translate(17.475 3.209)">
            <path id="Trazado_28689" data-name="Trazado 28689" d="M428.467,184.7v-9.9a.281.281,0,0,1,.282-.282h-1.588a.282.282,0,0,0-.282.282v9.9a.282.282,0,0,0,.282.282h1.588A.281.281,0,0,1,428.467,184.7Z" transform="translate(-426.879 -174.52)" fill="#01c0fa"/>
          </g>
        </g>
        <g id="Grupo_29929" data-name="Grupo 29929" transform="translate(4.124 9.162)">
          <path id="Trazado_28690" data-name="Trazado 28690" d="M48.38,132.555H44.2a.257.257,0,0,1-.257-.257V128.12a.257.257,0,0,1,.257-.257H48.38a.257.257,0,0,1,.257.257V132.3A.257.257,0,0,1,48.38,132.555Z" transform="translate(-43.945 -127.863)" fill="#01d0fb"/>
        </g>
        <g id="Grupo_29930" data-name="Grupo 29930" transform="translate(4.124 9.162)">
          <path id="Trazado_28691" data-name="Trazado 28691" d="M46.2,132.3V128.12a.257.257,0,0,1,.257-.257H44.2a.257.257,0,0,0-.257.257V132.3a.257.257,0,0,0,.257.257H46.46A.257.257,0,0,1,46.2,132.3Z" transform="translate(-43.945 -127.863)" fill="#01c0fa"/>
        </g>
        <g id="Grupo_29931" data-name="Grupo 29931" transform="translate(4.124 16.743)">
          <path id="Trazado_28692" data-name="Trazado 28692" d="M48.38,213.339H44.2a.257.257,0,0,1-.257-.257V208.9a.257.257,0,0,1,.257-.257H48.38a.257.257,0,0,1,.257.257v4.178A.257.257,0,0,1,48.38,213.339Z" transform="translate(-43.945 -208.647)" fill="#05e39c"/>
        </g>
        <g id="Grupo_29932" data-name="Grupo 29932" transform="translate(4.124 16.743)">
          <path id="Trazado_28693" data-name="Trazado 28693" d="M46.2,213.082V208.9a.257.257,0,0,1,.257-.257H44.2a.257.257,0,0,0-.257.257v4.178a.257.257,0,0,0,.257.257H46.46A.257.257,0,0,1,46.2,213.082Z" transform="translate(-43.945 -208.647)" fill="#0ed290"/>
        </g>
        <g id="Grupo_29933" data-name="Grupo 29933" transform="translate(0.704 0.704)">
          <path id="Trazado_28694" data-name="Trazado 28694" d="M53.07,37.731H8.57A1.07,1.07,0,0,0,7.5,38.8v3.744H54.14V38.8a1.07,1.07,0,0,0-1.07-1.07Z" transform="translate(-7.5 -37.731)" fill="#7ca1b1"/>
        </g>
        <g id="Grupo_29934" data-name="Grupo 29934" transform="translate(0.704 0.704)">
          <path id="Trazado_28695" data-name="Trazado 28695" d="M8.57,37.731A1.07,1.07,0,0,0,7.5,38.8v3.744h7.7V37.731Z" transform="translate(-7.5 -37.731)" fill="#678d98"/>
        </g>
        <path id="Trazado_28696" data-name="Trazado 28696" d="M12.37,37.731H8.57A1.07,1.07,0,0,0,7.5,38.8v3.744h3.8V38.8a1.07,1.07,0,0,1,1.07-1.07Z" transform="translate(-6.796 -37.027)" fill="#537983"/>
        <g id="Grupo_29935" data-name="Grupo 29935" transform="translate(0 0)">
          <path id="Trazado_28697" data-name="Trazado 28697" d="M43.676,288.99H37.148a.7.7,0,1,0,0,1.408h6.528a.7.7,0,0,0,0-1.408Z" transform="translate(-33.024 -264.708)" fill="#111e61"/>
          <path id="Trazado_28698" data-name="Trazado 28698" d="M43.676,319.768H37.148a.7.7,0,0,0,0,1.408h6.528a.7.7,0,0,0,0-1.408Z" transform="translate(-33.024 -292.597)" fill="#111e61"/>
          <path id="Trazado_28699" data-name="Trazado 28699" d="M44.38,351.249a.7.7,0,0,0-.7-.7H37.148a.7.7,0,1,0,0,1.408h6.528A.7.7,0,0,0,44.38,351.249Z" transform="translate(-33.024 -320.486)" fill="#111e61"/>
          <path id="Trazado_28700" data-name="Trazado 28700" d="M37.148,381.323a.7.7,0,1,0,0,1.408H41a.7.7,0,1,0,0-1.408Z" transform="translate(-33.024 -348.376)" fill="#111e61"/>
          <path id="Trazado_28701" data-name="Trazado 28701" d="M37.406,126.462h4.178a.962.962,0,0,0,.961-.961v-4.178a.962.962,0,0,0-.961-.961H37.406a.962.962,0,0,0-.961.961V125.5A.962.962,0,0,0,37.406,126.462Zm.447-4.692h3.285v3.284H37.853Z" transform="translate(-33.025 -111.904)" fill="#111e61"/>
          <path id="Trazado_28702" data-name="Trazado 28702" d="M36.444,206.285a.962.962,0,0,0,.961.961h4.178a.962.962,0,0,0,.961-.961v-4.178a.962.962,0,0,0-.961-.961H37.405a.962.962,0,0,0-.961.961v4.178Zm1.408-3.731h3.285v3.284H37.852Z" transform="translate(-33.024 -185.107)" fill="#111e61"/>
          <path id="Trazado_28703" data-name="Trazado 28703" d="M433.438,56.262a.7.7,0,1,0,0-1.408H431.28a.7.7,0,1,0,0,1.408Z" transform="translate(-390.169 -52.543)" fill="#111e61"/>
          <path id="Trazado_28704" data-name="Trazado 28704" d="M423.01,178.894a.986.986,0,0,0,.985-.985v-9.9a.986.986,0,0,0-.985-.985h-2.646a.986.986,0,0,0-.985.985v9.9a.986.986,0,0,0,.985.985Zm-2.224-10.466h1.8v9.058h-1.8Z" transform="translate(-380.023 -154.183)" fill="#111e61"/>
          <path id="Trazado_28705" data-name="Trazado 28705" d="M236.8,236.447H234.15a.986.986,0,0,0-.985.985v3.388a.986.986,0,0,0,.985.985H236.8a.986.986,0,0,0,.985-.985v-3.388A.986.986,0,0,0,236.8,236.447Zm-.422,3.951h-1.8v-2.543h1.8Z" transform="translate(-211.284 -217.095)" fill="#111e61"/>
          <path id="Trazado_28706" data-name="Trazado 28706" d="M186.881,170.725h-.755a8.079,8.079,0,1,0,.767,8.674.986.986,0,0,0,.973-.985v-6.7A.986.986,0,0,0,186.881,170.725Zm-7.148,11.607a6.673,6.673,0,1,1,4.488-11.607.986.986,0,0,0-.971.985v6.7a.986.986,0,0,0,.985.985h1.019A6.668,6.668,0,0,1,179.733,182.332Zm6.726-4.341h-1.8v-5.859h1.8Z" transform="translate(-155.544 -154.689)" fill="#111e61"/>
          <path id="Trazado_28707" data-name="Trazado 28707" d="M46.274,30.231H15.766a.7.7,0,1,0,0,1.408H46.274A.366.366,0,0,1,46.64,32v3.04H9.11V31.639h3.371a.7.7,0,1,0,0-1.408H1.774A1.776,1.776,0,0,0,0,32V66.128A1.776,1.776,0,0,0,1.774,67.9h25.91a.7.7,0,1,0,0-1.408H1.774a.366.366,0,0,1-.366-.366V36.452H46.64V66.128a.366.366,0,0,1-.366.366H44.189l-6.4-6.4a1.644,1.644,0,0,0-1.883-.312l-2.292-2.292A11.319,11.319,0,0,0,34.9,54.941h2.267a.986.986,0,0,0,.985-.985V47.57a.7.7,0,0,0-1.408,0v5.963h-1.8V41.266h1.8v3.02a.7.7,0,0,0,1.408,0V40.844a.986.986,0,0,0-.985-.985H34.516a.986.986,0,0,0-.985.985v3.934A11.344,11.344,0,1,0,30.484,60.63L32.8,62.941a1.644,1.644,0,0,0,.349,1.8l1.75,1.75H30.968a.7.7,0,1,0,0,1.408H36.3l4.222,4.222a1.644,1.644,0,0,0,2.323,0L45.171,69.8a1.644,1.644,0,0,0,.305-1.9h.8a1.776,1.776,0,0,0,1.774-1.774V32a1.775,1.775,0,0,0-1.773-1.774ZM7.7,35.045H1.408V32a.366.366,0,0,1,.366-.366H7.7ZM24.189,61.136a9.935,9.935,0,1,1,9.341-13.318v6.138a.979.979,0,0,0,.082.393A9.952,9.952,0,0,1,24.189,61.136Zm7.422-1.369a11.44,11.44,0,0,0,1.144-1.144l2.094,2.094-1.144,1.144ZM44.176,68.8l-2.324,2.324a.235.235,0,0,1-.332,0l-7.38-7.38a.235.235,0,0,1,0-.332l2.324-2.324a.235.235,0,0,1,.332,0l7.38,7.38A.235.235,0,0,1,44.176,68.8Z" transform="translate(0 -30.231)" fill="#111e61"/>
        </g>
      </g>
    </g>
    <g id="Grupo_30432" data-name="Grupo 30432" transform="translate(14)">
      <path id="Trazado_29288" data-name="Trazado 29288" d="M34.5,0A34.5,34.5,0,1,1,0,34.5,34.5,34.5,0,0,1,34.5,0Z" transform="translate(395 2347)" fill="#ffe7c4"/>
      <g id="_010-market_analysis" data-name="010-market analysis" transform="translate(406 2357)">
        <g id="Grupo_29956" data-name="Grupo 29956" transform="translate(7.598 13.485)">
          <g id="Grupo_29946" data-name="Grupo 29946" transform="translate(0 12.851)">
            <g id="Grupo_29936" data-name="Grupo 29936" transform="translate(0 8.899)">
              <path id="Trazado_28708" data-name="Trazado 28708" d="M90.6,387.579H85.653V375.846a.375.375,0,0,1,.375-.375h4.192a.375.375,0,0,1,.375.375Z" transform="translate(-85.653 -375.471)" fill="#fd5426"/>
            </g>
            <g id="Grupo_29937" data-name="Grupo 29937" transform="translate(0 8.899)">
              <path id="Trazado_28709" data-name="Trazado 28709" d="M87.969,375.471h-1.94a.375.375,0,0,0-.375.375v11.733h1.94V375.846A.375.375,0,0,1,87.969,375.471Z" transform="translate(-85.653 -375.471)" fill="#ef4424"/>
            </g>
            <g id="Grupo_29938" data-name="Grupo 29938" transform="translate(7.538)">
              <path id="Trazado_28710" data-name="Trazado 28710" d="M170.921,301.651h-4.943V281.019a.375.375,0,0,1,.375-.375h4.192a.375.375,0,0,1,.375.375Z" transform="translate(-165.978 -280.644)" fill="#05e39c"/>
            </g>
            <g id="Grupo_29939" data-name="Grupo 29939" transform="translate(7.538)">
              <path id="Trazado_28711" data-name="Trazado 28711" d="M168.263,280.644h-1.91a.375.375,0,0,0-.375.375v20.632h1.91V281.019A.375.375,0,0,1,168.263,280.644Z" transform="translate(-165.978 -280.644)" fill="#0ed290"/>
            </g>
            <g id="Grupo_29940" data-name="Grupo 29940" transform="translate(15.076 4.201)">
              <path id="Trazado_28712" data-name="Trazado 28712" d="M251.245,342.221H246.3V325.79a.375.375,0,0,1,.375-.375h4.192a.375.375,0,0,1,.375.375Z" transform="translate(-246.302 -325.415)" fill="#fed402"/>
            </g>
            <g id="Grupo_29941" data-name="Grupo 29941" transform="translate(15.076 4.201)">
              <path id="Trazado_28713" data-name="Trazado 28713" d="M248.621,325.415h-1.942a.375.375,0,0,0-.375.375v16.43h1.942V325.79A.375.375,0,0,1,248.621,325.415Z" transform="translate(-246.303 -325.415)" fill="#fac600"/>
            </g>
            <g id="Grupo_29942" data-name="Grupo 29942" transform="translate(22.614 9.021)">
              <path id="Trazado_28714" data-name="Trazado 28714" d="M331.57,388.756h-4.943V377.145a.375.375,0,0,1,.375-.375h4.192a.375.375,0,0,1,.375.375Z" transform="translate(-326.627 -376.77)" fill="#fd5426"/>
            </g>
            <g id="Grupo_29943" data-name="Grupo 29943" transform="translate(22.614 9.021)">
              <path id="Trazado_28715" data-name="Trazado 28715" d="M328.945,376.77H327a.375.375,0,0,0-.375.375v11.611h1.943V377.145A.375.375,0,0,1,328.945,376.77Z" transform="translate(-326.627 -376.77)" fill="#ef4424"/>
            </g>
            <g id="Grupo_29944" data-name="Grupo 29944" transform="translate(30.152 0.154)">
              <path id="Trazado_28716" data-name="Trazado 28716" d="M411.895,303.136h-4.943V282.658a.375.375,0,0,1,.375-.375h4.192a.375.375,0,0,1,.375.375Z" transform="translate(-406.952 -282.283)" fill="#05e39c"/>
            </g>
            <g id="Grupo_29945" data-name="Grupo 29945" transform="translate(30.152 0.154)">
              <path id="Trazado_28717" data-name="Trazado 28717" d="M409.24,282.283h-1.912a.375.375,0,0,0-.375.375v20.478h1.912V282.658a.375.375,0,0,1,.375-.375Z" transform="translate(-406.952 -282.283)" fill="#0ed290"/>
            </g>
          </g>
          <g id="Grupo_29955" data-name="Grupo 29955">
            <g id="Grupo_29947" data-name="Grupo 29947" transform="translate(0 7.291)">
              <ellipse id="Elipse_1552" data-name="Elipse 1552" cx="2.471" cy="2.471" rx="2.471" ry="2.471" fill="#fd5426"/>
            </g>
            <g id="Grupo_29948" data-name="Grupo 29948" transform="translate(0 7.291)">
              <path id="Trazado_28718" data-name="Trazado 28718" d="M87.592,223.859a2.472,2.472,0,0,1,1.5-2.274,2.471,2.471,0,1,0,0,4.547A2.472,2.472,0,0,1,87.592,223.859Z" transform="translate(-85.652 -221.388)" fill="#ef4424"/>
            </g>
            <g id="Grupo_29949" data-name="Grupo 29949" transform="translate(7.538)">
              <ellipse id="Elipse_1553" data-name="Elipse 1553" cx="2.471" cy="2.471" rx="2.471" ry="2.471" fill="#05e39c"/>
            </g>
            <g id="Grupo_29950" data-name="Grupo 29950" transform="translate(7.538)">
              <path id="Trazado_28719" data-name="Trazado 28719" d="M167.888,146.168a2.472,2.472,0,0,1,1.517-2.28,2.471,2.471,0,1,0,0,4.56A2.472,2.472,0,0,1,167.888,146.168Z" transform="translate(-165.978 -143.697)" fill="#0ed290"/>
            </g>
            <g id="Grupo_29951" data-name="Grupo 29951" transform="translate(22.614 11.616)">
              <ellipse id="Elipse_1554" data-name="Elipse 1554" cx="2.471" cy="2.471" rx="2.471" ry="2.471" fill="#fd5426"/>
            </g>
            <g id="Grupo_29952" data-name="Grupo 29952" transform="translate(22.614 11.616)">
              <path id="Trazado_28720" data-name="Trazado 28720" d="M328.57,269.947a2.472,2.472,0,0,1,1.5-2.273,2.471,2.471,0,1,0,0,4.546A2.472,2.472,0,0,1,328.57,269.947Z" transform="translate(-326.627 -267.475)" fill="#ef4424"/>
            </g>
            <g id="Grupo_29953" data-name="Grupo 29953" transform="translate(30.152 3.831)">
              <ellipse id="Elipse_1555" data-name="Elipse 1555" cx="2.471" cy="2.471" rx="2.471" ry="2.471" fill="#05e39c"/>
            </g>
            <g id="Grupo_29954" data-name="Grupo 29954" transform="translate(30.152 3.831)">
              <path id="Trazado_28721" data-name="Trazado 28721" d="M408.864,186.989a2.472,2.472,0,0,1,1.515-2.28,2.471,2.471,0,1,0,0,4.559A2.472,2.472,0,0,1,408.864,186.989Z" transform="translate(-406.952 -184.518)" fill="#0ed290"/>
            </g>
          </g>
        </g>
        <g id="Grupo_29959" data-name="Grupo 29959" transform="translate(0.704 7.767)">
          <g id="Grupo_29957" data-name="Grupo 29957" transform="translate(0)">
            <path id="Trazado_28722" data-name="Trazado 28722" d="M24.729,88.316H12.639a.449.449,0,0,1-.448-.448V83.214a.449.449,0,0,1,.448-.448h12.09a.449.449,0,0,1,.448.448v4.653A.448.448,0,0,1,24.729,88.316Z" transform="translate(-12.191 -82.766)" fill="#fed402"/>
          </g>
          <g id="Grupo_29958" data-name="Grupo 29958" transform="translate(0 0)">
            <path id="Trazado_28723" data-name="Trazado 28723" d="M15.14,87.867V83.214a.448.448,0,0,1,.448-.448H12.639a.449.449,0,0,0-.448.448v4.653a.449.449,0,0,0,.448.448h2.949A.448.448,0,0,1,15.14,87.867Z" transform="translate(-12.191 -82.766)" fill="#fac600"/>
          </g>
        </g>
        <g id="Grupo_29963" data-name="Grupo 29963" transform="translate(34.002 0.704)">
          <g id="Grupo_29960" data-name="Grupo 29960">
            <path id="Trazado_28724" data-name="Trazado 28724" d="M379.482,13.731a6.231,6.231,0,1,0-7.555,6.088.56.56,0,0,1,.413.366l.911,1.553.912-1.554a.558.558,0,0,1,.41-.366,6.232,6.232,0,0,0,4.909-6.089Z" transform="translate(-367.021 -7.5)" fill="#fed402"/>
          </g>
          <g id="Grupo_29962" data-name="Grupo 29962" transform="translate(0 0.159)">
            <g id="Grupo_29961" data-name="Grupo 29961">
              <path id="Trazado_28725" data-name="Trazado 28725" d="M374.5,20.759a.56.56,0,0,0-.413-.366,6.225,6.225,0,0,1-2.228-11.2,6.23,6.23,0,0,0,.071,12.16.56.56,0,0,1,.413.366l.911,1.553.912-1.554a.558.558,0,0,1,.41-.366c.08-.017.159-.037.238-.057Z" transform="translate(-367.021 -9.193)" fill="#fac600"/>
            </g>
          </g>
        </g>
        <g id="Grupo_29964" data-name="Grupo 29964" transform="translate(0 0)">
          <path id="Trazado_28726" data-name="Trazado 28726" d="M92.558,294.151H90.791V280.356a.7.7,0,0,0-1.408,0v13.795H85.848V274.705h3.535v2.366a.7.7,0,0,0,1.408,0v-2.695a1.08,1.08,0,0,0-1.079-1.079H85.519a1.08,1.08,0,0,0-1.079,1.079v19.774H83.253V283.244a1.08,1.08,0,0,0-1.079-1.079H77.981a1.08,1.08,0,0,0-1.079,1.079v10.907H75.715V278.425a1.08,1.08,0,0,0-1.079-1.079H70.444a1.08,1.08,0,0,0-1.079,1.079v15.727H68.177V290.4a.7.7,0,0,0-1.408,0v3.754H63.234v-19.6h3.535v12.561a.7.7,0,1,0,1.408,0v-12.89a1.08,1.08,0,0,0-1.079-1.079H62.906a1.08,1.08,0,0,0-1.079,1.079v19.928H60.639V283.122a1.08,1.08,0,0,0-1.079-1.079H55.368a1.08,1.08,0,0,0-1.079,1.079v11.029H52.521a.7.7,0,0,0,0,1.408H92.558a.7.7,0,1,0,0-1.408Zm-33.327,0H55.7v-10.7h3.535Zm15.076,0H70.772v-15.4h3.535Zm7.538,0H78.31V283.572h3.535Z" transform="translate(-47.395 -247.512)" fill="#111e61"/>
          <path id="Trazado_28727" data-name="Trazado 28727" d="M15.76,84.16a6.5,6.5,0,0,0,1.38,4.01l-.644.623a3.173,3.173,0,1,0,.979,1.011l.643-.622a6.523,6.523,0,0,0,8.9-.5l7.478,5.762a3.175,3.175,0,1,0,5.54-.4L43.265,90.7a3.184,3.184,0,1,0-1.011-.98l-3.232,3.338a3.169,3.169,0,0,0-3.67.267l-7.476-5.76a6.532,6.532,0,0,0,.471-5.893.7.7,0,1,0-1.3.535,5.122,5.122,0,0,1-.293,4.492L25.18,85.492a3.175,3.175,0,1,0-5.6.314l-1.426,1.379a5.117,5.117,0,0,1-.61-4.961h.386a1.153,1.153,0,0,0,1.152-1.152v-.907a5.118,5.118,0,0,1,6.139-.219.7.7,0,0,0,.8-1.155,6.528,6.528,0,0,0-6.942-.323V76.419a1.154,1.154,0,0,0-1.152-1.152H5.844a1.153,1.153,0,0,0-1.152,1.152v4.653a1.154,1.154,0,0,0,1.152,1.152H16.056a6.494,6.494,0,0,0-.3,1.935Zm-1,9.058a1.768,1.768,0,1,1,1.768-1.768A1.77,1.77,0,0,1,14.761,93.218Zm30.152-7a1.768,1.768,0,1,1-1.768,1.768A1.77,1.77,0,0,1,44.913,86.223Zm-7.538,7.785a1.768,1.768,0,1,1-1.768,1.768A1.77,1.77,0,0,1,37.375,94.008ZM22.3,82.392a1.768,1.768,0,1,1-1.768,1.768A1.77,1.77,0,0,1,22.3,82.392Zm-1.735,4.425a3.167,3.167,0,0,0,3.757-.211l1.572,1.211a5.117,5.117,0,0,1-6.755.379Zm-14.464-6V76.675H17.679v4.142Z" transform="translate(-4.692 -68.204)" fill="#111e61"/>
          <path id="Trazado_28728" data-name="Trazado 28728" d="M33.163,104.837H31.469a.7.7,0,1,0,0,1.408h1.694a.7.7,0,1,0,0-1.408Z" transform="translate(-28.318 -94.999)" fill="#111e61"/>
          <path id="Trazado_28729" data-name="Trazado 28729" d="M77.147,104.837h-4.2a.7.7,0,1,0,0,1.408h4.2a.7.7,0,1,0,0-1.408Z" transform="translate(-65.903 -94.999)" fill="#111e61"/>
          <path id="Trazado_28730" data-name="Trazado 28730" d="M364.909,13.694q.012.026.027.051l.912,1.553a.7.7,0,0,0,1.214,0l.912-1.554c.01-.017.019-.033.027-.051a6.97,6.97,0,0,0,5.389-6.76,6.935,6.935,0,1,0-8.48,6.76Zm-3.974-7.049a5.565,5.565,0,0,1,5.257-5.232,5.527,5.527,0,0,1,5.789,5.521,5.553,5.553,0,0,1-4.354,5.4,1.269,1.269,0,0,0-.9.746l-.276.47-.276-.47a1.273,1.273,0,0,0-.9-.747A5.509,5.509,0,0,1,360.935,6.645Z" transform="translate(-326.222 0)" fill="#111e61"/>
          <path id="Trazado_28731" data-name="Trazado 28731" d="M406.478,29.941h1.432a.592.592,0,0,1,0,1.184h-2.523a.7.7,0,1,0,0,1.408h1.1v.626a.7.7,0,0,0,1.408,0v-.626h.012a2,2,0,0,0,0-4h-1.432a.592.592,0,1,1,0-1.184H409a.7.7,0,1,0,0-1.408h-1.1v-.626a.7.7,0,0,0-1.408,0v.626h-.012a2,2,0,1,0,0,4Z" transform="translate(-366.961 -22.302)" fill="#111e61"/>
        </g>
      </g>
    </g>
  </g>
</svg>
