<svg xmlns="http://www.w3.org/2000/svg" width="396" height="957" viewBox="0 0 396 957">
  <g id="Grupo_53270" data-name="Grupo 53270" transform="translate(10007 3403)">
    <path id="Trazado_29443" data-name="Trazado 29443" d="M10,0H386a10,10,0,0,1,10,10V947a10,10,0,0,1-10,10H10A10,10,0,0,1,0,947V10A10,10,0,0,1,10,0Z" transform="translate(-10007 -3403)" fill="#ecfafc"/>
    <g id="Grupo_30535" data-name="Grupo 30535" transform="translate(4.979 -895)">
      <path id="Icon_awesome-long-arrow-alt-down" data-name="Icon awesome-long-arrow-alt-down" d="M11.812,14.324V-6.906a.844.844,0,0,0-.844-.844H7.031a.844.844,0,0,0-.844.844v21.23H2.949A1.688,1.688,0,0,0,1.756,17.2l6.051,6.051a1.687,1.687,0,0,0,2.386,0L16.244,17.2a1.688,1.688,0,0,0-1.193-2.881Z" transform="translate(-9827.258 -1732.733)" fill="#26a69a"/>
      <path id="Trazado_29419" data-name="Trazado 29419" d="M11.907,11.907,128.488-14.142,102.439,102.439-14.142,128.488Z" transform="translate(-9818.146 -2100.093) rotate(45)" fill="#4dd0e1"/>
      <path id="Trazado_98947" data-name="Trazado 98947" d="M4.477-1.039a1.81,1.81,0,0,0,1.242-.473,1.494,1.494,0,0,0,.531-1.16H7.641l.023.047A2.428,2.428,0,0,1,6.727-.684a3.313,3.313,0,0,1-2.25.848,3.319,3.319,0,0,1-2.75-1.211A4.674,4.674,0,0,1,.758-4.062v-.328a4.654,4.654,0,0,1,.973-3A3.317,3.317,0,0,1,4.477-8.609a3.189,3.189,0,0,1,2.316.875,2.775,2.775,0,0,1,.871,2.148l-.016.047H6.25a1.865,1.865,0,0,0-.5-1.316A1.658,1.658,0,0,0,4.477-7.4a1.777,1.777,0,0,0-1.652.879A4.114,4.114,0,0,0,2.3-4.391v.328a4.192,4.192,0,0,0,.512,2.148A1.776,1.776,0,0,0,4.477-1.039ZM9.133-4.3a4.654,4.654,0,0,1,1.016-3.09,3.406,3.406,0,0,1,2.758-1.215A3.439,3.439,0,0,1,15.684-7.4,4.639,4.639,0,0,1,16.7-4.3v.172a4.631,4.631,0,0,1-1.016,3.094,3.429,3.429,0,0,1-2.766,1.2,3.436,3.436,0,0,1-2.77-1.207,4.623,4.623,0,0,1-1.02-3.09Zm1.539.172a4.009,4.009,0,0,0,.566,2.219,1.875,1.875,0,0,0,1.684.875,1.87,1.87,0,0,0,1.672-.875,3.988,3.988,0,0,0,.57-2.219V-4.3a3.976,3.976,0,0,0-.574-2.211A1.882,1.882,0,0,0,12.906-7.4a1.856,1.856,0,0,0-1.668.883A4.018,4.018,0,0,0,10.672-4.3Zm9.289-4.32L20.07-7.2a3.069,3.069,0,0,1,1.059-1.043,2.824,2.824,0,0,1,1.449-.371,2.759,2.759,0,0,1,2.117.8,3.515,3.515,0,0,1,.75,2.473V0H23.906V-5.3a2.287,2.287,0,0,0-.441-1.586,1.768,1.768,0,0,0-1.348-.469,2.386,2.386,0,0,0-1.207.285,2.072,2.072,0,0,0-.785.8V0H18.586V-8.453Zm9.859-2.039v2.039h1.6v1.141h-1.6V-2.18a1.149,1.149,0,0,0,.246.836.89.89,0,0,0,.652.242,1.429,1.429,0,0,0,.3-.035,2.2,2.2,0,0,0,.273-.074L31.5-.156a1.36,1.36,0,0,1-.508.23,2.562,2.562,0,0,1-.664.09A1.993,1.993,0,0,1,28.836-.4a2.46,2.46,0,0,1-.555-1.777V-7.312H26.938V-8.453h1.344v-2.039ZM38.266,0q-.078-.383-.121-.676a4.96,4.96,0,0,1-.051-.59,3.589,3.589,0,0,1-1.121,1.02,2.867,2.867,0,0,1-1.488.41,2.763,2.763,0,0,1-2.012-.676,2.486,2.486,0,0,1-.691-1.863,2.183,2.183,0,0,1,.98-1.895,4.579,4.579,0,0,1,2.66-.684h1.672v-.836a1.551,1.551,0,0,0-.453-1.176A1.779,1.779,0,0,0,36.359-7.4a1.859,1.859,0,0,0-1.211.375,1.125,1.125,0,0,0-.461.9l-1.461.016-.016-.047a2.023,2.023,0,0,1,.863-1.687,3.578,3.578,0,0,1,2.371-.766,3.49,3.49,0,0,1,2.313.73,2.588,2.588,0,0,1,.875,2.105V-1.7a7.923,7.923,0,0,0,.047.875A4.5,4.5,0,0,0,39.852,0ZM35.711-1.125a2.739,2.739,0,0,0,1.508-.43,2.042,2.042,0,0,0,.875-.984V-3.914H36.367a2.24,2.24,0,0,0-1.488.469,1.4,1.4,0,0,0-.559,1.1,1.159,1.159,0,0,0,.352.891A1.472,1.472,0,0,0,35.711-1.125Zm5.8-2.945a5.641,5.641,0,0,1,.871-3.289,2.807,2.807,0,0,1,2.441-1.25,3.027,3.027,0,0,1,1.316.273,2.7,2.7,0,0,1,.98.8v-4.648h1.539V0h-1.18L47.25-1.07a2.743,2.743,0,0,1-1.023.922,3.058,3.058,0,0,1-1.414.313A2.9,2.9,0,0,1,42.391-.957a4.659,4.659,0,0,1-.875-2.949Zm1.539.164a3.588,3.588,0,0,0,.523,2.051,1.828,1.828,0,0,0,1.625.77A2.039,2.039,0,0,0,46.359-1.4a2.334,2.334,0,0,0,.766-.875V-6.219a2.37,2.37,0,0,0-.77-.832,2.033,2.033,0,0,0-1.137-.309,1.759,1.759,0,0,0-1.637.914,4.718,4.718,0,0,0-.527,2.375ZM50.6-4.3a4.654,4.654,0,0,1,1.016-3.09,3.406,3.406,0,0,1,2.758-1.215A3.439,3.439,0,0,1,57.152-7.4,4.639,4.639,0,0,1,58.172-4.3v.172a4.631,4.631,0,0,1-1.016,3.094,3.429,3.429,0,0,1-2.766,1.2,3.436,3.436,0,0,1-2.77-1.207,4.623,4.623,0,0,1-1.02-3.09Zm1.539.172a4.009,4.009,0,0,0,.566,2.219,1.875,1.875,0,0,0,1.684.875,1.87,1.87,0,0,0,1.672-.875,3.988,3.988,0,0,0,.57-2.219V-4.3a3.976,3.976,0,0,0-.574-2.211A1.882,1.882,0,0,0,54.375-7.4a1.856,1.856,0,0,0-1.668.883A4.018,4.018,0,0,0,52.141-4.3ZM64.055-7.094l-.789-.047a1.762,1.762,0,0,0-1.027.289,1.855,1.855,0,0,0-.645.813V0H60.055V-8.453H61.43l.148,1.234a2.934,2.934,0,0,1,.887-1.023,2.073,2.073,0,0,1,1.215-.367,1.9,1.9,0,0,1,.328.027,2.175,2.175,0,0,1,.258.059Zm7.023,2.57-.664.141v.047l.664.148,4.367,1.781v1.57L69.07-3.8V-4.961l6.375-2.953v1.57ZM84.344-6.43H77.828V-7.711h6.516Zm0,3.25H77.828V-4.461h6.516Zm7.773-5.273L92.227-7.2a3.069,3.069,0,0,1,1.059-1.043,2.824,2.824,0,0,1,1.449-.371,2.759,2.759,0,0,1,2.117.8,3.515,3.515,0,0,1,.75,2.473V0H96.063V-5.3a2.287,2.287,0,0,0-.441-1.586,1.768,1.768,0,0,0-1.348-.469,2.386,2.386,0,0,0-1.207.285,2.072,2.072,0,0,0-.785.8V0H90.742V-8.453ZM105.2-1.25A2.863,2.863,0,0,1,104.18-.2a2.8,2.8,0,0,1-1.445.367,2.716,2.716,0,0,1-2.156-.883,4.1,4.1,0,0,1-.773-2.75V-8.453h1.539v5a3.147,3.147,0,0,0,.4,1.859,1.481,1.481,0,0,0,1.242.508,2.531,2.531,0,0,0,1.355-.332,2.077,2.077,0,0,0,.809-.941V-8.453h1.539V0H105.3Zm5.1-7.2.109,1.109a2.871,2.871,0,0,1,1.051-.934,3.158,3.158,0,0,1,1.48-.332,2.615,2.615,0,0,1,1.449.391,2.363,2.363,0,0,1,.91,1.172,3.162,3.162,0,0,1,1.059-1.145,2.769,2.769,0,0,1,1.527-.418,2.531,2.531,0,0,1,2.039.887,4.051,4.051,0,0,1,.75,2.668V0h-1.539V-5.07a2.81,2.81,0,0,0-.43-1.77,1.567,1.567,0,0,0-1.281-.52,1.631,1.631,0,0,0-1.277.547,2.381,2.381,0,0,0-.574,1.383V0h-1.547V-5.07a2.772,2.772,0,0,0-.441-1.738,1.532,1.532,0,0,0-1.27-.551,2.115,2.115,0,0,0-1.156.289,1.867,1.867,0,0,0-.7.813V0H108.93V-8.453ZM126.414.164A3.576,3.576,0,0,1,123.574-1a4.48,4.48,0,0,1-1.02-3.062v-.344a4.386,4.386,0,0,1,1.051-3.012,3.3,3.3,0,0,1,2.566-1.191,3.067,3.067,0,0,1,2.543,1.055,4.345,4.345,0,0,1,.848,2.8v.813h-5.406l-.023.039a3.494,3.494,0,0,0,.563,2.066,1.965,1.965,0,0,0,1.719.793,3.872,3.872,0,0,0,1.371-.223,3.061,3.061,0,0,0,1.012-.613l.6,1a3.7,3.7,0,0,1-1.2.738A4.762,4.762,0,0,1,126.414.164ZM126.172-7.4a1.673,1.673,0,0,0-1.332.621,2.938,2.938,0,0,0-.645,1.59l.016.039h3.813v-.125A2.462,2.462,0,0,0,127.57-6.8,1.638,1.638,0,0,0,126.172-7.4Zm9.117.3-.789-.047a1.762,1.762,0,0,0-1.027.289,1.855,1.855,0,0,0-.645.813V0h-1.539V-8.453h1.375l.148,1.234a2.934,2.934,0,0,1,.887-1.023,2.073,2.073,0,0,1,1.215-.367,1.9,1.9,0,0,1,.328.027,2.174,2.174,0,0,1,.258.059ZM136.375-4.3a4.654,4.654,0,0,1,1.016-3.09,3.406,3.406,0,0,1,2.758-1.215A3.439,3.439,0,0,1,142.926-7.4a4.639,4.639,0,0,1,1.02,3.094v.172a4.631,4.631,0,0,1-1.016,3.094,3.429,3.429,0,0,1-2.766,1.2,3.436,3.436,0,0,1-2.77-1.207,4.623,4.623,0,0,1-1.02-3.09Zm1.539.172a4.009,4.009,0,0,0,.566,2.219,1.875,1.875,0,0,0,1.684.875,1.87,1.87,0,0,0,1.672-.875,3.988,3.988,0,0,0,.57-2.219V-4.3a3.976,3.976,0,0,0-.574-2.211,1.882,1.882,0,0,0-1.684-.883,1.856,1.856,0,0,0-1.668.883,4.018,4.018,0,0,0-.566,2.211Z" transform="translate(-9889 -2015.045)" fill="#00104e"/>
      <path id="Trazado_98948" data-name="Trazado 98948" d="M9.93,0H8.391L2.914-8.687l-.047.016V0H1.328V-11.375H2.867L8.344-2.7l.047-.016v-8.664H9.93ZM21.281-4.672a4.853,4.853,0,0,1-1.293,3.461A4.4,4.4,0,0,1,16.633.164a4.167,4.167,0,0,1-3.238-1.375,4.959,4.959,0,0,1-1.246-3.461V-6.7a4.977,4.977,0,0,1,1.246-3.461,4.156,4.156,0,0,1,3.238-1.383,4.39,4.39,0,0,1,3.355,1.379A4.867,4.867,0,0,1,21.281-6.7ZM19.742-6.711A3.837,3.837,0,0,0,18.9-9.273a2.813,2.813,0,0,0-2.266-1,2.606,2.606,0,0,0-2.145,1,3.972,3.972,0,0,0-.8,2.563v2.039a4,4,0,0,0,.8,2.578,2.606,2.606,0,0,0,2.145,1,2.815,2.815,0,0,0,2.27-1,3.869,3.869,0,0,0,.84-2.582Z" transform="translate(-9704.108 -2030.045)" fill="#00104e"/>
      <path id="Trazado_98949" data-name="Trazado 98949" d="M7.391-2.867a1.711,1.711,0,0,0-.555-1.3,4.62,4.62,0,0,0-1.953-.891A6.5,6.5,0,0,1,2.176-6.32a2.655,2.655,0,0,1-.973-2.1A2.8,2.8,0,0,1,2.25-10.648a4.05,4.05,0,0,1,2.719-.891,3.971,3.971,0,0,1,2.863,1.02A3.088,3.088,0,0,1,8.867-8.141l-.023.047H7.375A2.1,2.1,0,0,0,6.7-9.7a2.431,2.431,0,0,0-1.73-.633A2.37,2.37,0,0,0,3.316-9.8a1.754,1.754,0,0,0-.574,1.359,1.518,1.518,0,0,0,.629,1.238,5.8,5.8,0,0,0,2.043.871A5.8,5.8,0,0,1,8.031-5.023a2.857,2.857,0,0,1,.9,2.141A2.657,2.657,0,0,1,7.848-.672,4.491,4.491,0,0,1,5.023.164a4.8,4.8,0,0,1-2.91-.922A2.81,2.81,0,0,1,.891-3.227l.016-.047H2.375a1.912,1.912,0,0,0,.813,1.652,3.076,3.076,0,0,0,1.836.582,2.761,2.761,0,0,0,1.73-.492A1.6,1.6,0,0,0,7.391-2.867ZM12.813,0H11.266V-11.375h1.547Z" transform="translate(-9844.108 -1940.453)" fill="#00104e"/>
      <rect id="Rectángulo_6725" data-name="Rectángulo 6725" width="52" height="6" rx="2" transform="translate(-9719.108 -2022.783)" fill="#26a69a"/>
      <rect id="Rectángulo_6727" data-name="Rectángulo 6727" width="153.013" height="6" rx="2" transform="translate(-9820.904 -1741.483)" fill="#26a69a"/>
      <rect id="Rectángulo_6729" data-name="Rectángulo 6729" width="284.503" height="6" rx="2" transform="translate(-9667.366 -2019.986) rotate(90)" fill="#26a69a"/>
      <rect id="Rectángulo_6715" data-name="Rectángulo 6715" width="148" height="52" transform="translate(-9892 -2430.496)" fill="#4dd0e1"/>
      <rect id="Rectángulo_6748" data-name="Rectángulo 6748" width="148" height="52" transform="translate(-9892 -2346.996)" fill="#4dd0e1"/>
      <rect id="Rectángulo_6749" data-name="Rectángulo 6749" width="242" height="52" transform="translate(-9939 -1923.952)" fill="#4dd0e1"/>
      <rect id="Rectángulo_6750" data-name="Rectángulo 6750" width="242" height="52" transform="translate(-9939 -1841.092)" fill="#4dd0e1"/>
      <path id="Trazado_98943" data-name="Trazado 98943" d="M17.318,13.961a1.81,1.81,0,0,0,1.242-.473,1.494,1.494,0,0,0,.531-1.16h1.391l.023.047a2.428,2.428,0,0,1-.937,1.941,3.313,3.313,0,0,1-2.25.848,3.319,3.319,0,0,1-2.75-1.211,4.674,4.674,0,0,1-.969-3.016v-.328a4.654,4.654,0,0,1,.973-3,3.317,3.317,0,0,1,2.746-1.215,3.189,3.189,0,0,1,2.316.875,2.775,2.775,0,0,1,.871,2.148l-.016.047h-1.4a1.865,1.865,0,0,0-.5-1.316,1.658,1.658,0,0,0-1.27-.543,1.777,1.777,0,0,0-1.652.879,4.114,4.114,0,0,0-.52,2.129v.328a4.192,4.192,0,0,0,.512,2.148A1.776,1.776,0,0,0,17.318,13.961ZM21.975,10.7a4.654,4.654,0,0,1,1.016-3.09,3.406,3.406,0,0,1,2.758-1.215A3.439,3.439,0,0,1,28.525,7.6a4.639,4.639,0,0,1,1.02,3.094v.172a4.631,4.631,0,0,1-1.016,3.094,3.429,3.429,0,0,1-2.766,1.2,3.436,3.436,0,0,1-2.77-1.207,4.623,4.623,0,0,1-1.02-3.09Zm1.539.172a4.009,4.009,0,0,0,.566,2.219,2.046,2.046,0,0,0,3.355,0,3.988,3.988,0,0,0,.57-2.219V10.7a3.976,3.976,0,0,0-.574-2.211A1.882,1.882,0,0,0,25.748,7.6a1.856,1.856,0,0,0-1.668.883,4.018,4.018,0,0,0-.566,2.211ZM32.8,6.547,32.912,7.8a3.069,3.069,0,0,1,1.059-1.043,2.824,2.824,0,0,1,1.449-.371,2.759,2.759,0,0,1,2.117.8,3.515,3.515,0,0,1,.75,2.473V15H36.748V9.7a2.287,2.287,0,0,0-.441-1.586,1.768,1.768,0,0,0-1.348-.469,2.386,2.386,0,0,0-1.207.285,2.072,2.072,0,0,0-.785.8V15H31.428V6.547Zm9.859-2.039V6.547h1.6V7.688h-1.6V12.82a1.149,1.149,0,0,0,.246.836.89.89,0,0,0,.652.242,1.429,1.429,0,0,0,.3-.035,2.2,2.2,0,0,0,.273-.074l.211,1.055a1.36,1.36,0,0,1-.508.23,2.562,2.562,0,0,1-.664.09,1.993,1.993,0,0,1-1.492-.566,2.46,2.46,0,0,1-.555-1.777V7.688H39.779V6.547h1.344V4.508ZM51.107,15q-.078-.383-.121-.676a4.96,4.96,0,0,1-.051-.59,3.589,3.589,0,0,1-1.121,1.02,2.867,2.867,0,0,1-1.488.41,2.763,2.763,0,0,1-2.012-.676,2.486,2.486,0,0,1-.691-1.863,2.183,2.183,0,0,1,.98-1.895,4.579,4.579,0,0,1,2.66-.684h1.672V9.211a1.551,1.551,0,0,0-.453-1.176A1.779,1.779,0,0,0,49.2,7.6a1.859,1.859,0,0,0-1.211.375,1.125,1.125,0,0,0-.461.9l-1.461.016-.016-.047a2.023,2.023,0,0,1,.863-1.687,3.578,3.578,0,0,1,2.371-.766,3.49,3.49,0,0,1,2.313.73,2.588,2.588,0,0,1,.875,2.105V13.3a7.923,7.923,0,0,0,.047.875,4.5,4.5,0,0,0,.172.828Zm-2.555-1.125a2.739,2.739,0,0,0,1.508-.43,2.042,2.042,0,0,0,.875-.984V11.086H49.209a2.24,2.24,0,0,0-1.488.469,1.4,1.4,0,0,0-.559,1.1,1.159,1.159,0,0,0,.352.891A1.472,1.472,0,0,0,48.553,13.875Zm5.8-2.945a5.641,5.641,0,0,1,.871-3.289,2.807,2.807,0,0,1,2.441-1.25,3.027,3.027,0,0,1,1.316.273,2.7,2.7,0,0,1,.98.8V2.813h1.539V15h-1.18l-.234-1.07a2.743,2.743,0,0,1-1.023.922,3.058,3.058,0,0,1-1.414.313,2.9,2.9,0,0,1-2.422-1.121,4.659,4.659,0,0,1-.875-2.949Zm1.539.164a3.588,3.588,0,0,0,.523,2.051,1.828,1.828,0,0,0,1.625.77A2.039,2.039,0,0,0,59.2,13.6a2.334,2.334,0,0,0,.766-.875V8.781a2.37,2.37,0,0,0-.77-.832,2.033,2.033,0,0,0-1.137-.309,1.759,1.759,0,0,0-1.637.914A4.718,4.718,0,0,0,55.9,10.93Zm7.547-.4a4.654,4.654,0,0,1,1.016-3.09,3.764,3.764,0,0,1,5.535,0,4.639,4.639,0,0,1,1.02,3.094v.172A4.631,4.631,0,0,1,70,13.961a3.781,3.781,0,0,1-5.535,0,4.623,4.623,0,0,1-1.02-3.09Zm1.539.172a4.009,4.009,0,0,0,.566,2.219,2.046,2.046,0,0,0,3.355,0,3.988,3.988,0,0,0,.57-2.219V10.7A3.976,3.976,0,0,0,68.9,8.484,1.882,1.882,0,0,0,67.217,7.6a1.856,1.856,0,0,0-1.668.883,4.018,4.018,0,0,0-.566,2.211ZM76.9,7.906l-.789-.047a1.762,1.762,0,0,0-1.027.289,1.854,1.854,0,0,0-.645.813V15H72.9V6.547h1.375l.148,1.234a2.934,2.934,0,0,1,.887-1.023,2.073,2.073,0,0,1,1.215-.367,1.9,1.9,0,0,1,.328.027,2.175,2.175,0,0,1,.258.059Zm12.164.664H82.545V7.289h6.516Zm0,3.25H82.545V10.539h6.516ZM99.889,15H98.342V5.047l-2.477.023V3.883l4.023-.422Z" transform="translate(-9876 -2415.496)" fill="#12263f"/>
      <path id="Trazado_98944" data-name="Trazado 98944" d="M17.178,15V7.688h-1.32V6.547h1.32V5.477a2.9,2.9,0,0,1,.707-2.09,2.6,2.6,0,0,1,1.973-.738,3.4,3.4,0,0,1,.535.043q.27.043.6.121L20.8,3.984q-.141-.031-.34-.055a3.579,3.579,0,0,0-.418-.023,1.215,1.215,0,0,0-1,.4,1.809,1.809,0,0,0-.328,1.168v1.07h1.531V7.688H18.717V15ZM27,15q-.078-.383-.121-.676a4.96,4.96,0,0,1-.051-.59,3.589,3.589,0,0,1-1.121,1.02,2.867,2.867,0,0,1-1.488.41,2.763,2.763,0,0,1-2.012-.676,2.486,2.486,0,0,1-.691-1.863,2.183,2.183,0,0,1,.98-1.895,4.579,4.579,0,0,1,2.66-.684h1.672V9.211a1.551,1.551,0,0,0-.453-1.176A1.779,1.779,0,0,0,25.092,7.6a1.859,1.859,0,0,0-1.211.375,1.125,1.125,0,0,0-.461.9l-1.461.016-.016-.047a2.023,2.023,0,0,1,.863-1.687,3.578,3.578,0,0,1,2.371-.766,3.49,3.49,0,0,1,2.313.73,2.588,2.588,0,0,1,.875,2.105V13.3a7.923,7.923,0,0,0,.047.875,4.5,4.5,0,0,0,.172.828Zm-2.555-1.125a2.739,2.739,0,0,0,1.508-.43,2.042,2.042,0,0,0,.875-.984V11.086H25.1a2.24,2.24,0,0,0-1.488.469,1.4,1.4,0,0,0-.559,1.1,1.159,1.159,0,0,0,.352.891A1.472,1.472,0,0,0,24.443,13.875Zm9.516.086a1.81,1.81,0,0,0,1.242-.473,1.494,1.494,0,0,0,.531-1.16h1.391l.023.047a2.428,2.428,0,0,1-.937,1.941,3.582,3.582,0,0,1-5-.363,4.674,4.674,0,0,1-.969-3.016v-.328a4.654,4.654,0,0,1,.973-3,3.317,3.317,0,0,1,2.746-1.215,3.189,3.189,0,0,1,2.316.875,2.775,2.775,0,0,1,.871,2.148l-.016.047h-1.4a1.865,1.865,0,0,0-.5-1.316,1.658,1.658,0,0,0-1.27-.543,1.777,1.777,0,0,0-1.652.879,4.114,4.114,0,0,0-.52,2.129v.328a4.192,4.192,0,0,0,.512,2.148A1.776,1.776,0,0,0,33.959,13.961Zm7.156-9.453V6.547h1.6V7.688h-1.6V12.82a1.149,1.149,0,0,0,.246.836.89.89,0,0,0,.652.242,1.429,1.429,0,0,0,.3-.035,2.2,2.2,0,0,0,.273-.074l.211,1.055a1.36,1.36,0,0,1-.508.23,2.562,2.562,0,0,1-.664.09,1.993,1.993,0,0,1-1.492-.566,2.46,2.46,0,0,1-.555-1.777V7.688H38.232V6.547h1.344V4.508ZM44.006,10.7a4.654,4.654,0,0,1,1.016-3.09,3.764,3.764,0,0,1,5.535,0,4.639,4.639,0,0,1,1.02,3.094v.172a4.631,4.631,0,0,1-1.016,3.094,3.781,3.781,0,0,1-5.535,0,4.623,4.623,0,0,1-1.02-3.09Zm1.539.172a4.009,4.009,0,0,0,.566,2.219,2.046,2.046,0,0,0,3.355,0,3.988,3.988,0,0,0,.57-2.219V10.7a3.976,3.976,0,0,0-.574-2.211A1.882,1.882,0,0,0,47.779,7.6a1.856,1.856,0,0,0-1.668.883,4.018,4.018,0,0,0-.566,2.211ZM57.459,7.906l-.789-.047a1.762,1.762,0,0,0-1.027.289A1.855,1.855,0,0,0,55,8.961V15H53.459V6.547h1.375l.148,1.234a2.934,2.934,0,0,1,.887-1.023,2.073,2.073,0,0,1,1.215-.367,1.9,1.9,0,0,1,.328.027,2.174,2.174,0,0,1,.258.059ZM60.725,15H59.186V6.547h1.539Zm0-10.617H59.186V2.813h1.539ZM68.287,15q-.078-.383-.121-.676a4.96,4.96,0,0,1-.051-.59,3.589,3.589,0,0,1-1.121,1.02,2.867,2.867,0,0,1-1.488.41,2.763,2.763,0,0,1-2.012-.676,2.486,2.486,0,0,1-.691-1.863,2.183,2.183,0,0,1,.98-1.895,4.579,4.579,0,0,1,2.66-.684h1.672V9.211a1.551,1.551,0,0,0-.453-1.176A1.779,1.779,0,0,0,66.381,7.6a1.859,1.859,0,0,0-1.211.375,1.125,1.125,0,0,0-.461.9l-1.461.016-.016-.047A2.023,2.023,0,0,1,64.1,7.156a3.578,3.578,0,0,1,2.371-.766,3.49,3.49,0,0,1,2.313.73,2.588,2.588,0,0,1,.875,2.105V13.3a7.923,7.923,0,0,0,.047.875,4.5,4.5,0,0,0,.172.828Zm-2.555-1.125a2.739,2.739,0,0,0,1.508-.43,2.042,2.042,0,0,0,.875-.984V11.086H66.389a2.24,2.24,0,0,0-1.488.469,1.4,1.4,0,0,0-.559,1.1,1.159,1.159,0,0,0,.352.891A1.472,1.472,0,0,0,65.732,13.875ZM73.553,15H72.014V2.813h1.539Zm12.93-6.43H79.967V7.289h6.516Zm0,3.25H79.967V10.539h6.516ZM97.311,15H95.764V5.047l-2.477.023V3.883l4.023-.422Z" transform="translate(-9876 -2331.996)" fill="#12263f"/>
      <path id="Trazado_98950" data-name="Trazado 98950" d="M2.291,15V7.688H.971V6.547h1.32V5.477A2.9,2.9,0,0,1,3,3.387a2.6,2.6,0,0,1,1.973-.738,3.4,3.4,0,0,1,.535.043q.27.043.6.121L5.916,3.984q-.141-.031-.34-.055a3.579,3.579,0,0,0-.418-.023,1.215,1.215,0,0,0-1,.4A1.809,1.809,0,0,0,3.83,5.477v1.07H5.361V7.688H3.83V15Zm9.82,0q-.078-.383-.121-.676a4.96,4.96,0,0,1-.051-.59,3.589,3.589,0,0,1-1.121,1.02,2.867,2.867,0,0,1-1.488.41,2.763,2.763,0,0,1-2.012-.676,2.486,2.486,0,0,1-.691-1.863,2.183,2.183,0,0,1,.98-1.895,4.579,4.579,0,0,1,2.66-.684h1.672V9.211a1.551,1.551,0,0,0-.453-1.176A1.779,1.779,0,0,0,10.205,7.6a1.859,1.859,0,0,0-1.211.375,1.125,1.125,0,0,0-.461.9l-1.461.016-.016-.047A2.023,2.023,0,0,1,7.92,7.156a3.578,3.578,0,0,1,2.371-.766,3.49,3.49,0,0,1,2.313.73,2.588,2.588,0,0,1,.875,2.105V13.3a7.923,7.923,0,0,0,.047.875A4.5,4.5,0,0,0,13.7,15ZM9.557,13.875a2.739,2.739,0,0,0,1.508-.43,2.042,2.042,0,0,0,.875-.984V11.086H10.213a2.24,2.24,0,0,0-1.488.469,1.4,1.4,0,0,0-.559,1.1,1.159,1.159,0,0,0,.352.891A1.472,1.472,0,0,0,9.557,13.875Zm9.516.086a1.81,1.81,0,0,0,1.242-.473,1.494,1.494,0,0,0,.531-1.16h1.391l.023.047a2.428,2.428,0,0,1-.937,1.941,3.313,3.313,0,0,1-2.25.848,3.319,3.319,0,0,1-2.75-1.211,4.674,4.674,0,0,1-.969-3.016v-.328a4.654,4.654,0,0,1,.973-3,3.317,3.317,0,0,1,2.746-1.215,3.189,3.189,0,0,1,2.316.875,2.775,2.775,0,0,1,.871,2.148l-.016.047h-1.4a1.865,1.865,0,0,0-.5-1.316,1.658,1.658,0,0,0-1.27-.543,1.777,1.777,0,0,0-1.652.879,4.114,4.114,0,0,0-.52,2.129v.328a4.192,4.192,0,0,0,.512,2.148A1.776,1.776,0,0,0,19.072,13.961Zm7.156-9.453V6.547h1.6V7.688h-1.6V12.82a1.149,1.149,0,0,0,.246.836.89.89,0,0,0,.652.242,1.429,1.429,0,0,0,.3-.035,2.2,2.2,0,0,0,.273-.074l.211,1.055a1.36,1.36,0,0,1-.508.23,2.562,2.562,0,0,1-.664.09,1.993,1.993,0,0,1-1.492-.566,2.46,2.46,0,0,1-.555-1.777V7.688H23.346V6.547h1.344V4.508ZM29.119,10.7a4.654,4.654,0,0,1,1.016-3.09,3.764,3.764,0,0,1,5.535,0,4.639,4.639,0,0,1,1.02,3.094v.172a4.631,4.631,0,0,1-1.016,3.094,3.781,3.781,0,0,1-5.535,0,4.623,4.623,0,0,1-1.02-3.09Zm1.539.172a4.009,4.009,0,0,0,.566,2.219,2.046,2.046,0,0,0,3.355,0,3.988,3.988,0,0,0,.57-2.219V10.7a3.976,3.976,0,0,0-.574-2.211A1.882,1.882,0,0,0,32.893,7.6a1.856,1.856,0,0,0-1.668.883,4.018,4.018,0,0,0-.566,2.211ZM42.572,7.906l-.789-.047a1.762,1.762,0,0,0-1.027.289,1.855,1.855,0,0,0-.645.813V15H38.572V6.547h1.375L40.1,7.781a2.934,2.934,0,0,1,.887-1.023A2.073,2.073,0,0,1,42.2,6.391a1.9,1.9,0,0,1,.328.027,2.174,2.174,0,0,1,.258.059ZM45.838,15H44.3V6.547h1.539Zm0-10.617H44.3V2.813h1.539ZM53.4,15q-.078-.383-.121-.676a4.96,4.96,0,0,1-.051-.59,3.589,3.589,0,0,1-1.121,1.02,2.867,2.867,0,0,1-1.488.41,2.763,2.763,0,0,1-2.012-.676,2.486,2.486,0,0,1-.691-1.863,2.183,2.183,0,0,1,.98-1.895,4.579,4.579,0,0,1,2.66-.684h1.672V9.211a1.551,1.551,0,0,0-.453-1.176A1.779,1.779,0,0,0,51.494,7.6a1.859,1.859,0,0,0-1.211.375,1.125,1.125,0,0,0-.461.9l-1.461.016-.016-.047a2.023,2.023,0,0,1,.863-1.687,3.578,3.578,0,0,1,2.371-.766,3.49,3.49,0,0,1,2.313.73,2.588,2.588,0,0,1,.875,2.105V13.3a7.923,7.923,0,0,0,.047.875,4.5,4.5,0,0,0,.172.828Zm-2.555-1.125a2.739,2.739,0,0,0,1.508-.43,2.042,2.042,0,0,0,.875-.984V11.086H51.5a2.24,2.24,0,0,0-1.488.469,1.4,1.4,0,0,0-.559,1.1,1.159,1.159,0,0,0,.352.891A1.472,1.472,0,0,0,50.846,13.875ZM58.666,15H57.127V2.813h1.539ZM71.6,8.57H65.08V7.289H71.6Zm0,3.25H65.08V10.539H71.6ZM78.635,15V7.688h-1.32V6.547h1.32V5.477a2.9,2.9,0,0,1,.707-2.09,2.6,2.6,0,0,1,1.973-.738,3.4,3.4,0,0,1,.535.043q.27.043.6.121L82.26,3.984q-.141-.031-.34-.055a3.579,3.579,0,0,0-.418-.023,1.215,1.215,0,0,0-1,.4,1.809,1.809,0,0,0-.328,1.168v1.07h1.531V7.688H80.174V15Zm9.82,0q-.078-.383-.121-.676a4.96,4.96,0,0,1-.051-.59,3.589,3.589,0,0,1-1.121,1.02,2.867,2.867,0,0,1-1.488.41,2.763,2.763,0,0,1-2.012-.676,2.486,2.486,0,0,1-.691-1.863,2.183,2.183,0,0,1,.98-1.895,4.579,4.579,0,0,1,2.66-.684h1.672V9.211a1.551,1.551,0,0,0-.453-1.176A1.779,1.779,0,0,0,86.549,7.6a1.859,1.859,0,0,0-1.211.375,1.125,1.125,0,0,0-.461.9l-1.461.016L83.4,8.844a2.023,2.023,0,0,1,.863-1.687,3.578,3.578,0,0,1,2.371-.766,3.49,3.49,0,0,1,2.313.73,2.588,2.588,0,0,1,.875,2.105V13.3a7.923,7.923,0,0,0,.047.875,4.5,4.5,0,0,0,.172.828ZM85.9,13.875a2.739,2.739,0,0,0,1.508-.43,2.042,2.042,0,0,0,.875-.984V11.086H86.557a2.24,2.24,0,0,0-1.488.469,1.4,1.4,0,0,0-.559,1.1,1.159,1.159,0,0,0,.352.891A1.472,1.472,0,0,0,85.9,13.875Zm9.516.086a1.81,1.81,0,0,0,1.242-.473,1.494,1.494,0,0,0,.531-1.16H98.58l.023.047a2.428,2.428,0,0,1-.937,1.941,3.582,3.582,0,0,1-5-.363,4.674,4.674,0,0,1-.969-3.016v-.328a4.654,4.654,0,0,1,.973-3,3.317,3.317,0,0,1,2.746-1.215,3.189,3.189,0,0,1,2.316.875A2.775,2.775,0,0,1,98.6,9.414l-.016.047h-1.4a1.865,1.865,0,0,0-.5-1.316,1.658,1.658,0,0,0-1.27-.543,1.777,1.777,0,0,0-1.652.879,4.114,4.114,0,0,0-.52,2.129v.328a4.192,4.192,0,0,0,.512,2.148A1.776,1.776,0,0,0,95.416,13.961Zm7.156-9.453V6.547h1.6V7.688h-1.6V12.82a1.149,1.149,0,0,0,.246.836.89.89,0,0,0,.652.242,1.43,1.43,0,0,0,.3-.035,2.2,2.2,0,0,0,.273-.074l.211,1.055a1.36,1.36,0,0,1-.508.23,2.562,2.562,0,0,1-.664.09,1.993,1.993,0,0,1-1.492-.566,2.46,2.46,0,0,1-.555-1.777V7.688H99.689V6.547h1.344V4.508Zm2.891,6.188a4.654,4.654,0,0,1,1.016-3.09,3.764,3.764,0,0,1,5.535,0,4.639,4.639,0,0,1,1.02,3.094v.172a4.631,4.631,0,0,1-1.016,3.094,3.781,3.781,0,0,1-5.535,0,4.623,4.623,0,0,1-1.02-3.09Zm1.539.172a4.009,4.009,0,0,0,.566,2.219,2.046,2.046,0,0,0,3.355,0,3.988,3.988,0,0,0,.57-2.219V10.7a3.976,3.976,0,0,0-.574-2.211,1.882,1.882,0,0,0-1.684-.883,1.856,1.856,0,0,0-1.668.883A4.018,4.018,0,0,0,107,10.7Zm11.914-2.961-.789-.047a1.762,1.762,0,0,0-1.027.289,1.854,1.854,0,0,0-.645.813V15h-1.539V6.547h1.375l.148,1.234a2.934,2.934,0,0,1,.887-1.023,2.073,2.073,0,0,1,1.215-.367,1.9,1.9,0,0,1,.328.027,2.175,2.175,0,0,1,.258.059ZM122.182,15h-1.539V6.547h1.539Zm0-10.617h-1.539V2.813h1.539ZM129.744,15q-.078-.383-.121-.676a4.96,4.96,0,0,1-.051-.59,3.588,3.588,0,0,1-1.121,1.02,2.867,2.867,0,0,1-1.488.41,2.763,2.763,0,0,1-2.012-.676,2.486,2.486,0,0,1-.691-1.863,2.183,2.183,0,0,1,.98-1.895,4.579,4.579,0,0,1,2.66-.684h1.672V9.211a1.551,1.551,0,0,0-.453-1.176,1.779,1.779,0,0,0-1.281-.434,1.859,1.859,0,0,0-1.211.375,1.125,1.125,0,0,0-.461.9l-1.461.016-.016-.047a2.023,2.023,0,0,1,.863-1.687,3.578,3.578,0,0,1,2.371-.766,3.49,3.49,0,0,1,2.313.73,2.588,2.588,0,0,1,.875,2.105V13.3a7.923,7.923,0,0,0,.047.875,4.5,4.5,0,0,0,.172.828Zm-2.555-1.125a2.739,2.739,0,0,0,1.508-.43,2.042,2.042,0,0,0,.875-.984V11.086h-1.727a2.24,2.24,0,0,0-1.488.469,1.4,1.4,0,0,0-.559,1.1,1.159,1.159,0,0,0,.352.891A1.472,1.472,0,0,0,127.189,13.875ZM135.01,15h-1.539V2.813h1.539Zm7.758-5.437-1.844-.523.383-1.2,1.844.7-.078-1.984h1.258l-.078,2.031,1.82-.7.375,1.219-1.891.531,1.2,1.563-1.031.75-1.094-1.7-1.055,1.641-1.039-.719Zm12.828,4.4a1.81,1.81,0,0,0,1.242-.473,1.493,1.493,0,0,0,.531-1.16h1.391l.023.047a2.428,2.428,0,0,1-.937,1.941,3.582,3.582,0,0,1-5-.363,4.674,4.674,0,0,1-.969-3.016v-.328a4.654,4.654,0,0,1,.973-3A3.317,3.317,0,0,1,155.6,6.391a3.189,3.189,0,0,1,2.316.875,2.775,2.775,0,0,1,.871,2.148l-.016.047h-1.4a1.865,1.865,0,0,0-.5-1.316A1.658,1.658,0,0,0,155.6,7.6a1.777,1.777,0,0,0-1.652.879,4.114,4.114,0,0,0-.52,2.129v.328a4.192,4.192,0,0,0,.512,2.148A1.776,1.776,0,0,0,155.6,13.961Zm4.656-3.266a4.654,4.654,0,0,1,1.016-3.09,3.764,3.764,0,0,1,5.535,0,4.639,4.639,0,0,1,1.02,3.094v.172a4.631,4.631,0,0,1-1.016,3.094,3.781,3.781,0,0,1-5.535,0,4.623,4.623,0,0,1-1.02-3.09Zm1.539.172a4.009,4.009,0,0,0,.566,2.219,2.046,2.046,0,0,0,3.355,0,3.988,3.988,0,0,0,.57-2.219V10.7a3.976,3.976,0,0,0-.574-2.211,1.882,1.882,0,0,0-1.684-.883,1.856,1.856,0,0,0-1.668.883,4.018,4.018,0,0,0-.566,2.211Zm9.289-4.32.109,1.258a3.069,3.069,0,0,1,1.059-1.043,2.824,2.824,0,0,1,1.449-.371,2.759,2.759,0,0,1,2.117.8,3.515,3.515,0,0,1,.75,2.473V15h-1.539V9.7a2.287,2.287,0,0,0-.441-1.586,1.768,1.768,0,0,0-1.348-.469,2.386,2.386,0,0,0-1.207.285,2.072,2.072,0,0,0-.785.8V15h-1.539V6.547Zm9.859-2.039V6.547h1.6V7.688h-1.6V12.82a1.149,1.149,0,0,0,.246.836.89.89,0,0,0,.652.242,1.429,1.429,0,0,0,.3-.035,2.2,2.2,0,0,0,.273-.074l.211,1.055a1.36,1.36,0,0,1-.508.23,2.562,2.562,0,0,1-.664.09,1.993,1.993,0,0,1-1.492-.566,2.46,2.46,0,0,1-.555-1.777V7.688h-1.344V6.547H179.4V4.508ZM189.385,15q-.078-.383-.121-.676a4.96,4.96,0,0,1-.051-.59,3.588,3.588,0,0,1-1.121,1.02,2.867,2.867,0,0,1-1.488.41,2.763,2.763,0,0,1-2.012-.676,2.486,2.486,0,0,1-.691-1.863,2.183,2.183,0,0,1,.98-1.895,4.579,4.579,0,0,1,2.66-.684h1.672V9.211a1.551,1.551,0,0,0-.453-1.176,1.779,1.779,0,0,0-1.281-.434,1.859,1.859,0,0,0-1.211.375,1.125,1.125,0,0,0-.461.9l-1.461.016-.016-.047a2.023,2.023,0,0,1,.863-1.687,3.578,3.578,0,0,1,2.371-.766,3.49,3.49,0,0,1,2.313.73,2.588,2.588,0,0,1,.875,2.105V13.3a7.923,7.923,0,0,0,.047.875,4.5,4.5,0,0,0,.172.828Zm-2.555-1.125a2.739,2.739,0,0,0,1.508-.43,2.042,2.042,0,0,0,.875-.984V11.086h-1.727a2.24,2.24,0,0,0-1.488.469,1.4,1.4,0,0,0-.559,1.1,1.159,1.159,0,0,0,.352.891A1.472,1.472,0,0,0,186.83,13.875Zm5.8-2.945a5.641,5.641,0,0,1,.871-3.289,2.807,2.807,0,0,1,2.441-1.25,3.027,3.027,0,0,1,1.316.273,2.7,2.7,0,0,1,.98.8V2.813h1.539V15H198.6l-.234-1.07a2.743,2.743,0,0,1-1.023.922,3.058,3.058,0,0,1-1.414.313,2.9,2.9,0,0,1-2.422-1.121,4.659,4.659,0,0,1-.875-2.949Zm1.539.164a3.588,3.588,0,0,0,.523,2.051,1.828,1.828,0,0,0,1.625.77,2.039,2.039,0,0,0,1.156-.312,2.334,2.334,0,0,0,.766-.875V8.781a2.37,2.37,0,0,0-.77-.832,2.033,2.033,0,0,0-1.137-.309,1.759,1.759,0,0,0-1.637.914,4.718,4.718,0,0,0-.527,2.375Zm7.547-.4a4.654,4.654,0,0,1,1.016-3.09,3.764,3.764,0,0,1,5.535,0,4.639,4.639,0,0,1,1.02,3.094v.172a4.631,4.631,0,0,1-1.016,3.094,3.781,3.781,0,0,1-5.535,0,4.623,4.623,0,0,1-1.02-3.09Zm1.539.172a4.009,4.009,0,0,0,.566,2.219,2.046,2.046,0,0,0,3.355,0,3.988,3.988,0,0,0,.57-2.219V10.7a3.976,3.976,0,0,0-.574-2.211,1.882,1.882,0,0,0-1.684-.883,1.856,1.856,0,0,0-1.668.883,4.018,4.018,0,0,0-.566,2.211Zm11.914-2.961-.789-.047a1.762,1.762,0,0,0-1.027.289,1.855,1.855,0,0,0-.645.813V15h-1.539V6.547h1.375l.148,1.234a2.934,2.934,0,0,1,.887-1.023,2.073,2.073,0,0,1,1.215-.367,1.9,1.9,0,0,1,.328.027,2.174,2.174,0,0,1,.258.059Z" transform="translate(-9926 -1908.952)" fill="#12263f"/>
      <path id="Trazado_98951" data-name="Trazado 98951" d="M28.521,13.961a1.81,1.81,0,0,0,1.242-.473,1.494,1.494,0,0,0,.531-1.16h1.391l.023.047a2.428,2.428,0,0,1-.937,1.941,3.582,3.582,0,0,1-5-.363,4.674,4.674,0,0,1-.969-3.016v-.328a4.654,4.654,0,0,1,.973-3,3.317,3.317,0,0,1,2.746-1.215,3.189,3.189,0,0,1,2.316.875,2.775,2.775,0,0,1,.871,2.148l-.016.047h-1.4a1.865,1.865,0,0,0-.5-1.316,1.658,1.658,0,0,0-1.27-.543,1.777,1.777,0,0,0-1.652.879,4.114,4.114,0,0,0-.52,2.129v.328a4.192,4.192,0,0,0,.512,2.148A1.776,1.776,0,0,0,28.521,13.961ZM33.178,10.7a4.654,4.654,0,0,1,1.016-3.09,3.764,3.764,0,0,1,5.535,0,4.639,4.639,0,0,1,1.02,3.094v.172a4.631,4.631,0,0,1-1.016,3.094,3.781,3.781,0,0,1-5.535,0,4.623,4.623,0,0,1-1.02-3.09Zm1.539.172a4.009,4.009,0,0,0,.566,2.219,2.046,2.046,0,0,0,3.355,0,3.988,3.988,0,0,0,.57-2.219V10.7a3.976,3.976,0,0,0-.574-2.211A1.882,1.882,0,0,0,36.951,7.6a1.856,1.856,0,0,0-1.668.883,4.018,4.018,0,0,0-.566,2.211Zm9.289-4.32L44.115,7.8a3.069,3.069,0,0,1,1.059-1.043,2.824,2.824,0,0,1,1.449-.371,2.759,2.759,0,0,1,2.117.8,3.515,3.515,0,0,1,.75,2.473V15H47.951V9.7a2.287,2.287,0,0,0-.441-1.586,1.768,1.768,0,0,0-1.348-.469,2.386,2.386,0,0,0-1.207.285,2.072,2.072,0,0,0-.785.8V15H42.631V6.547Zm9.859-2.039V6.547h1.6V7.688h-1.6V12.82a1.149,1.149,0,0,0,.246.836.89.89,0,0,0,.652.242,1.429,1.429,0,0,0,.3-.035,2.2,2.2,0,0,0,.273-.074l.211,1.055a1.36,1.36,0,0,1-.508.23,2.562,2.562,0,0,1-.664.09,1.993,1.993,0,0,1-1.492-.566,2.46,2.46,0,0,1-.555-1.777V7.688H50.982V6.547h1.344V4.508ZM62.311,15q-.078-.383-.121-.676a4.96,4.96,0,0,1-.051-.59,3.589,3.589,0,0,1-1.121,1.02,2.867,2.867,0,0,1-1.488.41,2.763,2.763,0,0,1-2.012-.676,2.486,2.486,0,0,1-.691-1.863,2.183,2.183,0,0,1,.98-1.895,4.579,4.579,0,0,1,2.66-.684h1.672V9.211a1.551,1.551,0,0,0-.453-1.176A1.779,1.779,0,0,0,60.4,7.6a1.859,1.859,0,0,0-1.211.375,1.125,1.125,0,0,0-.461.9l-1.461.016-.016-.047a2.023,2.023,0,0,1,.863-1.687,3.578,3.578,0,0,1,2.371-.766,3.49,3.49,0,0,1,2.313.73,2.588,2.588,0,0,1,.875,2.105V13.3a7.923,7.923,0,0,0,.047.875A4.5,4.5,0,0,0,63.9,15Zm-2.555-1.125a2.739,2.739,0,0,0,1.508-.43,2.042,2.042,0,0,0,.875-.984V11.086H60.412a2.24,2.24,0,0,0-1.488.469,1.4,1.4,0,0,0-.559,1.1,1.159,1.159,0,0,0,.352.891A1.472,1.472,0,0,0,59.756,13.875Zm5.8-2.945a5.641,5.641,0,0,1,.871-3.289,2.807,2.807,0,0,1,2.441-1.25,3.027,3.027,0,0,1,1.316.273,2.7,2.7,0,0,1,.98.8V2.813h1.539V15h-1.18l-.234-1.07a2.743,2.743,0,0,1-1.023.922,3.058,3.058,0,0,1-1.414.313,2.9,2.9,0,0,1-2.422-1.121,4.659,4.659,0,0,1-.875-2.949Zm1.539.164a3.588,3.588,0,0,0,.523,2.051,1.828,1.828,0,0,0,1.625.77A2.039,2.039,0,0,0,70.4,13.6a2.334,2.334,0,0,0,.766-.875V8.781a2.37,2.37,0,0,0-.77-.832,2.033,2.033,0,0,0-1.137-.309,1.759,1.759,0,0,0-1.637.914A4.718,4.718,0,0,0,67.1,10.93Zm7.547-.4a4.654,4.654,0,0,1,1.016-3.09,3.764,3.764,0,0,1,5.535,0,4.639,4.639,0,0,1,1.02,3.094v.172A4.631,4.631,0,0,1,81.2,13.961a3.781,3.781,0,0,1-5.535,0,4.623,4.623,0,0,1-1.02-3.09Zm1.539.172a4.009,4.009,0,0,0,.566,2.219,2.046,2.046,0,0,0,3.355,0,3.988,3.988,0,0,0,.57-2.219V10.7A3.976,3.976,0,0,0,80.1,8.484,1.882,1.882,0,0,0,78.42,7.6a1.856,1.856,0,0,0-1.668.883,4.018,4.018,0,0,0-.566,2.211ZM88.1,7.906l-.789-.047a1.762,1.762,0,0,0-1.027.289,1.854,1.854,0,0,0-.645.813V15H84.1V6.547h1.375l.148,1.234a2.934,2.934,0,0,1,.887-1.023,2.073,2.073,0,0,1,1.215-.367,1.9,1.9,0,0,1,.328.027,2.175,2.175,0,0,1,.258.059Zm12.164.664H93.748V7.289h6.516Zm0,3.25H93.748V10.539h6.516Zm9.758,2.141a1.81,1.81,0,0,0,1.242-.473,1.494,1.494,0,0,0,.531-1.16h1.391l.023.047a2.428,2.428,0,0,1-.937,1.941,3.582,3.582,0,0,1-5-.363,4.674,4.674,0,0,1-.969-3.016v-.328a4.654,4.654,0,0,1,.973-3,3.317,3.317,0,0,1,2.746-1.215,3.189,3.189,0,0,1,2.316.875,2.775,2.775,0,0,1,.871,2.148l-.016.047h-1.4a1.865,1.865,0,0,0-.5-1.316,1.658,1.658,0,0,0-1.27-.543,1.777,1.777,0,0,0-1.652.879,4.114,4.114,0,0,0-.52,2.129v.328a4.192,4.192,0,0,0,.512,2.148A1.776,1.776,0,0,0,110.021,13.961Zm4.656-3.266a4.654,4.654,0,0,1,1.016-3.09,3.764,3.764,0,0,1,5.535,0,4.639,4.639,0,0,1,1.02,3.094v.172a4.631,4.631,0,0,1-1.016,3.094,3.781,3.781,0,0,1-5.535,0,4.623,4.623,0,0,1-1.02-3.09Zm1.539.172a4.009,4.009,0,0,0,.566,2.219,2.046,2.046,0,0,0,3.355,0,3.988,3.988,0,0,0,.57-2.219V10.7a3.976,3.976,0,0,0-.574-2.211,1.882,1.882,0,0,0-1.684-.883,1.856,1.856,0,0,0-1.668.883,4.018,4.018,0,0,0-.566,2.211Zm9.289-4.32.109,1.258a3.069,3.069,0,0,1,1.059-1.043,2.824,2.824,0,0,1,1.449-.371,2.759,2.759,0,0,1,2.117.8,3.515,3.515,0,0,1,.75,2.473V15h-1.539V9.7a2.287,2.287,0,0,0-.441-1.586,1.768,1.768,0,0,0-1.348-.469,2.386,2.386,0,0,0-1.207.285,2.072,2.072,0,0,0-.785.8V15h-1.539V6.547Zm9.859-2.039V6.547h1.6V7.688h-1.6V12.82a1.149,1.149,0,0,0,.246.836.89.89,0,0,0,.652.242,1.429,1.429,0,0,0,.3-.035,2.2,2.2,0,0,0,.273-.074l.211,1.055a1.36,1.36,0,0,1-.508.23,2.562,2.562,0,0,1-.664.09,1.993,1.993,0,0,1-1.492-.566,2.46,2.46,0,0,1-.555-1.777V7.688h-1.344V6.547h1.344V4.508ZM143.811,15q-.078-.383-.121-.676a4.96,4.96,0,0,1-.051-.59,3.588,3.588,0,0,1-1.121,1.02,2.867,2.867,0,0,1-1.488.41,2.763,2.763,0,0,1-2.012-.676,2.486,2.486,0,0,1-.691-1.863,2.183,2.183,0,0,1,.98-1.895,4.579,4.579,0,0,1,2.66-.684h1.672V9.211a1.551,1.551,0,0,0-.453-1.176A1.779,1.779,0,0,0,141.9,7.6a1.859,1.859,0,0,0-1.211.375,1.125,1.125,0,0,0-.461.9l-1.461.016-.016-.047a2.023,2.023,0,0,1,.863-1.687,3.578,3.578,0,0,1,2.371-.766,3.49,3.49,0,0,1,2.313.73,2.588,2.588,0,0,1,.875,2.105V13.3a7.923,7.923,0,0,0,.047.875A4.5,4.5,0,0,0,145.4,15Zm-2.555-1.125a2.739,2.739,0,0,0,1.508-.43,2.042,2.042,0,0,0,.875-.984V11.086h-1.727a2.24,2.24,0,0,0-1.488.469,1.4,1.4,0,0,0-.559,1.1,1.159,1.159,0,0,0,.352.891A1.472,1.472,0,0,0,141.256,13.875Zm5.8-2.945a5.641,5.641,0,0,1,.871-3.289,2.807,2.807,0,0,1,2.441-1.25,3.027,3.027,0,0,1,1.316.273,2.7,2.7,0,0,1,.98.8V2.813h1.539V15h-1.18l-.234-1.07a2.743,2.743,0,0,1-1.023.922,3.058,3.058,0,0,1-1.414.313,2.9,2.9,0,0,1-2.422-1.121,4.659,4.659,0,0,1-.875-2.949Zm1.539.164a3.588,3.588,0,0,0,.523,2.051,1.828,1.828,0,0,0,1.625.77A2.039,2.039,0,0,0,151.9,13.6a2.334,2.334,0,0,0,.766-.875V8.781a2.37,2.37,0,0,0-.77-.832,2.033,2.033,0,0,0-1.137-.309,1.759,1.759,0,0,0-1.637.914,4.718,4.718,0,0,0-.527,2.375Zm7.547-.4a4.654,4.654,0,0,1,1.016-3.09,3.764,3.764,0,0,1,5.535,0,4.639,4.639,0,0,1,1.02,3.094v.172a4.631,4.631,0,0,1-1.016,3.094,3.781,3.781,0,0,1-5.535,0,4.623,4.623,0,0,1-1.02-3.09Zm1.539.172a4.009,4.009,0,0,0,.566,2.219,2.046,2.046,0,0,0,3.355,0,3.988,3.988,0,0,0,.57-2.219V10.7a3.976,3.976,0,0,0-.574-2.211A1.882,1.882,0,0,0,159.92,7.6a1.856,1.856,0,0,0-1.668.883,4.018,4.018,0,0,0-.566,2.211ZM169.6,7.906l-.789-.047a1.762,1.762,0,0,0-1.027.289,1.855,1.855,0,0,0-.645.813V15H165.6V6.547h1.375l.148,1.234a2.934,2.934,0,0,1,.887-1.023,2.073,2.073,0,0,1,1.215-.367,1.9,1.9,0,0,1,.328.027,2.174,2.174,0,0,1,.258.059Zm9.75.977h3.117v1.391H179.35v3.586h-1.539V10.273H174.67V8.883h3.141v-3.3h1.539ZM188.686,15h-1.547V5.047l-2.477.023V3.883l4.023-.422Z" transform="translate(-9926 -1826.092)" fill="#12263f"/>
      <path id="Trazado_29418" data-name="Trazado 29418" d="M0-20,57.863,3.447V115.99L0,92.544Z" transform="translate(-9770.01 -2173.453) rotate(90)" fill="#4dd0e1"/>
      <path id="Trazado_98946" data-name="Trazado 98946" d="M2.492-8.453,2.6-7.2A3.069,3.069,0,0,1,3.66-8.238a2.824,2.824,0,0,1,1.449-.371,2.759,2.759,0,0,1,2.117.8,3.515,3.515,0,0,1,.75,2.473V0H6.438V-5.3A2.287,2.287,0,0,0,6-6.891a1.768,1.768,0,0,0-1.348-.469,2.386,2.386,0,0,0-1.207.285,2.072,2.072,0,0,0-.785.8V0H1.117V-8.453Zm13.086,7.2A2.863,2.863,0,0,1,14.555-.2a2.8,2.8,0,0,1-1.445.367,2.716,2.716,0,0,1-2.156-.883,4.1,4.1,0,0,1-.773-2.75V-8.453h1.539v5a3.147,3.147,0,0,0,.4,1.859,1.481,1.481,0,0,0,1.242.508,2.531,2.531,0,0,0,1.355-.332,2.077,2.077,0,0,0,.809-.941V-8.453h1.539V0H15.68Zm5.1-7.2.109,1.109a2.871,2.871,0,0,1,1.051-.934,3.158,3.158,0,0,1,1.48-.332,2.615,2.615,0,0,1,1.449.391,2.363,2.363,0,0,1,.91,1.172,3.162,3.162,0,0,1,1.059-1.145,2.769,2.769,0,0,1,1.527-.418,2.531,2.531,0,0,1,2.039.887,4.051,4.051,0,0,1,.75,2.668V0H29.516V-5.07a2.81,2.81,0,0,0-.43-1.77,1.567,1.567,0,0,0-1.281-.52,1.631,1.631,0,0,0-1.277.547,2.381,2.381,0,0,0-.574,1.383V0H24.406V-5.07a2.772,2.772,0,0,0-.441-1.738,1.532,1.532,0,0,0-1.27-.551,2.115,2.115,0,0,0-1.156.289,1.867,1.867,0,0,0-.7.813V0H19.3V-8.453ZM36.789.164A3.576,3.576,0,0,1,33.949-1a4.48,4.48,0,0,1-1.02-3.062v-.344A4.386,4.386,0,0,1,33.98-7.418a3.3,3.3,0,0,1,2.566-1.191A3.067,3.067,0,0,1,39.09-7.555a4.345,4.345,0,0,1,.848,2.8v.813H34.531l-.023.039a3.494,3.494,0,0,0,.563,2.066,1.965,1.965,0,0,0,1.719.793,3.872,3.872,0,0,0,1.371-.223,3.061,3.061,0,0,0,1.012-.613l.6,1a3.7,3.7,0,0,1-1.2.738A4.762,4.762,0,0,1,36.789.164ZM36.547-7.4a1.673,1.673,0,0,0-1.332.621,2.938,2.938,0,0,0-.645,1.59l.016.039H38.4v-.125A2.462,2.462,0,0,0,37.945-6.8,1.638,1.638,0,0,0,36.547-7.4Zm9.117.3-.789-.047a1.762,1.762,0,0,0-1.027.289,1.855,1.855,0,0,0-.645.813V0H41.664V-8.453h1.375l.148,1.234a2.934,2.934,0,0,1,.887-1.023,2.073,2.073,0,0,1,1.215-.367,1.9,1.9,0,0,1,.328.027,2.175,2.175,0,0,1,.258.059ZM46.75-4.3a4.654,4.654,0,0,1,1.016-3.09,3.406,3.406,0,0,1,2.758-1.215A3.439,3.439,0,0,1,53.3-7.4,4.639,4.639,0,0,1,54.32-4.3v.172A4.631,4.631,0,0,1,53.3-1.039a3.429,3.429,0,0,1-2.766,1.2,3.436,3.436,0,0,1-2.77-1.207,4.623,4.623,0,0,1-1.02-3.09Zm1.539.172a4.009,4.009,0,0,0,.566,2.219,1.875,1.875,0,0,0,1.684.875,1.87,1.87,0,0,0,1.672-.875,3.988,3.988,0,0,0,.57-2.219V-4.3a3.976,3.976,0,0,0-.574-2.211A1.882,1.882,0,0,0,50.523-7.4a1.856,1.856,0,0,0-1.668.883A4.018,4.018,0,0,0,48.289-4.3Z" transform="translate(-9845 -2138.453)" fill="#00104e"/>
      <path id="Icon_awesome-long-arrow-alt-down-2" data-name="Icon awesome-long-arrow-alt-down" d="M11.812,24.273V-6.946a.824.824,0,0,0-.844-.8H7.031a.824.824,0,0,0-.844.8V24.273H2.949a1.6,1.6,0,0,0-1.193,2.744l6.051,5.763a1.748,1.748,0,0,0,2.386,0l6.051-5.763a1.6,1.6,0,0,0-1.193-2.744Z" transform="translate(-9953.1 -2010.783) rotate(-90)" fill="#26a69a"/>
      <rect id="Rectángulo_6740" data-name="Rectángulo 6740" width="143.694" height="6" rx="2" transform="translate(-9959.85 -1770.265)" fill="#26a69a"/>
      <rect id="Rectángulo_6741" data-name="Rectángulo 6741" width="256.28" height="6" rx="2" transform="translate(-9954.85 -2020.545) rotate(90)" fill="#26a69a"/>
      <rect id="Rectángulo_6739" data-name="Rectángulo 6739" width="25.055" height="6" rx="2" transform="translate(-9815 -1789.32) rotate(90)" fill="#26a69a"/>
      <rect id="Rectángulo_6686" data-name="Rectángulo 6686" width="67" height="30" rx="15" transform="translate(-9851 -2492)" fill="#4dd0e1"/>
      <rect id="Rectángulo_6687" data-name="Rectángulo 6687" width="67" height="30" rx="15" transform="translate(-9851 -1616.953)" fill="#4dd0e1"/>
      <path id="Trazado_98942" data-name="Trazado 98942" d="M3.031,0H1.484V-11.375H3.031ZM7.016-8.453,7.125-7.2A3.069,3.069,0,0,1,8.184-8.238a2.824,2.824,0,0,1,1.449-.371,2.759,2.759,0,0,1,2.117.8,3.515,3.515,0,0,1,.75,2.473V0H10.961V-5.3a2.287,2.287,0,0,0-.441-1.586,1.768,1.768,0,0,0-1.348-.469,2.386,2.386,0,0,0-1.207.285,2.072,2.072,0,0,0-.785.8V0H5.641V-8.453ZM16.4,0H14.859V-8.453H16.4Zm0-10.617H14.859v-1.57H16.4Zm5.727,9.578a1.81,1.81,0,0,0,1.242-.473,1.494,1.494,0,0,0,.531-1.16h1.391l.023.047a2.428,2.428,0,0,1-.937,1.941,3.313,3.313,0,0,1-2.25.848,3.319,3.319,0,0,1-2.75-1.211,4.674,4.674,0,0,1-.969-3.016v-.328a4.654,4.654,0,0,1,.973-3,3.317,3.317,0,0,1,2.746-1.215,3.189,3.189,0,0,1,2.316.875,2.775,2.775,0,0,1,.871,2.148l-.016.047H23.9a1.865,1.865,0,0,0-.5-1.316,1.658,1.658,0,0,0-1.27-.543,1.777,1.777,0,0,0-1.652.879,4.114,4.114,0,0,0-.52,2.129v.328a4.192,4.192,0,0,0,.512,2.148A1.776,1.776,0,0,0,22.125-1.039ZM28.8,0H27.266V-8.453H28.8Zm0-10.617H27.266v-1.57H28.8ZM30.813-4.3a4.654,4.654,0,0,1,1.016-3.09,3.406,3.406,0,0,1,2.758-1.215A3.439,3.439,0,0,1,37.363-7.4,4.639,4.639,0,0,1,38.383-4.3v.172a4.631,4.631,0,0,1-1.016,3.094A3.429,3.429,0,0,1,34.6.164a3.436,3.436,0,0,1-2.77-1.207,4.623,4.623,0,0,1-1.02-3.09Zm1.539.172a4.009,4.009,0,0,0,.566,2.219,1.875,1.875,0,0,0,1.684.875,1.87,1.87,0,0,0,1.672-.875,3.988,3.988,0,0,0,.57-2.219V-4.3a3.976,3.976,0,0,0-.574-2.211A1.882,1.882,0,0,0,34.586-7.4a1.856,1.856,0,0,0-1.668.883A4.018,4.018,0,0,0,32.352-4.3Z" transform="translate(-9837 -2471)" fill="#00104e"/>
      <path id="Trazado_98953" data-name="Trazado 98953" d="M7.664-5.031h-4.8V0H1.328V-11.375H8.461v1.211H2.867v3.922h4.8ZM11.609,0H10.07V-8.453h1.539Zm0-10.617H10.07v-1.57h1.539Zm3.742,2.164L15.461-7.2A3.069,3.069,0,0,1,16.52-8.238a2.824,2.824,0,0,1,1.449-.371,2.759,2.759,0,0,1,2.117.8,3.515,3.515,0,0,1,.75,2.473V0H19.3V-5.3a2.287,2.287,0,0,0-.441-1.586,1.768,1.768,0,0,0-1.348-.469,2.386,2.386,0,0,0-1.207.285,2.072,2.072,0,0,0-.785.8V0H13.977V-8.453ZM28.266,0q-.078-.383-.121-.676a4.96,4.96,0,0,1-.051-.59,3.589,3.589,0,0,1-1.121,1.02,2.867,2.867,0,0,1-1.488.41,2.763,2.763,0,0,1-2.012-.676,2.486,2.486,0,0,1-.691-1.863,2.183,2.183,0,0,1,.98-1.895,4.579,4.579,0,0,1,2.66-.684h1.672v-.836a1.551,1.551,0,0,0-.453-1.176A1.779,1.779,0,0,0,26.359-7.4a1.859,1.859,0,0,0-1.211.375,1.125,1.125,0,0,0-.461.9l-1.461.016-.016-.047a2.023,2.023,0,0,1,.863-1.687,3.578,3.578,0,0,1,2.371-.766,3.49,3.49,0,0,1,2.313.73,2.588,2.588,0,0,1,.875,2.105V-1.7a7.923,7.923,0,0,0,.047.875A4.5,4.5,0,0,0,29.852,0ZM25.711-1.125a2.739,2.739,0,0,0,1.508-.43,2.042,2.042,0,0,0,.875-.984V-3.914H26.367a2.24,2.24,0,0,0-1.488.469,1.4,1.4,0,0,0-.559,1.1,1.159,1.159,0,0,0,.352.891A1.472,1.472,0,0,0,25.711-1.125ZM33.531,0H31.992V-12.187h1.539Z" transform="translate(-9835 -1596.953)" fill="#00104e"/>
      <path id="Icon_awesome-long-arrow-alt-down-3" data-name="Icon awesome-long-arrow-alt-down" d="M11.812,14.324V-6.906a.844.844,0,0,0-.844-.844H7.031a.844.844,0,0,0-.844.844v21.23H2.949A1.688,1.688,0,0,0,1.756,17.2l6.051,6.051a1.687,1.687,0,0,0,2.386,0L16.244,17.2a1.688,1.688,0,0,0-1.193-2.881Z" transform="translate(-9827.258 -2454.246)" fill="#26a69a"/>
      <path id="Icon_awesome-long-arrow-alt-down-4" data-name="Icon awesome-long-arrow-alt-down" d="M11.812,14.324V-6.906a.844.844,0,0,0-.844-.844H7.031a.844.844,0,0,0-.844.844v21.23H2.949A1.688,1.688,0,0,0,1.756,17.2l6.051,6.051a1.687,1.687,0,0,0,2.386,0L16.244,17.2a1.688,1.688,0,0,0-1.193-2.881Z" transform="translate(-9827.258 -2370.746)" fill="#26a69a"/>
      <path id="Icon_awesome-long-arrow-alt-down-5" data-name="Icon awesome-long-arrow-alt-down" d="M11.812,14.324V-6.906a.844.844,0,0,0-.844-.844H7.031a.844.844,0,0,0-.844.844v21.23H2.949A1.688,1.688,0,0,0,1.756,17.2l6.051,6.051a1.687,1.687,0,0,0,2.386,0L16.244,17.2a1.688,1.688,0,0,0-1.193-2.881Z" transform="translate(-9827.258 -2287.246)" fill="#26a69a"/>
      <path id="Icon_awesome-long-arrow-alt-down-6" data-name="Icon awesome-long-arrow-alt-down" d="M11.812,14.324V-6.906a.844.844,0,0,0-.844-.844H7.031a.844.844,0,0,0-.844.844v21.23H2.949A1.688,1.688,0,0,0,1.756,17.2l6.051,6.051a1.687,1.687,0,0,0,2.386,0L16.244,17.2a1.688,1.688,0,0,0-1.193-2.881Z" transform="translate(-9827.258 -2197.203)" fill="#26a69a"/>
      <path id="Icon_awesome-long-arrow-alt-down-7" data-name="Icon awesome-long-arrow-alt-down" d="M11.812,14.324V-6.906a.844.844,0,0,0-.844-.844H7.031a.844.844,0,0,0-.844.844v21.23H2.949A1.688,1.688,0,0,0,1.756,17.2l6.051,6.051a1.687,1.687,0,0,0,2.386,0L16.244,17.2a1.688,1.688,0,0,0-1.193-2.881Z" transform="translate(-9827.258 -2106.703)" fill="#26a69a"/>
      <path id="Icon_awesome-long-arrow-alt-down-8" data-name="Icon awesome-long-arrow-alt-down" d="M11.812,14.324V-6.906a.844.844,0,0,0-.844-.844H7.031a.844.844,0,0,0-.844.844v21.23H2.949A1.688,1.688,0,0,0,1.756,17.2l6.051,6.051a1.687,1.687,0,0,0,2.386,0L16.244,17.2a1.688,1.688,0,0,0-1.193-2.881Z" transform="translate(-9827.258 -1947.703)" fill="#26a69a"/>
      <path id="Icon_awesome-long-arrow-alt-down-9" data-name="Icon awesome-long-arrow-alt-down" d="M11.812,14.324V-6.906a.844.844,0,0,0-.844-.844H7.031a.844.844,0,0,0-.844.844v21.23H2.949A1.688,1.688,0,0,0,1.756,17.2l6.051,6.051a1.687,1.687,0,0,0,2.386,0L16.244,17.2a1.688,1.688,0,0,0-1.193-2.881Z" transform="translate(-9827.258 -1864.843)" fill="#26a69a"/>
      <path id="Icon_awesome-long-arrow-alt-down-10" data-name="Icon awesome-long-arrow-alt-down" d="M11.812,14.324V-6.906a.844.844,0,0,0-.844-.844H7.031a.844.844,0,0,0-.844.844v21.23H2.949A1.688,1.688,0,0,0,1.756,17.2l6.051,6.051a1.687,1.687,0,0,0,2.386,0L16.244,17.2a1.688,1.688,0,0,0-1.193-2.881Z" transform="translate(-9827.258 -1640.703)" fill="#26a69a"/>
      <path id="Trazado_29426" data-name="Trazado 29426" d="M267.519,405.619H398.273v55.956s-23.391,18.27-65.377,0-65.377-.588-65.377-.588Z" transform="translate(-10150.519 -2669.115)" fill="#4dd0e1"/>
      <path id="Trazado_29434" data-name="Trazado 29434" d="M267.519,405.619H398.273v55.956s-23.391,18.27-65.377,0-65.377-.588-65.377-.588Z" transform="translate(-10150.519 -2114.61)" fill="#4dd0e1"/>
      <path id="Trazado_98945" data-name="Trazado 98945" d="M4.945,5.734,4.156,7.688H3.4V3.625H4.945Zm-2.414,0L1.742,7.688H.984L.992,5.813V3.625H2.531ZM13.266,9.727H8.594V13.8h5.469V15H7.055V3.625h6.922V4.836H8.594v3.68h4.672Zm7.32,3A1.026,1.026,0,0,0,20.2,11.9a3.732,3.732,0,0,0-1.465-.562,6.146,6.146,0,0,1-2.293-.9,1.814,1.814,0,0,1-.8-1.547,2.229,2.229,0,0,1,.879-1.766A3.433,3.433,0,0,1,18.8,6.391a3.4,3.4,0,0,1,2.328.781,2.239,2.239,0,0,1,.852,1.82l-.016.047H20.492a1.331,1.331,0,0,0-.48-.992A1.717,1.717,0,0,0,18.8,7.6a1.751,1.751,0,0,0-1.215.367,1.146,1.146,0,0,0-.4.875.927.927,0,0,0,.348.773,3.848,3.848,0,0,0,1.434.5,6.058,6.058,0,0,1,2.359.93,1.872,1.872,0,0,1,.8,1.57,2.226,2.226,0,0,1-.91,1.836,3.754,3.754,0,0,1-2.379.711,3.715,3.715,0,0,1-2.547-.82,2.341,2.341,0,0,1-.883-1.914l.016-.047h1.469a1.424,1.424,0,0,0,.609,1.2,2.358,2.358,0,0,0,1.336.379,2.1,2.1,0,0,0,1.285-.348A1.063,1.063,0,0,0,20.586,12.727ZM27.4,13.961a1.81,1.81,0,0,0,1.242-.473,1.494,1.494,0,0,0,.531-1.16h1.391l.023.047a2.428,2.428,0,0,1-.937,1.941,3.582,3.582,0,0,1-5-.363,4.674,4.674,0,0,1-.969-3.016v-.328a4.654,4.654,0,0,1,.973-3A3.317,3.317,0,0,1,27.4,6.391a3.189,3.189,0,0,1,2.316.875,2.775,2.775,0,0,1,.871,2.148l-.016.047h-1.4a1.865,1.865,0,0,0-.5-1.316A1.658,1.658,0,0,0,27.4,7.6a1.777,1.777,0,0,0-1.652.879,4.114,4.114,0,0,0-.52,2.129v.328a4.192,4.192,0,0,0,.512,2.148A1.776,1.776,0,0,0,27.4,13.961Zm9.016-6.055-.789-.047a1.762,1.762,0,0,0-1.027.289,1.855,1.855,0,0,0-.645.813V15H32.414V6.547h1.375l.148,1.234a2.934,2.934,0,0,1,.887-1.023,2.073,2.073,0,0,1,1.215-.367,1.9,1.9,0,0,1,.328.027,2.174,2.174,0,0,1,.258.059ZM39.68,15H38.141V6.547H39.68Zm0-10.617H38.141V2.813H39.68Zm9.586,6.711a4.645,4.645,0,0,1-.879,2.949,2.9,2.9,0,0,1-2.418,1.121,3.064,3.064,0,0,1-1.465-.332,2.719,2.719,0,0,1-1.027-.98L43.227,15h-1.18V2.813h1.539V7.547a2.671,2.671,0,0,1,.988-.859,3.03,3.03,0,0,1,1.379-.3,2.809,2.809,0,0,1,2.438,1.25,5.622,5.622,0,0,1,.875,3.289Zm-1.539-.164a4.666,4.666,0,0,0-.535-2.371,1.762,1.762,0,0,0-1.629-.918,2.014,2.014,0,0,0-1.2.348,2.452,2.452,0,0,0-.777.934v3.664a2.517,2.517,0,0,0,.777.977,2,2,0,0,0,1.215.352,1.829,1.829,0,0,0,1.617-.773,3.552,3.552,0,0,0,.531-2.047ZM56.336,15q-.078-.383-.121-.676a4.96,4.96,0,0,1-.051-.59,3.589,3.589,0,0,1-1.121,1.02,2.867,2.867,0,0,1-1.488.41,2.763,2.763,0,0,1-2.012-.676,2.486,2.486,0,0,1-.691-1.863,2.183,2.183,0,0,1,.98-1.895,4.579,4.579,0,0,1,2.66-.684h1.672V9.211a1.551,1.551,0,0,0-.453-1.176A1.779,1.779,0,0,0,54.43,7.6a1.859,1.859,0,0,0-1.211.375,1.125,1.125,0,0,0-.461.9L51.3,8.891l-.016-.047a2.023,2.023,0,0,1,.863-1.687,3.578,3.578,0,0,1,2.371-.766,3.49,3.49,0,0,1,2.313.73A2.588,2.588,0,0,1,57.7,9.227V13.3a7.923,7.923,0,0,0,.047.875,4.5,4.5,0,0,0,.172.828Zm-2.555-1.125a2.739,2.739,0,0,0,1.508-.43,2.042,2.042,0,0,0,.875-.984V11.086H54.438a2.24,2.24,0,0,0-1.488.469,1.4,1.4,0,0,0-.559,1.1,1.159,1.159,0,0,0,.352.891A1.472,1.472,0,0,0,53.781,13.875Zm13.633,1.289A3.576,3.576,0,0,1,64.574,14a4.48,4.48,0,0,1-1.02-3.062v-.344a4.386,4.386,0,0,1,1.051-3.012,3.3,3.3,0,0,1,2.566-1.191,3.067,3.067,0,0,1,2.543,1.055,4.345,4.345,0,0,1,.848,2.8v.813H65.156l-.023.039a3.494,3.494,0,0,0,.563,2.066,1.965,1.965,0,0,0,1.719.793,3.872,3.872,0,0,0,1.371-.223,3.061,3.061,0,0,0,1.012-.613l.6,1a3.7,3.7,0,0,1-1.2.738A4.762,4.762,0,0,1,67.414,15.164ZM67.172,7.6a1.673,1.673,0,0,0-1.332.621,2.938,2.938,0,0,0-.645,1.59l.016.039h3.813V9.727A2.462,2.462,0,0,0,68.57,8.2,1.638,1.638,0,0,0,67.172,7.6ZM73.953,15H72.414V2.813h1.539ZM2.492,23.547,2.6,24.8A3.069,3.069,0,0,1,3.66,23.762a2.824,2.824,0,0,1,1.449-.371,2.759,2.759,0,0,1,2.117.8,3.515,3.515,0,0,1,.75,2.473V32H6.438V26.7A2.287,2.287,0,0,0,6,25.109a1.768,1.768,0,0,0-1.348-.469,2.386,2.386,0,0,0-1.207.285,2.072,2.072,0,0,0-.785.8V32H1.117V23.547Zm13.086,7.2A2.863,2.863,0,0,1,14.555,31.8a2.8,2.8,0,0,1-1.445.367,2.716,2.716,0,0,1-2.156-.883,4.1,4.1,0,0,1-.773-2.75V23.547h1.539v5a3.147,3.147,0,0,0,.4,1.859,1.481,1.481,0,0,0,1.242.508,2.531,2.531,0,0,0,1.355-.332,2.077,2.077,0,0,0,.809-.941V23.547h1.539V32H15.68ZM14.367,20.125h1.8l.016.047-2.1,2.031H12.922Zm6.313,3.422.109,1.109a2.871,2.871,0,0,1,1.051-.934,3.158,3.158,0,0,1,1.48-.332,2.615,2.615,0,0,1,1.449.391,2.363,2.363,0,0,1,.91,1.172,3.162,3.162,0,0,1,1.059-1.145,2.769,2.769,0,0,1,1.527-.418,2.531,2.531,0,0,1,2.039.887,4.051,4.051,0,0,1,.75,2.668V32H29.516V26.93a2.81,2.81,0,0,0-.43-1.77,1.567,1.567,0,0,0-1.281-.52,1.631,1.631,0,0,0-1.277.547,2.381,2.381,0,0,0-.574,1.383V32H24.406V26.93a2.772,2.772,0,0,0-.441-1.738,1.532,1.532,0,0,0-1.27-.551,2.115,2.115,0,0,0-1.156.289,1.867,1.867,0,0,0-.7.813V32H19.3V23.547Zm16.109,8.617A3.576,3.576,0,0,1,33.949,31a4.48,4.48,0,0,1-1.02-3.062v-.344a4.386,4.386,0,0,1,1.051-3.012,3.3,3.3,0,0,1,2.566-1.191,3.067,3.067,0,0,1,2.543,1.055,4.345,4.345,0,0,1,.848,2.8v.813H34.531l-.023.039a3.494,3.494,0,0,0,.563,2.066,1.965,1.965,0,0,0,1.719.793,3.872,3.872,0,0,0,1.371-.223,3.061,3.061,0,0,0,1.012-.613l.6,1a3.7,3.7,0,0,1-1.2.738A4.762,4.762,0,0,1,36.789,32.164ZM36.547,24.6a1.673,1.673,0,0,0-1.332.621,2.938,2.938,0,0,0-.645,1.59l.016.039H38.4v-.125a2.462,2.462,0,0,0-.453-1.523A1.638,1.638,0,0,0,36.547,24.6Zm9.117.3-.789-.047a1.762,1.762,0,0,0-1.027.289,1.855,1.855,0,0,0-.645.813V32H41.664V23.547h1.375l.148,1.234a2.934,2.934,0,0,1,.887-1.023,2.073,2.073,0,0,1,1.215-.367,1.9,1.9,0,0,1,.328.027,2.174,2.174,0,0,1,.258.059ZM46.75,27.7a4.654,4.654,0,0,1,1.016-3.09,3.764,3.764,0,0,1,5.535,0A4.639,4.639,0,0,1,54.32,27.7v.172A4.631,4.631,0,0,1,53.3,30.961a3.781,3.781,0,0,1-5.535,0,4.623,4.623,0,0,1-1.02-3.09Zm1.539.172a4.009,4.009,0,0,0,.566,2.219,2.046,2.046,0,0,0,3.355,0,3.988,3.988,0,0,0,.57-2.219V27.7a3.976,3.976,0,0,0-.574-2.211,1.882,1.882,0,0,0-1.684-.883,1.856,1.856,0,0,0-1.668.883,4.018,4.018,0,0,0-.566,2.211Zm11.586-5.133-.789,1.953h-.758V20.625h1.547Zm-2.414,0-.789,1.953h-.758l.008-1.875V20.625h1.539Z" transform="translate(-9858 -2257.953)" fill="#00104e"/>
      <path id="Trazado_98952" data-name="Trazado 98952" d="M1.758,15V7.688H.438V6.547h1.32V5.477a2.9,2.9,0,0,1,.707-2.09,2.6,2.6,0,0,1,1.973-.738,3.4,3.4,0,0,1,.535.043q.27.043.6.121L5.383,3.984q-.141-.031-.34-.055a3.579,3.579,0,0,0-.418-.023,1.215,1.215,0,0,0-1,.4A1.809,1.809,0,0,0,3.3,5.477v1.07H4.828V7.688H3.3V15Zm9.82,0q-.078-.383-.121-.676a4.96,4.96,0,0,1-.051-.59,3.589,3.589,0,0,1-1.121,1.02,2.867,2.867,0,0,1-1.488.41,2.763,2.763,0,0,1-2.012-.676,2.486,2.486,0,0,1-.691-1.863,2.183,2.183,0,0,1,.98-1.895,4.579,4.579,0,0,1,2.66-.684h1.672V9.211a1.551,1.551,0,0,0-.453-1.176A1.779,1.779,0,0,0,9.672,7.6a1.859,1.859,0,0,0-1.211.375,1.125,1.125,0,0,0-.461.9l-1.461.016-.016-.047a2.023,2.023,0,0,1,.863-1.687,3.578,3.578,0,0,1,2.371-.766,3.49,3.49,0,0,1,2.313.73,2.588,2.588,0,0,1,.875,2.105V13.3a7.923,7.923,0,0,0,.047.875,4.5,4.5,0,0,0,.172.828ZM9.023,13.875a2.739,2.739,0,0,0,1.508-.43,2.042,2.042,0,0,0,.875-.984V11.086H9.68a2.24,2.24,0,0,0-1.488.469,1.4,1.4,0,0,0-.559,1.1,1.159,1.159,0,0,0,.352.891A1.472,1.472,0,0,0,9.023,13.875Zm9.516.086a1.81,1.81,0,0,0,1.242-.473,1.494,1.494,0,0,0,.531-1.16H21.7l.023.047a2.428,2.428,0,0,1-.937,1.941,3.313,3.313,0,0,1-2.25.848,3.319,3.319,0,0,1-2.75-1.211,4.674,4.674,0,0,1-.969-3.016v-.328a4.654,4.654,0,0,1,.973-3,3.317,3.317,0,0,1,2.746-1.215,3.189,3.189,0,0,1,2.316.875,2.775,2.775,0,0,1,.871,2.148l-.016.047h-1.4a1.865,1.865,0,0,0-.5-1.316,1.658,1.658,0,0,0-1.27-.543,1.777,1.777,0,0,0-1.652.879,4.114,4.114,0,0,0-.52,2.129v.328a4.192,4.192,0,0,0,.512,2.148A1.776,1.776,0,0,0,18.539,13.961ZM25.7,4.508V6.547h1.6V7.688H25.7V12.82a1.149,1.149,0,0,0,.246.836.89.89,0,0,0,.652.242,1.429,1.429,0,0,0,.3-.035,2.2,2.2,0,0,0,.273-.074l.211,1.055a1.36,1.36,0,0,1-.508.23,2.562,2.562,0,0,1-.664.09,1.993,1.993,0,0,1-1.492-.566,2.46,2.46,0,0,1-.555-1.777V7.688H22.813V6.547h1.344V4.508ZM28.586,10.7A4.654,4.654,0,0,1,29.6,7.605a3.764,3.764,0,0,1,5.535,0,4.639,4.639,0,0,1,1.02,3.094v.172a4.631,4.631,0,0,1-1.016,3.094,3.781,3.781,0,0,1-5.535,0,4.623,4.623,0,0,1-1.02-3.09Zm1.539.172a4.009,4.009,0,0,0,.566,2.219,2.046,2.046,0,0,0,3.355,0,3.988,3.988,0,0,0,.57-2.219V10.7a3.976,3.976,0,0,0-.574-2.211A1.882,1.882,0,0,0,32.359,7.6a1.856,1.856,0,0,0-1.668.883,4.018,4.018,0,0,0-.566,2.211ZM42.039,7.906l-.789-.047a1.762,1.762,0,0,0-1.027.289,1.855,1.855,0,0,0-.645.813V15H38.039V6.547h1.375l.148,1.234a2.934,2.934,0,0,1,.887-1.023,2.073,2.073,0,0,1,1.215-.367,1.9,1.9,0,0,1,.328.027,2.174,2.174,0,0,1,.258.059ZM45.3,15H43.766V6.547H45.3Zm0-10.617H43.766V2.813H45.3ZM52.867,15q-.078-.383-.121-.676a4.96,4.96,0,0,1-.051-.59,3.589,3.589,0,0,1-1.121,1.02,2.867,2.867,0,0,1-1.488.41,2.763,2.763,0,0,1-2.012-.676,2.486,2.486,0,0,1-.691-1.863,2.183,2.183,0,0,1,.98-1.895,4.579,4.579,0,0,1,2.66-.684H52.7V9.211a1.551,1.551,0,0,0-.453-1.176A1.779,1.779,0,0,0,50.961,7.6a1.859,1.859,0,0,0-1.211.375,1.125,1.125,0,0,0-.461.9l-1.461.016-.016-.047a2.023,2.023,0,0,1,.863-1.687,3.578,3.578,0,0,1,2.371-.766,3.49,3.49,0,0,1,2.313.73,2.588,2.588,0,0,1,.875,2.105V13.3a7.923,7.923,0,0,0,.047.875,4.5,4.5,0,0,0,.172.828Zm-2.555-1.125a2.739,2.739,0,0,0,1.508-.43,2.042,2.042,0,0,0,.875-.984V11.086H50.969a2.24,2.24,0,0,0-1.488.469,1.4,1.4,0,0,0-.559,1.1,1.159,1.159,0,0,0,.352.891A1.472,1.472,0,0,0,50.313,13.875ZM58.133,15H56.594V2.813h1.539Z" transform="translate(-9848 -1694.991)" fill="#00104e"/>
    </g>
  </g>
</svg>
