<svg xmlns="http://www.w3.org/2000/svg" width="466" height="788" viewBox="0 0 466 788">
  <g id="Grupo_31027" data-name="Grupo 31027" transform="translate(4044 9545)">
    <path id="Trazado_29967" data-name="Trazado 29967" d="M10,0H456a10,10,0,0,1,10,10V778a10,10,0,0,1-10,10H10A10,10,0,0,1,0,778V10A10,10,0,0,1,10,0Z" transform="translate(-4044 -9545)" fill="#ecfafc"/>
    <path id="Icon_awesome-long-arrow-alt-down" data-name="Icon awesome-long-arrow-alt-down" d="M11.812,34.324V-6.906a.844.844,0,0,0-.844-.844H7.031a.844.844,0,0,0-.844.844v41.23H2.949A1.688,1.688,0,0,0,1.756,37.2l6.051,6.051a1.687,1.687,0,0,0,2.386,0L16.244,37.2a1.688,1.688,0,0,0-1.193-2.881Z" transform="translate(-3971.365 -9007.782)" fill="#26a69a"/>
    <path id="Icon_awesome-long-arrow-alt-down-2" data-name="Icon awesome-long-arrow-alt-down" d="M11.812,34.324V-6.906a.844.844,0,0,0-.844-.844H7.031a.844.844,0,0,0-.844.844v41.23H2.949A1.688,1.688,0,0,0,1.756,37.2l6.051,6.051a1.687,1.687,0,0,0,2.386,0L16.244,37.2a1.688,1.688,0,0,0-1.193-2.881Z" transform="translate(-3671.88 -9007.782)" fill="#26a69a"/>
    <path id="Trazado_29451" data-name="Trazado 29451" d="M11.907,11.907,128.488-14.142,102.439,102.439-14.142,128.488Z" transform="translate(-3812.029 -9093.08) rotate(45)" fill="#4dd0e1"/>
    <path id="Trazado_29976" data-name="Trazado 29976" d="M2.492-8.453,2.6-7.2A3.069,3.069,0,0,1,3.66-8.238a2.824,2.824,0,0,1,1.449-.371,2.759,2.759,0,0,1,2.117.8,3.515,3.515,0,0,1,.75,2.473V0H6.438V-5.3A2.287,2.287,0,0,0,6-6.891a1.768,1.768,0,0,0-1.348-.469,2.386,2.386,0,0,0-1.207.285,2.072,2.072,0,0,0-.785.8V0H1.117V-8.453Zm13.086,7.2A2.863,2.863,0,0,1,14.555-.2a2.8,2.8,0,0,1-1.445.367,2.716,2.716,0,0,1-2.156-.883,4.1,4.1,0,0,1-.773-2.75V-8.453h1.539v5a3.147,3.147,0,0,0,.4,1.859,1.481,1.481,0,0,0,1.242.508,2.531,2.531,0,0,0,1.355-.332,2.077,2.077,0,0,0,.809-.941V-8.453h1.539V0H15.68Zm5.1-7.2.109,1.109a2.871,2.871,0,0,1,1.051-.934,3.158,3.158,0,0,1,1.48-.332,2.615,2.615,0,0,1,1.449.391,2.363,2.363,0,0,1,.91,1.172,3.162,3.162,0,0,1,1.059-1.145,2.769,2.769,0,0,1,1.527-.418,2.531,2.531,0,0,1,2.039.887,4.051,4.051,0,0,1,.75,2.668V0H29.516V-5.07a2.81,2.81,0,0,0-.43-1.77,1.567,1.567,0,0,0-1.281-.52,1.631,1.631,0,0,0-1.277.547,2.381,2.381,0,0,0-.574,1.383V0H24.406V-5.07a2.772,2.772,0,0,0-.441-1.738,1.532,1.532,0,0,0-1.27-.551,2.115,2.115,0,0,0-1.156.289,1.867,1.867,0,0,0-.7.813V0H19.3V-8.453ZM36.789.164A3.576,3.576,0,0,1,33.949-1a4.48,4.48,0,0,1-1.02-3.062v-.344A4.386,4.386,0,0,1,33.98-7.418a3.3,3.3,0,0,1,2.566-1.191A3.067,3.067,0,0,1,39.09-7.555a4.345,4.345,0,0,1,.848,2.8v.813H34.531l-.023.039a3.494,3.494,0,0,0,.563,2.066,1.965,1.965,0,0,0,1.719.793,3.872,3.872,0,0,0,1.371-.223,3.061,3.061,0,0,0,1.012-.613l.6,1a3.7,3.7,0,0,1-1.2.738A4.762,4.762,0,0,1,36.789.164ZM36.547-7.4a1.673,1.673,0,0,0-1.332.621,2.938,2.938,0,0,0-.645,1.59l.016.039H38.4v-.125A2.462,2.462,0,0,0,37.945-6.8,1.638,1.638,0,0,0,36.547-7.4Zm9.117.3-.789-.047a1.762,1.762,0,0,0-1.027.289,1.855,1.855,0,0,0-.645.813V0H41.664V-8.453h1.375l.148,1.234a2.934,2.934,0,0,1,.887-1.023,2.073,2.073,0,0,1,1.215-.367,1.9,1.9,0,0,1,.328.027,2.175,2.175,0,0,1,.258.059ZM46.75-4.3a4.654,4.654,0,0,1,1.016-3.09,3.406,3.406,0,0,1,2.758-1.215A3.439,3.439,0,0,1,53.3-7.4,4.639,4.639,0,0,1,54.32-4.3v.172A4.631,4.631,0,0,1,53.3-1.039a3.429,3.429,0,0,1-2.766,1.2,3.436,3.436,0,0,1-2.77-1.207,4.623,4.623,0,0,1-1.02-3.09Zm1.539.172a4.009,4.009,0,0,0,.566,2.219,1.875,1.875,0,0,0,1.684.875,1.87,1.87,0,0,0,1.672-.875,3.988,3.988,0,0,0,.57-2.219V-4.3a3.976,3.976,0,0,0-.574-2.211A1.882,1.882,0,0,0,50.523-7.4a1.856,1.856,0,0,0-1.668.883A4.018,4.018,0,0,0,48.289-4.3ZM60.633,0H59.086V-9.953l-2.477.023v-1.187l4.023-.422Zm8.5-6.234V-7.758L75.82-4.8v1.164L69.133-.68V-2.211L73.8-4.07l.664-.133V-4.25L73.8-4.406ZM82.914-8.453,83.023-7.2a3.069,3.069,0,0,1,1.059-1.043,2.824,2.824,0,0,1,1.449-.371,2.759,2.759,0,0,1,2.117.8,3.515,3.515,0,0,1,.75,2.473V0H86.859V-5.3a2.287,2.287,0,0,0-.441-1.586,1.768,1.768,0,0,0-1.348-.469,2.386,2.386,0,0,0-1.207.285,2.072,2.072,0,0,0-.785.8V0H81.539V-8.453ZM96-1.25A2.863,2.863,0,0,1,94.977-.2a2.8,2.8,0,0,1-1.445.367,2.716,2.716,0,0,1-2.156-.883,4.1,4.1,0,0,1-.773-2.75V-8.453h1.539v5a3.147,3.147,0,0,0,.4,1.859,1.481,1.481,0,0,0,1.242.508,2.531,2.531,0,0,0,1.355-.332,2.077,2.077,0,0,0,.809-.941V-8.453h1.539V0H96.1Zm5.1-7.2.109,1.109a2.871,2.871,0,0,1,1.051-.934,3.158,3.158,0,0,1,1.48-.332,2.615,2.615,0,0,1,1.449.391,2.363,2.363,0,0,1,.91,1.172,3.162,3.162,0,0,1,1.059-1.145,2.769,2.769,0,0,1,1.527-.418,2.531,2.531,0,0,1,2.039.887,4.051,4.051,0,0,1,.75,2.668V0h-1.539V-5.07a2.81,2.81,0,0,0-.43-1.77,1.567,1.567,0,0,0-1.281-.52,1.631,1.631,0,0,0-1.277.547,2.381,2.381,0,0,0-.574,1.383V0h-1.547V-5.07a2.772,2.772,0,0,0-.441-1.738,1.532,1.532,0,0,0-1.27-.551,2.115,2.115,0,0,0-1.156.289,1.867,1.867,0,0,0-.7.813V0H99.727V-8.453ZM117.211.164A3.576,3.576,0,0,1,114.371-1a4.48,4.48,0,0,1-1.02-3.062v-.344A4.386,4.386,0,0,1,114.4-7.418a3.3,3.3,0,0,1,2.566-1.191,3.067,3.067,0,0,1,2.543,1.055,4.345,4.345,0,0,1,.848,2.8v.813h-5.406l-.023.039a3.494,3.494,0,0,0,.563,2.066,1.965,1.965,0,0,0,1.719.793,3.872,3.872,0,0,0,1.371-.223,3.061,3.061,0,0,0,1.012-.613l.6,1a3.7,3.7,0,0,1-1.2.738A4.762,4.762,0,0,1,117.211.164ZM116.969-7.4a1.673,1.673,0,0,0-1.332.621,2.938,2.938,0,0,0-.645,1.59l.016.039h3.813v-.125a2.462,2.462,0,0,0-.453-1.523A1.638,1.638,0,0,0,116.969-7.4Zm9.117.3-.789-.047a1.762,1.762,0,0,0-1.027.289,1.854,1.854,0,0,0-.645.813V0h-1.539V-8.453h1.375l.148,1.234a2.934,2.934,0,0,1,.887-1.023,2.073,2.073,0,0,1,1.215-.367,1.9,1.9,0,0,1,.328.027,2.175,2.175,0,0,1,.258.059ZM127.172-4.3a4.654,4.654,0,0,1,1.016-3.09,3.406,3.406,0,0,1,2.758-1.215A3.439,3.439,0,0,1,133.723-7.4a4.639,4.639,0,0,1,1.02,3.094v.172a4.631,4.631,0,0,1-1.016,3.094,3.429,3.429,0,0,1-2.766,1.2,3.436,3.436,0,0,1-2.77-1.207,4.623,4.623,0,0,1-1.02-3.09Zm1.539.172a4.009,4.009,0,0,0,.566,2.219,1.875,1.875,0,0,0,1.684.875,1.87,1.87,0,0,0,1.672-.875,3.988,3.988,0,0,0,.57-2.219V-4.3a3.976,3.976,0,0,0-.574-2.211,1.882,1.882,0,0,0-1.684-.883,1.856,1.856,0,0,0-1.668.883,4.018,4.018,0,0,0-.566,2.211ZM143.742,0H136.68V-1.055l3.57-4.258a10.726,10.726,0,0,0,1.293-1.84,3.07,3.07,0,0,0,.34-1.379,1.841,1.841,0,0,0-.461-1.293,1.639,1.639,0,0,0-1.273-.5,1.908,1.908,0,0,0-1.535.617,2.286,2.286,0,0,0-.527,1.539H136.6l-.016-.047a3.068,3.068,0,0,1,.93-2.355,3.566,3.566,0,0,1,2.633-.965,3.31,3.31,0,0,1,2.4.844,2.894,2.894,0,0,1,.875,2.18,3.476,3.476,0,0,1-.5,1.758A19.614,19.614,0,0,1,141.414-4.6l-2.867,3.359.016.039h5.18Z" transform="translate(-3883.884 -9008.032)" fill="#00104e"/>
    <path id="Trazado_29977" data-name="Trazado 29977" d="M2,0H50.48a2,2,0,0,1,2,2V4a2,2,0,0,1-2,2H2A2,2,0,0,1,0,4V2A2,2,0,0,1,2,0Z" transform="translate(-3964.365 -9015.532)" fill="#26a69a"/>
    <path id="Trazado_29978" data-name="Trazado 29978" d="M2,0H50.48a2,2,0,0,1,2,2V4a2,2,0,0,1-2,2H2A2,2,0,0,1,0,4V2A2,2,0,0,1,2,0Z" transform="translate(-3712.88 -9015.532)" fill="#26a69a"/>
    <path id="Trazado_29448" data-name="Trazado 29448" d="M0-20,57.863,3.447V115.99L0,92.544Z" transform="translate(-3764.894 -9351.033) rotate(90)" fill="#4dd0e1"/>
    <path id="Trazado_29450" data-name="Trazado 29450" d="M0-20,57.863,3.447V115.99L0,92.544Z" transform="translate(-3764.894 -9166.533) rotate(90)" fill="#4dd0e1"/>
    <path id="Trazado_29971" data-name="Trazado 29971" d="M2.492-8.453,2.6-7.2A3.069,3.069,0,0,1,3.66-8.238a2.824,2.824,0,0,1,1.449-.371,2.759,2.759,0,0,1,2.117.8,3.515,3.515,0,0,1,.75,2.473V0H6.438V-5.3A2.287,2.287,0,0,0,6-6.891a1.768,1.768,0,0,0-1.348-.469,2.386,2.386,0,0,0-1.207.285,2.072,2.072,0,0,0-.785.8V0H1.117V-8.453Zm13.086,7.2A2.863,2.863,0,0,1,14.555-.2a2.8,2.8,0,0,1-1.445.367,2.716,2.716,0,0,1-2.156-.883,4.1,4.1,0,0,1-.773-2.75V-8.453h1.539v5a3.147,3.147,0,0,0,.4,1.859,1.481,1.481,0,0,0,1.242.508,2.531,2.531,0,0,0,1.355-.332,2.077,2.077,0,0,0,.809-.941V-8.453h1.539V0H15.68Zm5.1-7.2.109,1.109a2.871,2.871,0,0,1,1.051-.934,3.158,3.158,0,0,1,1.48-.332,2.615,2.615,0,0,1,1.449.391,2.363,2.363,0,0,1,.91,1.172,3.162,3.162,0,0,1,1.059-1.145,2.769,2.769,0,0,1,1.527-.418,2.531,2.531,0,0,1,2.039.887,4.051,4.051,0,0,1,.75,2.668V0H29.516V-5.07a2.81,2.81,0,0,0-.43-1.77,1.567,1.567,0,0,0-1.281-.52,1.631,1.631,0,0,0-1.277.547,2.381,2.381,0,0,0-.574,1.383V0H24.406V-5.07a2.772,2.772,0,0,0-.441-1.738,1.532,1.532,0,0,0-1.27-.551,2.115,2.115,0,0,0-1.156.289,1.867,1.867,0,0,0-.7.813V0H19.3V-8.453ZM36.789.164A3.576,3.576,0,0,1,33.949-1a4.48,4.48,0,0,1-1.02-3.062v-.344A4.386,4.386,0,0,1,33.98-7.418a3.3,3.3,0,0,1,2.566-1.191A3.067,3.067,0,0,1,39.09-7.555a4.345,4.345,0,0,1,.848,2.8v.813H34.531l-.023.039a3.494,3.494,0,0,0,.563,2.066,1.965,1.965,0,0,0,1.719.793,3.872,3.872,0,0,0,1.371-.223,3.061,3.061,0,0,0,1.012-.613l.6,1a3.7,3.7,0,0,1-1.2.738A4.762,4.762,0,0,1,36.789.164ZM36.547-7.4a1.673,1.673,0,0,0-1.332.621,2.938,2.938,0,0,0-.645,1.59l.016.039H38.4v-.125A2.462,2.462,0,0,0,37.945-6.8,1.638,1.638,0,0,0,36.547-7.4Zm9.117.3-.789-.047a1.762,1.762,0,0,0-1.027.289,1.855,1.855,0,0,0-.645.813V0H41.664V-8.453h1.375l.148,1.234a2.934,2.934,0,0,1,.887-1.023,2.073,2.073,0,0,1,1.215-.367,1.9,1.9,0,0,1,.328.027,2.175,2.175,0,0,1,.258.059ZM46.75-4.3a4.654,4.654,0,0,1,1.016-3.09,3.406,3.406,0,0,1,2.758-1.215A3.439,3.439,0,0,1,53.3-7.4,4.639,4.639,0,0,1,54.32-4.3v.172A4.631,4.631,0,0,1,53.3-1.039a3.429,3.429,0,0,1-2.766,1.2,3.436,3.436,0,0,1-2.77-1.207,4.623,4.623,0,0,1-1.02-3.09Zm1.539.172a4.009,4.009,0,0,0,.566,2.219,1.875,1.875,0,0,0,1.684.875,1.87,1.87,0,0,0,1.672-.875,3.988,3.988,0,0,0,.57-2.219V-4.3a3.976,3.976,0,0,0-.574-2.211A1.882,1.882,0,0,0,50.523-7.4a1.856,1.856,0,0,0-1.668.883A4.018,4.018,0,0,0,48.289-4.3ZM60.633,0H59.086V-9.953l-2.477.023v-1.187l4.023-.422Z" transform="translate(-3844.884 -9316.033)" fill="#00104e"/>
    <path id="Trazado_29973" data-name="Trazado 29973" d="M2.492-8.453,2.6-7.2A3.069,3.069,0,0,1,3.66-8.238a2.824,2.824,0,0,1,1.449-.371,2.759,2.759,0,0,1,2.117.8,3.515,3.515,0,0,1,.75,2.473V0H6.438V-5.3A2.287,2.287,0,0,0,6-6.891a1.768,1.768,0,0,0-1.348-.469,2.386,2.386,0,0,0-1.207.285,2.072,2.072,0,0,0-.785.8V0H1.117V-8.453Zm13.086,7.2A2.863,2.863,0,0,1,14.555-.2a2.8,2.8,0,0,1-1.445.367,2.716,2.716,0,0,1-2.156-.883,4.1,4.1,0,0,1-.773-2.75V-8.453h1.539v5a3.147,3.147,0,0,0,.4,1.859,1.481,1.481,0,0,0,1.242.508,2.531,2.531,0,0,0,1.355-.332,2.077,2.077,0,0,0,.809-.941V-8.453h1.539V0H15.68Zm5.1-7.2.109,1.109a2.871,2.871,0,0,1,1.051-.934,3.158,3.158,0,0,1,1.48-.332,2.615,2.615,0,0,1,1.449.391,2.363,2.363,0,0,1,.91,1.172,3.162,3.162,0,0,1,1.059-1.145,2.769,2.769,0,0,1,1.527-.418,2.531,2.531,0,0,1,2.039.887,4.051,4.051,0,0,1,.75,2.668V0H29.516V-5.07a2.81,2.81,0,0,0-.43-1.77,1.567,1.567,0,0,0-1.281-.52,1.631,1.631,0,0,0-1.277.547,2.381,2.381,0,0,0-.574,1.383V0H24.406V-5.07a2.772,2.772,0,0,0-.441-1.738,1.532,1.532,0,0,0-1.27-.551,2.115,2.115,0,0,0-1.156.289,1.867,1.867,0,0,0-.7.813V0H19.3V-8.453ZM36.789.164A3.576,3.576,0,0,1,33.949-1a4.48,4.48,0,0,1-1.02-3.062v-.344A4.386,4.386,0,0,1,33.98-7.418a3.3,3.3,0,0,1,2.566-1.191A3.067,3.067,0,0,1,39.09-7.555a4.345,4.345,0,0,1,.848,2.8v.813H34.531l-.023.039a3.494,3.494,0,0,0,.563,2.066,1.965,1.965,0,0,0,1.719.793,3.872,3.872,0,0,0,1.371-.223,3.061,3.061,0,0,0,1.012-.613l.6,1a3.7,3.7,0,0,1-1.2.738A4.762,4.762,0,0,1,36.789.164ZM36.547-7.4a1.673,1.673,0,0,0-1.332.621,2.938,2.938,0,0,0-.645,1.59l.016.039H38.4v-.125A2.462,2.462,0,0,0,37.945-6.8,1.638,1.638,0,0,0,36.547-7.4Zm9.117.3-.789-.047a1.762,1.762,0,0,0-1.027.289,1.855,1.855,0,0,0-.645.813V0H41.664V-8.453h1.375l.148,1.234a2.934,2.934,0,0,1,.887-1.023,2.073,2.073,0,0,1,1.215-.367,1.9,1.9,0,0,1,.328.027,2.175,2.175,0,0,1,.258.059ZM46.75-4.3a4.654,4.654,0,0,1,1.016-3.09,3.406,3.406,0,0,1,2.758-1.215A3.439,3.439,0,0,1,53.3-7.4,4.639,4.639,0,0,1,54.32-4.3v.172A4.631,4.631,0,0,1,53.3-1.039a3.429,3.429,0,0,1-2.766,1.2,3.436,3.436,0,0,1-2.77-1.207,4.623,4.623,0,0,1-1.02-3.09Zm1.539.172a4.009,4.009,0,0,0,.566,2.219,1.875,1.875,0,0,0,1.684.875,1.87,1.87,0,0,0,1.672-.875,3.988,3.988,0,0,0,.57-2.219V-4.3a3.976,3.976,0,0,0-.574-2.211A1.882,1.882,0,0,0,50.523-7.4a1.856,1.856,0,0,0-1.668.883A4.018,4.018,0,0,0,48.289-4.3ZM63.32,0H56.258V-1.055l3.57-4.258a10.726,10.726,0,0,0,1.293-1.84,3.07,3.07,0,0,0,.34-1.379A1.841,1.841,0,0,0,61-9.824a1.639,1.639,0,0,0-1.273-.5,1.908,1.908,0,0,0-1.535.617,2.286,2.286,0,0,0-.527,1.539H56.18l-.016-.047a3.068,3.068,0,0,1,.93-2.355,3.566,3.566,0,0,1,2.633-.965,3.31,3.31,0,0,1,2.4.844A2.894,2.894,0,0,1,63-8.516a3.476,3.476,0,0,1-.5,1.758A19.613,19.613,0,0,1,60.992-4.6L58.125-1.242l.016.039h5.18Z" transform="translate(-3844.884 -9131.533)" fill="#00104e"/>
    <path id="Trazado_29968" data-name="Trazado 29968" d="M15,0H52a15,15,0,0,1,0,30H15A15,15,0,0,1,15,0Z" transform="translate(-3845.884 -9507.041)" fill="#4dd0e1"/>
    <path id="Trazado_29969" data-name="Trazado 29969" d="M3.031,0H1.484V-11.375H3.031ZM7.016-8.453,7.125-7.2A3.069,3.069,0,0,1,8.184-8.238a2.824,2.824,0,0,1,1.449-.371,2.759,2.759,0,0,1,2.117.8,3.515,3.515,0,0,1,.75,2.473V0H10.961V-5.3a2.287,2.287,0,0,0-.441-1.586,1.768,1.768,0,0,0-1.348-.469,2.386,2.386,0,0,0-1.207.285,2.072,2.072,0,0,0-.785.8V0H5.641V-8.453ZM16.4,0H14.859V-8.453H16.4Zm0-10.617H14.859v-1.57H16.4Zm5.727,9.578a1.81,1.81,0,0,0,1.242-.473,1.494,1.494,0,0,0,.531-1.16h1.391l.023.047a2.428,2.428,0,0,1-.937,1.941,3.313,3.313,0,0,1-2.25.848,3.319,3.319,0,0,1-2.75-1.211,4.674,4.674,0,0,1-.969-3.016v-.328a4.654,4.654,0,0,1,.973-3,3.317,3.317,0,0,1,2.746-1.215,3.189,3.189,0,0,1,2.316.875,2.775,2.775,0,0,1,.871,2.148l-.016.047H23.9a1.865,1.865,0,0,0-.5-1.316,1.658,1.658,0,0,0-1.27-.543,1.777,1.777,0,0,0-1.652.879,4.114,4.114,0,0,0-.52,2.129v.328a4.192,4.192,0,0,0,.512,2.148A1.776,1.776,0,0,0,22.125-1.039ZM28.8,0H27.266V-8.453H28.8Zm0-10.617H27.266v-1.57H28.8ZM30.813-4.3a4.654,4.654,0,0,1,1.016-3.09,3.406,3.406,0,0,1,2.758-1.215A3.439,3.439,0,0,1,37.363-7.4,4.639,4.639,0,0,1,38.383-4.3v.172a4.631,4.631,0,0,1-1.016,3.094A3.429,3.429,0,0,1,34.6.164a3.436,3.436,0,0,1-2.77-1.207,4.623,4.623,0,0,1-1.02-3.09Zm1.539.172a4.009,4.009,0,0,0,.566,2.219,1.875,1.875,0,0,0,1.684.875,1.87,1.87,0,0,0,1.672-.875,3.988,3.988,0,0,0,.57-2.219V-4.3a3.976,3.976,0,0,0-.574-2.211A1.882,1.882,0,0,0,34.586-7.4a1.856,1.856,0,0,0-1.668.883A4.018,4.018,0,0,0,32.352-4.3Z" transform="translate(-3831.884 -9486.041)" fill="#00104e"/>
    <path id="Icon_awesome-long-arrow-alt-down-3" data-name="Icon awesome-long-arrow-alt-down" d="M11.812,14.324V-6.906a.844.844,0,0,0-.844-.844H7.031a.844.844,0,0,0-.844.844v21.23H2.949A1.688,1.688,0,0,0,1.756,17.2l6.051,6.051a1.687,1.687,0,0,0,2.386,0L16.244,17.2a1.688,1.688,0,0,0-1.193-2.881Z" transform="translate(-3821.142 -9469.287)" fill="#26a69a"/>
    <path id="Icon_awesome-long-arrow-alt-down-4" data-name="Icon awesome-long-arrow-alt-down" d="M11.812,14.324V-6.906a.844.844,0,0,0-.844-.844H7.031a.844.844,0,0,0-.844.844v21.23H2.949A1.688,1.688,0,0,0,1.756,17.2l6.051,6.051a1.687,1.687,0,0,0,2.386,0L16.244,17.2a1.688,1.688,0,0,0-1.193-2.881Z" transform="translate(-3821.142 -9284.787)" fill="#26a69a"/>
    <path id="Icon_awesome-long-arrow-alt-down-5" data-name="Icon awesome-long-arrow-alt-down" d="M11.812,14.324V-6.906a.844.844,0,0,0-.844-.844H7.031a.844.844,0,0,0-.844.844v21.23H2.949A1.688,1.688,0,0,0,1.756,17.2l6.051,6.051a1.687,1.687,0,0,0,2.386,0L16.244,17.2a1.688,1.688,0,0,0-1.193-2.881Z" transform="translate(-3821.142 -9374.787)" fill="#26a69a"/>
    <path id="Icon_awesome-long-arrow-alt-down-6" data-name="Icon awesome-long-arrow-alt-down" d="M11.812,14.324V-6.906a.844.844,0,0,0-.844-.844H7.031a.844.844,0,0,0-.844.844v21.23H2.949A1.688,1.688,0,0,0,1.756,17.2l6.051,6.051a1.687,1.687,0,0,0,2.386,0L16.244,17.2a1.688,1.688,0,0,0-1.193-2.881Z" transform="translate(-3821.142 -9190.287)" fill="#26a69a"/>
    <path id="Icon_awesome-long-arrow-alt-down-7" data-name="Icon awesome-long-arrow-alt-down" d="M11.812,14.324V-6.906a.844.844,0,0,0-.844-.844H7.031a.844.844,0,0,0-.844.844v21.23H2.949A1.688,1.688,0,0,0,1.756,17.2l6.051,6.051a1.687,1.687,0,0,0,2.386,0L16.244,17.2a1.688,1.688,0,0,0-1.193-2.881Z" transform="translate(-3821.142 -9099.689)" fill="#26a69a"/>
    <path id="Trazado_29447" data-name="Trazado 29447" d="M267.519,405.619H398.273v55.956s-23.391,18.27-65.377,0-65.377-.588-65.377-.588Z" transform="translate(-4145.403 -9846.152)" fill="#4dd0e1"/>
    <path id="Trazado_29449" data-name="Trazado 29449" d="M267.519,405.619H398.273v55.956s-23.391,18.27-65.377,0-65.377-.588-65.377-.588Z" transform="translate(-4145.403 -9661.652)" fill="#4dd0e1"/>
    <path id="Trazado_29452" data-name="Trazado 29452" d="M267.519,405.619H398.273v55.956s-23.391,18.27-65.377,0-65.377-.588-65.377-.588Z" transform="translate(-4291.519 -9369.652)" fill="#4dd0e1"/>
    <path id="Trazado_29453" data-name="Trazado 29453" d="M267.519,405.619H398.273v55.956s-23.391,18.27-65.377,0-65.377-.588-65.377-.588Z" transform="translate(-3995.776 -9369.652)" fill="#4dd0e1"/>
    <path id="Trazado_29970" data-name="Trazado 29970" d="M4.945,5.734,4.156,7.688H3.4V3.625H4.945Zm-2.414,0L1.742,7.688H.984L.992,5.813V3.625H2.531ZM13.266,9.727H8.594V13.8h5.469V15H7.055V3.625h6.922V4.836H8.594v3.68h4.672Zm7.32,3A1.026,1.026,0,0,0,20.2,11.9a3.732,3.732,0,0,0-1.465-.562,6.146,6.146,0,0,1-2.293-.9,1.814,1.814,0,0,1-.8-1.547,2.229,2.229,0,0,1,.879-1.766A3.433,3.433,0,0,1,18.8,6.391a3.4,3.4,0,0,1,2.328.781,2.239,2.239,0,0,1,.852,1.82l-.016.047H20.492a1.331,1.331,0,0,0-.48-.992A1.717,1.717,0,0,0,18.8,7.6a1.751,1.751,0,0,0-1.215.367,1.146,1.146,0,0,0-.4.875.927.927,0,0,0,.348.773,3.848,3.848,0,0,0,1.434.5,6.058,6.058,0,0,1,2.359.93,1.872,1.872,0,0,1,.8,1.57,2.226,2.226,0,0,1-.91,1.836,3.754,3.754,0,0,1-2.379.711,3.715,3.715,0,0,1-2.547-.82,2.341,2.341,0,0,1-.883-1.914l.016-.047h1.469a1.424,1.424,0,0,0,.609,1.2,2.358,2.358,0,0,0,1.336.379,2.1,2.1,0,0,0,1.285-.348A1.063,1.063,0,0,0,20.586,12.727ZM27.4,13.961a1.81,1.81,0,0,0,1.242-.473,1.494,1.494,0,0,0,.531-1.16h1.391l.023.047a2.428,2.428,0,0,1-.937,1.941,3.582,3.582,0,0,1-5-.363,4.674,4.674,0,0,1-.969-3.016v-.328a4.654,4.654,0,0,1,.973-3A3.317,3.317,0,0,1,27.4,6.391a3.189,3.189,0,0,1,2.316.875,2.775,2.775,0,0,1,.871,2.148l-.016.047h-1.4a1.865,1.865,0,0,0-.5-1.316A1.658,1.658,0,0,0,27.4,7.6a1.777,1.777,0,0,0-1.652.879,4.114,4.114,0,0,0-.52,2.129v.328a4.192,4.192,0,0,0,.512,2.148A1.776,1.776,0,0,0,27.4,13.961Zm9.016-6.055-.789-.047a1.762,1.762,0,0,0-1.027.289,1.855,1.855,0,0,0-.645.813V15H32.414V6.547h1.375l.148,1.234a2.934,2.934,0,0,1,.887-1.023,2.073,2.073,0,0,1,1.215-.367,1.9,1.9,0,0,1,.328.027,2.174,2.174,0,0,1,.258.059ZM39.68,15H38.141V6.547H39.68Zm0-10.617H38.141V2.813H39.68Zm9.586,6.711a4.645,4.645,0,0,1-.879,2.949,2.9,2.9,0,0,1-2.418,1.121,3.064,3.064,0,0,1-1.465-.332,2.719,2.719,0,0,1-1.027-.98L43.227,15h-1.18V2.813h1.539V7.547a2.671,2.671,0,0,1,.988-.859,3.03,3.03,0,0,1,1.379-.3,2.809,2.809,0,0,1,2.438,1.25,5.622,5.622,0,0,1,.875,3.289Zm-1.539-.164a4.666,4.666,0,0,0-.535-2.371,1.762,1.762,0,0,0-1.629-.918,2.014,2.014,0,0,0-1.2.348,2.452,2.452,0,0,0-.777.934v3.664a2.517,2.517,0,0,0,.777.977,2,2,0,0,0,1.215.352,1.829,1.829,0,0,0,1.617-.773,3.552,3.552,0,0,0,.531-2.047ZM56.336,15q-.078-.383-.121-.676a4.96,4.96,0,0,1-.051-.59,3.589,3.589,0,0,1-1.121,1.02,2.867,2.867,0,0,1-1.488.41,2.763,2.763,0,0,1-2.012-.676,2.486,2.486,0,0,1-.691-1.863,2.183,2.183,0,0,1,.98-1.895,4.579,4.579,0,0,1,2.66-.684h1.672V9.211a1.551,1.551,0,0,0-.453-1.176A1.779,1.779,0,0,0,54.43,7.6a1.859,1.859,0,0,0-1.211.375,1.125,1.125,0,0,0-.461.9L51.3,8.891l-.016-.047a2.023,2.023,0,0,1,.863-1.687,3.578,3.578,0,0,1,2.371-.766,3.49,3.49,0,0,1,2.313.73A2.588,2.588,0,0,1,57.7,9.227V13.3a7.923,7.923,0,0,0,.047.875,4.5,4.5,0,0,0,.172.828Zm-2.555-1.125a2.739,2.739,0,0,0,1.508-.43,2.042,2.042,0,0,0,.875-.984V11.086H54.438a2.24,2.24,0,0,0-1.488.469,1.4,1.4,0,0,0-.559,1.1,1.159,1.159,0,0,0,.352.891A1.472,1.472,0,0,0,53.781,13.875Zm15.5-.125A2.863,2.863,0,0,1,68.258,14.8a2.8,2.8,0,0,1-1.445.367,2.716,2.716,0,0,1-2.156-.883,4.1,4.1,0,0,1-.773-2.75V6.547h1.539v5a3.147,3.147,0,0,0,.4,1.859,1.481,1.481,0,0,0,1.242.508,2.531,2.531,0,0,0,1.355-.332,2.077,2.077,0,0,0,.809-.941V6.547h1.539V15H69.383Zm5.1-7.2L74.492,7.8a3.069,3.069,0,0,1,1.059-1.043A2.824,2.824,0,0,1,77,6.391a2.759,2.759,0,0,1,2.117.8,3.515,3.515,0,0,1,.75,2.473V15H78.328V9.7a2.287,2.287,0,0,0-.441-1.586,1.768,1.768,0,0,0-1.348-.469,2.386,2.386,0,0,0-1.207.285,2.072,2.072,0,0,0-.785.8V15H73.008V6.547Zm-71.891,17L2.6,24.8A3.069,3.069,0,0,1,3.66,23.762a2.824,2.824,0,0,1,1.449-.371,2.759,2.759,0,0,1,2.117.8,3.515,3.515,0,0,1,.75,2.473V32H6.438V26.7A2.287,2.287,0,0,0,6,25.109a1.768,1.768,0,0,0-1.348-.469,2.386,2.386,0,0,0-1.207.285,2.072,2.072,0,0,0-.785.8V32H1.117V23.547Zm13.086,7.2A2.863,2.863,0,0,1,14.555,31.8a2.8,2.8,0,0,1-1.445.367,2.716,2.716,0,0,1-2.156-.883,4.1,4.1,0,0,1-.773-2.75V23.547h1.539v5a3.147,3.147,0,0,0,.4,1.859,1.481,1.481,0,0,0,1.242.508,2.531,2.531,0,0,0,1.355-.332,2.077,2.077,0,0,0,.809-.941V23.547h1.539V32H15.68ZM14.367,20.125h1.8l.016.047-2.1,2.031H12.922Zm6.313,3.422.109,1.109a2.871,2.871,0,0,1,1.051-.934,3.158,3.158,0,0,1,1.48-.332,2.615,2.615,0,0,1,1.449.391,2.363,2.363,0,0,1,.91,1.172,3.162,3.162,0,0,1,1.059-1.145,2.769,2.769,0,0,1,1.527-.418,2.531,2.531,0,0,1,2.039.887,4.051,4.051,0,0,1,.75,2.668V32H29.516V26.93a2.81,2.81,0,0,0-.43-1.77,1.567,1.567,0,0,0-1.281-.52,1.631,1.631,0,0,0-1.277.547,2.381,2.381,0,0,0-.574,1.383V32H24.406V26.93a2.772,2.772,0,0,0-.441-1.738,1.532,1.532,0,0,0-1.27-.551,2.115,2.115,0,0,0-1.156.289,1.867,1.867,0,0,0-.7.813V32H19.3V23.547Zm16.109,8.617A3.576,3.576,0,0,1,33.949,31a4.48,4.48,0,0,1-1.02-3.062v-.344a4.386,4.386,0,0,1,1.051-3.012,3.3,3.3,0,0,1,2.566-1.191,3.067,3.067,0,0,1,2.543,1.055,4.345,4.345,0,0,1,.848,2.8v.813H34.531l-.023.039a3.494,3.494,0,0,0,.563,2.066,1.965,1.965,0,0,0,1.719.793,3.872,3.872,0,0,0,1.371-.223,3.061,3.061,0,0,0,1.012-.613l.6,1a3.7,3.7,0,0,1-1.2.738A4.762,4.762,0,0,1,36.789,32.164ZM36.547,24.6a1.673,1.673,0,0,0-1.332.621,2.938,2.938,0,0,0-.645,1.59l.016.039H38.4v-.125a2.462,2.462,0,0,0-.453-1.523A1.638,1.638,0,0,0,36.547,24.6Zm9.117.3-.789-.047a1.762,1.762,0,0,0-1.027.289,1.855,1.855,0,0,0-.645.813V32H41.664V23.547h1.375l.148,1.234a2.934,2.934,0,0,1,.887-1.023,2.073,2.073,0,0,1,1.215-.367,1.9,1.9,0,0,1,.328.027,2.174,2.174,0,0,1,.258.059ZM46.75,27.7a4.654,4.654,0,0,1,1.016-3.09,3.764,3.764,0,0,1,5.535,0A4.639,4.639,0,0,1,54.32,27.7v.172A4.631,4.631,0,0,1,53.3,30.961a3.781,3.781,0,0,1-5.535,0,4.623,4.623,0,0,1-1.02-3.09Zm1.539.172a4.009,4.009,0,0,0,.566,2.219,2.046,2.046,0,0,0,3.355,0,3.988,3.988,0,0,0,.57-2.219V27.7a3.976,3.976,0,0,0-.574-2.211,1.882,1.882,0,0,0-1.684-.883,1.856,1.856,0,0,0-1.668.883,4.018,4.018,0,0,0-.566,2.211Zm11.586-5.133-.789,1.953h-.758V20.625h1.547Zm-2.414,0-.789,1.953h-.758l.008-1.875V20.625h1.539Z" transform="translate(-3867.884 -9434.99)" fill="#00104e"/>
    <path id="Trazado_29972" data-name="Trazado 29972" d="M4.945,5.734,4.156,7.688H3.4V3.625H4.945Zm-2.414,0L1.742,7.688H.984L.992,5.813V3.625H2.531ZM13.266,9.727H8.594V13.8h5.469V15H7.055V3.625h6.922V4.836H8.594v3.68h4.672Zm7.32,3A1.026,1.026,0,0,0,20.2,11.9a3.732,3.732,0,0,0-1.465-.562,6.146,6.146,0,0,1-2.293-.9,1.814,1.814,0,0,1-.8-1.547,2.229,2.229,0,0,1,.879-1.766A3.433,3.433,0,0,1,18.8,6.391a3.4,3.4,0,0,1,2.328.781,2.239,2.239,0,0,1,.852,1.82l-.016.047H20.492a1.331,1.331,0,0,0-.48-.992A1.717,1.717,0,0,0,18.8,7.6a1.751,1.751,0,0,0-1.215.367,1.146,1.146,0,0,0-.4.875.927.927,0,0,0,.348.773,3.848,3.848,0,0,0,1.434.5,6.058,6.058,0,0,1,2.359.93,1.872,1.872,0,0,1,.8,1.57,2.226,2.226,0,0,1-.91,1.836,3.754,3.754,0,0,1-2.379.711,3.715,3.715,0,0,1-2.547-.82,2.341,2.341,0,0,1-.883-1.914l.016-.047h1.469a1.424,1.424,0,0,0,.609,1.2,2.358,2.358,0,0,0,1.336.379,2.1,2.1,0,0,0,1.285-.348A1.063,1.063,0,0,0,20.586,12.727ZM27.4,13.961a1.81,1.81,0,0,0,1.242-.473,1.494,1.494,0,0,0,.531-1.16h1.391l.023.047a2.428,2.428,0,0,1-.937,1.941,3.582,3.582,0,0,1-5-.363,4.674,4.674,0,0,1-.969-3.016v-.328a4.654,4.654,0,0,1,.973-3A3.317,3.317,0,0,1,27.4,6.391a3.189,3.189,0,0,1,2.316.875,2.775,2.775,0,0,1,.871,2.148l-.016.047h-1.4a1.865,1.865,0,0,0-.5-1.316A1.658,1.658,0,0,0,27.4,7.6a1.777,1.777,0,0,0-1.652.879,4.114,4.114,0,0,0-.52,2.129v.328a4.192,4.192,0,0,0,.512,2.148A1.776,1.776,0,0,0,27.4,13.961Zm9.016-6.055-.789-.047a1.762,1.762,0,0,0-1.027.289,1.855,1.855,0,0,0-.645.813V15H32.414V6.547h1.375l.148,1.234a2.934,2.934,0,0,1,.887-1.023,2.073,2.073,0,0,1,1.215-.367,1.9,1.9,0,0,1,.328.027,2.174,2.174,0,0,1,.258.059ZM39.68,15H38.141V6.547H39.68Zm0-10.617H38.141V2.813H39.68Zm9.586,6.711a4.645,4.645,0,0,1-.879,2.949,2.9,2.9,0,0,1-2.418,1.121,3.064,3.064,0,0,1-1.465-.332,2.719,2.719,0,0,1-1.027-.98L43.227,15h-1.18V2.813h1.539V7.547a2.671,2.671,0,0,1,.988-.859,3.03,3.03,0,0,1,1.379-.3,2.809,2.809,0,0,1,2.438,1.25,5.622,5.622,0,0,1,.875,3.289Zm-1.539-.164a4.666,4.666,0,0,0-.535-2.371,1.762,1.762,0,0,0-1.629-.918,2.014,2.014,0,0,0-1.2.348,2.452,2.452,0,0,0-.777.934v3.664a2.517,2.517,0,0,0,.777.977,2,2,0,0,0,1.215.352,1.829,1.829,0,0,0,1.617-.773,3.552,3.552,0,0,0,.531-2.047ZM56.336,15q-.078-.383-.121-.676a4.96,4.96,0,0,1-.051-.59,3.589,3.589,0,0,1-1.121,1.02,2.867,2.867,0,0,1-1.488.41,2.763,2.763,0,0,1-2.012-.676,2.486,2.486,0,0,1-.691-1.863,2.183,2.183,0,0,1,.98-1.895,4.579,4.579,0,0,1,2.66-.684h1.672V9.211a1.551,1.551,0,0,0-.453-1.176A1.779,1.779,0,0,0,54.43,7.6a1.859,1.859,0,0,0-1.211.375,1.125,1.125,0,0,0-.461.9L51.3,8.891l-.016-.047a2.023,2.023,0,0,1,.863-1.687,3.578,3.578,0,0,1,2.371-.766,3.49,3.49,0,0,1,2.313.73A2.588,2.588,0,0,1,57.7,9.227V13.3a7.923,7.923,0,0,0,.047.875,4.5,4.5,0,0,0,.172.828Zm-2.555-1.125a2.739,2.739,0,0,0,1.508-.43,2.042,2.042,0,0,0,.875-.984V11.086H54.438a2.24,2.24,0,0,0-1.488.469,1.4,1.4,0,0,0-.559,1.1,1.159,1.159,0,0,0,.352.891A1.472,1.472,0,0,0,53.781,13.875Zm15.5-.125A2.863,2.863,0,0,1,68.258,14.8a2.8,2.8,0,0,1-1.445.367,2.716,2.716,0,0,1-2.156-.883,4.1,4.1,0,0,1-.773-2.75V6.547h1.539v5a3.147,3.147,0,0,0,.4,1.859,1.481,1.481,0,0,0,1.242.508,2.531,2.531,0,0,0,1.355-.332,2.077,2.077,0,0,0,.809-.941V6.547h1.539V15H69.383Zm5.1-7.2L74.492,7.8a3.069,3.069,0,0,1,1.059-1.043A2.824,2.824,0,0,1,77,6.391a2.759,2.759,0,0,1,2.117.8,3.515,3.515,0,0,1,.75,2.473V15H78.328V9.7a2.287,2.287,0,0,0-.441-1.586,1.768,1.768,0,0,0-1.348-.469,2.386,2.386,0,0,0-1.207.285,2.072,2.072,0,0,0-.785.8V15H73.008V6.547Zm-71.891,17L2.6,24.8A3.069,3.069,0,0,1,3.66,23.762a2.824,2.824,0,0,1,1.449-.371,2.759,2.759,0,0,1,2.117.8,3.515,3.515,0,0,1,.75,2.473V32H6.438V26.7A2.287,2.287,0,0,0,6,25.109a1.768,1.768,0,0,0-1.348-.469,2.386,2.386,0,0,0-1.207.285,2.072,2.072,0,0,0-.785.8V32H1.117V23.547Zm13.086,7.2A2.863,2.863,0,0,1,14.555,31.8a2.8,2.8,0,0,1-1.445.367,2.716,2.716,0,0,1-2.156-.883,4.1,4.1,0,0,1-.773-2.75V23.547h1.539v5a3.147,3.147,0,0,0,.4,1.859,1.481,1.481,0,0,0,1.242.508,2.531,2.531,0,0,0,1.355-.332,2.077,2.077,0,0,0,.809-.941V23.547h1.539V32H15.68ZM14.367,20.125h1.8l.016.047-2.1,2.031H12.922Zm6.313,3.422.109,1.109a2.871,2.871,0,0,1,1.051-.934,3.158,3.158,0,0,1,1.48-.332,2.615,2.615,0,0,1,1.449.391,2.363,2.363,0,0,1,.91,1.172,3.162,3.162,0,0,1,1.059-1.145,2.769,2.769,0,0,1,1.527-.418,2.531,2.531,0,0,1,2.039.887,4.051,4.051,0,0,1,.75,2.668V32H29.516V26.93a2.81,2.81,0,0,0-.43-1.77,1.567,1.567,0,0,0-1.281-.52,1.631,1.631,0,0,0-1.277.547,2.381,2.381,0,0,0-.574,1.383V32H24.406V26.93a2.772,2.772,0,0,0-.441-1.738,1.532,1.532,0,0,0-1.27-.551,2.115,2.115,0,0,0-1.156.289,1.867,1.867,0,0,0-.7.813V32H19.3V23.547Zm16.109,8.617A3.576,3.576,0,0,1,33.949,31a4.48,4.48,0,0,1-1.02-3.062v-.344a4.386,4.386,0,0,1,1.051-3.012,3.3,3.3,0,0,1,2.566-1.191,3.067,3.067,0,0,1,2.543,1.055,4.345,4.345,0,0,1,.848,2.8v.813H34.531l-.023.039a3.494,3.494,0,0,0,.563,2.066,1.965,1.965,0,0,0,1.719.793,3.872,3.872,0,0,0,1.371-.223,3.061,3.061,0,0,0,1.012-.613l.6,1a3.7,3.7,0,0,1-1.2.738A4.762,4.762,0,0,1,36.789,32.164ZM36.547,24.6a1.673,1.673,0,0,0-1.332.621,2.938,2.938,0,0,0-.645,1.59l.016.039H38.4v-.125a2.462,2.462,0,0,0-.453-1.523A1.638,1.638,0,0,0,36.547,24.6Zm9.117.3-.789-.047a1.762,1.762,0,0,0-1.027.289,1.855,1.855,0,0,0-.645.813V32H41.664V23.547h1.375l.148,1.234a2.934,2.934,0,0,1,.887-1.023,2.073,2.073,0,0,1,1.215-.367,1.9,1.9,0,0,1,.328.027,2.174,2.174,0,0,1,.258.059ZM46.75,27.7a4.654,4.654,0,0,1,1.016-3.09,3.764,3.764,0,0,1,5.535,0A4.639,4.639,0,0,1,54.32,27.7v.172A4.631,4.631,0,0,1,53.3,30.961a3.781,3.781,0,0,1-5.535,0,4.623,4.623,0,0,1-1.02-3.09Zm1.539.172a4.009,4.009,0,0,0,.566,2.219,2.046,2.046,0,0,0,3.355,0,3.988,3.988,0,0,0,.57-2.219V27.7a3.976,3.976,0,0,0-.574-2.211,1.882,1.882,0,0,0-1.684-.883,1.856,1.856,0,0,0-1.668.883,4.018,4.018,0,0,0-.566,2.211Zm11.586-5.133-.789,1.953h-.758V20.625h1.547Zm-2.414,0-.789,1.953h-.758l.008-1.875V20.625h1.539Z" transform="translate(-3867.884 -9250.49)" fill="#00104e"/>
    <path id="Trazado_29979" data-name="Trazado 29979" d="M25.445,6.547,25.555,7.8a3.069,3.069,0,0,1,1.059-1.043,2.824,2.824,0,0,1,1.449-.371,2.759,2.759,0,0,1,2.117.8,3.515,3.515,0,0,1,.75,2.473V15H29.391V9.7a2.287,2.287,0,0,0-.441-1.586A1.768,1.768,0,0,0,27.6,7.641a2.386,2.386,0,0,0-1.207.285,2.072,2.072,0,0,0-.785.8V15H24.07V6.547Zm13.086,7.2A2.863,2.863,0,0,1,37.508,14.8a2.8,2.8,0,0,1-1.445.367,2.716,2.716,0,0,1-2.156-.883,4.1,4.1,0,0,1-.773-2.75V6.547h1.539v5a3.147,3.147,0,0,0,.4,1.859,1.481,1.481,0,0,0,1.242.508,2.531,2.531,0,0,0,1.355-.332,2.077,2.077,0,0,0,.809-.941V6.547h1.539V15H38.633Zm5.1-7.2.109,1.109a2.871,2.871,0,0,1,1.051-.934,3.158,3.158,0,0,1,1.48-.332,2.615,2.615,0,0,1,1.449.391,2.363,2.363,0,0,1,.91,1.172,3.162,3.162,0,0,1,1.059-1.145,2.769,2.769,0,0,1,1.527-.418,2.531,2.531,0,0,1,2.039.887,4.051,4.051,0,0,1,.75,2.668V15H52.469V9.93a2.81,2.81,0,0,0-.43-1.77,1.567,1.567,0,0,0-1.281-.52,1.631,1.631,0,0,0-1.277.547,2.381,2.381,0,0,0-.574,1.383V15H47.359V9.93a2.772,2.772,0,0,0-.441-1.738,1.532,1.532,0,0,0-1.27-.551,2.115,2.115,0,0,0-1.156.289,1.867,1.867,0,0,0-.7.813V15H42.258V6.547Zm16.109,8.617A3.576,3.576,0,0,1,56.9,14a4.48,4.48,0,0,1-1.02-3.062v-.344a4.386,4.386,0,0,1,1.051-3.012A3.3,3.3,0,0,1,59.5,6.391a3.067,3.067,0,0,1,2.543,1.055,4.345,4.345,0,0,1,.848,2.8v.813H57.484l-.023.039a3.494,3.494,0,0,0,.563,2.066,1.965,1.965,0,0,0,1.719.793,3.872,3.872,0,0,0,1.371-.223,3.061,3.061,0,0,0,1.012-.613l.6,1a3.7,3.7,0,0,1-1.2.738A4.762,4.762,0,0,1,59.742,15.164ZM59.5,7.6a1.673,1.673,0,0,0-1.332.621,2.938,2.938,0,0,0-.645,1.59l.016.039h3.813V9.727A2.462,2.462,0,0,0,60.9,8.2,1.638,1.638,0,0,0,59.5,7.6Zm9.117.3-.789-.047a1.762,1.762,0,0,0-1.027.289,1.854,1.854,0,0,0-.645.813V15H64.617V6.547h1.375l.148,1.234a2.934,2.934,0,0,1,.887-1.023,2.073,2.073,0,0,1,1.215-.367,1.9,1.9,0,0,1,.328.027,2.175,2.175,0,0,1,.258.059ZM69.7,10.7a4.654,4.654,0,0,1,1.016-3.09,3.764,3.764,0,0,1,5.535,0,4.639,4.639,0,0,1,1.02,3.094v.172a4.631,4.631,0,0,1-1.016,3.094,3.781,3.781,0,0,1-5.535,0,4.623,4.623,0,0,1-1.02-3.09Zm1.539.172a4.009,4.009,0,0,0,.566,2.219,2.046,2.046,0,0,0,3.355,0,3.988,3.988,0,0,0,.57-2.219V10.7a3.976,3.976,0,0,0-.574-2.211A1.882,1.882,0,0,0,73.477,7.6a1.856,1.856,0,0,0-1.668.883,4.018,4.018,0,0,0-.566,2.211ZM83.586,15H82.039V5.047l-2.477.023V3.883l4.023-.422Z" transform="translate(-4014 -8952.49)" fill="#00104e"/>
    <path id="Trazado_29980" data-name="Trazado 29980" d="M25.445,6.547,25.555,7.8a3.069,3.069,0,0,1,1.059-1.043,2.824,2.824,0,0,1,1.449-.371,2.759,2.759,0,0,1,2.117.8,3.515,3.515,0,0,1,.75,2.473V15H29.391V9.7a2.287,2.287,0,0,0-.441-1.586A1.768,1.768,0,0,0,27.6,7.641a2.386,2.386,0,0,0-1.207.285,2.072,2.072,0,0,0-.785.8V15H24.07V6.547Zm13.086,7.2A2.863,2.863,0,0,1,37.508,14.8a2.8,2.8,0,0,1-1.445.367,2.716,2.716,0,0,1-2.156-.883,4.1,4.1,0,0,1-.773-2.75V6.547h1.539v5a3.147,3.147,0,0,0,.4,1.859,1.481,1.481,0,0,0,1.242.508,2.531,2.531,0,0,0,1.355-.332,2.077,2.077,0,0,0,.809-.941V6.547h1.539V15H38.633Zm5.1-7.2.109,1.109a2.871,2.871,0,0,1,1.051-.934,3.158,3.158,0,0,1,1.48-.332,2.615,2.615,0,0,1,1.449.391,2.363,2.363,0,0,1,.91,1.172,3.162,3.162,0,0,1,1.059-1.145,2.769,2.769,0,0,1,1.527-.418,2.531,2.531,0,0,1,2.039.887,4.051,4.051,0,0,1,.75,2.668V15H52.469V9.93a2.81,2.81,0,0,0-.43-1.77,1.567,1.567,0,0,0-1.281-.52,1.631,1.631,0,0,0-1.277.547,2.381,2.381,0,0,0-.574,1.383V15H47.359V9.93a2.772,2.772,0,0,0-.441-1.738,1.532,1.532,0,0,0-1.27-.551,2.115,2.115,0,0,0-1.156.289,1.867,1.867,0,0,0-.7.813V15H42.258V6.547Zm16.109,8.617A3.576,3.576,0,0,1,56.9,14a4.48,4.48,0,0,1-1.02-3.062v-.344a4.386,4.386,0,0,1,1.051-3.012A3.3,3.3,0,0,1,59.5,6.391a3.067,3.067,0,0,1,2.543,1.055,4.345,4.345,0,0,1,.848,2.8v.813H57.484l-.023.039a3.494,3.494,0,0,0,.563,2.066,1.965,1.965,0,0,0,1.719.793,3.872,3.872,0,0,0,1.371-.223,3.061,3.061,0,0,0,1.012-.613l.6,1a3.7,3.7,0,0,1-1.2.738A4.762,4.762,0,0,1,59.742,15.164ZM59.5,7.6a1.673,1.673,0,0,0-1.332.621,2.938,2.938,0,0,0-.645,1.59l.016.039h3.813V9.727A2.462,2.462,0,0,0,60.9,8.2,1.638,1.638,0,0,0,59.5,7.6Zm9.117.3-.789-.047a1.762,1.762,0,0,0-1.027.289,1.854,1.854,0,0,0-.645.813V15H64.617V6.547h1.375l.148,1.234a2.934,2.934,0,0,1,.887-1.023,2.073,2.073,0,0,1,1.215-.367,1.9,1.9,0,0,1,.328.027,2.175,2.175,0,0,1,.258.059ZM69.7,10.7a4.654,4.654,0,0,1,1.016-3.09,3.764,3.764,0,0,1,5.535,0,4.639,4.639,0,0,1,1.02,3.094v.172a4.631,4.631,0,0,1-1.016,3.094,3.781,3.781,0,0,1-5.535,0,4.623,4.623,0,0,1-1.02-3.09Zm1.539.172a4.009,4.009,0,0,0,.566,2.219,2.046,2.046,0,0,0,3.355,0,3.988,3.988,0,0,0,.57-2.219V10.7a3.976,3.976,0,0,0-.574-2.211A1.882,1.882,0,0,0,73.477,7.6a1.856,1.856,0,0,0-1.668.883,4.018,4.018,0,0,0-.566,2.211ZM86.273,15H79.211V13.945l3.57-4.258a10.726,10.726,0,0,0,1.293-1.84,3.07,3.07,0,0,0,.34-1.379,1.841,1.841,0,0,0-.461-1.293,1.639,1.639,0,0,0-1.273-.5,1.908,1.908,0,0,0-1.535.617,2.286,2.286,0,0,0-.527,1.539H79.133l-.016-.047a3.068,3.068,0,0,1,.93-2.355,3.566,3.566,0,0,1,2.633-.965,3.31,3.31,0,0,1,2.4.844,2.894,2.894,0,0,1,.875,2.18,3.476,3.476,0,0,1-.5,1.758A19.611,19.611,0,0,1,83.945,10.4l-2.867,3.359.016.039h5.18Z" transform="translate(-3718.257 -8952.49)" fill="#00104e"/>
    <path id="Trazado_29984" data-name="Trazado 29984" d="M15,0H52a15,15,0,0,1,0,30H15A15,15,0,0,1,15,0Z" transform="translate(-3845.884 -8824.133)" fill="#4dd0e1"/>
    <path id="Trazado_29985" data-name="Trazado 29985" d="M7.664-5.031h-4.8V0H1.328V-11.375H8.461v1.211H2.867v3.922h4.8ZM11.609,0H10.07V-8.453h1.539Zm0-10.617H10.07v-1.57h1.539Zm3.742,2.164L15.461-7.2A3.069,3.069,0,0,1,16.52-8.238a2.824,2.824,0,0,1,1.449-.371,2.759,2.759,0,0,1,2.117.8,3.515,3.515,0,0,1,.75,2.473V0H19.3V-5.3a2.287,2.287,0,0,0-.441-1.586,1.768,1.768,0,0,0-1.348-.469,2.386,2.386,0,0,0-1.207.285,2.072,2.072,0,0,0-.785.8V0H13.977V-8.453ZM28.266,0q-.078-.383-.121-.676a4.96,4.96,0,0,1-.051-.59,3.589,3.589,0,0,1-1.121,1.02,2.867,2.867,0,0,1-1.488.41,2.763,2.763,0,0,1-2.012-.676,2.486,2.486,0,0,1-.691-1.863,2.183,2.183,0,0,1,.98-1.895,4.579,4.579,0,0,1,2.66-.684h1.672v-.836a1.551,1.551,0,0,0-.453-1.176A1.779,1.779,0,0,0,26.359-7.4a1.859,1.859,0,0,0-1.211.375,1.125,1.125,0,0,0-.461.9l-1.461.016-.016-.047a2.023,2.023,0,0,1,.863-1.687,3.578,3.578,0,0,1,2.371-.766,3.49,3.49,0,0,1,2.313.73,2.588,2.588,0,0,1,.875,2.105V-1.7a7.923,7.923,0,0,0,.047.875A4.5,4.5,0,0,0,29.852,0ZM25.711-1.125a2.739,2.739,0,0,0,1.508-.43,2.042,2.042,0,0,0,.875-.984V-3.914H26.367a2.24,2.24,0,0,0-1.488.469,1.4,1.4,0,0,0-.559,1.1,1.159,1.159,0,0,0,.352.891A1.472,1.472,0,0,0,25.711-1.125ZM33.531,0H31.992V-12.187h1.539Z" transform="translate(-3829.884 -8804.133)" fill="#00104e"/>
    <path id="Icon_awesome-long-arrow-alt-down-8" data-name="Icon awesome-long-arrow-alt-down" d="M11.812,14.324V-6.906a.844.844,0,0,0-.844-.844H7.031a.844.844,0,0,0-.844.844v21.23H2.949A1.688,1.688,0,0,0,1.756,17.2l6.051,6.051a1.687,1.687,0,0,0,2.386,0L16.244,17.2a1.688,1.688,0,0,0-1.193-2.881Z" transform="translate(-3821.142 -8848.539)" fill="#26a69a"/>
    <path id="Trazado_29974" data-name="Trazado 29974" d="M9.93,0H8.391L2.914-8.687l-.047.016V0H1.328V-11.375H2.867L8.344-2.7l.047-.016v-8.664H9.93ZM21.281-4.672a4.853,4.853,0,0,1-1.293,3.461A4.4,4.4,0,0,1,16.633.164a4.167,4.167,0,0,1-3.238-1.375,4.959,4.959,0,0,1-1.246-3.461V-6.7a4.977,4.977,0,0,1,1.246-3.461,4.156,4.156,0,0,1,3.238-1.383,4.39,4.39,0,0,1,3.355,1.379A4.867,4.867,0,0,1,21.281-6.7ZM19.742-6.711A3.837,3.837,0,0,0,18.9-9.273a2.813,2.813,0,0,0-2.266-1,2.606,2.606,0,0,0-2.145,1,3.972,3.972,0,0,0-.8,2.563v2.039a4,4,0,0,0,.8,2.578,2.606,2.606,0,0,0,2.145,1,2.815,2.815,0,0,0,2.27-1,3.869,3.869,0,0,0,.84-2.582Z" transform="translate(-3697.639 -9027.032)" fill="#00104e"/>
    <path id="Trazado_29975" data-name="Trazado 29975" d="M7.391-2.867a1.711,1.711,0,0,0-.555-1.3,4.62,4.62,0,0,0-1.953-.891A6.5,6.5,0,0,1,2.176-6.32a2.655,2.655,0,0,1-.973-2.1A2.8,2.8,0,0,1,2.25-10.648a4.05,4.05,0,0,1,2.719-.891,3.971,3.971,0,0,1,2.863,1.02A3.088,3.088,0,0,1,8.867-8.141l-.023.047H7.375A2.1,2.1,0,0,0,6.7-9.7a2.431,2.431,0,0,0-1.73-.633A2.37,2.37,0,0,0,3.316-9.8a1.754,1.754,0,0,0-.574,1.359,1.518,1.518,0,0,0,.629,1.238,5.8,5.8,0,0,0,2.043.871A5.8,5.8,0,0,1,8.031-5.023a2.857,2.857,0,0,1,.9,2.141A2.657,2.657,0,0,1,7.848-.672,4.491,4.491,0,0,1,5.023.164a4.8,4.8,0,0,1-2.91-.922A2.81,2.81,0,0,1,.891-3.227l.016-.047H2.375a1.912,1.912,0,0,0,.813,1.652,3.076,3.076,0,0,0,1.836.582,2.761,2.761,0,0,0,1.73-.492A1.6,1.6,0,0,0,7.391-2.867ZM12.813,0H11.266V-11.375h1.547Z" transform="translate(-3945.147 -9027.032)" fill="#00104e"/>
    <path id="Trazado_29983" data-name="Trazado 29983" d="M2,0H303.227a2,2,0,0,1,2,2V4a2,2,0,0,1-2,2H2A2,2,0,0,1,0,4V2A2,2,0,0,1,2,0Z" transform="translate(-3964.884 -8862.289)" fill="#26a69a"/>
    <path id="Trazado_29981" data-name="Trazado 29981" d="M2,0H47.656a2,2,0,0,1,2,2V4a2,2,0,0,1-2,2H2A2,2,0,0,1,0,4V2A2,2,0,0,1,2,0Z" transform="translate(-3960.365 -8905.945) rotate(90)" fill="#26a69a"/>
    <path id="Trazado_29982" data-name="Trazado 29982" d="M2,0H49.456a2,2,0,0,1,2,2V4a2,2,0,0,1-2,2H2A2,2,0,0,1,0,4V2A2,2,0,0,1,2,0Z" transform="translate(-3659.88 -8907.744) rotate(90)" fill="#26a69a"/>
  </g>
</svg>
