<svg id="Grupo_30443" data-name="Grupo 30443" xmlns="http://www.w3.org/2000/svg" width="56" height="56" viewBox="0 0 56 56">
  <g id="Grupo_30442" data-name="Grupo 30442">
    <path id="Trazado_29294" data-name="Trazado 29294" d="M55.568,49.767l-.8-.8a.82.82,0,1,0-1.16,1.16l.683.683-3.48,3.48-5.917-5.916,3.48-3.48,2.76,2.76a.82.82,0,0,0,1.16-1.16l-3.339-3.339v0l-2.32-2.32,0,0-2.048-2.048a1.476,1.476,0,0,0-2.088,0l-.116.116-2.935-2.936a22.076,22.076,0,0,0,4.349-9.122h5.78a.82.82,0,0,0,0-1.641H44.085q.108-.783.161-1.582h9.238a.82.82,0,0,0,0-1.641H44.3q-.006-.8-.066-1.582h5.345a.82.82,0,0,0,0-1.641H44.042A21.881,21.881,0,0,0,39.524,8.412.82.82,0,1,0,38.237,9.43a20.294,20.294,0,0,1,4.419,12.718,20.507,20.507,0,1,1-6.719-15.18.82.82,0,1,0,1.1-1.214A22.149,22.149,0,1,0,17.964,43.9v5.534a.82.82,0,0,0,1.641,0V44.15q.783.09,1.582.125v9.016a.82.82,0,0,0,1.641,0V44.285q.8-.024,1.582-.1v5.251a.82.82,0,0,0,1.641,0v-5.48a22.061,22.061,0,0,0,9.915-4.507L38.9,42.381l-.116.116a1.476,1.476,0,0,0,0,2.088l2.048,2.048h0l2.32,2.32h0l6.611,6.611a1.477,1.477,0,0,0,2.088,0l3.712-3.712a1.477,1.477,0,0,0,0-2.088ZM38.371,37.21l2.85,2.85-1.16,1.16-2.85-2.85q.6-.559,1.161-1.161Zm5.364,10-1.16-1.16,3.48-3.48,1.16,1.16Zm-.193-7.154,1.353,1.353-3.48,3.48-1.353-1.353Z" fill="#ffa726"/>
    <path id="Trazado_29295" data-name="Trazado 29295" d="M37.435,63.883a19.242,19.242,0,0,0,11.424,3.851,18.867,18.867,0,1,0,0-37.734,18.644,18.644,0,0,0-13.3,5.533,19.061,19.061,0,0,0-5.571,13.325,18.44,18.44,0,0,0,4.747,12.557.82.82,0,1,0,1.22-1.1,16.8,16.8,0,0,1-4.326-11.442,17.429,17.429,0,0,1,5.092-12.185,17.014,17.014,0,0,1,12.134-5.051,17.227,17.227,0,0,1,.01,34.453,17.607,17.607,0,0,1-10.448-3.522.82.82,0,0,0-.986,1.311Z" transform="translate(-26.71 -26.719)" fill="#ffa726"/>
    <path id="Trazado_29296" data-name="Trazado 29296" d="M105.388,68.5H99.7a1.259,1.259,0,0,0-1.258,1.258v2.9h-5.3a1.259,1.259,0,0,0-1.258,1.258v8.8h-1.1a.82.82,0,0,0,0,1.641h23.524a.82.82,0,0,0,0-1.641h-1.1V78.07a1.259,1.259,0,0,0-1.258-1.258h-5.3V69.758A1.259,1.259,0,0,0,105.388,68.5ZM93.521,74.3h4.922v8.422H93.521Zm6.563-4.156h4.922V82.719h-4.922Zm11.484,8.313v4.266h-4.922V78.453Z" transform="translate(-80.122 -61.008)" fill="#ffa726"/>
    <path id="Trazado_29297" data-name="Trazado 29297" d="M134.338,236.288h-3.862l-1.754-4.485a.82.82,0,0,0-1.533.014l-2.4,6.465-1.676-4.749a.82.82,0,0,0-1.49-.127l-1.609,2.882h-3.852a.82.82,0,0,0,0,1.641H120.5a.821.821,0,0,0,.716-.42l.958-1.717L124,240.966a.82.82,0,0,0,.767.547h.007a.82.82,0,0,0,.769-.535l2.437-6.572,1.174,3a.82.82,0,0,0,.764.521h4.422a.82.82,0,0,0,0-1.641Z" transform="translate(-102.728 -205.986)" fill="#ffa726"/>
  </g>
</svg>
