<svg id="Grupo_30445" data-name="Grupo 30445" xmlns="http://www.w3.org/2000/svg" width="56" height="50.859" viewBox="0 0 56 50.859">
  <g id="Grupo_30440" data-name="Grupo 30440">
    <path id="Trazado_29291" data-name="Trazado 29291" d="M54.742,67.251H52.005a2.987,2.987,0,0,0,.331-1.368V43.625a.82.82,0,1,0-1.641,0V65.883a1.369,1.369,0,0,1-1.367,1.367H6.673a1.369,1.369,0,0,1-1.367-1.367V37.447A1.369,1.369,0,0,1,6.672,36.08H28.438a1.878,1.878,0,0,0-.1,1.641H7.766a.82.82,0,0,0-.82.82V55.865a.82.82,0,0,0,1.641,0v-16.5H22.058c-.112.447-.237.994-.3,1.415a.236.236,0,0,1-.117.169l-1.372.79a.238.238,0,0,1-.207.017c-.466-.188-1.132-.385-1.608-.517a1.884,1.884,0,0,0-2.133.871l-.741,1.281a1.88,1.88,0,0,0,.313,2.286c.352.345.855.821,1.251,1.129a.234.234,0,0,1,.088.185v1.578a.235.235,0,0,1-.088.185A16.807,16.807,0,0,0,15.9,49.879a1.88,1.88,0,0,0-.313,2.286l.741,1.281a1.883,1.883,0,0,0,2.134.87c.477-.132,1.142-.329,1.609-.517a.238.238,0,0,1,.206.017l1.372.79a.237.237,0,0,1,.117.169,16.769,16.769,0,0,0,.354,1.644,1.883,1.883,0,0,0,1.823,1.413h1.485a1.883,1.883,0,0,0,1.823-1.413,16.753,16.753,0,0,0,.354-1.644.237.237,0,0,1,.117-.169l1.372-.79A.238.238,0,0,1,29.3,53.8c.466.188,1.132.385,1.608.517a1.884,1.884,0,0,0,2.133-.871l.741-1.281a1.88,1.88,0,0,0-.313-2.286,16.8,16.8,0,0,0-1.251-1.129.235.235,0,0,1-.088-.185V46.987a.235.235,0,0,1,.088-.185,16.808,16.808,0,0,0,1.251-1.129,1.88,1.88,0,0,0,.313-2.286l-.741-1.281a1.883,1.883,0,0,0-2.134-.87c-.477.132-1.142.329-1.609.517a.239.239,0,0,1-.206-.017l-1.372-.79a.236.236,0,0,1-.117-.169c-.059-.422-.185-.969-.3-1.416h1.968a1.883,1.883,0,0,0,2.049.738c.477-.132,1.143-.329,1.609-.517a.239.239,0,0,1,.206.017l1.372.79a.237.237,0,0,1,.117.169,16.8,16.8,0,0,0,.354,1.644A1.883,1.883,0,0,0,36.8,43.614h1.485A1.883,1.883,0,0,0,40.11,42.2a16.721,16.721,0,0,0,.354-1.644.237.237,0,0,1,.117-.169l1.372-.79a.238.238,0,0,1,.207-.017c.466.188,1.132.385,1.608.517a1.884,1.884,0,0,0,2.049-.738h1.6V63.969H8.587V59.406a.82.82,0,0,0-1.641,0V64.79a.82.82,0,0,0,.82.82H48.234a.82.82,0,0,0,.82-.82V38.54a.82.82,0,0,0-.82-.82h-1.48a1.878,1.878,0,0,0-.1-1.641h2.676a1.369,1.369,0,0,1,1.367,1.367v2.7a.82.82,0,1,0,1.641,0v-2.7a3.011,3.011,0,0,0-3.008-3.008H45.011a.242.242,0,0,1-.019-.092V32.768a.234.234,0,0,1,.088-.185c.4-.309.9-.784,1.251-1.129a1.88,1.88,0,0,0,.313-2.286L45.9,27.887a1.883,1.883,0,0,0-2.134-.87c-.477.132-1.143.329-1.609.517a.239.239,0,0,1-.206-.017l-1.372-.79a.236.236,0,0,1-.117-.169,16.791,16.791,0,0,0-.354-1.644A1.883,1.883,0,0,0,38.287,23.5H36.8a1.883,1.883,0,0,0-1.823,1.413,16.748,16.748,0,0,0-.354,1.644.236.236,0,0,1-.117.169l-1.372.79a.238.238,0,0,1-.206.017c-.465-.187-1.131-.385-1.609-.517a1.884,1.884,0,0,0-2.133.871l-.741,1.281a1.88,1.88,0,0,0,.313,2.286c.352.345.855.82,1.251,1.129a.234.234,0,0,1,.088.185v1.578a.242.242,0,0,1-.019.092H6.672a3.011,3.011,0,0,0-3.008,3.008V65.884A2.988,2.988,0,0,0,4,67.251H1.258A1.259,1.259,0,0,0,0,68.509V70.7A3.668,3.668,0,0,0,3.664,74.36H41.985a.82.82,0,0,0,0-1.641H3.664A2.026,2.026,0,0,1,1.641,70.7v-1.8H22.148v.492a2.135,2.135,0,0,0,2.133,2.133h7.438a2.135,2.135,0,0,0,2.133-2.133v-.492H54.359v1.8a2.026,2.026,0,0,1-2.023,2.023h-6.81a.82.82,0,0,0,0,1.641h6.81A3.668,3.668,0,0,0,56,70.7V68.509a1.259,1.259,0,0,0-1.258-1.258ZM25.658,39.543a14.837,14.837,0,0,1,.318,1.462,1.863,1.863,0,0,0,.923,1.362l1.372.79a1.866,1.866,0,0,0,1.638.117,15.013,15.013,0,0,1,1.433-.458.242.242,0,0,1,.275.111l.741,1.281a.24.24,0,0,1-.041.292,14.866,14.866,0,0,1-1.112,1.007,1.862,1.862,0,0,0-.72,1.479v1.578a1.862,1.862,0,0,0,.72,1.479,14.875,14.875,0,0,1,1.112,1.007.24.24,0,0,1,.041.292l-.741,1.281a.244.244,0,0,1-.275.111,14.991,14.991,0,0,1-1.433-.458,1.866,1.866,0,0,0-1.639.117l-1.372.79a1.864,1.864,0,0,0-.923,1.362h0a14.825,14.825,0,0,1-.318,1.462.243.243,0,0,1-.235.183H23.938a.243.243,0,0,1-.235-.183,14.838,14.838,0,0,1-.318-1.462,1.864,1.864,0,0,0-.923-1.362l-1.372-.79a1.865,1.865,0,0,0-1.639-.117,15.012,15.012,0,0,1-1.433.458.242.242,0,0,1-.275-.111L17,51.343a.24.24,0,0,1,.041-.292,14.9,14.9,0,0,1,1.112-1.007,1.862,1.862,0,0,0,.72-1.479V46.987a1.861,1.861,0,0,0-.72-1.479A14.878,14.878,0,0,1,17.043,44.5.24.24,0,0,1,17,44.209l.741-1.281a.243.243,0,0,1,.275-.111,14.992,14.992,0,0,1,1.433.458,1.866,1.866,0,0,0,1.639-.117l1.372-.79a1.864,1.864,0,0,0,.923-1.362,14.825,14.825,0,0,1,.318-1.462.243.243,0,0,1,.231-.182h1.491a.243.243,0,0,1,.232.183Zm4.249-9.261a.24.24,0,0,1-.041-.292l.741-1.281a.243.243,0,0,1,.275-.111,14.943,14.943,0,0,1,1.433.458,1.866,1.866,0,0,0,1.639-.117l1.372-.79a1.864,1.864,0,0,0,.923-1.362,14.8,14.8,0,0,1,.318-1.462.243.243,0,0,1,.235-.183h1.485a.243.243,0,0,1,.235.183,14.811,14.811,0,0,1,.318,1.462,1.863,1.863,0,0,0,.923,1.362l1.372.79a1.865,1.865,0,0,0,1.639.117,15,15,0,0,1,1.433-.458.242.242,0,0,1,.275.111l.741,1.281a.24.24,0,0,1-.041.292,14.891,14.891,0,0,1-1.111,1.007,1.862,1.862,0,0,0-.72,1.479v1.578a1.862,1.862,0,0,0,.72,1.479,14.857,14.857,0,0,1,1.112,1.007.24.24,0,0,1,.041.292l-.741,1.281a.243.243,0,0,1-.275.111,14.993,14.993,0,0,1-1.433-.458,1.866,1.866,0,0,0-1.639.117l-1.372.79a1.864,1.864,0,0,0-.923,1.362h0a14.826,14.826,0,0,1-.318,1.462.243.243,0,0,1-.235.183H36.8a.243.243,0,0,1-.235-.183,14.837,14.837,0,0,1-.318-1.462,1.864,1.864,0,0,0-.923-1.362l-1.372-.79a1.865,1.865,0,0,0-1.639-.117,14.993,14.993,0,0,1-1.433.458.242.242,0,0,1-.275-.111l-.145-.251-.015-.025-.582-1a.24.24,0,0,1,.041-.292,14.92,14.92,0,0,1,1.112-1.007,1.862,1.862,0,0,0,.72-1.479V32.768a1.862,1.862,0,0,0-.72-1.479,14.867,14.867,0,0,1-1.112-1.007Zm2.3,39.1a.493.493,0,0,1-.492.492H24.281a.493.493,0,0,1-.492-.492v-.492h8.422Z" transform="translate(0 -23.501)" fill="#ffa726"/>
    <path id="Trazado_29292" data-name="Trazado 29292" d="M306.819,83.537a4.467,4.467,0,1,0-4.476-4.467A4.477,4.477,0,0,0,306.819,83.537Zm-1.278-1.945H308.1a2.833,2.833,0,0,1-2.557,0Zm1.278-5.348a2.834,2.834,0,0,1,2.835,2.826,2.8,2.8,0,0,1-.142.881h-5.387a2.824,2.824,0,0,1,2.694-3.707Z" transform="translate(-269.274 -69.014)" fill="#ffa726"/>
    <path id="Trazado_29293" data-name="Trazado 29293" d="M184.73,209.07a4.476,4.476,0,1,0,4.476-4.467,4.477,4.477,0,0,0-4.476,4.467Zm7.311,0a2.835,2.835,0,1,1-2.835-2.826,2.834,2.834,0,0,1,2.835,2.826Z" transform="translate(-164.525 -184.795)" fill="#ffa726"/>
  </g>
</svg>
